solid CATIA STL
  facet normal  0.000000e+000  1.000000e+000  0.000000e+000
    outer loop
      vertex  3.910000e+001  3.500000e+001  1.700000e+001
      vertex  4.910000e+001  3.500000e+001  1.700000e+001
      vertex  3.910000e+001  3.500000e+001 -4.000000e+000
    endloop
  endfacet
  facet normal  0.000000e+000  1.000000e+000  0.000000e+000
    outer loop
      vertex  3.910000e+001  3.500000e+001 -4.000000e+000
      vertex  4.910000e+001  3.500000e+001  1.700000e+001
      vertex  4.910000e+001  3.500000e+001 -4.000000e+000
    endloop
  endfacet
  facet normal  0.000000e+000  0.000000e+000 -9.999999e-001
    outer loop
      vertex  7.357214e+001  2.276393e+001 -4.000000e+000
      vertex  7.649749e+001  2.054849e+001 -4.000000e+000
      vertex -7.649749e+001  2.054849e+001 -4.000000e+000
    endloop
  endfacet
  facet normal  0.000000e+000  0.000000e+000 -1.000000e+000
    outer loop
      vertex  7.357214e+001  2.276393e+001 -4.000000e+000
      vertex -7.649749e+001  2.054849e+001 -4.000000e+000
      vertex -7.357214e+001  2.276393e+001 -4.000000e+000
    endloop
  endfacet
  facet normal  0.000000e+000  0.000000e+000 -1.000000e+000
    outer loop
      vertex  7.357214e+001  2.276393e+001 -4.000000e+000
      vertex -7.357214e+001  2.276393e+001 -4.000000e+000
      vertex -4.910000e+001  3.500000e+001 -4.000000e+000
    endloop
  endfacet
  facet normal  0.000000e+000  0.000000e+000 -1.000000e+000
    outer loop
      vertex  7.357214e+001  2.276393e+001 -4.000000e+000
      vertex -4.910000e+001  3.500000e+001 -4.000000e+000
      vertex -3.910000e+001  3.500000e+001 -4.000000e+000
    endloop
  endfacet
  facet normal  0.000000e+000  0.000000e+000 -9.999999e-001
    outer loop
      vertex  7.357214e+001  2.276393e+001 -4.000000e+000
      vertex -3.910000e+001  3.500000e+001 -4.000000e+000
      vertex  3.910000e+001  3.500000e+001 -4.000000e+000
    endloop
  endfacet
  facet normal  0.000000e+000  0.000000e+000 -1.000000e+000
    outer loop
      vertex  7.357214e+001  2.276393e+001 -4.000000e+000
      vertex  3.910000e+001  3.500000e+001 -4.000000e+000
      vertex  4.910000e+001  3.500000e+001 -4.000000e+000
    endloop
  endfacet
  facet normal  0.000000e+000  0.000000e+000 -1.000000e+000
    outer loop
      vertex  7.910000e+001  4.200000e+000 -4.000000e+000
      vertex  4.910000e+001  4.200000e+000 -4.000000e+000
      vertex  7.910000e+001  1.381966e+001 -4.000000e+000
    endloop
  endfacet
  facet normal  -0.000000e+000  0.000000e+000 -1.000000e+000
    outer loop
      vertex  7.910000e+001  1.381966e+001 -4.000000e+000
      vertex  4.910000e+001  4.200000e+000 -4.000000e+000
      vertex  4.910000e+001  1.500000e+001 -4.000000e+000
    endloop
  endfacet
  facet normal  0.000000e+000  0.000000e+000 -1.000000e+000
    outer loop
      vertex  7.910000e+001  1.381966e+001 -4.000000e+000
      vertex  4.910000e+001  1.500000e+001 -4.000000e+000
      vertex  7.842670e+001  1.742695e+001 -4.000000e+000
    endloop
  endfacet
  facet normal  0.000000e+000  0.000000e+000 -1.000000e+000
    outer loop
      vertex -4.910000e+001  4.200000e+000 -4.000000e+000
      vertex -7.910000e+001  4.200000e+000 -4.000000e+000
      vertex -4.910000e+001  1.500000e+001 -4.000000e+000
    endloop
  endfacet
  facet normal  0.000000e+000  0.000000e+000 -1.000000e+000
    outer loop
      vertex -4.910000e+001  1.500000e+001 -4.000000e+000
      vertex -7.910000e+001  4.200000e+000 -4.000000e+000
      vertex -7.910000e+001  1.381966e+001 -4.000000e+000
    endloop
  endfacet
  facet normal  0.000000e+000  0.000000e+000 -1.000000e+000
    outer loop
      vertex -4.910000e+001  1.500000e+001 -4.000000e+000
      vertex -7.910000e+001  1.381966e+001 -4.000000e+000
      vertex -7.842670e+001  1.742695e+001 -4.000000e+000
    endloop
  endfacet
  facet normal  0.000000e+000  0.000000e+000 -1.000000e+000
    outer loop
      vertex  4.910000e+001  1.500000e+001 -4.000000e+000
      vertex -4.910000e+001  1.500000e+001 -4.000000e+000
      vertex  7.842670e+001  1.742695e+001 -4.000000e+000
    endloop
  endfacet
  facet normal  -0.000000e+000  0.000000e+000 -1.000000e+000
    outer loop
      vertex  7.842670e+001  1.742695e+001 -4.000000e+000
      vertex -4.910000e+001  1.500000e+001 -4.000000e+000
      vertex -7.842670e+001  1.742695e+001 -4.000000e+000
    endloop
  endfacet
  facet normal  0.000000e+000  0.000000e+000 -9.999999e-001
    outer loop
      vertex  7.842670e+001  1.742695e+001 -4.000000e+000
      vertex -7.842670e+001  1.742695e+001 -4.000000e+000
      vertex  7.649749e+001  2.054849e+001 -4.000000e+000
    endloop
  endfacet
  facet normal  -0.000000e+000  0.000000e+000 -1.000000e+000
    outer loop
      vertex  7.649749e+001  2.054849e+001 -4.000000e+000
      vertex -7.842670e+001  1.742695e+001 -4.000000e+000
      vertex -7.649749e+001  2.054849e+001 -4.000000e+000
    endloop
  endfacet
  facet normal  -0.000000e+000  0.000000e+000 -1.000000e+000
    outer loop
      vertex -3.910000e+001  5.800000e+001 -4.000000e+000
      vertex  3.910000e+001  5.800000e+001 -4.000000e+000
      vertex -3.910000e+001  3.500000e+001 -4.000000e+000
    endloop
  endfacet
  facet normal  0.000000e+000  0.000000e+000 -1.000000e+000
    outer loop
      vertex -3.910000e+001  3.500000e+001 -4.000000e+000
      vertex  3.910000e+001  5.800000e+001 -4.000000e+000
      vertex  3.910000e+001  3.500000e+001 -4.000000e+000
    endloop
  endfacet
  facet normal  0.000000e+000  0.000000e+000  9.999999e-001
    outer loop
      vertex -7.357214e+001  2.276393e+001  1.700000e+001
      vertex -7.649749e+001  2.054849e+001  1.700000e+001
      vertex  7.649749e+001  2.054849e+001  1.700000e+001
    endloop
  endfacet
  facet normal  0.000000e+000  0.000000e+000  1.000000e+000
    outer loop
      vertex -7.357214e+001  2.276393e+001  1.700000e+001
      vertex  7.649749e+001  2.054849e+001  1.700000e+001
      vertex  7.357214e+001  2.276393e+001  1.700000e+001
    endloop
  endfacet
  facet normal  0.000000e+000  0.000000e+000  1.000000e+000
    outer loop
      vertex -7.357214e+001  2.276393e+001  1.700000e+001
      vertex  7.357214e+001  2.276393e+001  1.700000e+001
      vertex  4.910000e+001  3.500000e+001  1.700000e+001
    endloop
  endfacet
  facet normal  0.000000e+000  0.000000e+000  1.000000e+000
    outer loop
      vertex -7.357214e+001  2.276393e+001  1.700000e+001
      vertex  4.910000e+001  3.500000e+001  1.700000e+001
      vertex  3.910000e+001  3.500000e+001  1.700000e+001
    endloop
  endfacet
  facet normal  0.000000e+000  0.000000e+000  9.999999e-001
    outer loop
      vertex -7.357214e+001  2.276393e+001  1.700000e+001
      vertex  3.910000e+001  3.500000e+001  1.700000e+001
      vertex -3.910000e+001  3.500000e+001  1.700000e+001
    endloop
  endfacet
  facet normal  0.000000e+000  0.000000e+000  1.000000e+000
    outer loop
      vertex -7.357214e+001  2.276393e+001  1.700000e+001
      vertex -3.910000e+001  3.500000e+001  1.700000e+001
      vertex -4.910000e+001  3.500000e+001  1.700000e+001
    endloop
  endfacet
  facet normal  0.000000e+000  0.000000e+000  1.000000e+000
    outer loop
      vertex -7.910000e+001 -1.500000e+001  1.700000e+001
      vertex -4.910000e+001 -1.500000e+001  1.700000e+001
      vertex -7.910000e+001  1.381966e+001  1.700000e+001
    endloop
  endfacet
  facet normal  -0.000000e+000  0.000000e+000  1.000000e+000
    outer loop
      vertex -7.910000e+001  1.381966e+001  1.700000e+001
      vertex -4.910000e+001 -1.500000e+001  1.700000e+001
      vertex -4.910000e+001  1.500000e+001  1.700000e+001
    endloop
  endfacet
  facet normal  0.000000e+000  0.000000e+000  1.000000e+000
    outer loop
      vertex -7.910000e+001  1.381966e+001  1.700000e+001
      vertex -4.910000e+001  1.500000e+001  1.700000e+001
      vertex -7.842670e+001  1.742695e+001  1.700000e+001
    endloop
  endfacet
  facet normal  0.000000e+000  0.000000e+000  1.000000e+000
    outer loop
      vertex -3.910000e+001  3.500000e+001  1.700000e+001
      vertex  3.910000e+001  3.500000e+001  1.700000e+001
      vertex -3.910000e+001  5.500000e+001  1.700000e+001
    endloop
  endfacet
  facet normal  -0.000000e+000  0.000000e+000  1.000000e+000
    outer loop
      vertex -3.910000e+001  5.500000e+001  1.700000e+001
      vertex  3.910000e+001  3.500000e+001  1.700000e+001
      vertex  3.910000e+001  5.500000e+001  1.700000e+001
    endloop
  endfacet
  facet normal  -0.000000e+000  0.000000e+000  1.000000e+000
    outer loop
      vertex  7.649749e+001  2.054849e+001  1.700000e+001
      vertex -7.649749e+001  2.054849e+001  1.700000e+001
      vertex  7.842670e+001  1.742695e+001  1.700000e+001
    endloop
  endfacet
  facet normal  0.000000e+000  0.000000e+000  9.999999e-001
    outer loop
      vertex  7.842670e+001  1.742695e+001  1.700000e+001
      vertex -7.649749e+001  2.054849e+001  1.700000e+001
      vertex -7.842670e+001  1.742695e+001  1.700000e+001
    endloop
  endfacet
  facet normal  -0.000000e+000  0.000000e+000  1.000000e+000
    outer loop
      vertex  7.842670e+001  1.742695e+001  1.700000e+001
      vertex -7.842670e+001  1.742695e+001  1.700000e+001
      vertex  4.910000e+001  1.500000e+001  1.700000e+001
    endloop
  endfacet
  facet normal  0.000000e+000  0.000000e+000  1.000000e+000
    outer loop
      vertex  4.910000e+001  1.500000e+001  1.700000e+001
      vertex -7.842670e+001  1.742695e+001  1.700000e+001
      vertex -4.910000e+001  1.500000e+001  1.700000e+001
    endloop
  endfacet
  facet normal  0.000000e+000  0.000000e+000  1.000000e+000
    outer loop
      vertex  4.910000e+001 -1.500000e+001  1.700000e+001
      vertex  7.910000e+001 -1.500000e+001  1.700000e+001
      vertex  4.910000e+001  1.500000e+001  1.700000e+001
    endloop
  endfacet
  facet normal  0.000000e+000  0.000000e+000  1.000000e+000
    outer loop
      vertex  4.910000e+001  1.500000e+001  1.700000e+001
      vertex  7.910000e+001 -1.500000e+001  1.700000e+001
      vertex  7.910000e+001  1.381966e+001  1.700000e+001
    endloop
  endfacet
  facet normal  0.000000e+000  0.000000e+000  1.000000e+000
    outer loop
      vertex  4.910000e+001  1.500000e+001  1.700000e+001
      vertex  7.910000e+001  1.381966e+001  1.700000e+001
      vertex  7.842670e+001  1.742695e+001  1.700000e+001
    endloop
  endfacet
  facet normal  0.000000e+000  0.000000e+000 -1.000000e+000
    outer loop
      vertex  3.910000e+001  5.200000e+001  6.000000e+000
      vertex -3.910000e+001  5.200000e+001  6.000000e+000
      vertex  3.910000e+001  6.000000e+001  6.000000e+000
    endloop
  endfacet
  facet normal  -0.000000e+000  0.000000e+000 -1.000000e+000
    outer loop
      vertex  3.910000e+001  6.000000e+001  6.000000e+000
      vertex -3.910000e+001  5.200000e+001  6.000000e+000
      vertex -3.910000e+001  6.000000e+001  6.000000e+000
    endloop
  endfacet
  facet normal  0.000000e+000  1.000000e+000  0.000000e+000
    outer loop
      vertex  3.910000e+001  5.200000e+001  1.000000e+000
      vertex -3.910000e+001  5.200000e+001  1.000000e+000
      vertex  3.910000e+001  5.200000e+001  6.000000e+000
    endloop
  endfacet
  facet normal  0.000000e+000  1.000000e+000  0.000000e+000
    outer loop
      vertex  3.910000e+001  5.200000e+001  6.000000e+000
      vertex -3.910000e+001  5.200000e+001  1.000000e+000
      vertex -3.910000e+001  5.200000e+001  6.000000e+000
    endloop
  endfacet
  facet normal  -0.000000e+000  9.036929e-001  4.281813e-001
    outer loop
      vertex  3.910000e+001  4.763677e+001  8.768940e+000
      vertex -3.910000e+001  4.677672e+001  1.058411e+001
      vertex  3.910000e+001  4.677672e+001  1.058411e+001
    endloop
  endfacet
  facet normal  0.000000e+000  9.827810e-001 -1.847742e-001
    outer loop
      vertex  3.910000e+001  4.677672e+001  1.058411e+001
      vertex -3.910000e+001  4.677672e+001  1.058411e+001
      vertex -3.910000e+001  4.714786e+001  1.255813e+001
    endloop
  endfacet
  facet normal  0.000000e+000  9.827810e-001 -1.847742e-001
    outer loop
      vertex  3.910000e+001  4.677672e+001  1.058411e+001
      vertex -3.910000e+001  4.714786e+001  1.255813e+001
      vertex  3.910000e+001  4.714786e+001  1.255813e+001
    endloop
  endfacet
  facet normal  0.000000e+000  9.036929e-001  4.281813e-001
    outer loop
      vertex -3.910000e+001  4.677672e+001  1.058411e+001
      vertex  3.910000e+001  4.763677e+001  8.768940e+000
      vertex -3.910000e+001  4.763677e+001  8.768940e+000
    endloop
  endfacet
  facet normal  -0.000000e+000  4.794261e-001  8.775823e-001
    outer loop
      vertex -3.910000e+001  4.763677e+001  8.768940e+000
      vertex  3.910000e+001  4.763677e+001  8.768940e+000
      vertex  3.910000e+001  4.939949e+001  7.805961e+000
    endloop
  endfacet
  facet normal  0.000000e+000  4.794261e-001  8.775823e-001
    outer loop
      vertex -3.910000e+001  4.763677e+001  8.768940e+000
      vertex  3.910000e+001  4.939949e+001  7.805961e+000
      vertex -3.910000e+001  4.939949e+001  7.805961e+000
    endloop
  endfacet
  facet normal  0.000000e+000 -1.279663e-001  9.917786e-001
    outer loop
      vertex -3.910000e+001  4.939949e+001  7.805961e+000
      vertex  3.910000e+001  4.939949e+001  7.805961e+000
      vertex  3.910000e+001  5.139159e+001  8.062996e+000
    endloop
  endfacet
  facet normal  0.000000e+000 -1.279663e-001  9.917786e-001
    outer loop
      vertex -3.910000e+001  4.939949e+001  7.805961e+000
      vertex  3.910000e+001  5.139159e+001  8.062996e+000
      vertex -3.910000e+001  5.139159e+001  8.062996e+000
    endloop
  endfacet
  facet normal  0.000000e+000 -6.864806e-001  7.271481e-001
    outer loop
      vertex -3.910000e+001  5.139159e+001  8.062996e+000
      vertex  3.910000e+001  5.139159e+001  8.062996e+000
      vertex  3.910000e+001  5.285214e+001  9.441867e+000
    endloop
  endfacet
  facet normal  0.000000e+000 -6.864806e-001  7.271481e-001
    outer loop
      vertex -3.910000e+001  5.139159e+001  8.062996e+000
      vertex  3.910000e+001  5.285214e+001  9.441867e+000
      vertex -3.910000e+001  5.285214e+001  9.441867e+000
    endloop
  endfacet
  facet normal  0.000000e+000 -9.036929e-001 -4.281813e-001
    outer loop
      vertex  3.910000e+001  5.236323e+001  1.323106e+001
      vertex -3.910000e+001  5.322328e+001  1.141589e+001
      vertex  3.910000e+001  5.322328e+001  1.141589e+001
    endloop
  endfacet
  facet normal  0.000000e+000 -9.827810e-001  1.847742e-001
    outer loop
      vertex  3.910000e+001  5.322328e+001  1.141589e+001
      vertex -3.910000e+001  5.322328e+001  1.141589e+001
      vertex -3.910000e+001  5.285214e+001  9.441867e+000
    endloop
  endfacet
  facet normal  0.000000e+000 -9.827810e-001  1.847742e-001
    outer loop
      vertex  3.910000e+001  5.322328e+001  1.141589e+001
      vertex -3.910000e+001  5.285214e+001  9.441867e+000
      vertex  3.910000e+001  5.285214e+001  9.441867e+000
    endloop
  endfacet
  facet normal  -0.000000e+000 -9.036929e-001 -4.281813e-001
    outer loop
      vertex -3.910000e+001  5.322328e+001  1.141589e+001
      vertex  3.910000e+001  5.236323e+001  1.323106e+001
      vertex -3.910000e+001  5.236323e+001  1.323106e+001
    endloop
  endfacet
  facet normal  0.000000e+000 -4.794262e-001 -8.775821e-001
    outer loop
      vertex -3.910000e+001  5.236323e+001  1.323106e+001
      vertex  3.910000e+001  5.236323e+001  1.323106e+001
      vertex  3.910000e+001  5.060051e+001  1.419404e+001
    endloop
  endfacet
  facet normal  -0.000000e+000 -4.794262e-001 -8.775821e-001
    outer loop
      vertex -3.910000e+001  5.236323e+001  1.323106e+001
      vertex  3.910000e+001  5.060051e+001  1.419404e+001
      vertex -3.910000e+001  5.060051e+001  1.419404e+001
    endloop
  endfacet
  facet normal  0.000000e+000  1.279665e-001 -9.917786e-001
    outer loop
      vertex -3.910000e+001  5.060051e+001  1.419404e+001
      vertex  3.910000e+001  5.060051e+001  1.419404e+001
      vertex  3.910000e+001  4.860841e+001  1.393700e+001
    endloop
  endfacet
  facet normal  0.000000e+000  1.279665e-001 -9.917786e-001
    outer loop
      vertex -3.910000e+001  5.060051e+001  1.419404e+001
      vertex  3.910000e+001  4.860841e+001  1.393700e+001
      vertex -3.910000e+001  4.860841e+001  1.393700e+001
    endloop
  endfacet
  facet normal  0.000000e+000  6.864806e-001 -7.271481e-001
    outer loop
      vertex -3.910000e+001  4.860841e+001  1.393700e+001
      vertex  3.910000e+001  4.860841e+001  1.393700e+001
      vertex  3.910000e+001  4.714786e+001  1.255813e+001
    endloop
  endfacet
  facet normal  0.000000e+000  6.864806e-001 -7.271481e-001
    outer loop
      vertex -3.910000e+001  4.860841e+001  1.393700e+001
      vertex  3.910000e+001  4.714786e+001  1.255813e+001
      vertex -3.910000e+001  4.714786e+001  1.255813e+001
    endloop
  endfacet
  facet normal  0.000000e+000  1.000000e+000  0.000000e+000
    outer loop
      vertex  3.910000e+001  6.000000e+001  6.000000e+000
      vertex -3.910000e+001  6.000000e+001  6.000000e+000
      vertex  3.910000e+001  6.000000e+001  1.200000e+001
    endloop
  endfacet
  facet normal  0.000000e+000  1.000000e+000  0.000000e+000
    outer loop
      vertex  3.910000e+001  6.000000e+001  1.200000e+001
      vertex -3.910000e+001  6.000000e+001  6.000000e+000
      vertex -3.910000e+001  6.000000e+001  1.200000e+001
    endloop
  endfacet
  facet normal  0.000000e+000  1.000000e+000  0.000000e+000
    outer loop
      vertex  3.910000e+001  6.000000e+001 -2.000000e+000
      vertex -3.910000e+001  6.000000e+001 -2.000000e+000
      vertex  3.910000e+001  6.000000e+001  1.000000e+000
    endloop
  endfacet
  facet normal  0.000000e+000  1.000000e+000  0.000000e+000
    outer loop
      vertex  3.910000e+001  6.000000e+001  1.000000e+000
      vertex -3.910000e+001  6.000000e+001 -2.000000e+000
      vertex -3.910000e+001  6.000000e+001  1.000000e+000
    endloop
  endfacet
  facet normal  0.000000e+000  0.000000e+000  1.000000e+000
    outer loop
      vertex -3.910000e+001  5.200000e+001  1.000000e+000
      vertex  3.910000e+001  5.200000e+001  1.000000e+000
      vertex -3.910000e+001  6.000000e+001  1.000000e+000
    endloop
  endfacet
  facet normal  -0.000000e+000  0.000000e+000  1.000000e+000
    outer loop
      vertex -3.910000e+001  6.000000e+001  1.000000e+000
      vertex  3.910000e+001  5.200000e+001  1.000000e+000
      vertex  3.910000e+001  6.000000e+001  1.000000e+000
    endloop
  endfacet
  facet normal  -0.000000e+000  9.659258e-001  2.588188e-001
    outer loop
      vertex  3.910000e+001  6.000000e+001  1.200000e+001
      vertex -3.910000e+001  6.000000e+001  1.200000e+001
      vertex  3.910000e+001  5.933013e+001  1.450000e+001
    endloop
  endfacet
  facet normal  0.000000e+000  9.659258e-001  2.588188e-001
    outer loop
      vertex  3.910000e+001  5.933013e+001  1.450000e+001
      vertex -3.910000e+001  6.000000e+001  1.200000e+001
      vertex -3.910000e+001  5.933013e+001  1.450000e+001
    endloop
  endfacet
  facet normal  -0.000000e+000  7.071068e-001  7.071068e-001
    outer loop
      vertex  3.910000e+001  5.933013e+001  1.450000e+001
      vertex -3.910000e+001  5.933013e+001  1.450000e+001
      vertex  3.910000e+001  5.750000e+001  1.633013e+001
    endloop
  endfacet
  facet normal  0.000000e+000  7.071068e-001  7.071068e-001
    outer loop
      vertex  3.910000e+001  5.750000e+001  1.633013e+001
      vertex -3.910000e+001  5.933013e+001  1.450000e+001
      vertex -3.910000e+001  5.750000e+001  1.633013e+001
    endloop
  endfacet
  facet normal  -0.000000e+000  2.588188e-001  9.659258e-001
    outer loop
      vertex  3.910000e+001  5.750000e+001  1.633013e+001
      vertex -3.910000e+001  5.750000e+001  1.633013e+001
      vertex  3.910000e+001  5.500000e+001  1.700000e+001
    endloop
  endfacet
  facet normal  0.000000e+000  2.588188e-001  9.659258e-001
    outer loop
      vertex  3.910000e+001  5.500000e+001  1.700000e+001
      vertex -3.910000e+001  5.750000e+001  1.633013e+001
      vertex -3.910000e+001  5.500000e+001  1.700000e+001
    endloop
  endfacet
  facet normal  0.000000e+000  9.238799e-001 -3.826826e-001
    outer loop
      vertex -3.910000e+001  6.000000e+001 -2.000000e+000
      vertex  3.910000e+001  6.000000e+001 -2.000000e+000
      vertex -3.910000e+001  5.941422e+001 -3.414214e+000
    endloop
  endfacet
  facet normal  0.000000e+000  9.238799e-001 -3.826826e-001
    outer loop
      vertex -3.910000e+001  5.941422e+001 -3.414214e+000
      vertex  3.910000e+001  6.000000e+001 -2.000000e+000
      vertex  3.910000e+001  5.941422e+001 -3.414214e+000
    endloop
  endfacet
  facet normal  0.000000e+000  3.826831e-001 -9.238797e-001
    outer loop
      vertex -3.910000e+001  5.941422e+001 -3.414214e+000
      vertex  3.910000e+001  5.941422e+001 -3.414214e+000
      vertex -3.910000e+001  5.800000e+001 -4.000000e+000
    endloop
  endfacet
  facet normal  0.000000e+000  3.826831e-001 -9.238797e-001
    outer loop
      vertex -3.910000e+001  5.800000e+001 -4.000000e+000
      vertex  3.910000e+001  5.941422e+001 -3.414214e+000
      vertex  3.910000e+001  5.800000e+001 -4.000000e+000
    endloop
  endfacet
  facet normal  4.472136e-001  8.944272e-001  -0.000000e+000
    outer loop
      vertex  7.357214e+001  2.276393e+001  1.700000e+001
      vertex  7.357214e+001  2.276393e+001 -4.000000e+000
      vertex  4.910000e+001  3.500000e+001  1.700000e+001
    endloop
  endfacet
  facet normal  4.472136e-001  8.944272e-001  0.000000e+000
    outer loop
      vertex  4.910000e+001  3.500000e+001  1.700000e+001
      vertex  7.357214e+001  2.276393e+001 -4.000000e+000
      vertex  4.910000e+001  3.500000e+001 -4.000000e+000
    endloop
  endfacet
  facet normal  1.000000e+000  0.000000e+000  0.000000e+000
    outer loop
      vertex  3.910000e+001  4.763677e+001  8.768940e+000
      vertex  3.910000e+001  4.677672e+001  1.058411e+001
      vertex  3.910000e+001  3.500000e+001 -4.000000e+000
    endloop
  endfacet
  facet normal  1.000000e+000  0.000000e+000  0.000000e+000
    outer loop
      vertex  3.910000e+001  3.500000e+001  1.700000e+001
      vertex  3.910000e+001  3.500000e+001 -4.000000e+000
      vertex  3.910000e+001  4.677672e+001  1.058411e+001
    endloop
  endfacet
  facet normal  9.999999e-001  0.000000e+000  -0.000000e+000
    outer loop
      vertex  3.910000e+001  3.500000e+001  1.700000e+001
      vertex  3.910000e+001  4.677672e+001  1.058411e+001
      vertex  3.910000e+001  4.714786e+001  1.255813e+001
    endloop
  endfacet
  facet normal  1.000000e+000  0.000000e+000  -0.000000e+000
    outer loop
      vertex  3.910000e+001  3.500000e+001  1.700000e+001
      vertex  3.910000e+001  4.714786e+001  1.255813e+001
      vertex  3.910000e+001  4.860841e+001  1.393700e+001
    endloop
  endfacet
  facet normal  1.000000e+000  0.000000e+000  -0.000000e+000
    outer loop
      vertex  3.910000e+001  3.500000e+001  1.700000e+001
      vertex  3.910000e+001  4.860841e+001  1.393700e+001
      vertex  3.910000e+001  5.500000e+001  1.700000e+001
    endloop
  endfacet
  facet normal  1.000000e+000  0.000000e+000  0.000000e+000
    outer loop
      vertex  3.910000e+001  5.200000e+001  1.000000e+000
      vertex  3.910000e+001  5.200000e+001  6.000000e+000
      vertex  3.910000e+001  5.139159e+001  8.062996e+000
    endloop
  endfacet
  facet normal  1.000000e+000  0.000000e+000  0.000000e+000
    outer loop
      vertex  3.910000e+001  5.200000e+001  1.000000e+000
      vertex  3.910000e+001  5.139159e+001  8.062996e+000
      vertex  3.910000e+001  4.939949e+001  7.805961e+000
    endloop
  endfacet
  facet normal  1.000000e+000  0.000000e+000  0.000000e+000
    outer loop
      vertex  3.910000e+001  5.200000e+001  1.000000e+000
      vertex  3.910000e+001  4.939949e+001  7.805961e+000
      vertex  3.910000e+001  4.763677e+001  8.768940e+000
    endloop
  endfacet
  facet normal  9.999999e-001  0.000000e+000  0.000000e+000
    outer loop
      vertex  3.910000e+001  5.200000e+001  1.000000e+000
      vertex  3.910000e+001  4.763677e+001  8.768940e+000
      vertex  3.910000e+001  3.500000e+001 -4.000000e+000
    endloop
  endfacet
  facet normal  9.999999e-001  0.000000e+000  0.000000e+000
    outer loop
      vertex  3.910000e+001  5.200000e+001  1.000000e+000
      vertex  3.910000e+001  3.500000e+001 -4.000000e+000
      vertex  3.910000e+001  5.800000e+001 -4.000000e+000
    endloop
  endfacet
  facet normal  1.000000e+000  0.000000e+000  -0.000000e+000
    outer loop
      vertex  3.910000e+001  5.200000e+001  1.000000e+000
      vertex  3.910000e+001  5.800000e+001 -4.000000e+000
      vertex  3.910000e+001  6.000000e+001  1.000000e+000
    endloop
  endfacet
  facet normal  1.000000e+000  0.000000e+000  0.000000e+000
    outer loop
      vertex  3.910000e+001  5.500000e+001  1.700000e+001
      vertex  3.910000e+001  4.860841e+001  1.393700e+001
      vertex  3.910000e+001  5.060051e+001  1.419404e+001
    endloop
  endfacet
  facet normal  1.000000e+000  -0.000000e+000  0.000000e+000
    outer loop
      vertex  3.910000e+001  5.500000e+001  1.700000e+001
      vertex  3.910000e+001  5.060051e+001  1.419404e+001
      vertex  3.910000e+001  5.236323e+001  1.323106e+001
    endloop
  endfacet
  facet normal  1.000000e+000  -0.000000e+000  0.000000e+000
    outer loop
      vertex  3.910000e+001  5.500000e+001  1.700000e+001
      vertex  3.910000e+001  5.236323e+001  1.323106e+001
      vertex  3.910000e+001  5.322328e+001  1.141589e+001
    endloop
  endfacet
  facet normal  1.000000e+000  0.000000e+000  0.000000e+000
    outer loop
      vertex  3.910000e+001  5.500000e+001  1.700000e+001
      vertex  3.910000e+001  5.322328e+001  1.141589e+001
      vertex  3.910000e+001  5.933013e+001  1.450000e+001
    endloop
  endfacet
  facet normal  1.000000e+000  0.000000e+000  0.000000e+000
    outer loop
      vertex  3.910000e+001  5.500000e+001  1.700000e+001
      vertex  3.910000e+001  5.933013e+001  1.450000e+001
      vertex  3.910000e+001  5.750000e+001  1.633013e+001
    endloop
  endfacet
  facet normal  1.000000e+000  0.000000e+000  0.000000e+000
    outer loop
      vertex  3.910000e+001  5.285214e+001  9.441867e+000
      vertex  3.910000e+001  6.000000e+001  6.000000e+000
      vertex  3.910000e+001  5.322328e+001  1.141589e+001
    endloop
  endfacet
  facet normal  1.000000e+000  -0.000000e+000  0.000000e+000
    outer loop
      vertex  3.910000e+001  5.322328e+001  1.141589e+001
      vertex  3.910000e+001  6.000000e+001  6.000000e+000
      vertex  3.910000e+001  6.000000e+001  1.200000e+001
    endloop
  endfacet
  facet normal  1.000000e+000  0.000000e+000  0.000000e+000
    outer loop
      vertex  3.910000e+001  5.322328e+001  1.141589e+001
      vertex  3.910000e+001  6.000000e+001  1.200000e+001
      vertex  3.910000e+001  5.933013e+001  1.450000e+001
    endloop
  endfacet
  facet normal  1.000000e+000  0.000000e+000  0.000000e+000
    outer loop
      vertex  3.910000e+001  6.000000e+001  6.000000e+000
      vertex  3.910000e+001  5.285214e+001  9.441867e+000
      vertex  3.910000e+001  5.200000e+001  6.000000e+000
    endloop
  endfacet
  facet normal  1.000000e+000  0.000000e+000  -0.000000e+000
    outer loop
      vertex  3.910000e+001  5.200000e+001  6.000000e+000
      vertex  3.910000e+001  5.285214e+001  9.441867e+000
      vertex  3.910000e+001  5.139159e+001  8.062996e+000
    endloop
  endfacet
  facet normal  1.000000e+000  0.000000e+000  0.000000e+000
    outer loop
      vertex  3.910000e+001  6.000000e+001  1.000000e+000
      vertex  3.910000e+001  5.800000e+001 -4.000000e+000
      vertex  3.910000e+001  6.000000e+001 -2.000000e+000
    endloop
  endfacet
  facet normal  1.000000e+000  0.000000e+000  0.000000e+000
    outer loop
      vertex  3.910000e+001  6.000000e+001 -2.000000e+000
      vertex  3.910000e+001  5.800000e+001 -4.000000e+000
      vertex  3.910000e+001  5.941422e+001 -3.414214e+000
    endloop
  endfacet
  facet normal  0.000000e+000  1.000000e+000  0.000000e+000
    outer loop
      vertex -4.910000e+001  3.500000e+001  1.700000e+001
      vertex -3.910000e+001  3.500000e+001  1.700000e+001
      vertex -4.910000e+001  3.500000e+001 -4.000000e+000
    endloop
  endfacet
  facet normal  0.000000e+000  1.000000e+000  0.000000e+000
    outer loop
      vertex -4.910000e+001  3.500000e+001 -4.000000e+000
      vertex -3.910000e+001  3.500000e+001  1.700000e+001
      vertex -3.910000e+001  3.500000e+001 -4.000000e+000
    endloop
  endfacet
  facet normal -4.472136e-001  8.944272e-001  0.000000e+000
    outer loop
      vertex -7.357214e+001  2.276393e+001  1.700000e+001
      vertex -4.910000e+001  3.500000e+001  1.700000e+001
      vertex -7.357214e+001  2.276393e+001 -4.000000e+000
    endloop
  endfacet
  facet normal -4.472136e-001  8.944272e-001  0.000000e+000
    outer loop
      vertex -7.357214e+001  2.276393e+001 -4.000000e+000
      vertex -4.910000e+001  3.500000e+001  1.700000e+001
      vertex -4.910000e+001  3.500000e+001 -4.000000e+000
    endloop
  endfacet
  facet normal -1.000000e+000  0.000000e+000  -0.000000e+000
    outer loop
      vertex -3.910000e+001  3.500000e+001 -4.000000e+000
      vertex -3.910000e+001  4.677672e+001  1.058411e+001
      vertex -3.910000e+001  4.763677e+001  8.768940e+000
    endloop
  endfacet
  facet normal -1.000000e+000  -0.000000e+000  0.000000e+000
    outer loop
      vertex -3.910000e+001  3.500000e+001  1.700000e+001
      vertex -3.910000e+001  5.500000e+001  1.700000e+001
      vertex -3.910000e+001  4.860841e+001  1.393700e+001
    endloop
  endfacet
  facet normal -1.000000e+000  -0.000000e+000  0.000000e+000
    outer loop
      vertex -3.910000e+001  3.500000e+001  1.700000e+001
      vertex -3.910000e+001  4.860841e+001  1.393700e+001
      vertex -3.910000e+001  4.714786e+001  1.255813e+001
    endloop
  endfacet
  facet normal -9.999999e-001  -0.000000e+000  0.000000e+000
    outer loop
      vertex -3.910000e+001  3.500000e+001  1.700000e+001
      vertex -3.910000e+001  4.714786e+001  1.255813e+001
      vertex -3.910000e+001  4.677672e+001  1.058411e+001
    endloop
  endfacet
  facet normal -1.000000e+000  -0.000000e+000  0.000000e+000
    outer loop
      vertex -3.910000e+001  3.500000e+001  1.700000e+001
      vertex -3.910000e+001  4.677672e+001  1.058411e+001
      vertex -3.910000e+001  3.500000e+001 -4.000000e+000
    endloop
  endfacet
  facet normal -1.000000e+000  -0.000000e+000  0.000000e+000
    outer loop
      vertex -3.910000e+001  5.200000e+001  1.000000e+000
      vertex -3.910000e+001  6.000000e+001  1.000000e+000
      vertex -3.910000e+001  5.800000e+001 -4.000000e+000
    endloop
  endfacet
  facet normal -9.999999e-001  0.000000e+000  0.000000e+000
    outer loop
      vertex -3.910000e+001  5.200000e+001  1.000000e+000
      vertex -3.910000e+001  5.800000e+001 -4.000000e+000
      vertex -3.910000e+001  3.500000e+001 -4.000000e+000
    endloop
  endfacet
  facet normal -9.999999e-001  0.000000e+000  0.000000e+000
    outer loop
      vertex -3.910000e+001  5.200000e+001  1.000000e+000
      vertex -3.910000e+001  3.500000e+001 -4.000000e+000
      vertex -3.910000e+001  4.763677e+001  8.768940e+000
    endloop
  endfacet
  facet normal -1.000000e+000  0.000000e+000  0.000000e+000
    outer loop
      vertex -3.910000e+001  5.200000e+001  1.000000e+000
      vertex -3.910000e+001  4.763677e+001  8.768940e+000
      vertex -3.910000e+001  4.939949e+001  7.805961e+000
    endloop
  endfacet
  facet normal -1.000000e+000  0.000000e+000  0.000000e+000
    outer loop
      vertex -3.910000e+001  5.200000e+001  1.000000e+000
      vertex -3.910000e+001  4.939949e+001  7.805961e+000
      vertex -3.910000e+001  5.139159e+001  8.062996e+000
    endloop
  endfacet
  facet normal -1.000000e+000  0.000000e+000  0.000000e+000
    outer loop
      vertex -3.910000e+001  5.200000e+001  1.000000e+000
      vertex -3.910000e+001  5.139159e+001  8.062996e+000
      vertex -3.910000e+001  5.200000e+001  6.000000e+000
    endloop
  endfacet
  facet normal -1.000000e+000  -0.000000e+000  -0.000000e+000
    outer loop
      vertex -3.910000e+001  5.500000e+001  1.700000e+001
      vertex -3.910000e+001  5.750000e+001  1.633013e+001
      vertex -3.910000e+001  5.933013e+001  1.450000e+001
    endloop
  endfacet
  facet normal -1.000000e+000  -0.000000e+000  0.000000e+000
    outer loop
      vertex -3.910000e+001  5.500000e+001  1.700000e+001
      vertex -3.910000e+001  5.933013e+001  1.450000e+001
      vertex -3.910000e+001  5.322328e+001  1.141589e+001
    endloop
  endfacet
  facet normal -1.000000e+000  0.000000e+000  0.000000e+000
    outer loop
      vertex -3.910000e+001  5.500000e+001  1.700000e+001
      vertex -3.910000e+001  5.322328e+001  1.141589e+001
      vertex -3.910000e+001  5.236323e+001  1.323106e+001
    endloop
  endfacet
  facet normal -1.000000e+000  0.000000e+000  0.000000e+000
    outer loop
      vertex -3.910000e+001  5.500000e+001  1.700000e+001
      vertex -3.910000e+001  5.236323e+001  1.323106e+001
      vertex -3.910000e+001  5.060051e+001  1.419404e+001
    endloop
  endfacet
  facet normal -1.000000e+000  -0.000000e+000  0.000000e+000
    outer loop
      vertex -3.910000e+001  5.500000e+001  1.700000e+001
      vertex -3.910000e+001  5.060051e+001  1.419404e+001
      vertex -3.910000e+001  4.860841e+001  1.393700e+001
    endloop
  endfacet
  facet normal -1.000000e+000  -0.000000e+000  0.000000e+000
    outer loop
      vertex -3.910000e+001  5.933013e+001  1.450000e+001
      vertex -3.910000e+001  6.000000e+001  1.200000e+001
      vertex -3.910000e+001  5.322328e+001  1.141589e+001
    endloop
  endfacet
  facet normal -1.000000e+000  0.000000e+000  0.000000e+000
    outer loop
      vertex -3.910000e+001  5.322328e+001  1.141589e+001
      vertex -3.910000e+001  6.000000e+001  1.200000e+001
      vertex -3.910000e+001  6.000000e+001  6.000000e+000
    endloop
  endfacet
  facet normal -1.000000e+000  0.000000e+000  0.000000e+000
    outer loop
      vertex -3.910000e+001  5.322328e+001  1.141589e+001
      vertex -3.910000e+001  6.000000e+001  6.000000e+000
      vertex -3.910000e+001  5.285214e+001  9.441867e+000
    endloop
  endfacet
  facet normal -1.000000e+000  0.000000e+000  0.000000e+000
    outer loop
      vertex -3.910000e+001  6.000000e+001  6.000000e+000
      vertex -3.910000e+001  5.200000e+001  6.000000e+000
      vertex -3.910000e+001  5.285214e+001  9.441867e+000
    endloop
  endfacet
  facet normal -1.000000e+000  0.000000e+000  0.000000e+000
    outer loop
      vertex -3.910000e+001  5.285214e+001  9.441867e+000
      vertex -3.910000e+001  5.200000e+001  6.000000e+000
      vertex -3.910000e+001  5.139159e+001  8.062996e+000
    endloop
  endfacet
  facet normal -1.000000e+000  -0.000000e+000  0.000000e+000
    outer loop
      vertex -3.910000e+001  6.000000e+001  1.000000e+000
      vertex -3.910000e+001  6.000000e+001 -2.000000e+000
      vertex -3.910000e+001  5.800000e+001 -4.000000e+000
    endloop
  endfacet
  facet normal -1.000000e+000  0.000000e+000  0.000000e+000
    outer loop
      vertex -3.910000e+001  5.800000e+001 -4.000000e+000
      vertex -3.910000e+001  6.000000e+001 -2.000000e+000
      vertex -3.910000e+001  5.941422e+001 -3.414214e+000
    endloop
  endfacet
  facet normal  0.000000e+000 -1.000000e+000  0.000000e+000
    outer loop
      vertex -4.910000e+001  1.500000e+001  1.700000e+001
      vertex -4.910000e+001  1.500000e+001 -4.000000e+000
      vertex  4.910000e+001  1.500000e+001  1.700000e+001
    endloop
  endfacet
  facet normal  0.000000e+000 -1.000000e+000  -0.000000e+000
    outer loop
      vertex  4.910000e+001  1.500000e+001  1.700000e+001
      vertex -4.910000e+001  1.500000e+001 -4.000000e+000
      vertex  4.910000e+001  1.500000e+001 -4.000000e+000
    endloop
  endfacet
  facet normal  1.000000e+000  0.000000e+000  0.000000e+000
    outer loop
      vertex -4.910000e+001 -1.500000e+001  1.700000e+001
      vertex -4.910000e+001 -1.500000e+001  0.000000e+000
      vertex -4.910000e+001  1.500000e+001  1.700000e+001
    endloop
  endfacet
  facet normal  1.000000e+000  0.000000e+000  0.000000e+000
    outer loop
      vertex -4.910000e+001  1.500000e+001  1.700000e+001
      vertex -4.910000e+001 -1.500000e+001  0.000000e+000
      vertex -4.910000e+001  4.200000e+000  0.000000e+000
    endloop
  endfacet
  facet normal  1.000000e+000  -0.000000e+000  0.000000e+000
    outer loop
      vertex -4.910000e+001  1.500000e+001  1.700000e+001
      vertex -4.910000e+001  4.200000e+000  0.000000e+000
      vertex -4.910000e+001  1.500000e+001 -4.000000e+000
    endloop
  endfacet
  facet normal  1.000000e+000  0.000000e+000  0.000000e+000
    outer loop
      vertex -4.910000e+001  1.500000e+001 -4.000000e+000
      vertex -4.910000e+001  4.200000e+000  0.000000e+000
      vertex -4.910000e+001  4.200000e+000 -4.000000e+000
    endloop
  endfacet
  facet normal -1.000000e+000  -0.000000e+000  0.000000e+000
    outer loop
      vertex  4.910000e+001 -1.500000e+001  1.700000e+001
      vertex  4.910000e+001  1.500000e+001  1.700000e+001
      vertex  4.910000e+001 -1.500000e+001  0.000000e+000
    endloop
  endfacet
  facet normal -1.000000e+000  0.000000e+000  0.000000e+000
    outer loop
      vertex  4.910000e+001 -1.500000e+001  0.000000e+000
      vertex  4.910000e+001  1.500000e+001  1.700000e+001
      vertex  4.910000e+001  4.200000e+000  0.000000e+000
    endloop
  endfacet
  facet normal -1.000000e+000  0.000000e+000  0.000000e+000
    outer loop
      vertex  4.910000e+001  1.500000e+001  1.700000e+001
      vertex  4.910000e+001  1.500000e+001 -4.000000e+000
      vertex  4.910000e+001  4.200000e+000  0.000000e+000
    endloop
  endfacet
  facet normal -1.000000e+000  0.000000e+000  0.000000e+000
    outer loop
      vertex  4.910000e+001  4.200000e+000  0.000000e+000
      vertex  4.910000e+001  1.500000e+001 -4.000000e+000
      vertex  4.910000e+001  4.200000e+000 -4.000000e+000
    endloop
  endfacet
  facet normal  1.000000e+000  0.000000e+000  0.000000e+000
    outer loop
      vertex  7.910000e+001 -1.500000e+001  0.000000e+000
      vertex  7.910000e+001  4.200000e+000  0.000000e+000
      vertex  7.910000e+001 -1.500000e+001  1.700000e+001
    endloop
  endfacet
  facet normal  1.000000e+000  -0.000000e+000  0.000000e+000
    outer loop
      vertex  7.910000e+001 -1.500000e+001  1.700000e+001
      vertex  7.910000e+001  4.200000e+000  0.000000e+000
      vertex  7.910000e+001  1.381966e+001  1.700000e+001
    endloop
  endfacet
  facet normal  1.000000e+000  0.000000e+000  0.000000e+000
    outer loop
      vertex  7.910000e+001  4.200000e+000  0.000000e+000
      vertex  7.910000e+001  4.200000e+000 -4.000000e+000
      vertex  7.910000e+001  1.381966e+001  1.700000e+001
    endloop
  endfacet
  facet normal  1.000000e+000  0.000000e+000  0.000000e+000
    outer loop
      vertex  7.910000e+001  1.381966e+001  1.700000e+001
      vertex  7.910000e+001  4.200000e+000 -4.000000e+000
      vertex  7.910000e+001  1.381966e+001 -4.000000e+000
    endloop
  endfacet
  facet normal  6.037301e-001  7.971888e-001  0.000000e+000
    outer loop
      vertex  7.357214e+001  2.276393e+001 -4.000000e+000
      vertex  7.357214e+001  2.276393e+001  1.700000e+001
      vertex  7.649749e+001  2.054849e+001 -4.000000e+000
    endloop
  endfacet
  facet normal  6.037301e-001  7.971888e-001  -0.000000e+000
    outer loop
      vertex  7.649749e+001  2.054849e+001 -4.000000e+000
      vertex  7.357214e+001  2.276393e+001  1.700000e+001
      vertex  7.649749e+001  2.054849e+001  1.700000e+001
    endloop
  endfacet
  facet normal  8.506511e-001  5.257307e-001  0.000000e+000
    outer loop
      vertex  7.649749e+001  2.054849e+001 -4.000000e+000
      vertex  7.649749e+001  2.054849e+001  1.700000e+001
      vertex  7.842670e+001  1.742695e+001 -4.000000e+000
    endloop
  endfacet
  facet normal  8.506511e-001  5.257307e-001  -0.000000e+000
    outer loop
      vertex  7.842670e+001  1.742695e+001 -4.000000e+000
      vertex  7.649749e+001  2.054849e+001  1.700000e+001
      vertex  7.842670e+001  1.742695e+001  1.700000e+001
    endloop
  endfacet
  facet normal  9.830236e-001  1.834794e-001  0.000000e+000
    outer loop
      vertex  7.842670e+001  1.742695e+001 -4.000000e+000
      vertex  7.842670e+001  1.742695e+001  1.700000e+001
      vertex  7.910000e+001  1.381966e+001 -4.000000e+000
    endloop
  endfacet
  facet normal  9.830236e-001  1.834794e-001  -0.000000e+000
    outer loop
      vertex  7.910000e+001  1.381966e+001 -4.000000e+000
      vertex  7.842670e+001  1.742695e+001  1.700000e+001
      vertex  7.910000e+001  1.381966e+001  1.700000e+001
    endloop
  endfacet
  facet normal -1.000000e+000  0.000000e+000  0.000000e+000
    outer loop
      vertex -7.910000e+001 -1.500000e+001  0.000000e+000
      vertex -7.910000e+001 -1.500000e+001  1.700000e+001
      vertex -7.910000e+001  4.200000e+000  0.000000e+000
    endloop
  endfacet
  facet normal -1.000000e+000  0.000000e+000  0.000000e+000
    outer loop
      vertex -7.910000e+001  4.200000e+000  0.000000e+000
      vertex -7.910000e+001 -1.500000e+001  1.700000e+001
      vertex -7.910000e+001  1.381966e+001  1.700000e+001
    endloop
  endfacet
  facet normal -1.000000e+000  0.000000e+000  0.000000e+000
    outer loop
      vertex -7.910000e+001  4.200000e+000  0.000000e+000
      vertex -7.910000e+001  1.381966e+001  1.700000e+001
      vertex -7.910000e+001  4.200000e+000 -4.000000e+000
    endloop
  endfacet
  facet normal -1.000000e+000  0.000000e+000  0.000000e+000
    outer loop
      vertex -7.910000e+001  4.200000e+000 -4.000000e+000
      vertex -7.910000e+001  1.381966e+001  1.700000e+001
      vertex -7.910000e+001  1.381966e+001 -4.000000e+000
    endloop
  endfacet
  facet normal -9.830236e-001  1.834794e-001  0.000000e+000
    outer loop
      vertex -7.910000e+001  1.381966e+001 -4.000000e+000
      vertex -7.910000e+001  1.381966e+001  1.700000e+001
      vertex -7.842670e+001  1.742695e+001 -4.000000e+000
    endloop
  endfacet
  facet normal -9.830236e-001  1.834794e-001  0.000000e+000
    outer loop
      vertex -7.842670e+001  1.742695e+001 -4.000000e+000
      vertex -7.910000e+001  1.381966e+001  1.700000e+001
      vertex -7.842670e+001  1.742695e+001  1.700000e+001
    endloop
  endfacet
  facet normal -8.506511e-001  5.257307e-001  0.000000e+000
    outer loop
      vertex -7.842670e+001  1.742695e+001 -4.000000e+000
      vertex -7.842670e+001  1.742695e+001  1.700000e+001
      vertex -7.649749e+001  2.054849e+001 -4.000000e+000
    endloop
  endfacet
  facet normal -8.506511e-001  5.257307e-001  0.000000e+000
    outer loop
      vertex -7.649749e+001  2.054849e+001 -4.000000e+000
      vertex -7.842670e+001  1.742695e+001  1.700000e+001
      vertex -7.649749e+001  2.054849e+001  1.700000e+001
    endloop
  endfacet
  facet normal -6.037301e-001  7.971888e-001  0.000000e+000
    outer loop
      vertex -7.649749e+001  2.054849e+001 -4.000000e+000
      vertex -7.649749e+001  2.054849e+001  1.700000e+001
      vertex -7.357214e+001  2.276393e+001 -4.000000e+000
    endloop
  endfacet
  facet normal -6.037301e-001  7.971888e-001  0.000000e+000
    outer loop
      vertex -7.357214e+001  2.276393e+001 -4.000000e+000
      vertex -7.649749e+001  2.054849e+001  1.700000e+001
      vertex -7.357214e+001  2.276393e+001  1.700000e+001
    endloop
  endfacet
  facet normal  0.000000e+000 -1.000000e+000  0.000000e+000
    outer loop
      vertex  7.910000e+001 -1.500000e+001  1.700000e+001
      vertex  4.910000e+001 -1.500000e+001  1.700000e+001
      vertex  7.910000e+001 -1.500000e+001  0.000000e+000
    endloop
  endfacet
  facet normal  0.000000e+000 -1.000000e+000  0.000000e+000
    outer loop
      vertex  7.910000e+001 -1.500000e+001  0.000000e+000
      vertex  4.910000e+001 -1.500000e+001  1.700000e+001
      vertex  4.910000e+001 -1.500000e+001  0.000000e+000
    endloop
  endfacet
  facet normal  0.000000e+000 -1.000000e+000  0.000000e+000
    outer loop
      vertex  4.910000e+001  4.200000e+000 -4.000000e+000
      vertex  7.910000e+001  4.200000e+000 -4.000000e+000
      vertex  4.910000e+001  4.200000e+000  0.000000e+000
    endloop
  endfacet
  facet normal  0.000000e+000 -1.000000e+000  0.000000e+000
    outer loop
      vertex  4.910000e+001  4.200000e+000  0.000000e+000
      vertex  7.910000e+001  4.200000e+000 -4.000000e+000
      vertex  7.910000e+001  4.200000e+000  0.000000e+000
    endloop
  endfacet
  facet normal  0.000000e+000 -1.000000e+000  0.000000e+000
    outer loop
      vertex -4.910000e+001 -1.500000e+001  1.700000e+001
      vertex -7.910000e+001 -1.500000e+001  1.700000e+001
      vertex -4.910000e+001 -1.500000e+001  0.000000e+000
    endloop
  endfacet
  facet normal  0.000000e+000 -1.000000e+000  0.000000e+000
    outer loop
      vertex -4.910000e+001 -1.500000e+001  0.000000e+000
      vertex -7.910000e+001 -1.500000e+001  1.700000e+001
      vertex -7.910000e+001 -1.500000e+001  0.000000e+000
    endloop
  endfacet
  facet normal  0.000000e+000 -1.000000e+000  0.000000e+000
    outer loop
      vertex -7.910000e+001  4.200000e+000 -4.000000e+000
      vertex -4.910000e+001  4.200000e+000 -4.000000e+000
      vertex -7.910000e+001  4.200000e+000  0.000000e+000
    endloop
  endfacet
  facet normal  0.000000e+000 -1.000000e+000  0.000000e+000
    outer loop
      vertex -7.910000e+001  4.200000e+000  0.000000e+000
      vertex -4.910000e+001  4.200000e+000 -4.000000e+000
      vertex -4.910000e+001  4.200000e+000  0.000000e+000
    endloop
  endfacet
  facet normal  0.000000e+000  0.000000e+000 -1.000000e+000
    outer loop
      vertex  4.910000e+001 -1.500000e+001  0.000000e+000
      vertex  4.910000e+001  4.200000e+000  0.000000e+000
      vertex  7.910000e+001 -1.500000e+001  0.000000e+000
    endloop
  endfacet
  facet normal  0.000000e+000  0.000000e+000 -1.000000e+000
    outer loop
      vertex  7.910000e+001 -1.500000e+001  0.000000e+000
      vertex  4.910000e+001  4.200000e+000  0.000000e+000
      vertex  7.910000e+001  4.200000e+000  0.000000e+000
    endloop
  endfacet
  facet normal  0.000000e+000  0.000000e+000 -1.000000e+000
    outer loop
      vertex -7.910000e+001 -1.500000e+001  0.000000e+000
      vertex -7.910000e+001  4.200000e+000  0.000000e+000
      vertex -4.910000e+001 -1.500000e+001  0.000000e+000
    endloop
  endfacet
  facet normal  0.000000e+000  0.000000e+000 -1.000000e+000
    outer loop
      vertex -4.910000e+001 -1.500000e+001  0.000000e+000
      vertex -7.910000e+001  4.200000e+000  0.000000e+000
      vertex -4.910000e+001  4.200000e+000  0.000000e+000
    endloop
  endfacet
endsolid CATIA STL
