solid CATIA STL
  facet normal  0.000000e+000  0.000000e+000 -1.000000e+000
    outer loop
      vertex -2.373156e+000  4.344034e+000  0.000000e+000
      vertex -4.227231e+000  2.575465e+000  0.000000e+000
      vertex -1.500000e+001  1.000000e+001  0.000000e+000
    endloop
  endfacet
  facet normal  -0.000000e+000  0.000000e+000 -1.000000e+000
    outer loop
      vertex  2.373156e+000 -4.344034e+000  0.000000e+000
      vertex  1.500000e+001 -1.000000e+001  0.000000e+000
      vertex  1.433013e+001 -1.250000e+001  0.000000e+000
    endloop
  endfacet
  facet normal  -0.000000e+000  0.000000e+000 -1.000000e+000
    outer loop
      vertex  2.373156e+000 -4.344034e+000  0.000000e+000
      vertex  1.433013e+001 -1.250000e+001  0.000000e+000
      vertex  1.250000e+001 -1.433013e+001  0.000000e+000
    endloop
  endfacet
  facet normal  -0.000000e+000  0.000000e+000 -9.999999e-001
    outer loop
      vertex  2.373156e+000 -4.344034e+000  0.000000e+000
      vertex  1.250000e+001 -1.433013e+001  0.000000e+000
      vertex  1.000000e+001 -1.500000e+001  0.000000e+000
    endloop
  endfacet
  facet normal  0.000000e+000  0.000000e+000 -1.000000e+000
    outer loop
      vertex -1.500000e+001 -1.000000e+001  0.000000e+000
      vertex -1.500000e+001  1.000000e+001  0.000000e+000
      vertex -4.227231e+000  2.575465e+000  0.000000e+000
    endloop
  endfacet
  facet normal  0.000000e+000  0.000000e+000 -1.000000e+000
    outer loop
      vertex -1.500000e+001 -1.000000e+001  0.000000e+000
      vertex -4.227231e+000  2.575465e+000  0.000000e+000
      vertex -4.948622e+000  1.168031e-001  0.000000e+000
    endloop
  endfacet
  facet normal -2.704831e-017  2.687339e-017 -1.000000e+000
    outer loop
      vertex -1.500000e+001 -1.000000e+001  0.000000e+000
      vertex -4.948622e+000  1.168031e-001  0.000000e+000
      vertex -4.344034e+000 -2.373156e+000 -8.326673e-017
    endloop
  endfacet
  facet normal  1.445847e-017 -3.111846e-017 -1.000000e+000
    outer loop
      vertex -1.500000e+001 -1.000000e+001  0.000000e+000
      vertex -4.344034e+000 -2.373156e+000 -8.326673e-017
      vertex -2.575465e+000 -4.227231e+000  0.000000e+000
    endloop
  endfacet
  facet normal  0.000000e+000  -0.000000e+000 -1.000000e+000
    outer loop
      vertex -1.500000e+001 -1.000000e+001  0.000000e+000
      vertex -2.575465e+000 -4.227231e+000  0.000000e+000
      vertex -1.168031e-001 -4.948622e+000  0.000000e+000
    endloop
  endfacet
  facet normal  0.000000e+000  0.000000e+000 -1.000000e+000
    outer loop
      vertex  1.500000e+001 -1.000000e+001  0.000000e+000
      vertex  2.373156e+000 -4.344034e+000  0.000000e+000
      vertex  4.227231e+000 -2.575465e+000  0.000000e+000
    endloop
  endfacet
  facet normal  0.000000e+000  0.000000e+000 -1.000000e+000
    outer loop
      vertex  1.500000e+001 -1.000000e+001  0.000000e+000
      vertex  4.227231e+000 -2.575465e+000  0.000000e+000
      vertex  4.948622e+000 -1.168031e-001  0.000000e+000
    endloop
  endfacet
  facet normal -4.319390e-017 -4.392893e-017 -1.000000e+000
    outer loop
      vertex  1.500000e+001 -1.000000e+001  0.000000e+000
      vertex  4.948622e+000 -1.168031e-001  0.000000e+000
      vertex  4.344034e+000  2.373156e+000 -8.326673e-017
    endloop
  endfacet
  facet normal  7.814095e-018  0.000000e+000 -1.000000e+000
    outer loop
      vertex  1.500000e+001  1.000000e+001  0.000000e+000
      vertex  1.500000e+001 -1.000000e+001  0.000000e+000
      vertex  4.344034e+000  2.373156e+000 -8.326673e-017
    endloop
  endfacet
  facet normal -1.445847e-017  3.111846e-017 -1.000000e+000
    outer loop
      vertex  1.500000e+001  1.000000e+001  0.000000e+000
      vertex  4.344034e+000  2.373156e+000 -8.326673e-017
      vertex  2.575465e+000  4.227231e+000  0.000000e+000
    endloop
  endfacet
  facet normal  0.000000e+000  0.000000e+000 -1.000000e+000
    outer loop
      vertex  1.500000e+001  1.000000e+001  0.000000e+000
      vertex  2.575465e+000  4.227231e+000  0.000000e+000
      vertex  1.168031e-001  4.948622e+000  0.000000e+000
    endloop
  endfacet
  facet normal  0.000000e+000  0.000000e+000 -1.000000e+000
    outer loop
      vertex  1.168031e-001  4.948622e+000  0.000000e+000
      vertex -1.000000e+001  1.500000e+001  0.000000e+000
      vertex  1.000000e+001  1.500000e+001  0.000000e+000
    endloop
  endfacet
  facet normal  0.000000e+000  -0.000000e+000 -1.000000e+000
    outer loop
      vertex  1.168031e-001  4.948622e+000  0.000000e+000
      vertex  1.000000e+001  1.500000e+001  0.000000e+000
      vertex  1.250000e+001  1.433013e+001  0.000000e+000
    endloop
  endfacet
  facet normal  0.000000e+000  -0.000000e+000 -1.000000e+000
    outer loop
      vertex  1.168031e-001  4.948622e+000  0.000000e+000
      vertex  1.250000e+001  1.433013e+001  0.000000e+000
      vertex  1.433013e+001  1.250000e+001  0.000000e+000
    endloop
  endfacet
  facet normal  0.000000e+000  -0.000000e+000 -1.000000e+000
    outer loop
      vertex  1.168031e-001  4.948622e+000  0.000000e+000
      vertex  1.433013e+001  1.250000e+001  0.000000e+000
      vertex  1.500000e+001  1.000000e+001  0.000000e+000
    endloop
  endfacet
  facet normal  0.000000e+000  0.000000e+000 -1.000000e+000
    outer loop
      vertex -1.433013e+001 -1.250000e+001  0.000000e+000
      vertex -1.500000e+001 -1.000000e+001  0.000000e+000
      vertex -1.250000e+001 -1.433013e+001  0.000000e+000
    endloop
  endfacet
  facet normal  0.000000e+000  0.000000e+000 -1.000000e+000
    outer loop
      vertex -1.250000e+001 -1.433013e+001  0.000000e+000
      vertex -1.500000e+001 -1.000000e+001  0.000000e+000
      vertex -1.168031e-001 -4.948622e+000  0.000000e+000
    endloop
  endfacet
  facet normal  0.000000e+000  0.000000e+000 -1.000000e+000
    outer loop
      vertex -1.250000e+001 -1.433013e+001  0.000000e+000
      vertex -1.168031e-001 -4.948622e+000  0.000000e+000
      vertex -1.000000e+001 -1.500000e+001  0.000000e+000
    endloop
  endfacet
  facet normal  0.000000e+000  0.000000e+000 -1.000000e+000
    outer loop
      vertex -1.000000e+001 -1.500000e+001  0.000000e+000
      vertex -1.168031e-001 -4.948622e+000  0.000000e+000
      vertex  2.373156e+000 -4.344034e+000  0.000000e+000
    endloop
  endfacet
  facet normal  0.000000e+000  -0.000000e+000 -1.000000e+000
    outer loop
      vertex -1.000000e+001 -1.500000e+001  0.000000e+000
      vertex  2.373156e+000 -4.344034e+000  0.000000e+000
      vertex  1.000000e+001 -1.500000e+001  0.000000e+000
    endloop
  endfacet
  facet normal  0.000000e+000  0.000000e+000 -1.000000e+000
    outer loop
      vertex -2.373156e+000  4.344034e+000  0.000000e+000
      vertex -1.500000e+001  1.000000e+001  0.000000e+000
      vertex  1.168031e-001  4.948622e+000  0.000000e+000
    endloop
  endfacet
  facet normal  0.000000e+000  0.000000e+000 -1.000000e+000
    outer loop
      vertex  1.168031e-001  4.948622e+000  0.000000e+000
      vertex -1.500000e+001  1.000000e+001  0.000000e+000
      vertex -1.000000e+001  1.500000e+001  0.000000e+000
    endloop
  endfacet
  facet normal  0.000000e+000  -0.000000e+000 -1.000000e+000
    outer loop
      vertex -1.500000e+001  1.000000e+001  0.000000e+000
      vertex -1.433013e+001  1.250000e+001  0.000000e+000
      vertex -1.000000e+001  1.500000e+001  0.000000e+000
    endloop
  endfacet
  facet normal  0.000000e+000  0.000000e+000 -1.000000e+000
    outer loop
      vertex -1.000000e+001  1.500000e+001  0.000000e+000
      vertex -1.433013e+001  1.250000e+001  0.000000e+000
      vertex -1.250000e+001  1.433013e+001  0.000000e+000
    endloop
  endfacet
  facet normal  6.902246e-001 -7.235952e-001  0.000000e+000
    outer loop
      vertex -2.373156e+000  4.344034e+000  0.000000e+000
      vertex -4.227231e+000  2.575465e+000  5.000000e+000
      vertex -4.227231e+000  2.575465e+000  0.000000e+000
    endloop
  endfacet
  facet normal  9.595497e-001 -2.815396e-001  0.000000e+000
    outer loop
      vertex -4.227231e+000  2.575465e+000  0.000000e+000
      vertex -4.227231e+000  2.575465e+000  5.000000e+000
      vertex -4.948622e+000  1.168031e-001  5.000000e+000
    endloop
  endfacet
  facet normal  9.595497e-001 -2.815396e-001  0.000000e+000
    outer loop
      vertex -4.227231e+000  2.575465e+000  0.000000e+000
      vertex -4.948622e+000  1.168031e-001  5.000000e+000
      vertex -4.948622e+000  1.168031e-001  0.000000e+000
    endloop
  endfacet
  facet normal  9.717641e-001  2.359544e-001  -0.000000e+000
    outer loop
      vertex -4.948622e+000  1.168031e-001  0.000000e+000
      vertex -4.948622e+000  1.168031e-001  5.000000e+000
      vertex -4.344034e+000 -2.373156e+000  5.000000e+000
    endloop
  endfacet
  facet normal  9.717641e-001  2.359544e-001  0.000000e+000
    outer loop
      vertex -4.948622e+000  1.168031e-001  0.000000e+000
      vertex -4.344034e+000 -2.373156e+000  5.000000e+000
      vertex -4.344034e+000 -2.373156e+000 -8.326673e-017
    endloop
  endfacet
  facet normal  6.902246e-001 -7.235952e-001  0.000000e+000
    outer loop
      vertex -4.227231e+000  2.575465e+000  5.000000e+000
      vertex -2.373156e+000  4.344034e+000  0.000000e+000
      vertex -2.373156e+000  4.344034e+000  5.000000e+000
    endloop
  endfacet
  facet normal  2.359544e-001 -9.717641e-001  0.000000e+000
    outer loop
      vertex -2.373156e+000  4.344034e+000  5.000000e+000
      vertex -2.373156e+000  4.344034e+000  0.000000e+000
      vertex  1.168031e-001  4.948622e+000  0.000000e+000
    endloop
  endfacet
  facet normal  2.359544e-001 -9.717641e-001  0.000000e+000
    outer loop
      vertex -2.373156e+000  4.344034e+000  5.000000e+000
      vertex  1.168031e-001  4.948622e+000  0.000000e+000
      vertex  1.168031e-001  4.948622e+000  5.000000e+000
    endloop
  endfacet
  facet normal -2.815396e-001 -9.595497e-001  -0.000000e+000
    outer loop
      vertex  1.168031e-001  4.948622e+000  5.000000e+000
      vertex  1.168031e-001  4.948622e+000  0.000000e+000
      vertex  2.575465e+000  4.227231e+000  0.000000e+000
    endloop
  endfacet
  facet normal -2.815396e-001 -9.595497e-001  0.000000e+000
    outer loop
      vertex  1.168031e-001  4.948622e+000  5.000000e+000
      vertex  2.575465e+000  4.227231e+000  0.000000e+000
      vertex  2.575465e+000  4.227231e+000  5.000000e+000
    endloop
  endfacet
  facet normal -7.235952e-001 -6.902246e-001  -0.000000e+000
    outer loop
      vertex  2.575465e+000  4.227231e+000  5.000000e+000
      vertex  2.575465e+000  4.227231e+000  0.000000e+000
      vertex  4.344034e+000  2.373156e+000 -8.326673e-017
    endloop
  endfacet
  facet normal -7.235952e-001 -6.902246e-001  0.000000e+000
    outer loop
      vertex  2.575465e+000  4.227231e+000  5.000000e+000
      vertex  4.344034e+000  2.373156e+000 -8.326673e-017
      vertex  4.344034e+000  2.373156e+000  5.000000e+000
    endloop
  endfacet
  facet normal -6.902246e-001  7.235952e-001  0.000000e+000
    outer loop
      vertex  2.373156e+000 -4.344034e+000  0.000000e+000
      vertex  4.227231e+000 -2.575465e+000  5.000000e+000
      vertex  4.227231e+000 -2.575465e+000  0.000000e+000
    endloop
  endfacet
  facet normal -9.595497e-001  2.815396e-001  0.000000e+000
    outer loop
      vertex  4.227231e+000 -2.575465e+000  0.000000e+000
      vertex  4.227231e+000 -2.575465e+000  5.000000e+000
      vertex  4.948622e+000 -1.168031e-001  5.000000e+000
    endloop
  endfacet
  facet normal -9.595497e-001  2.815396e-001  0.000000e+000
    outer loop
      vertex  4.227231e+000 -2.575465e+000  0.000000e+000
      vertex  4.948622e+000 -1.168031e-001  5.000000e+000
      vertex  4.948622e+000 -1.168031e-001  0.000000e+000
    endloop
  endfacet
  facet normal -9.717641e-001 -2.359544e-001  0.000000e+000
    outer loop
      vertex  4.948622e+000 -1.168031e-001  0.000000e+000
      vertex  4.948622e+000 -1.168031e-001  5.000000e+000
      vertex  4.344034e+000  2.373156e+000  5.000000e+000
    endloop
  endfacet
  facet normal -9.717641e-001 -2.359544e-001  -0.000000e+000
    outer loop
      vertex  4.948622e+000 -1.168031e-001  0.000000e+000
      vertex  4.344034e+000  2.373156e+000  5.000000e+000
      vertex  4.344034e+000  2.373156e+000 -8.326673e-017
    endloop
  endfacet
  facet normal -6.902246e-001  7.235952e-001  0.000000e+000
    outer loop
      vertex  4.227231e+000 -2.575465e+000  5.000000e+000
      vertex  2.373156e+000 -4.344034e+000  0.000000e+000
      vertex  2.373156e+000 -4.344034e+000  5.000000e+000
    endloop
  endfacet
  facet normal -2.359544e-001  9.717641e-001  0.000000e+000
    outer loop
      vertex  2.373156e+000 -4.344034e+000  5.000000e+000
      vertex  2.373156e+000 -4.344034e+000  0.000000e+000
      vertex -1.168031e-001 -4.948622e+000  0.000000e+000
    endloop
  endfacet
  facet normal -2.359544e-001  9.717641e-001  0.000000e+000
    outer loop
      vertex  2.373156e+000 -4.344034e+000  5.000000e+000
      vertex -1.168031e-001 -4.948622e+000  0.000000e+000
      vertex -1.168031e-001 -4.948622e+000  5.000000e+000
    endloop
  endfacet
  facet normal  2.815396e-001  9.595497e-001  0.000000e+000
    outer loop
      vertex -1.168031e-001 -4.948622e+000  5.000000e+000
      vertex -1.168031e-001 -4.948622e+000  0.000000e+000
      vertex -2.575465e+000 -4.227231e+000  0.000000e+000
    endloop
  endfacet
  facet normal  2.815396e-001  9.595497e-001  -0.000000e+000
    outer loop
      vertex -1.168031e-001 -4.948622e+000  5.000000e+000
      vertex -2.575465e+000 -4.227231e+000  0.000000e+000
      vertex -2.575465e+000 -4.227231e+000  5.000000e+000
    endloop
  endfacet
  facet normal  7.235952e-001  6.902246e-001  0.000000e+000
    outer loop
      vertex -2.575465e+000 -4.227231e+000  5.000000e+000
      vertex -2.575465e+000 -4.227231e+000  0.000000e+000
      vertex -4.344034e+000 -2.373156e+000 -8.326673e-017
    endloop
  endfacet
  facet normal  7.235952e-001  6.902246e-001  -0.000000e+000
    outer loop
      vertex -2.575465e+000 -4.227231e+000  5.000000e+000
      vertex -4.344034e+000 -2.373156e+000 -8.326673e-017
      vertex -4.344034e+000 -2.373156e+000  5.000000e+000
    endloop
  endfacet
  facet normal  0.000000e+000  0.000000e+000 -1.000000e+000
    outer loop
      vertex  1.168031e-001  4.948622e+000  5.000000e+000
      vertex  2.575465e+000  4.227231e+000  5.000000e+000
      vertex -2.373156e+000  4.344034e+000  5.000000e+000
    endloop
  endfacet
  facet normal  0.000000e+000  0.000000e+000 -1.000000e+000
    outer loop
      vertex -1.168031e-001 -4.948622e+000  5.000000e+000
      vertex -2.575465e+000 -4.227231e+000  5.000000e+000
      vertex  2.373156e+000 -4.344034e+000  5.000000e+000
    endloop
  endfacet
  facet normal  0.000000e+000  0.000000e+000 -1.000000e+000
    outer loop
      vertex  2.373156e+000 -4.344034e+000  5.000000e+000
      vertex -2.575465e+000 -4.227231e+000  5.000000e+000
      vertex -4.344034e+000 -2.373156e+000  5.000000e+000
    endloop
  endfacet
  facet normal  0.000000e+000  0.000000e+000 -9.999999e-001
    outer loop
      vertex  2.373156e+000 -4.344034e+000  5.000000e+000
      vertex -4.344034e+000 -2.373156e+000  5.000000e+000
      vertex  4.227231e+000 -2.575465e+000  5.000000e+000
    endloop
  endfacet
  facet normal  0.000000e+000  0.000000e+000 -1.000000e+000
    outer loop
      vertex  4.227231e+000 -2.575465e+000  5.000000e+000
      vertex -4.344034e+000 -2.373156e+000  5.000000e+000
      vertex -4.948622e+000  1.168031e-001  5.000000e+000
    endloop
  endfacet
  facet normal  0.000000e+000  0.000000e+000 -1.000000e+000
    outer loop
      vertex  4.227231e+000 -2.575465e+000  5.000000e+000
      vertex -4.948622e+000  1.168031e-001  5.000000e+000
      vertex  4.948622e+000 -1.168031e-001  5.000000e+000
    endloop
  endfacet
  facet normal  0.000000e+000  0.000000e+000 -1.000000e+000
    outer loop
      vertex  4.948622e+000 -1.168031e-001  5.000000e+000
      vertex -4.948622e+000  1.168031e-001  5.000000e+000
      vertex -4.227231e+000  2.575465e+000  5.000000e+000
    endloop
  endfacet
  facet normal  0.000000e+000  0.000000e+000 -1.000000e+000
    outer loop
      vertex  4.948622e+000 -1.168031e-001  5.000000e+000
      vertex -4.227231e+000  2.575465e+000  5.000000e+000
      vertex  4.344034e+000  2.373156e+000  5.000000e+000
    endloop
  endfacet
  facet normal  0.000000e+000  0.000000e+000 -9.999999e-001
    outer loop
      vertex  4.344034e+000  2.373156e+000  5.000000e+000
      vertex -4.227231e+000  2.575465e+000  5.000000e+000
      vertex -2.373156e+000  4.344034e+000  5.000000e+000
    endloop
  endfacet
  facet normal  0.000000e+000  0.000000e+000 -1.000000e+000
    outer loop
      vertex  4.344034e+000  2.373156e+000  5.000000e+000
      vertex -2.373156e+000  4.344034e+000  5.000000e+000
      vertex  2.575465e+000  4.227231e+000  5.000000e+000
    endloop
  endfacet
  facet normal  0.000000e+000  0.000000e+000  1.000000e+000
    outer loop
      vertex  1.500000e+001  1.000000e+001  1.000000e+001
      vertex  1.433013e+001  1.250000e+001  1.000000e+001
      vertex -1.433013e+001  1.250000e+001  1.000000e+001
    endloop
  endfacet
  facet normal  0.000000e+000  0.000000e+000  1.000000e+000
    outer loop
      vertex  1.500000e+001  1.000000e+001  1.000000e+001
      vertex -1.433013e+001  1.250000e+001  1.000000e+001
      vertex -1.500000e+001  1.000000e+001  1.000000e+001
    endloop
  endfacet
  facet normal  -0.000000e+000  0.000000e+000  1.000000e+000
    outer loop
      vertex  1.500000e+001  1.000000e+001  1.000000e+001
      vertex -1.500000e+001  1.000000e+001  1.000000e+001
      vertex -1.500000e+001  7.500000e+000  1.000000e+001
    endloop
  endfacet
  facet normal  0.000000e+000  0.000000e+000  1.000000e+000
    outer loop
      vertex  1.500000e+001  1.000000e+001  1.000000e+001
      vertex -1.500000e+001  7.500000e+000  1.000000e+001
      vertex -1.000000e+001  7.500000e+000  1.000000e+001
    endloop
  endfacet
  facet normal  0.000000e+000  0.000000e+000  1.000000e+000
    outer loop
      vertex  1.500000e+001  1.000000e+001  1.000000e+001
      vertex -1.000000e+001  7.500000e+000  1.000000e+001
      vertex  1.000000e+001  7.500000e+000  1.000000e+001
    endloop
  endfacet
  facet normal  0.000000e+000  0.000000e+000  1.000000e+000
    outer loop
      vertex  1.500000e+001  1.000000e+001  1.000000e+001
      vertex  1.000000e+001  7.500000e+000  1.000000e+001
      vertex  1.500000e+001  7.500000e+000  1.000000e+001
    endloop
  endfacet
  facet normal  0.000000e+000  -0.000000e+000  1.000000e+000
    outer loop
      vertex -1.500000e+001 -1.000000e+001  1.000000e+001
      vertex -1.433013e+001 -1.250000e+001  1.000000e+001
      vertex  1.433013e+001 -1.250000e+001  1.000000e+001
    endloop
  endfacet
  facet normal  0.000000e+000  -0.000000e+000  1.000000e+000
    outer loop
      vertex -1.500000e+001 -1.000000e+001  1.000000e+001
      vertex  1.433013e+001 -1.250000e+001  1.000000e+001
      vertex  1.500000e+001 -1.000000e+001  1.000000e+001
    endloop
  endfacet
  facet normal  0.000000e+000  -0.000000e+000  1.000000e+000
    outer loop
      vertex -1.500000e+001 -1.000000e+001  1.000000e+001
      vertex  1.500000e+001 -1.000000e+001  1.000000e+001
      vertex  1.500000e+001 -7.500000e+000  1.000000e+001
    endloop
  endfacet
  facet normal  0.000000e+000  0.000000e+000  1.000000e+000
    outer loop
      vertex -1.500000e+001 -1.000000e+001  1.000000e+001
      vertex  1.500000e+001 -7.500000e+000  1.000000e+001
      vertex  1.000000e+001 -7.500000e+000  1.000000e+001
    endloop
  endfacet
  facet normal  0.000000e+000  0.000000e+000  1.000000e+000
    outer loop
      vertex -1.500000e+001 -1.000000e+001  1.000000e+001
      vertex  1.000000e+001 -7.500000e+000  1.000000e+001
      vertex -1.000000e+001 -7.500000e+000  1.000000e+001
    endloop
  endfacet
  facet normal  0.000000e+000  0.000000e+000  1.000000e+000
    outer loop
      vertex -1.500000e+001 -1.000000e+001  1.000000e+001
      vertex -1.000000e+001 -7.500000e+000  1.000000e+001
      vertex -1.500000e+001 -7.500000e+000  1.000000e+001
    endloop
  endfacet
  facet normal  -0.000000e+000  0.000000e+000  1.000000e+000
    outer loop
      vertex  1.000000e+001  1.500000e+001  1.000000e+001
      vertex -1.000000e+001  1.500000e+001  1.000000e+001
      vertex  1.250000e+001  1.433013e+001  1.000000e+001
    endloop
  endfacet
  facet normal  0.000000e+000  0.000000e+000  1.000000e+000
    outer loop
      vertex  1.250000e+001  1.433013e+001  1.000000e+001
      vertex -1.000000e+001  1.500000e+001  1.000000e+001
      vertex -1.250000e+001  1.433013e+001  1.000000e+001
    endloop
  endfacet
  facet normal  -0.000000e+000  0.000000e+000  1.000000e+000
    outer loop
      vertex  1.250000e+001  1.433013e+001  1.000000e+001
      vertex -1.250000e+001  1.433013e+001  1.000000e+001
      vertex  1.433013e+001  1.250000e+001  1.000000e+001
    endloop
  endfacet
  facet normal  0.000000e+000  0.000000e+000  1.000000e+000
    outer loop
      vertex  1.433013e+001  1.250000e+001  1.000000e+001
      vertex -1.250000e+001  1.433013e+001  1.000000e+001
      vertex -1.433013e+001  1.250000e+001  1.000000e+001
    endloop
  endfacet
  facet normal  0.000000e+000  0.000000e+000  1.000000e+000
    outer loop
      vertex -1.000000e+001 -7.500000e+000  1.000000e+001
      vertex  1.000000e+001 -7.500000e+000  1.000000e+001
      vertex -1.000000e+001  7.500000e+000  1.000000e+001
    endloop
  endfacet
  facet normal  -0.000000e+000  0.000000e+000  1.000000e+000
    outer loop
      vertex -1.000000e+001  7.500000e+000  1.000000e+001
      vertex  1.000000e+001 -7.500000e+000  1.000000e+001
      vertex  1.000000e+001  7.500000e+000  1.000000e+001
    endloop
  endfacet
  facet normal  -0.000000e+000  0.000000e+000  1.000000e+000
    outer loop
      vertex  1.433013e+001 -1.250000e+001  1.000000e+001
      vertex -1.433013e+001 -1.250000e+001  1.000000e+001
      vertex  1.250000e+001 -1.433013e+001  1.000000e+001
    endloop
  endfacet
  facet normal  0.000000e+000  0.000000e+000  1.000000e+000
    outer loop
      vertex  1.250000e+001 -1.433013e+001  1.000000e+001
      vertex -1.433013e+001 -1.250000e+001  1.000000e+001
      vertex -1.250000e+001 -1.433013e+001  1.000000e+001
    endloop
  endfacet
  facet normal  -0.000000e+000  0.000000e+000  1.000000e+000
    outer loop
      vertex  1.250000e+001 -1.433013e+001  1.000000e+001
      vertex -1.250000e+001 -1.433013e+001  1.000000e+001
      vertex  1.000000e+001 -1.500000e+001  1.000000e+001
    endloop
  endfacet
  facet normal  0.000000e+000  0.000000e+000  1.000000e+000
    outer loop
      vertex  1.000000e+001 -1.500000e+001  1.000000e+001
      vertex -1.250000e+001 -1.433013e+001  1.000000e+001
      vertex -1.000000e+001 -1.500000e+001  1.000000e+001
    endloop
  endfacet
  facet normal -9.999999e-001  -0.000000e+000  0.000000e+000
    outer loop
      vertex -1.500000e+001  2.193956e+000  2.119856e+001
      vertex -1.500000e+001  7.500000e+000  2.000000e+001
      vertex -1.500000e+001  2.398874e+000  1.929615e+001
    endloop
  endfacet
  facet normal -1.000000e+000  0.000000e+000  0.000000e+000
    outer loop
      vertex -1.500000e+001  7.500000e+000  2.000000e+001
      vertex -1.500000e+001  5.000000e+000  2.433013e+001
      vertex -1.500000e+001  6.830127e+000  2.250000e+001
    endloop
  endfacet
  facet normal -1.000000e+000  -0.000000e+000  0.000000e+000
    outer loop
      vertex -1.500000e+001 -2.500000e+000  2.500000e+001
      vertex -1.500000e+001  2.500000e+000  2.500000e+001
      vertex -1.500000e+001 -1.198564e+000  2.219396e+001
    endloop
  endfacet
  facet normal -1.000000e+000  -0.000000e+000  0.000000e+000
    outer loop
      vertex -1.500000e+001 -2.500000e+000  2.500000e+001
      vertex -1.500000e+001 -1.198564e+000  2.219396e+001
      vertex -1.500000e+001 -2.398874e+000  2.070385e+001
    endloop
  endfacet
  facet normal -1.000000e+000  0.000000e+000  0.000000e+000
    outer loop
      vertex -1.500000e+001 -2.500000e+000  2.500000e+001
      vertex -1.500000e+001 -2.398874e+000  2.070385e+001
      vertex -1.500000e+001 -5.000000e+000  2.433013e+001
    endloop
  endfacet
  facet normal -1.000000e+000  0.000000e+000  0.000000e+000
    outer loop
      vertex -1.500000e+001 -1.000000e+001  0.000000e+000
      vertex -1.500000e+001 -1.000000e+001  1.000000e+001
      vertex -1.500000e+001 -7.500000e+000  1.000000e+001
    endloop
  endfacet
  facet normal -1.000000e+000  0.000000e+000  -0.000000e+000
    outer loop
      vertex -1.500000e+001 -1.000000e+001  0.000000e+000
      vertex -1.500000e+001 -7.500000e+000  1.000000e+001
      vertex -1.500000e+001  7.500000e+000  1.000000e+001
    endloop
  endfacet
  facet normal -1.000000e+000  0.000000e+000  -0.000000e+000
    outer loop
      vertex -1.500000e+001 -1.000000e+001  0.000000e+000
      vertex -1.500000e+001  7.500000e+000  1.000000e+001
      vertex -1.500000e+001  1.000000e+001  1.000000e+001
    endloop
  endfacet
  facet normal -1.000000e+000  0.000000e+000  -0.000000e+000
    outer loop
      vertex -1.500000e+001 -1.000000e+001  0.000000e+000
      vertex -1.500000e+001  1.000000e+001  1.000000e+001
      vertex -1.500000e+001  1.000000e+001  0.000000e+000
    endloop
  endfacet
  facet normal -1.000000e+000  0.000000e+000  0.000000e+000
    outer loop
      vertex -1.500000e+001  7.500000e+000  1.000000e+001
      vertex -1.500000e+001 -7.500000e+000  1.000000e+001
      vertex -1.500000e+001 -7.500000e+000  2.000000e+001
    endloop
  endfacet
  facet normal -1.000000e+000  0.000000e+000  0.000000e+000
    outer loop
      vertex -1.500000e+001  7.500000e+000  1.000000e+001
      vertex -1.500000e+001 -7.500000e+000  2.000000e+001
      vertex -1.500000e+001 -2.193956e+000  1.880144e+001
    endloop
  endfacet
  facet normal -1.000000e+000  0.000000e+000  0.000000e+000
    outer loop
      vertex -1.500000e+001  7.500000e+000  1.000000e+001
      vertex -1.500000e+001 -2.193956e+000  1.880144e+001
      vertex -1.500000e+001 -7.038488e-001  1.760113e+001
    endloop
  endfacet
  facet normal -1.000000e+000  0.000000e+000  0.000000e+000
    outer loop
      vertex -1.500000e+001  7.500000e+000  1.000000e+001
      vertex -1.500000e+001 -7.038488e-001  1.760113e+001
      vertex -1.500000e+001  1.198564e+000  1.780604e+001
    endloop
  endfacet
  facet normal -1.000000e+000  0.000000e+000  0.000000e+000
    outer loop
      vertex -1.500000e+001  7.500000e+000  1.000000e+001
      vertex -1.500000e+001  1.198564e+000  1.780604e+001
      vertex -1.500000e+001  2.398874e+000  1.929615e+001
    endloop
  endfacet
  facet normal -1.000000e+000  0.000000e+000  0.000000e+000
    outer loop
      vertex -1.500000e+001  7.500000e+000  1.000000e+001
      vertex -1.500000e+001  2.398874e+000  1.929615e+001
      vertex -1.500000e+001  7.500000e+000  2.000000e+001
    endloop
  endfacet
  facet normal -9.999999e-001  -0.000000e+000  -0.000000e+000
    outer loop
      vertex -1.500000e+001  2.500000e+000  2.500000e+001
      vertex -1.500000e+001  5.000000e+000  2.433013e+001
      vertex -1.500000e+001  7.500000e+000  2.000000e+001
    endloop
  endfacet
  facet normal -1.000000e+000  0.000000e+000  0.000000e+000
    outer loop
      vertex -1.500000e+001  2.500000e+000  2.500000e+001
      vertex -1.500000e+001  7.500000e+000  2.000000e+001
      vertex -1.500000e+001  2.193956e+000  2.119856e+001
    endloop
  endfacet
  facet normal -1.000000e+000  0.000000e+000  0.000000e+000
    outer loop
      vertex -1.500000e+001  2.500000e+000  2.500000e+001
      vertex -1.500000e+001  2.193956e+000  2.119856e+001
      vertex -1.500000e+001  7.038488e-001  2.239887e+001
    endloop
  endfacet
  facet normal -1.000000e+000  -0.000000e+000  0.000000e+000
    outer loop
      vertex -1.500000e+001  2.500000e+000  2.500000e+001
      vertex -1.500000e+001  7.038488e-001  2.239887e+001
      vertex -1.500000e+001 -1.198564e+000  2.219396e+001
    endloop
  endfacet
  facet normal -1.000000e+000  0.000000e+000  0.000000e+000
    outer loop
      vertex -1.500000e+001 -6.830127e+000  2.250000e+001
      vertex -1.500000e+001 -5.000000e+000  2.433013e+001
      vertex -1.500000e+001 -7.500000e+000  2.000000e+001
    endloop
  endfacet
  facet normal -1.000000e+000  0.000000e+000  0.000000e+000
    outer loop
      vertex -1.500000e+001 -7.500000e+000  2.000000e+001
      vertex -1.500000e+001 -5.000000e+000  2.433013e+001
      vertex -1.500000e+001 -2.398874e+000  2.070385e+001
    endloop
  endfacet
  facet normal -9.999999e-001  0.000000e+000  -0.000000e+000
    outer loop
      vertex -1.500000e+001 -7.500000e+000  2.000000e+001
      vertex -1.500000e+001 -2.398874e+000  2.070385e+001
      vertex -1.500000e+001 -2.193956e+000  1.880144e+001
    endloop
  endfacet
  facet normal  0.000000e+000  1.000000e+000  -0.000000e+000
    outer loop
      vertex  1.000000e+001  1.500000e+001  1.000000e+001
      vertex  1.000000e+001  1.500000e+001  0.000000e+000
      vertex -1.000000e+001  1.500000e+001  1.000000e+001
    endloop
  endfacet
  facet normal  0.000000e+000  1.000000e+000  0.000000e+000
    outer loop
      vertex -1.000000e+001  1.500000e+001  1.000000e+001
      vertex  1.000000e+001  1.500000e+001  0.000000e+000
      vertex -1.000000e+001  1.500000e+001  0.000000e+000
    endloop
  endfacet
  facet normal -9.659259e-001  2.588192e-001  0.000000e+000
    outer loop
      vertex -1.500000e+001  1.000000e+001  0.000000e+000
      vertex -1.500000e+001  1.000000e+001  1.000000e+001
      vertex -1.433013e+001  1.250000e+001  0.000000e+000
    endloop
  endfacet
  facet normal -9.659259e-001  2.588192e-001  0.000000e+000
    outer loop
      vertex -1.433013e+001  1.250000e+001  0.000000e+000
      vertex -1.500000e+001  1.000000e+001  1.000000e+001
      vertex -1.433013e+001  1.250000e+001  1.000000e+001
    endloop
  endfacet
  facet normal -7.071068e-001  7.071068e-001  0.000000e+000
    outer loop
      vertex -1.433013e+001  1.250000e+001  0.000000e+000
      vertex -1.433013e+001  1.250000e+001  1.000000e+001
      vertex -1.250000e+001  1.433013e+001  0.000000e+000
    endloop
  endfacet
  facet normal -7.071068e-001  7.071068e-001  0.000000e+000
    outer loop
      vertex -1.250000e+001  1.433013e+001  0.000000e+000
      vertex -1.433013e+001  1.250000e+001  1.000000e+001
      vertex -1.250000e+001  1.433013e+001  1.000000e+001
    endloop
  endfacet
  facet normal -2.588192e-001  9.659259e-001  0.000000e+000
    outer loop
      vertex -1.250000e+001  1.433013e+001  0.000000e+000
      vertex -1.250000e+001  1.433013e+001  1.000000e+001
      vertex -1.000000e+001  1.500000e+001  0.000000e+000
    endloop
  endfacet
  facet normal -2.588192e-001  9.659259e-001  0.000000e+000
    outer loop
      vertex -1.000000e+001  1.500000e+001  0.000000e+000
      vertex -1.250000e+001  1.433013e+001  1.000000e+001
      vertex -1.000000e+001  1.500000e+001  1.000000e+001
    endloop
  endfacet
  facet normal  0.000000e+000 -1.000000e+000  0.000000e+000
    outer loop
      vertex -1.000000e+001 -1.500000e+001  1.000000e+001
      vertex -1.000000e+001 -1.500000e+001  0.000000e+000
      vertex  1.000000e+001 -1.500000e+001  1.000000e+001
    endloop
  endfacet
  facet normal  0.000000e+000 -1.000000e+000  -0.000000e+000
    outer loop
      vertex  1.000000e+001 -1.500000e+001  1.000000e+001
      vertex -1.000000e+001 -1.500000e+001  0.000000e+000
      vertex  1.000000e+001 -1.500000e+001  0.000000e+000
    endloop
  endfacet
  facet normal -2.588192e-001 -9.659259e-001  -0.000000e+000
    outer loop
      vertex -1.000000e+001 -1.500000e+001  0.000000e+000
      vertex -1.000000e+001 -1.500000e+001  1.000000e+001
      vertex -1.250000e+001 -1.433013e+001  0.000000e+000
    endloop
  endfacet
  facet normal -2.588192e-001 -9.659259e-001  0.000000e+000
    outer loop
      vertex -1.250000e+001 -1.433013e+001  0.000000e+000
      vertex -1.000000e+001 -1.500000e+001  1.000000e+001
      vertex -1.250000e+001 -1.433013e+001  1.000000e+001
    endloop
  endfacet
  facet normal -7.071068e-001 -7.071068e-001  -0.000000e+000
    outer loop
      vertex -1.250000e+001 -1.433013e+001  0.000000e+000
      vertex -1.250000e+001 -1.433013e+001  1.000000e+001
      vertex -1.433013e+001 -1.250000e+001  0.000000e+000
    endloop
  endfacet
  facet normal -7.071068e-001 -7.071068e-001  0.000000e+000
    outer loop
      vertex -1.433013e+001 -1.250000e+001  0.000000e+000
      vertex -1.250000e+001 -1.433013e+001  1.000000e+001
      vertex -1.433013e+001 -1.250000e+001  1.000000e+001
    endloop
  endfacet
  facet normal -9.659259e-001 -2.588192e-001  -0.000000e+000
    outer loop
      vertex -1.433013e+001 -1.250000e+001  0.000000e+000
      vertex -1.433013e+001 -1.250000e+001  1.000000e+001
      vertex -1.500000e+001 -1.000000e+001  0.000000e+000
    endloop
  endfacet
  facet normal -9.659259e-001 -2.588192e-001  0.000000e+000
    outer loop
      vertex -1.500000e+001 -1.000000e+001  0.000000e+000
      vertex -1.433013e+001 -1.250000e+001  1.000000e+001
      vertex -1.500000e+001 -1.000000e+001  1.000000e+001
    endloop
  endfacet
  facet normal  1.000000e+000  0.000000e+000  -0.000000e+000
    outer loop
      vertex  1.500000e+001 -2.500000e+000  2.500000e+001
      vertex  1.500000e+001 -2.398874e+000  2.070385e+001
      vertex  1.500000e+001 -1.198564e+000  2.219396e+001
    endloop
  endfacet
  facet normal  1.000000e+000  0.000000e+000  -0.000000e+000
    outer loop
      vertex  1.500000e+001 -7.500000e+000  1.000000e+001
      vertex  1.500000e+001  7.500000e+000  1.000000e+001
      vertex  1.500000e+001  7.500000e+000  2.000000e+001
    endloop
  endfacet
  facet normal  1.000000e+000  0.000000e+000  0.000000e+000
    outer loop
      vertex  1.500000e+001 -7.500000e+000  1.000000e+001
      vertex  1.500000e+001  7.500000e+000  2.000000e+001
      vertex  1.500000e+001  1.198564e+000  1.780604e+001
    endloop
  endfacet
  facet normal  1.000000e+000  0.000000e+000  0.000000e+000
    outer loop
      vertex  1.500000e+001 -7.500000e+000  1.000000e+001
      vertex  1.500000e+001  1.198564e+000  1.780604e+001
      vertex  1.500000e+001 -7.038488e-001  1.760113e+001
    endloop
  endfacet
  facet normal  1.000000e+000  0.000000e+000  0.000000e+000
    outer loop
      vertex  1.500000e+001 -7.500000e+000  1.000000e+001
      vertex  1.500000e+001 -7.038488e-001  1.760113e+001
      vertex  1.500000e+001 -2.193956e+000  1.880144e+001
    endloop
  endfacet
  facet normal  1.000000e+000  0.000000e+000  0.000000e+000
    outer loop
      vertex  1.500000e+001 -7.500000e+000  1.000000e+001
      vertex  1.500000e+001 -2.193956e+000  1.880144e+001
      vertex  1.500000e+001 -2.398874e+000  2.070385e+001
    endloop
  endfacet
  facet normal  1.000000e+000  0.000000e+000  0.000000e+000
    outer loop
      vertex  1.500000e+001 -7.500000e+000  1.000000e+001
      vertex  1.500000e+001 -2.398874e+000  2.070385e+001
      vertex  1.500000e+001 -7.500000e+000  2.000000e+001
    endloop
  endfacet
  facet normal  1.000000e+000  0.000000e+000  0.000000e+000
    outer loop
      vertex  1.500000e+001  1.000000e+001  0.000000e+000
      vertex  1.500000e+001  1.000000e+001  1.000000e+001
      vertex  1.500000e+001  7.500000e+000  1.000000e+001
    endloop
  endfacet
  facet normal  1.000000e+000  0.000000e+000  0.000000e+000
    outer loop
      vertex  1.500000e+001  1.000000e+001  0.000000e+000
      vertex  1.500000e+001  7.500000e+000  1.000000e+001
      vertex  1.500000e+001 -7.500000e+000  1.000000e+001
    endloop
  endfacet
  facet normal  1.000000e+000  0.000000e+000  0.000000e+000
    outer loop
      vertex  1.500000e+001  1.000000e+001  0.000000e+000
      vertex  1.500000e+001 -7.500000e+000  1.000000e+001
      vertex  1.500000e+001 -1.000000e+001  1.000000e+001
    endloop
  endfacet
  facet normal  1.000000e+000  0.000000e+000  0.000000e+000
    outer loop
      vertex  1.500000e+001  1.000000e+001  0.000000e+000
      vertex  1.500000e+001 -1.000000e+001  1.000000e+001
      vertex  1.500000e+001 -1.000000e+001  0.000000e+000
    endloop
  endfacet
  facet normal  1.000000e+000  0.000000e+000  0.000000e+000
    outer loop
      vertex  1.500000e+001 -7.500000e+000  2.000000e+001
      vertex  1.500000e+001 -2.398874e+000  2.070385e+001
      vertex  1.500000e+001 -2.500000e+000  2.500000e+001
    endloop
  endfacet
  facet normal  9.999999e-001  0.000000e+000  0.000000e+000
    outer loop
      vertex  1.500000e+001 -7.500000e+000  2.000000e+001
      vertex  1.500000e+001 -2.500000e+000  2.500000e+001
      vertex  1.500000e+001 -5.000000e+000  2.433013e+001
    endloop
  endfacet
  facet normal  1.000000e+000  0.000000e+000  0.000000e+000
    outer loop
      vertex  1.500000e+001 -7.500000e+000  2.000000e+001
      vertex  1.500000e+001 -5.000000e+000  2.433013e+001
      vertex  1.500000e+001 -6.830127e+000  2.250000e+001
    endloop
  endfacet
  facet normal  1.000000e+000  0.000000e+000  0.000000e+000
    outer loop
      vertex  1.500000e+001  5.000000e+000  2.433013e+001
      vertex  1.500000e+001  2.500000e+000  2.500000e+001
      vertex  1.500000e+001  6.830127e+000  2.250000e+001
    endloop
  endfacet
  facet normal  1.000000e+000  0.000000e+000  0.000000e+000
    outer loop
      vertex  1.500000e+001  6.830127e+000  2.250000e+001
      vertex  1.500000e+001  2.500000e+000  2.500000e+001
      vertex  1.500000e+001  2.193956e+000  2.119856e+001
    endloop
  endfacet
  facet normal  1.000000e+000  -0.000000e+000  0.000000e+000
    outer loop
      vertex  1.500000e+001  6.830127e+000  2.250000e+001
      vertex  1.500000e+001  2.193956e+000  2.119856e+001
      vertex  1.500000e+001  7.500000e+000  2.000000e+001
    endloop
  endfacet
  facet normal  9.999999e-001  0.000000e+000  0.000000e+000
    outer loop
      vertex  1.500000e+001  7.500000e+000  2.000000e+001
      vertex  1.500000e+001  2.193956e+000  2.119856e+001
      vertex  1.500000e+001  2.398874e+000  1.929615e+001
    endloop
  endfacet
  facet normal  1.000000e+000  -0.000000e+000  0.000000e+000
    outer loop
      vertex  1.500000e+001  7.500000e+000  2.000000e+001
      vertex  1.500000e+001  2.398874e+000  1.929615e+001
      vertex  1.500000e+001  1.198564e+000  1.780604e+001
    endloop
  endfacet
  facet normal  1.000000e+000  0.000000e+000  -0.000000e+000
    outer loop
      vertex  1.500000e+001 -2.500000e+000  2.500000e+001
      vertex  1.500000e+001 -1.198564e+000  2.219396e+001
      vertex  1.500000e+001  2.500000e+000  2.500000e+001
    endloop
  endfacet
  facet normal  1.000000e+000  0.000000e+000  0.000000e+000
    outer loop
      vertex  1.500000e+001  2.500000e+000  2.500000e+001
      vertex  1.500000e+001 -1.198564e+000  2.219396e+001
      vertex  1.500000e+001  7.038488e-001  2.239887e+001
    endloop
  endfacet
  facet normal  1.000000e+000  -0.000000e+000  0.000000e+000
    outer loop
      vertex  1.500000e+001  2.500000e+000  2.500000e+001
      vertex  1.500000e+001  7.038488e-001  2.239887e+001
      vertex  1.500000e+001  2.193956e+000  2.119856e+001
    endloop
  endfacet
  facet normal  9.659259e-001 -2.588192e-001  0.000000e+000
    outer loop
      vertex  1.500000e+001 -1.000000e+001  0.000000e+000
      vertex  1.500000e+001 -1.000000e+001  1.000000e+001
      vertex  1.433013e+001 -1.250000e+001  0.000000e+000
    endloop
  endfacet
  facet normal  9.659259e-001 -2.588192e-001  0.000000e+000
    outer loop
      vertex  1.433013e+001 -1.250000e+001  0.000000e+000
      vertex  1.500000e+001 -1.000000e+001  1.000000e+001
      vertex  1.433013e+001 -1.250000e+001  1.000000e+001
    endloop
  endfacet
  facet normal  7.071068e-001 -7.071068e-001  0.000000e+000
    outer loop
      vertex  1.433013e+001 -1.250000e+001  0.000000e+000
      vertex  1.433013e+001 -1.250000e+001  1.000000e+001
      vertex  1.250000e+001 -1.433013e+001  0.000000e+000
    endloop
  endfacet
  facet normal  7.071068e-001 -7.071068e-001  0.000000e+000
    outer loop
      vertex  1.250000e+001 -1.433013e+001  0.000000e+000
      vertex  1.433013e+001 -1.250000e+001  1.000000e+001
      vertex  1.250000e+001 -1.433013e+001  1.000000e+001
    endloop
  endfacet
  facet normal  2.588192e-001 -9.659259e-001  0.000000e+000
    outer loop
      vertex  1.250000e+001 -1.433013e+001  0.000000e+000
      vertex  1.250000e+001 -1.433013e+001  1.000000e+001
      vertex  1.000000e+001 -1.500000e+001  0.000000e+000
    endloop
  endfacet
  facet normal  2.588192e-001 -9.659259e-001  0.000000e+000
    outer loop
      vertex  1.000000e+001 -1.500000e+001  0.000000e+000
      vertex  1.250000e+001 -1.433013e+001  1.000000e+001
      vertex  1.000000e+001 -1.500000e+001  1.000000e+001
    endloop
  endfacet
  facet normal  2.588192e-001  9.659259e-001  0.000000e+000
    outer loop
      vertex  1.000000e+001  1.500000e+001  0.000000e+000
      vertex  1.000000e+001  1.500000e+001  1.000000e+001
      vertex  1.250000e+001  1.433013e+001  0.000000e+000
    endloop
  endfacet
  facet normal  2.588192e-001  9.659259e-001  -0.000000e+000
    outer loop
      vertex  1.250000e+001  1.433013e+001  0.000000e+000
      vertex  1.000000e+001  1.500000e+001  1.000000e+001
      vertex  1.250000e+001  1.433013e+001  1.000000e+001
    endloop
  endfacet
  facet normal  7.071068e-001  7.071068e-001  0.000000e+000
    outer loop
      vertex  1.250000e+001  1.433013e+001  0.000000e+000
      vertex  1.250000e+001  1.433013e+001  1.000000e+001
      vertex  1.433013e+001  1.250000e+001  0.000000e+000
    endloop
  endfacet
  facet normal  7.071068e-001  7.071068e-001  -0.000000e+000
    outer loop
      vertex  1.433013e+001  1.250000e+001  0.000000e+000
      vertex  1.250000e+001  1.433013e+001  1.000000e+001
      vertex  1.433013e+001  1.250000e+001  1.000000e+001
    endloop
  endfacet
  facet normal  9.659259e-001  2.588192e-001  0.000000e+000
    outer loop
      vertex  1.433013e+001  1.250000e+001  0.000000e+000
      vertex  1.433013e+001  1.250000e+001  1.000000e+001
      vertex  1.500000e+001  1.000000e+001  0.000000e+000
    endloop
  endfacet
  facet normal  9.659259e-001  2.588192e-001  -0.000000e+000
    outer loop
      vertex  1.500000e+001  1.000000e+001  0.000000e+000
      vertex  1.433013e+001  1.250000e+001  1.000000e+001
      vertex  1.500000e+001  1.000000e+001  1.000000e+001
    endloop
  endfacet
  facet normal  0.000000e+000  0.000000e+000  1.000000e+000
    outer loop
      vertex  1.000000e+001 -2.500000e+000  2.500000e+001
      vertex  1.500000e+001 -2.500000e+000  2.500000e+001
      vertex  1.000000e+001  2.500000e+000  2.500000e+001
    endloop
  endfacet
  facet normal  -0.000000e+000  0.000000e+000  1.000000e+000
    outer loop
      vertex  1.000000e+001  2.500000e+000  2.500000e+001
      vertex  1.500000e+001 -2.500000e+000  2.500000e+001
      vertex  1.500000e+001  2.500000e+000  2.500000e+001
    endloop
  endfacet
  facet normal -1.000000e+000  0.000000e+000  -0.000000e+000
    outer loop
      vertex  1.000000e+001 -6.830127e+000  2.250000e+001
      vertex  1.000000e+001 -5.000000e+000  2.433013e+001
      vertex  1.000000e+001 -2.500000e+000  2.500000e+001
    endloop
  endfacet
  facet normal -1.000000e+000  -0.000000e+000  0.000000e+000
    outer loop
      vertex  1.000000e+001 -2.193956e+000  1.880144e+001
      vertex  1.000000e+001 -7.038488e-001  1.760113e+001
      vertex  1.000000e+001 -7.500000e+000  1.000000e+001
    endloop
  endfacet
  facet normal -9.999999e-001  0.000000e+000  0.000000e+000
    outer loop
      vertex  1.000000e+001 -7.500000e+000  1.000000e+001
      vertex  1.000000e+001 -7.038488e-001  1.760113e+001
      vertex  1.000000e+001  1.198564e+000  1.780604e+001
    endloop
  endfacet
  facet normal -9.999999e-001  0.000000e+000  -0.000000e+000
    outer loop
      vertex  1.000000e+001 -7.500000e+000  1.000000e+001
      vertex  1.000000e+001  1.198564e+000  1.780604e+001
      vertex  1.000000e+001  7.500000e+000  1.000000e+001
    endloop
  endfacet
  facet normal -1.000000e+000  0.000000e+000  0.000000e+000
    outer loop
      vertex  1.000000e+001  7.500000e+000  1.000000e+001
      vertex  1.000000e+001  1.198564e+000  1.780604e+001
      vertex  1.000000e+001  2.398874e+000  1.929615e+001
    endloop
  endfacet
  facet normal -1.000000e+000  0.000000e+000  0.000000e+000
    outer loop
      vertex  1.000000e+001  7.500000e+000  1.000000e+001
      vertex  1.000000e+001  2.398874e+000  1.929615e+001
      vertex  1.000000e+001  7.500000e+000  2.000000e+001
    endloop
  endfacet
  facet normal -9.999999e-001  0.000000e+000  0.000000e+000
    outer loop
      vertex  1.000000e+001  2.500000e+000  2.500000e+001
      vertex  1.000000e+001  7.038488e-001  2.239887e+001
      vertex  1.000000e+001 -2.500000e+000  2.500000e+001
    endloop
  endfacet
  facet normal -1.000000e+000  0.000000e+000  0.000000e+000
    outer loop
      vertex  1.000000e+001 -2.500000e+000  2.500000e+001
      vertex  1.000000e+001  7.038488e-001  2.239887e+001
      vertex  1.000000e+001 -1.198564e+000  2.219396e+001
    endloop
  endfacet
  facet normal -9.999999e-001  0.000000e+000  0.000000e+000
    outer loop
      vertex  1.000000e+001 -2.500000e+000  2.500000e+001
      vertex  1.000000e+001 -1.198564e+000  2.219396e+001
      vertex  1.000000e+001 -6.830127e+000  2.250000e+001
    endloop
  endfacet
  facet normal -1.000000e+000  0.000000e+000  0.000000e+000
    outer loop
      vertex  1.000000e+001 -6.830127e+000  2.250000e+001
      vertex  1.000000e+001 -1.198564e+000  2.219396e+001
      vertex  1.000000e+001 -2.398874e+000  2.070385e+001
    endloop
  endfacet
  facet normal -1.000000e+000  -0.000000e+000  0.000000e+000
    outer loop
      vertex  1.000000e+001 -6.830127e+000  2.250000e+001
      vertex  1.000000e+001 -2.398874e+000  2.070385e+001
      vertex  1.000000e+001 -7.500000e+000  2.000000e+001
    endloop
  endfacet
  facet normal -9.999999e-001  0.000000e+000  0.000000e+000
    outer loop
      vertex  1.000000e+001 -7.500000e+000  2.000000e+001
      vertex  1.000000e+001 -2.398874e+000  2.070385e+001
      vertex  1.000000e+001 -2.193956e+000  1.880144e+001
    endloop
  endfacet
  facet normal -1.000000e+000  -0.000000e+000  0.000000e+000
    outer loop
      vertex  1.000000e+001 -7.500000e+000  2.000000e+001
      vertex  1.000000e+001 -2.193956e+000  1.880144e+001
      vertex  1.000000e+001 -7.500000e+000  1.000000e+001
    endloop
  endfacet
  facet normal -1.000000e+000  0.000000e+000  0.000000e+000
    outer loop
      vertex  1.000000e+001  2.398874e+000  1.929615e+001
      vertex  1.000000e+001  2.193956e+000  2.119856e+001
      vertex  1.000000e+001  7.500000e+000  2.000000e+001
    endloop
  endfacet
  facet normal -1.000000e+000  0.000000e+000  0.000000e+000
    outer loop
      vertex  1.000000e+001  7.500000e+000  2.000000e+001
      vertex  1.000000e+001  2.193956e+000  2.119856e+001
      vertex  1.000000e+001  7.038488e-001  2.239887e+001
    endloop
  endfacet
  facet normal -1.000000e+000  0.000000e+000  0.000000e+000
    outer loop
      vertex  1.000000e+001  7.500000e+000  2.000000e+001
      vertex  1.000000e+001  7.038488e-001  2.239887e+001
      vertex  1.000000e+001  6.830127e+000  2.250000e+001
    endloop
  endfacet
  facet normal -9.999999e-001  -0.000000e+000  0.000000e+000
    outer loop
      vertex  1.000000e+001  6.830127e+000  2.250000e+001
      vertex  1.000000e+001  7.038488e-001  2.239887e+001
      vertex  1.000000e+001  2.500000e+000  2.500000e+001
    endloop
  endfacet
  facet normal -1.000000e+000  0.000000e+000  0.000000e+000
    outer loop
      vertex  1.000000e+001  6.830127e+000  2.250000e+001
      vertex  1.000000e+001  2.500000e+000  2.500000e+001
      vertex  1.000000e+001  5.000000e+000  2.433013e+001
    endloop
  endfacet
  facet normal  0.000000e+000 -1.000000e+000  0.000000e+000
    outer loop
      vertex  1.500000e+001 -7.500000e+000  2.000000e+001
      vertex  1.000000e+001 -7.500000e+000  2.000000e+001
      vertex  1.500000e+001 -7.500000e+000  1.000000e+001
    endloop
  endfacet
  facet normal  0.000000e+000 -1.000000e+000  0.000000e+000
    outer loop
      vertex  1.500000e+001 -7.500000e+000  1.000000e+001
      vertex  1.000000e+001 -7.500000e+000  2.000000e+001
      vertex  1.000000e+001 -7.500000e+000  1.000000e+001
    endloop
  endfacet
  facet normal  0.000000e+000 -9.659259e-001  2.588190e-001
    outer loop
      vertex  1.000000e+001 -7.500000e+000  2.000000e+001
      vertex  1.500000e+001 -7.500000e+000  2.000000e+001
      vertex  1.000000e+001 -6.830127e+000  2.250000e+001
    endloop
  endfacet
  facet normal  0.000000e+000 -9.659259e-001  2.588190e-001
    outer loop
      vertex  1.000000e+001 -6.830127e+000  2.250000e+001
      vertex  1.500000e+001 -7.500000e+000  2.000000e+001
      vertex  1.500000e+001 -6.830127e+000  2.250000e+001
    endloop
  endfacet
  facet normal  0.000000e+000 -7.071068e-001  7.071066e-001
    outer loop
      vertex  1.000000e+001 -6.830127e+000  2.250000e+001
      vertex  1.500000e+001 -6.830127e+000  2.250000e+001
      vertex  1.000000e+001 -5.000000e+000  2.433013e+001
    endloop
  endfacet
  facet normal  0.000000e+000 -7.071068e-001  7.071066e-001
    outer loop
      vertex  1.000000e+001 -5.000000e+000  2.433013e+001
      vertex  1.500000e+001 -6.830127e+000  2.250000e+001
      vertex  1.500000e+001 -5.000000e+000  2.433013e+001
    endloop
  endfacet
  facet normal  0.000000e+000 -2.588188e-001  9.659259e-001
    outer loop
      vertex  1.000000e+001 -5.000000e+000  2.433013e+001
      vertex  1.500000e+001 -5.000000e+000  2.433013e+001
      vertex  1.000000e+001 -2.500000e+000  2.500000e+001
    endloop
  endfacet
  facet normal  0.000000e+000 -2.588188e-001  9.659259e-001
    outer loop
      vertex  1.000000e+001 -2.500000e+000  2.500000e+001
      vertex  1.500000e+001 -5.000000e+000  2.433013e+001
      vertex  1.500000e+001 -2.500000e+000  2.500000e+001
    endloop
  endfacet
  facet normal  0.000000e+000  1.000000e+000  0.000000e+000
    outer loop
      vertex  1.000000e+001  7.500000e+000  2.000000e+001
      vertex  1.500000e+001  7.500000e+000  2.000000e+001
      vertex  1.000000e+001  7.500000e+000  1.000000e+001
    endloop
  endfacet
  facet normal  0.000000e+000  1.000000e+000  0.000000e+000
    outer loop
      vertex  1.000000e+001  7.500000e+000  1.000000e+001
      vertex  1.500000e+001  7.500000e+000  2.000000e+001
      vertex  1.500000e+001  7.500000e+000  1.000000e+001
    endloop
  endfacet
  facet normal  -0.000000e+000  9.659259e-001  2.588190e-001
    outer loop
      vertex  1.500000e+001  7.500000e+000  2.000000e+001
      vertex  1.000000e+001  7.500000e+000  2.000000e+001
      vertex  1.500000e+001  6.830127e+000  2.250000e+001
    endloop
  endfacet
  facet normal  0.000000e+000  9.659259e-001  2.588190e-001
    outer loop
      vertex  1.500000e+001  6.830127e+000  2.250000e+001
      vertex  1.000000e+001  7.500000e+000  2.000000e+001
      vertex  1.000000e+001  6.830127e+000  2.250000e+001
    endloop
  endfacet
  facet normal  -0.000000e+000  7.071068e-001  7.071066e-001
    outer loop
      vertex  1.500000e+001  6.830127e+000  2.250000e+001
      vertex  1.000000e+001  6.830127e+000  2.250000e+001
      vertex  1.500000e+001  5.000000e+000  2.433013e+001
    endloop
  endfacet
  facet normal  0.000000e+000  7.071068e-001  7.071066e-001
    outer loop
      vertex  1.500000e+001  5.000000e+000  2.433013e+001
      vertex  1.000000e+001  6.830127e+000  2.250000e+001
      vertex  1.000000e+001  5.000000e+000  2.433013e+001
    endloop
  endfacet
  facet normal  -0.000000e+000  2.588188e-001  9.659259e-001
    outer loop
      vertex  1.500000e+001  5.000000e+000  2.433013e+001
      vertex  1.000000e+001  5.000000e+000  2.433013e+001
      vertex  1.500000e+001  2.500000e+000  2.500000e+001
    endloop
  endfacet
  facet normal  0.000000e+000  2.588188e-001  9.659259e-001
    outer loop
      vertex  1.500000e+001  2.500000e+000  2.500000e+001
      vertex  1.000000e+001  5.000000e+000  2.433013e+001
      vertex  1.000000e+001  2.500000e+000  2.500000e+001
    endloop
  endfacet
  facet normal  0.000000e+000  0.000000e+000  1.000000e+000
    outer loop
      vertex -1.500000e+001 -2.500000e+000  2.500000e+001
      vertex -1.000000e+001 -2.500000e+000  2.500000e+001
      vertex -1.500000e+001  2.500000e+000  2.500000e+001
    endloop
  endfacet
  facet normal  -0.000000e+000  0.000000e+000  1.000000e+000
    outer loop
      vertex -1.500000e+001  2.500000e+000  2.500000e+001
      vertex -1.000000e+001 -2.500000e+000  2.500000e+001
      vertex -1.000000e+001  2.500000e+000  2.500000e+001
    endloop
  endfacet
  facet normal  1.000000e+000  -0.000000e+000  0.000000e+000
    outer loop
      vertex -1.000000e+001 -2.500000e+000  2.500000e+001
      vertex -1.000000e+001 -5.000000e+000  2.433013e+001
      vertex -1.000000e+001 -6.830127e+000  2.250000e+001
    endloop
  endfacet
  facet normal  1.000000e+000  -0.000000e+000  0.000000e+000
    outer loop
      vertex -1.000000e+001  7.500000e+000  2.000000e+001
      vertex -1.000000e+001  2.398874e+000  1.929615e+001
      vertex -1.000000e+001  7.500000e+000  1.000000e+001
    endloop
  endfacet
  facet normal  1.000000e+000  0.000000e+000  0.000000e+000
    outer loop
      vertex -1.000000e+001  7.500000e+000  1.000000e+001
      vertex -1.000000e+001  2.398874e+000  1.929615e+001
      vertex -1.000000e+001  1.198564e+000  1.780604e+001
    endloop
  endfacet
  facet normal  9.999999e-001  0.000000e+000  0.000000e+000
    outer loop
      vertex -1.000000e+001  7.500000e+000  1.000000e+001
      vertex -1.000000e+001  1.198564e+000  1.780604e+001
      vertex -1.000000e+001 -7.500000e+000  1.000000e+001
    endloop
  endfacet
  facet normal  9.999999e-001  0.000000e+000  0.000000e+000
    outer loop
      vertex -1.000000e+001 -7.500000e+000  1.000000e+001
      vertex -1.000000e+001  1.198564e+000  1.780604e+001
      vertex -1.000000e+001 -7.038488e-001  1.760113e+001
    endloop
  endfacet
  facet normal  1.000000e+000  0.000000e+000  0.000000e+000
    outer loop
      vertex -1.000000e+001 -7.500000e+000  1.000000e+001
      vertex -1.000000e+001 -7.038488e-001  1.760113e+001
      vertex -1.000000e+001 -2.193956e+000  1.880144e+001
    endloop
  endfacet
  facet normal  1.000000e+000  0.000000e+000  0.000000e+000
    outer loop
      vertex -1.000000e+001 -7.500000e+000  1.000000e+001
      vertex -1.000000e+001 -2.193956e+000  1.880144e+001
      vertex -1.000000e+001 -7.500000e+000  2.000000e+001
    endloop
  endfacet
  facet normal  9.999999e-001  -0.000000e+000  0.000000e+000
    outer loop
      vertex -1.000000e+001 -7.500000e+000  2.000000e+001
      vertex -1.000000e+001 -2.193956e+000  1.880144e+001
      vertex -1.000000e+001 -2.398874e+000  2.070385e+001
    endloop
  endfacet
  facet normal  1.000000e+000  0.000000e+000  0.000000e+000
    outer loop
      vertex -1.000000e+001 -7.500000e+000  2.000000e+001
      vertex -1.000000e+001 -2.398874e+000  2.070385e+001
      vertex -1.000000e+001 -6.830127e+000  2.250000e+001
    endloop
  endfacet
  facet normal  1.000000e+000  0.000000e+000  0.000000e+000
    outer loop
      vertex -1.000000e+001 -6.830127e+000  2.250000e+001
      vertex -1.000000e+001 -2.398874e+000  2.070385e+001
      vertex -1.000000e+001 -1.198564e+000  2.219396e+001
    endloop
  endfacet
  facet normal  9.999999e-001  0.000000e+000  0.000000e+000
    outer loop
      vertex -1.000000e+001 -6.830127e+000  2.250000e+001
      vertex -1.000000e+001 -1.198564e+000  2.219396e+001
      vertex -1.000000e+001 -2.500000e+000  2.500000e+001
    endloop
  endfacet
  facet normal  1.000000e+000  0.000000e+000  0.000000e+000
    outer loop
      vertex -1.000000e+001 -2.500000e+000  2.500000e+001
      vertex -1.000000e+001 -1.198564e+000  2.219396e+001
      vertex -1.000000e+001  7.038488e-001  2.239887e+001
    endloop
  endfacet
  facet normal  9.999999e-001  0.000000e+000  -0.000000e+000
    outer loop
      vertex -1.000000e+001 -2.500000e+000  2.500000e+001
      vertex -1.000000e+001  7.038488e-001  2.239887e+001
      vertex -1.000000e+001  2.500000e+000  2.500000e+001
    endloop
  endfacet
  facet normal  1.000000e+000  0.000000e+000  0.000000e+000
    outer loop
      vertex -1.000000e+001  5.000000e+000  2.433013e+001
      vertex -1.000000e+001  2.500000e+000  2.500000e+001
      vertex -1.000000e+001  6.830127e+000  2.250000e+001
    endloop
  endfacet
  facet normal  9.999999e-001  0.000000e+000  0.000000e+000
    outer loop
      vertex -1.000000e+001  6.830127e+000  2.250000e+001
      vertex -1.000000e+001  2.500000e+000  2.500000e+001
      vertex -1.000000e+001  7.038488e-001  2.239887e+001
    endloop
  endfacet
  facet normal  1.000000e+000  -0.000000e+000  0.000000e+000
    outer loop
      vertex -1.000000e+001  6.830127e+000  2.250000e+001
      vertex -1.000000e+001  7.038488e-001  2.239887e+001
      vertex -1.000000e+001  7.500000e+000  2.000000e+001
    endloop
  endfacet
  facet normal  1.000000e+000  0.000000e+000  0.000000e+000
    outer loop
      vertex -1.000000e+001  7.500000e+000  2.000000e+001
      vertex -1.000000e+001  7.038488e-001  2.239887e+001
      vertex -1.000000e+001  2.193956e+000  2.119856e+001
    endloop
  endfacet
  facet normal  1.000000e+000  0.000000e+000  0.000000e+000
    outer loop
      vertex -1.000000e+001  7.500000e+000  2.000000e+001
      vertex -1.000000e+001  2.193956e+000  2.119856e+001
      vertex -1.000000e+001  2.398874e+000  1.929615e+001
    endloop
  endfacet
  facet normal  0.000000e+000 -1.000000e+000  0.000000e+000
    outer loop
      vertex -1.000000e+001 -7.500000e+000  2.000000e+001
      vertex -1.500000e+001 -7.500000e+000  2.000000e+001
      vertex -1.000000e+001 -7.500000e+000  1.000000e+001
    endloop
  endfacet
  facet normal  0.000000e+000 -1.000000e+000  0.000000e+000
    outer loop
      vertex -1.000000e+001 -7.500000e+000  1.000000e+001
      vertex -1.500000e+001 -7.500000e+000  2.000000e+001
      vertex -1.500000e+001 -7.500000e+000  1.000000e+001
    endloop
  endfacet
  facet normal  0.000000e+000 -2.588188e-001  9.659259e-001
    outer loop
      vertex -1.000000e+001 -2.500000e+000  2.500000e+001
      vertex -1.500000e+001 -2.500000e+000  2.500000e+001
      vertex -1.000000e+001 -5.000000e+000  2.433013e+001
    endloop
  endfacet
  facet normal  0.000000e+000 -2.588188e-001  9.659259e-001
    outer loop
      vertex -1.000000e+001 -5.000000e+000  2.433013e+001
      vertex -1.500000e+001 -2.500000e+000  2.500000e+001
      vertex -1.500000e+001 -5.000000e+000  2.433013e+001
    endloop
  endfacet
  facet normal  0.000000e+000 -7.071068e-001  7.071066e-001
    outer loop
      vertex -1.000000e+001 -5.000000e+000  2.433013e+001
      vertex -1.500000e+001 -5.000000e+000  2.433013e+001
      vertex -1.000000e+001 -6.830127e+000  2.250000e+001
    endloop
  endfacet
  facet normal  0.000000e+000 -7.071068e-001  7.071066e-001
    outer loop
      vertex -1.000000e+001 -6.830127e+000  2.250000e+001
      vertex -1.500000e+001 -5.000000e+000  2.433013e+001
      vertex -1.500000e+001 -6.830127e+000  2.250000e+001
    endloop
  endfacet
  facet normal  0.000000e+000 -9.659259e-001  2.588190e-001
    outer loop
      vertex -1.000000e+001 -6.830127e+000  2.250000e+001
      vertex -1.500000e+001 -6.830127e+000  2.250000e+001
      vertex -1.000000e+001 -7.500000e+000  2.000000e+001
    endloop
  endfacet
  facet normal  0.000000e+000 -9.659259e-001  2.588190e-001
    outer loop
      vertex -1.000000e+001 -7.500000e+000  2.000000e+001
      vertex -1.500000e+001 -6.830127e+000  2.250000e+001
      vertex -1.500000e+001 -7.500000e+000  2.000000e+001
    endloop
  endfacet
  facet normal  0.000000e+000  1.000000e+000  0.000000e+000
    outer loop
      vertex -1.500000e+001  7.500000e+000  2.000000e+001
      vertex -1.000000e+001  7.500000e+000  2.000000e+001
      vertex -1.500000e+001  7.500000e+000  1.000000e+001
    endloop
  endfacet
  facet normal  0.000000e+000  1.000000e+000  0.000000e+000
    outer loop
      vertex -1.500000e+001  7.500000e+000  1.000000e+001
      vertex -1.000000e+001  7.500000e+000  2.000000e+001
      vertex -1.000000e+001  7.500000e+000  1.000000e+001
    endloop
  endfacet
  facet normal  0.000000e+000  2.588188e-001  9.659259e-001
    outer loop
      vertex -1.500000e+001  2.500000e+000  2.500000e+001
      vertex -1.000000e+001  2.500000e+000  2.500000e+001
      vertex -1.500000e+001  5.000000e+000  2.433013e+001
    endloop
  endfacet
  facet normal  -0.000000e+000  2.588188e-001  9.659259e-001
    outer loop
      vertex -1.500000e+001  5.000000e+000  2.433013e+001
      vertex -1.000000e+001  2.500000e+000  2.500000e+001
      vertex -1.000000e+001  5.000000e+000  2.433013e+001
    endloop
  endfacet
  facet normal  0.000000e+000  7.071068e-001  7.071066e-001
    outer loop
      vertex -1.500000e+001  5.000000e+000  2.433013e+001
      vertex -1.000000e+001  5.000000e+000  2.433013e+001
      vertex -1.500000e+001  6.830127e+000  2.250000e+001
    endloop
  endfacet
  facet normal  -0.000000e+000  7.071068e-001  7.071066e-001
    outer loop
      vertex -1.500000e+001  6.830127e+000  2.250000e+001
      vertex -1.000000e+001  5.000000e+000  2.433013e+001
      vertex -1.000000e+001  6.830127e+000  2.250000e+001
    endloop
  endfacet
  facet normal  0.000000e+000  9.659259e-001  2.588190e-001
    outer loop
      vertex -1.500000e+001  6.830127e+000  2.250000e+001
      vertex -1.000000e+001  6.830127e+000  2.250000e+001
      vertex -1.500000e+001  7.500000e+000  2.000000e+001
    endloop
  endfacet
  facet normal  -0.000000e+000  9.659259e-001  2.588190e-001
    outer loop
      vertex -1.500000e+001  7.500000e+000  2.000000e+001
      vertex -1.000000e+001  6.830127e+000  2.250000e+001
      vertex -1.000000e+001  7.500000e+000  2.000000e+001
    endloop
  endfacet
  facet normal  0.000000e+000  7.787679e-001 -6.273121e-001
    outer loop
      vertex -1.500000e+001 -1.198564e+000  2.219396e+001
      vertex -1.000000e+001 -2.398874e+000  2.070385e+001
      vertex -1.500000e+001 -2.398874e+000  2.070385e+001
    endloop
  endfacet
  facet normal  -0.000000e+000  9.942488e-001  1.070952e-001
    outer loop
      vertex -1.500000e+001 -2.398874e+000  2.070385e+001
      vertex -1.000000e+001 -2.398874e+000  2.070385e+001
      vertex -1.000000e+001 -2.193956e+000  1.880144e+001
    endloop
  endfacet
  facet normal  0.000000e+000  9.942488e-001  1.070952e-001
    outer loop
      vertex -1.500000e+001 -2.398874e+000  2.070385e+001
      vertex -1.000000e+001 -2.193956e+000  1.880144e+001
      vertex -1.500000e+001 -2.193956e+000  1.880144e+001
    endloop
  endfacet
  facet normal  0.000000e+000  7.787679e-001 -6.273121e-001
    outer loop
      vertex -1.000000e+001 -2.398874e+000  2.070385e+001
      vertex -1.500000e+001 -1.198564e+000  2.219396e+001
      vertex -1.000000e+001 -1.198564e+000  2.219396e+001
    endloop
  endfacet
  facet normal  0.000000e+000  1.070953e-001 -9.942488e-001
    outer loop
      vertex -1.000000e+001 -1.198564e+000  2.219396e+001
      vertex -1.500000e+001 -1.198564e+000  2.219396e+001
      vertex -1.500000e+001  7.038488e-001  2.239887e+001
    endloop
  endfacet
  facet normal  0.000000e+000  1.070953e-001 -9.942488e-001
    outer loop
      vertex -1.000000e+001 -1.198564e+000  2.219396e+001
      vertex -1.500000e+001  7.038488e-001  2.239887e+001
      vertex -1.000000e+001  7.038488e-001  2.239887e+001
    endloop
  endfacet
  facet normal  -0.000000e+000 -6.273122e-001 -7.787678e-001
    outer loop
      vertex -1.000000e+001  7.038488e-001  2.239887e+001
      vertex -1.500000e+001  7.038488e-001  2.239887e+001
      vertex -1.500000e+001  2.193956e+000  2.119856e+001
    endloop
  endfacet
  facet normal  0.000000e+000 -6.273122e-001 -7.787678e-001
    outer loop
      vertex -1.000000e+001  7.038488e-001  2.239887e+001
      vertex -1.500000e+001  2.193956e+000  2.119856e+001
      vertex -1.000000e+001  2.193956e+000  2.119856e+001
    endloop
  endfacet
  facet normal  0.000000e+000  7.787679e-001 -6.273121e-001
    outer loop
      vertex  1.000000e+001 -1.198564e+000  2.219396e+001
      vertex  1.500000e+001 -2.398874e+000  2.070385e+001
      vertex  1.000000e+001 -2.398874e+000  2.070385e+001
    endloop
  endfacet
  facet normal  -0.000000e+000  9.942488e-001  1.070952e-001
    outer loop
      vertex  1.000000e+001 -2.398874e+000  2.070385e+001
      vertex  1.500000e+001 -2.398874e+000  2.070385e+001
      vertex  1.500000e+001 -2.193956e+000  1.880144e+001
    endloop
  endfacet
  facet normal  0.000000e+000  9.942488e-001  1.070952e-001
    outer loop
      vertex  1.000000e+001 -2.398874e+000  2.070385e+001
      vertex  1.500000e+001 -2.193956e+000  1.880144e+001
      vertex  1.000000e+001 -2.193956e+000  1.880144e+001
    endloop
  endfacet
  facet normal  0.000000e+000  7.787679e-001 -6.273121e-001
    outer loop
      vertex  1.500000e+001 -2.398874e+000  2.070385e+001
      vertex  1.000000e+001 -1.198564e+000  2.219396e+001
      vertex  1.500000e+001 -1.198564e+000  2.219396e+001
    endloop
  endfacet
  facet normal  0.000000e+000  1.070953e-001 -9.942488e-001
    outer loop
      vertex  1.500000e+001 -1.198564e+000  2.219396e+001
      vertex  1.000000e+001 -1.198564e+000  2.219396e+001
      vertex  1.000000e+001  7.038488e-001  2.239887e+001
    endloop
  endfacet
  facet normal  0.000000e+000  1.070953e-001 -9.942488e-001
    outer loop
      vertex  1.500000e+001 -1.198564e+000  2.219396e+001
      vertex  1.000000e+001  7.038488e-001  2.239887e+001
      vertex  1.500000e+001  7.038488e-001  2.239887e+001
    endloop
  endfacet
  facet normal  -0.000000e+000 -6.273122e-001 -7.787678e-001
    outer loop
      vertex  1.500000e+001  7.038488e-001  2.239887e+001
      vertex  1.000000e+001  7.038488e-001  2.239887e+001
      vertex  1.000000e+001  2.193956e+000  2.119856e+001
    endloop
  endfacet
  facet normal  0.000000e+000 -6.273122e-001 -7.787678e-001
    outer loop
      vertex  1.500000e+001  7.038488e-001  2.239887e+001
      vertex  1.000000e+001  2.193956e+000  2.119856e+001
      vertex  1.500000e+001  2.193956e+000  2.119856e+001
    endloop
  endfacet
  facet normal  0.000000e+000 -7.787679e-001  6.273121e-001
    outer loop
      vertex -1.500000e+001  1.198564e+000  1.780604e+001
      vertex -1.000000e+001  2.398874e+000  1.929615e+001
      vertex -1.500000e+001  2.398874e+000  1.929615e+001
    endloop
  endfacet
  facet normal  0.000000e+000 -9.942488e-001 -1.070952e-001
    outer loop
      vertex -1.500000e+001  2.398874e+000  1.929615e+001
      vertex -1.000000e+001  2.398874e+000  1.929615e+001
      vertex -1.000000e+001  2.193956e+000  2.119856e+001
    endloop
  endfacet
  facet normal  -0.000000e+000 -9.942488e-001 -1.070952e-001
    outer loop
      vertex -1.500000e+001  2.398874e+000  1.929615e+001
      vertex -1.000000e+001  2.193956e+000  2.119856e+001
      vertex -1.500000e+001  2.193956e+000  2.119856e+001
    endloop
  endfacet
  facet normal  0.000000e+000 -7.787679e-001  6.273121e-001
    outer loop
      vertex -1.000000e+001  2.398874e+000  1.929615e+001
      vertex -1.500000e+001  1.198564e+000  1.780604e+001
      vertex -1.000000e+001  1.198564e+000  1.780604e+001
    endloop
  endfacet
  facet normal  0.000000e+000 -1.070953e-001  9.942488e-001
    outer loop
      vertex -1.000000e+001  1.198564e+000  1.780604e+001
      vertex -1.500000e+001  1.198564e+000  1.780604e+001
      vertex -1.500000e+001 -7.038488e-001  1.760113e+001
    endloop
  endfacet
  facet normal  0.000000e+000 -1.070953e-001  9.942488e-001
    outer loop
      vertex -1.000000e+001  1.198564e+000  1.780604e+001
      vertex -1.500000e+001 -7.038488e-001  1.760113e+001
      vertex -1.000000e+001 -7.038488e-001  1.760113e+001
    endloop
  endfacet
  facet normal  0.000000e+000  6.273122e-001  7.787678e-001
    outer loop
      vertex -1.000000e+001 -7.038488e-001  1.760113e+001
      vertex -1.500000e+001 -7.038488e-001  1.760113e+001
      vertex -1.500000e+001 -2.193956e+000  1.880144e+001
    endloop
  endfacet
  facet normal  -0.000000e+000  6.273122e-001  7.787678e-001
    outer loop
      vertex -1.000000e+001 -7.038488e-001  1.760113e+001
      vertex -1.500000e+001 -2.193956e+000  1.880144e+001
      vertex -1.000000e+001 -2.193956e+000  1.880144e+001
    endloop
  endfacet
  facet normal  0.000000e+000 -7.787679e-001  6.273121e-001
    outer loop
      vertex  1.000000e+001  1.198564e+000  1.780604e+001
      vertex  1.500000e+001  2.398874e+000  1.929615e+001
      vertex  1.000000e+001  2.398874e+000  1.929615e+001
    endloop
  endfacet
  facet normal  0.000000e+000 -9.942488e-001 -1.070952e-001
    outer loop
      vertex  1.000000e+001  2.398874e+000  1.929615e+001
      vertex  1.500000e+001  2.398874e+000  1.929615e+001
      vertex  1.500000e+001  2.193956e+000  2.119856e+001
    endloop
  endfacet
  facet normal  -0.000000e+000 -9.942488e-001 -1.070952e-001
    outer loop
      vertex  1.000000e+001  2.398874e+000  1.929615e+001
      vertex  1.500000e+001  2.193956e+000  2.119856e+001
      vertex  1.000000e+001  2.193956e+000  2.119856e+001
    endloop
  endfacet
  facet normal  0.000000e+000 -7.787679e-001  6.273121e-001
    outer loop
      vertex  1.500000e+001  2.398874e+000  1.929615e+001
      vertex  1.000000e+001  1.198564e+000  1.780604e+001
      vertex  1.500000e+001  1.198564e+000  1.780604e+001
    endloop
  endfacet
  facet normal  0.000000e+000 -1.070953e-001  9.942488e-001
    outer loop
      vertex  1.500000e+001  1.198564e+000  1.780604e+001
      vertex  1.000000e+001  1.198564e+000  1.780604e+001
      vertex  1.000000e+001 -7.038488e-001  1.760113e+001
    endloop
  endfacet
  facet normal  0.000000e+000 -1.070953e-001  9.942488e-001
    outer loop
      vertex  1.500000e+001  1.198564e+000  1.780604e+001
      vertex  1.000000e+001 -7.038488e-001  1.760113e+001
      vertex  1.500000e+001 -7.038488e-001  1.760113e+001
    endloop
  endfacet
  facet normal  0.000000e+000  6.273122e-001  7.787678e-001
    outer loop
      vertex  1.500000e+001 -7.038488e-001  1.760113e+001
      vertex  1.000000e+001 -7.038488e-001  1.760113e+001
      vertex  1.000000e+001 -2.193956e+000  1.880144e+001
    endloop
  endfacet
  facet normal  -0.000000e+000  6.273122e-001  7.787678e-001
    outer loop
      vertex  1.500000e+001 -7.038488e-001  1.760113e+001
      vertex  1.000000e+001 -2.193956e+000  1.880144e+001
      vertex  1.500000e+001 -2.193956e+000  1.880144e+001
    endloop
  endfacet
endsolid CATIA STL
