solid CATIA STL
  facet normal  0.000000e+000  1.000000e+000  0.000000e+000
    outer loop
      vertex  7.500000e+000  3.850000e+001  0.000000e+000
      vertex  8.250000e+000  3.850000e+001 -1.600000e+001
      vertex  7.500000e+000  3.850000e+001 -1.600000e+001
    endloop
  endfacet
  facet normal  0.000000e+000  1.000000e+000  0.000000e+000
    outer loop
      vertex  8.250000e+000  3.850000e+001 -1.600000e+001
      vertex  7.500000e+000  3.850000e+001  0.000000e+000
      vertex  8.250000e+000  3.850000e+001 -1.000000e-001
    endloop
  endfacet
  facet normal  0.000000e+000  1.000000e+000  -0.000000e+000
    outer loop
      vertex  8.250000e+000  3.850000e+001 -1.000000e-001
      vertex  7.500000e+000  3.850000e+001  0.000000e+000
      vertex  9.500000e+000  3.850000e+001  0.000000e+000
    endloop
  endfacet
  facet normal  0.000000e+000  1.000000e+000  0.000000e+000
    outer loop
      vertex  8.250000e+000  3.850000e+001 -1.000000e-001
      vertex  9.500000e+000  3.850000e+001  0.000000e+000
      vertex  8.750000e+000  3.850000e+001 -1.000000e-001
    endloop
  endfacet
  facet normal  -0.000000e+000  1.000000e+000  0.000000e+000
    outer loop
      vertex  8.750000e+000  3.850000e+001 -1.000000e-001
      vertex  9.500000e+000  3.850000e+001  0.000000e+000
      vertex  9.500000e+000  3.850000e+001 -1.600000e+001
    endloop
  endfacet
  facet normal  0.000000e+000  1.000000e+000  0.000000e+000
    outer loop
      vertex  8.750000e+000  3.850000e+001 -1.000000e-001
      vertex  9.500000e+000  3.850000e+001 -1.600000e+001
      vertex  8.750000e+000  3.850000e+001 -1.600000e+001
    endloop
  endfacet
  facet normal  -0.000000e+000  0.000000e+000 -9.999999e-001
    outer loop
      vertex -5.300000e+000  3.850000e+001 -1.600000e+001
      vertex -9.588511e-001  3.675517e+001 -1.600000e+001
      vertex -1.919099e+000  3.556308e+001 -1.600000e+001
    endloop
  endfacet
  facet normal  0.000000e+000  0.000000e+000 -1.000000e+000
    outer loop
      vertex -9.500000e+000  3.150000e+001 -1.600000e+001
      vertex -9.500000e+000  3.850000e+001 -1.600000e+001
      vertex -8.750000e+000  3.850000e+001 -1.600000e+001
    endloop
  endfacet
  facet normal  0.000000e+000  -0.000000e+000 -1.000000e+000
    outer loop
      vertex -9.500000e+000  3.150000e+001 -1.600000e+001
      vertex -8.750000e+000  3.850000e+001 -1.600000e+001
      vertex -8.750000e+000  3.550000e+001 -1.600000e+001
    endloop
  endfacet
  facet normal  0.000000e+000  -0.000000e+000 -1.000000e+000
    outer loop
      vertex -9.500000e+000  3.150000e+001 -1.600000e+001
      vertex -8.750000e+000  3.550000e+001 -1.600000e+001
      vertex -8.250000e+000  3.550000e+001 -1.600000e+001
    endloop
  endfacet
  facet normal  0.000000e+000  -0.000000e+000 -1.000000e+000
    outer loop
      vertex -9.500000e+000  3.150000e+001 -1.600000e+001
      vertex -8.250000e+000  3.550000e+001 -1.600000e+001
      vertex -7.500000e+000  3.250000e+001 -1.600000e+001
    endloop
  endfacet
  facet normal  0.000000e+000  -0.000000e+000 -1.000000e+000
    outer loop
      vertex -9.500000e+000  3.150000e+001 -1.600000e+001
      vertex -7.500000e+000  3.250000e+001 -1.600000e+001
      vertex -5.300000e+000  3.250000e+001 -1.600000e+001
    endloop
  endfacet
  facet normal  0.000000e+000  -0.000000e+000 -1.000000e+000
    outer loop
      vertex -9.500000e+000  3.150000e+001 -1.600000e+001
      vertex -5.300000e+000  3.250000e+001 -1.600000e+001
      vertex -5.630791e-001  3.308090e+001 -1.600000e+001
    endloop
  endfacet
  facet normal  0.000000e+000  -0.000000e+000 -1.000000e+000
    outer loop
      vertex -9.500000e+000  3.150000e+001 -1.600000e+001
      vertex -5.630791e-001  3.308090e+001 -1.600000e+001
      vertex  9.588511e-001  3.324483e+001 -1.600000e+001
    endloop
  endfacet
  facet normal  0.000000e+000  -0.000000e+000 -1.000000e+000
    outer loop
      vertex -9.500000e+000  3.150000e+001 -1.600000e+001
      vertex  9.588511e-001  3.324483e+001 -1.600000e+001
      vertex  5.300000e+000  3.250000e+001 -1.600000e+001
    endloop
  endfacet
  facet normal  0.000000e+000  -0.000000e+000 -1.000000e+000
    outer loop
      vertex -9.500000e+000  3.150000e+001 -1.600000e+001
      vertex  5.300000e+000  3.250000e+001 -1.600000e+001
      vertex  9.500000e+000  3.150000e+001 -1.600000e+001
    endloop
  endfacet
  facet normal  0.000000e+000  0.000000e+000 -1.000000e+000
    outer loop
      vertex  9.500000e+000  3.150000e+001 -1.600000e+001
      vertex  5.300000e+000  3.250000e+001 -1.600000e+001
      vertex  7.500000e+000  3.250000e+001 -1.600000e+001
    endloop
  endfacet
  facet normal  0.000000e+000  0.000000e+000 -1.000000e+000
    outer loop
      vertex  9.500000e+000  3.150000e+001 -1.600000e+001
      vertex  7.500000e+000  3.250000e+001 -1.600000e+001
      vertex  8.750000e+000  3.550000e+001 -1.600000e+001
    endloop
  endfacet
  facet normal  0.000000e+000  0.000000e+000 -1.000000e+000
    outer loop
      vertex  9.500000e+000  3.150000e+001 -1.600000e+001
      vertex  8.750000e+000  3.550000e+001 -1.600000e+001
      vertex  8.750000e+000  3.850000e+001 -1.600000e+001
    endloop
  endfacet
  facet normal  0.000000e+000  0.000000e+000 -1.000000e+000
    outer loop
      vertex  9.500000e+000  3.150000e+001 -1.600000e+001
      vertex  8.750000e+000  3.850000e+001 -1.600000e+001
      vertex  9.500000e+000  3.850000e+001 -1.600000e+001
    endloop
  endfacet
  facet normal  0.000000e+000  0.000000e+000 -1.000000e+000
    outer loop
      vertex  5.300000e+000  3.850000e+001 -1.600000e+001
      vertex  5.300000e+000  3.250000e+001 -1.600000e+001
      vertex  9.588511e-001  3.324483e+001 -1.600000e+001
    endloop
  endfacet
  facet normal  0.000000e+000  0.000000e+000 -1.000000e+000
    outer loop
      vertex  5.300000e+000  3.850000e+001 -1.600000e+001
      vertex  9.588511e-001  3.324483e+001 -1.600000e+001
      vertex  1.919099e+000  3.443692e+001 -1.600000e+001
    endloop
  endfacet
  facet normal  0.000000e+000  0.000000e+000 -1.000000e+000
    outer loop
      vertex  5.300000e+000  3.850000e+001 -1.600000e+001
      vertex  1.919099e+000  3.443692e+001 -1.600000e+001
      vertex  1.755165e+000  3.595885e+001 -1.600000e+001
    endloop
  endfacet
  facet normal  0.000000e+000  0.000000e+000 -1.000000e+000
    outer loop
      vertex  5.300000e+000  3.850000e+001 -1.600000e+001
      vertex  1.755165e+000  3.595885e+001 -1.600000e+001
      vertex  5.630791e-001  3.691910e+001 -1.600000e+001
    endloop
  endfacet
  facet normal  -0.000000e+000  0.000000e+000 -1.000000e+000
    outer loop
      vertex  5.300000e+000  3.850000e+001 -1.600000e+001
      vertex  5.630791e-001  3.691910e+001 -1.600000e+001
      vertex -9.588511e-001  3.675517e+001 -1.600000e+001
    endloop
  endfacet
  facet normal  0.000000e+000  0.000000e+000 -1.000000e+000
    outer loop
      vertex  5.300000e+000  3.850000e+001 -1.600000e+001
      vertex -9.588511e-001  3.675517e+001 -1.600000e+001
      vertex -5.300000e+000  3.850000e+001 -1.600000e+001
    endloop
  endfacet
  facet normal  -0.000000e+000  0.000000e+000 -1.000000e+000
    outer loop
      vertex -5.300000e+000  3.850000e+001 -1.600000e+001
      vertex -1.919099e+000  3.556308e+001 -1.600000e+001
      vertex -5.300000e+000  3.250000e+001 -1.600000e+001
    endloop
  endfacet
  facet normal  0.000000e+000  0.000000e+000 -1.000000e+000
    outer loop
      vertex -5.300000e+000  3.250000e+001 -1.600000e+001
      vertex -1.919099e+000  3.556308e+001 -1.600000e+001
      vertex -1.755165e+000  3.404115e+001 -1.600000e+001
    endloop
  endfacet
  facet normal  0.000000e+000  -0.000000e+000 -1.000000e+000
    outer loop
      vertex -5.300000e+000  3.250000e+001 -1.600000e+001
      vertex -1.755165e+000  3.404115e+001 -1.600000e+001
      vertex -5.630791e-001  3.308090e+001 -1.600000e+001
    endloop
  endfacet
  facet normal  -0.000000e+000  0.000000e+000 -1.000000e+000
    outer loop
      vertex -8.250000e+000  3.850000e+001 -1.600000e+001
      vertex -7.500000e+000  3.850000e+001 -1.600000e+001
      vertex -8.250000e+000  3.550000e+001 -1.600000e+001
    endloop
  endfacet
  facet normal  0.000000e+000  0.000000e+000 -1.000000e+000
    outer loop
      vertex -8.250000e+000  3.550000e+001 -1.600000e+001
      vertex -7.500000e+000  3.850000e+001 -1.600000e+001
      vertex -7.500000e+000  3.250000e+001 -1.600000e+001
    endloop
  endfacet
  facet normal  -0.000000e+000  0.000000e+000 -1.000000e+000
    outer loop
      vertex  7.500000e+000  3.850000e+001 -1.600000e+001
      vertex  8.250000e+000  3.850000e+001 -1.600000e+001
      vertex  7.500000e+000  3.250000e+001 -1.600000e+001
    endloop
  endfacet
  facet normal  0.000000e+000  0.000000e+000 -1.000000e+000
    outer loop
      vertex  7.500000e+000  3.250000e+001 -1.600000e+001
      vertex  8.250000e+000  3.850000e+001 -1.600000e+001
      vertex  8.250000e+000  3.550000e+001 -1.600000e+001
    endloop
  endfacet
  facet normal  0.000000e+000  -0.000000e+000 -1.000000e+000
    outer loop
      vertex  7.500000e+000  3.250000e+001 -1.600000e+001
      vertex  8.250000e+000  3.550000e+001 -1.600000e+001
      vertex  8.750000e+000  3.550000e+001 -1.600000e+001
    endloop
  endfacet
  facet normal  -0.000000e+000  0.000000e+000 -1.000000e+000
    outer loop
      vertex  8.250000e+000  3.850000e+001 -1.000000e-001
      vertex  8.750000e+000  3.850000e+001 -1.000000e-001
      vertex  8.250000e+000  3.550000e+001 -1.000000e-001
    endloop
  endfacet
  facet normal  0.000000e+000  0.000000e+000 -1.000000e+000
    outer loop
      vertex  8.250000e+000  3.550000e+001 -1.000000e-001
      vertex  8.750000e+000  3.850000e+001 -1.000000e-001
      vertex  8.750000e+000  3.550000e+001 -1.000000e-001
    endloop
  endfacet
  facet normal  0.000000e+000  1.000000e+000  0.000000e+000
    outer loop
      vertex  8.250000e+000  3.550000e+001 -1.000000e-001
      vertex  8.750000e+000  3.550000e+001 -1.000000e-001
      vertex  8.250000e+000  3.550000e+001 -1.600000e+001
    endloop
  endfacet
  facet normal  0.000000e+000  1.000000e+000  0.000000e+000
    outer loop
      vertex  8.250000e+000  3.550000e+001 -1.600000e+001
      vertex  8.750000e+000  3.550000e+001 -1.000000e-001
      vertex  8.750000e+000  3.550000e+001 -1.600000e+001
    endloop
  endfacet
  facet normal  1.000000e+000  0.000000e+000  0.000000e+000
    outer loop
      vertex  8.250000e+000  3.850000e+001 -1.600000e+001
      vertex  8.250000e+000  3.850000e+001 -1.000000e-001
      vertex  8.250000e+000  3.550000e+001 -1.600000e+001
    endloop
  endfacet
  facet normal  1.000000e+000  0.000000e+000  0.000000e+000
    outer loop
      vertex  8.250000e+000  3.550000e+001 -1.600000e+001
      vertex  8.250000e+000  3.850000e+001 -1.000000e-001
      vertex  8.250000e+000  3.550000e+001 -1.000000e-001
    endloop
  endfacet
  facet normal -1.000000e+000  0.000000e+000  0.000000e+000
    outer loop
      vertex  8.750000e+000  3.550000e+001 -1.600000e+001
      vertex  8.750000e+000  3.550000e+001 -1.000000e-001
      vertex  8.750000e+000  3.850000e+001 -1.600000e+001
    endloop
  endfacet
  facet normal -1.000000e+000  0.000000e+000  0.000000e+000
    outer loop
      vertex  8.750000e+000  3.850000e+001 -1.600000e+001
      vertex  8.750000e+000  3.550000e+001 -1.000000e-001
      vertex  8.750000e+000  3.850000e+001 -1.000000e-001
    endloop
  endfacet
  facet normal  0.000000e+000  1.000000e+000  0.000000e+000
    outer loop
      vertex -9.500000e+000  3.850000e+001  0.000000e+000
      vertex -8.750000e+000  3.850000e+001 -1.600000e+001
      vertex -9.500000e+000  3.850000e+001 -1.600000e+001
    endloop
  endfacet
  facet normal  0.000000e+000  1.000000e+000  0.000000e+000
    outer loop
      vertex -8.750000e+000  3.850000e+001 -1.600000e+001
      vertex -9.500000e+000  3.850000e+001  0.000000e+000
      vertex -8.750000e+000  3.850000e+001 -1.000000e-001
    endloop
  endfacet
  facet normal  0.000000e+000  1.000000e+000  -0.000000e+000
    outer loop
      vertex -8.750000e+000  3.850000e+001 -1.000000e-001
      vertex -9.500000e+000  3.850000e+001  0.000000e+000
      vertex -7.500000e+000  3.850000e+001  0.000000e+000
    endloop
  endfacet
  facet normal  0.000000e+000  1.000000e+000  0.000000e+000
    outer loop
      vertex -8.750000e+000  3.850000e+001 -1.000000e-001
      vertex -7.500000e+000  3.850000e+001  0.000000e+000
      vertex -8.250000e+000  3.850000e+001 -1.000000e-001
    endloop
  endfacet
  facet normal  -0.000000e+000  1.000000e+000  0.000000e+000
    outer loop
      vertex -8.250000e+000  3.850000e+001 -1.000000e-001
      vertex -7.500000e+000  3.850000e+001  0.000000e+000
      vertex -7.500000e+000  3.850000e+001 -1.600000e+001
    endloop
  endfacet
  facet normal  0.000000e+000  1.000000e+000  0.000000e+000
    outer loop
      vertex -8.250000e+000  3.850000e+001 -1.000000e-001
      vertex -7.500000e+000  3.850000e+001 -1.600000e+001
      vertex -8.250000e+000  3.850000e+001 -1.600000e+001
    endloop
  endfacet
  facet normal  -0.000000e+000  0.000000e+000 -1.000000e+000
    outer loop
      vertex -8.750000e+000  3.850000e+001 -1.000000e-001
      vertex -8.250000e+000  3.850000e+001 -1.000000e-001
      vertex -8.750000e+000  3.550000e+001 -1.000000e-001
    endloop
  endfacet
  facet normal  0.000000e+000  0.000000e+000 -1.000000e+000
    outer loop
      vertex -8.750000e+000  3.550000e+001 -1.000000e-001
      vertex -8.250000e+000  3.850000e+001 -1.000000e-001
      vertex -8.250000e+000  3.550000e+001 -1.000000e-001
    endloop
  endfacet
  facet normal  0.000000e+000  1.000000e+000  0.000000e+000
    outer loop
      vertex -8.750000e+000  3.550000e+001 -1.600000e+001
      vertex -8.750000e+000  3.550000e+001 -1.000000e-001
      vertex -8.250000e+000  3.550000e+001 -1.600000e+001
    endloop
  endfacet
  facet normal  0.000000e+000  1.000000e+000  -0.000000e+000
    outer loop
      vertex -8.250000e+000  3.550000e+001 -1.600000e+001
      vertex -8.750000e+000  3.550000e+001 -1.000000e-001
      vertex -8.250000e+000  3.550000e+001 -1.000000e-001
    endloop
  endfacet
  facet normal -1.000000e+000  0.000000e+000  0.000000e+000
    outer loop
      vertex -8.250000e+000  3.850000e+001 -1.600000e+001
      vertex -8.250000e+000  3.550000e+001 -1.600000e+001
      vertex -8.250000e+000  3.850000e+001 -1.000000e-001
    endloop
  endfacet
  facet normal -1.000000e+000  -0.000000e+000  0.000000e+000
    outer loop
      vertex -8.250000e+000  3.850000e+001 -1.000000e-001
      vertex -8.250000e+000  3.550000e+001 -1.600000e+001
      vertex -8.250000e+000  3.550000e+001 -1.000000e-001
    endloop
  endfacet
  facet normal  1.000000e+000  0.000000e+000  0.000000e+000
    outer loop
      vertex -8.750000e+000  3.550000e+001 -1.600000e+001
      vertex -8.750000e+000  3.850000e+001 -1.600000e+001
      vertex -8.750000e+000  3.550000e+001 -1.000000e-001
    endloop
  endfacet
  facet normal  1.000000e+000  -0.000000e+000  0.000000e+000
    outer loop
      vertex -8.750000e+000  3.550000e+001 -1.000000e-001
      vertex -8.750000e+000  3.850000e+001 -1.600000e+001
      vertex -8.750000e+000  3.850000e+001 -1.000000e-001
    endloop
  endfacet
  facet normal  -0.000000e+000  0.000000e+000  1.000000e+000
    outer loop
      vertex  9.588511e-001  3.324483e+001 -1.400000e+001
      vertex -5.630791e-001  3.308090e+001 -1.400000e+001
      vertex  5.300000e+000  3.250000e+001 -1.400000e+001
    endloop
  endfacet
  facet normal  0.000000e+000  0.000000e+000  1.000000e+000
    outer loop
      vertex -5.300000e+000  3.850000e+001 -1.400000e+001
      vertex -1.755165e+000  3.404115e+001 -1.400000e+001
      vertex -1.919099e+000  3.556308e+001 -1.400000e+001
    endloop
  endfacet
  facet normal  0.000000e+000  -0.000000e+000  9.999999e-001
    outer loop
      vertex -5.300000e+000  3.850000e+001 -1.400000e+001
      vertex -1.919099e+000  3.556308e+001 -1.400000e+001
      vertex -9.588511e-001  3.675517e+001 -1.400000e+001
    endloop
  endfacet
  facet normal  0.000000e+000  -0.000000e+000  1.000000e+000
    outer loop
      vertex -5.300000e+000  3.850000e+001 -1.400000e+001
      vertex -9.588511e-001  3.675517e+001 -1.400000e+001
      vertex  5.630791e-001  3.691910e+001 -1.400000e+001
    endloop
  endfacet
  facet normal  0.000000e+000  -0.000000e+000  1.000000e+000
    outer loop
      vertex -5.300000e+000  3.850000e+001 -1.400000e+001
      vertex  5.630791e-001  3.691910e+001 -1.400000e+001
      vertex  5.300000e+000  3.850000e+001 -1.400000e+001
    endloop
  endfacet
  facet normal  0.000000e+000  0.000000e+000  1.000000e+000
    outer loop
      vertex -5.300000e+000  3.250000e+001 -1.400000e+001
      vertex  5.300000e+000  3.250000e+001 -1.400000e+001
      vertex -5.630791e-001  3.308090e+001 -1.400000e+001
    endloop
  endfacet
  facet normal  0.000000e+000  0.000000e+000  1.000000e+000
    outer loop
      vertex -5.300000e+000  3.250000e+001 -1.400000e+001
      vertex -5.630791e-001  3.308090e+001 -1.400000e+001
      vertex -1.755165e+000  3.404115e+001 -1.400000e+001
    endloop
  endfacet
  facet normal  0.000000e+000  0.000000e+000  1.000000e+000
    outer loop
      vertex -5.300000e+000  3.250000e+001 -1.400000e+001
      vertex -1.755165e+000  3.404115e+001 -1.400000e+001
      vertex -5.300000e+000  3.850000e+001 -1.400000e+001
    endloop
  endfacet
  facet normal  -0.000000e+000  0.000000e+000  9.999999e-001
    outer loop
      vertex  5.300000e+000  3.850000e+001 -1.400000e+001
      vertex  5.630791e-001  3.691910e+001 -1.400000e+001
      vertex  1.755165e+000  3.595885e+001 -1.400000e+001
    endloop
  endfacet
  facet normal  -0.000000e+000  0.000000e+000  1.000000e+000
    outer loop
      vertex  5.300000e+000  3.850000e+001 -1.400000e+001
      vertex  1.755165e+000  3.595885e+001 -1.400000e+001
      vertex  1.919099e+000  3.443692e+001 -1.400000e+001
    endloop
  endfacet
  facet normal  -0.000000e+000  0.000000e+000  1.000000e+000
    outer loop
      vertex  5.300000e+000  3.850000e+001 -1.400000e+001
      vertex  1.919099e+000  3.443692e+001 -1.400000e+001
      vertex  9.588511e-001  3.324483e+001 -1.400000e+001
    endloop
  endfacet
  facet normal  -0.000000e+000  0.000000e+000  1.000000e+000
    outer loop
      vertex  5.300000e+000  3.850000e+001 -1.400000e+001
      vertex  9.588511e-001  3.324483e+001 -1.400000e+001
      vertex  5.300000e+000  3.250000e+001 -1.400000e+001
    endloop
  endfacet
  facet normal  7.787675e-001 -6.273125e-001  0.000000e+000
    outer loop
      vertex -9.588511e-001  3.675517e+001 -1.600000e+001
      vertex -1.919099e+000  3.556308e+001 -1.400000e+001
      vertex -1.919099e+000  3.556308e+001 -1.600000e+001
    endloop
  endfacet
  facet normal  9.942487e-001  1.070951e-001  -0.000000e+000
    outer loop
      vertex -1.919099e+000  3.556308e+001 -1.600000e+001
      vertex -1.919099e+000  3.556308e+001 -1.400000e+001
      vertex -1.755165e+000  3.404115e+001 -1.400000e+001
    endloop
  endfacet
  facet normal  9.942487e-001  1.070951e-001  0.000000e+000
    outer loop
      vertex -1.919099e+000  3.556308e+001 -1.600000e+001
      vertex -1.755165e+000  3.404115e+001 -1.400000e+001
      vertex -1.755165e+000  3.404115e+001 -1.600000e+001
    endloop
  endfacet
  facet normal  7.787675e-001 -6.273125e-001  0.000000e+000
    outer loop
      vertex -1.919099e+000  3.556308e+001 -1.400000e+001
      vertex -9.588511e-001  3.675517e+001 -1.600000e+001
      vertex -9.588511e-001  3.675517e+001 -1.400000e+001
    endloop
  endfacet
  facet normal  1.070943e-001 -9.942489e-001  0.000000e+000
    outer loop
      vertex -9.588511e-001  3.675517e+001 -1.400000e+001
      vertex -9.588511e-001  3.675517e+001 -1.600000e+001
      vertex  5.630791e-001  3.691910e+001 -1.600000e+001
    endloop
  endfacet
  facet normal  1.070943e-001 -9.942489e-001  0.000000e+000
    outer loop
      vertex -9.588511e-001  3.675517e+001 -1.400000e+001
      vertex  5.630791e-001  3.691910e+001 -1.600000e+001
      vertex  5.630791e-001  3.691910e+001 -1.400000e+001
    endloop
  endfacet
  facet normal -6.273119e-001 -7.787681e-001  -0.000000e+000
    outer loop
      vertex  5.630791e-001  3.691910e+001 -1.400000e+001
      vertex  5.630791e-001  3.691910e+001 -1.600000e+001
      vertex  1.755165e+000  3.595885e+001 -1.600000e+001
    endloop
  endfacet
  facet normal -6.273119e-001 -7.787681e-001  0.000000e+000
    outer loop
      vertex  5.630791e-001  3.691910e+001 -1.400000e+001
      vertex  1.755165e+000  3.595885e+001 -1.600000e+001
      vertex  1.755165e+000  3.595885e+001 -1.400000e+001
    endloop
  endfacet
  facet normal -7.787675e-001  6.273125e-001  0.000000e+000
    outer loop
      vertex  9.588511e-001  3.324483e+001 -1.600000e+001
      vertex  1.919099e+000  3.443692e+001 -1.400000e+001
      vertex  1.919099e+000  3.443692e+001 -1.600000e+001
    endloop
  endfacet
  facet normal -9.942487e-001 -1.070951e-001  0.000000e+000
    outer loop
      vertex  1.919099e+000  3.443692e+001 -1.600000e+001
      vertex  1.919099e+000  3.443692e+001 -1.400000e+001
      vertex  1.755165e+000  3.595885e+001 -1.400000e+001
    endloop
  endfacet
  facet normal -9.942487e-001 -1.070951e-001  -0.000000e+000
    outer loop
      vertex  1.919099e+000  3.443692e+001 -1.600000e+001
      vertex  1.755165e+000  3.595885e+001 -1.400000e+001
      vertex  1.755165e+000  3.595885e+001 -1.600000e+001
    endloop
  endfacet
  facet normal -7.787675e-001  6.273125e-001  0.000000e+000
    outer loop
      vertex  1.919099e+000  3.443692e+001 -1.400000e+001
      vertex  9.588511e-001  3.324483e+001 -1.600000e+001
      vertex  9.588511e-001  3.324483e+001 -1.400000e+001
    endloop
  endfacet
  facet normal -1.070943e-001  9.942489e-001  0.000000e+000
    outer loop
      vertex  9.588511e-001  3.324483e+001 -1.400000e+001
      vertex  9.588511e-001  3.324483e+001 -1.600000e+001
      vertex -5.630791e-001  3.308090e+001 -1.600000e+001
    endloop
  endfacet
  facet normal -1.070943e-001  9.942489e-001  0.000000e+000
    outer loop
      vertex  9.588511e-001  3.324483e+001 -1.400000e+001
      vertex -5.630791e-001  3.308090e+001 -1.600000e+001
      vertex -5.630791e-001  3.308090e+001 -1.400000e+001
    endloop
  endfacet
  facet normal  6.273119e-001  7.787681e-001  0.000000e+000
    outer loop
      vertex -5.630791e-001  3.308090e+001 -1.400000e+001
      vertex -5.630791e-001  3.308090e+001 -1.600000e+001
      vertex -1.755165e+000  3.404115e+001 -1.600000e+001
    endloop
  endfacet
  facet normal  6.273119e-001  7.787681e-001  -0.000000e+000
    outer loop
      vertex -5.630791e-001  3.308090e+001 -1.400000e+001
      vertex -1.755165e+000  3.404115e+001 -1.600000e+001
      vertex -1.755165e+000  3.404115e+001 -1.400000e+001
    endloop
  endfacet
  facet normal  0.000000e+000  0.000000e+000 -1.000000e+000
    outer loop
      vertex  7.500000e+000  3.250000e+001  0.000000e+000
      vertex  5.929325e+000  3.542231e+001  0.000000e+000
      vertex  7.500000e+000  3.850000e+001  0.000000e+000
    endloop
  endfacet
  facet normal  0.000000e+000  0.000000e+000 -1.000000e+000
    outer loop
      vertex  5.929325e+000  3.542231e+001  0.000000e+000
      vertex  5.209138e+000  3.631638e+001  0.000000e+000
      vertex  7.500000e+000  3.850000e+001  0.000000e+000
    endloop
  endfacet
  facet normal  -0.000000e+000  0.000000e+000 -9.999999e-001
    outer loop
      vertex -7.500000e+000  3.850000e+001  0.000000e+000
      vertex -4.912309e+000  3.643932e+001  0.000000e+000
      vertex -5.806374e+000  3.571914e+001  0.000000e+000
    endloop
  endfacet
  facet normal  0.000000e+000  -0.000000e+000 -1.000000e+000
    outer loop
      vertex  7.500000e+000  3.850000e+001  0.000000e+000
      vertex  9.500000e+000  5.000000e+001  0.000000e+000
      vertex  9.500000e+000  3.850000e+001  0.000000e+000
    endloop
  endfacet
  facet normal  0.000000e+000  0.000000e+000 -1.000000e+000
    outer loop
      vertex  7.500000e+000  3.250000e+001  0.000000e+000
      vertex -7.500000e+000  3.250000e+001  0.000000e+000
      vertex  4.912309e+000  3.356068e+001  0.000000e+000
    endloop
  endfacet
  facet normal  0.000000e+000  0.000000e+000 -9.999999e-001
    outer loop
      vertex  7.500000e+000  3.250000e+001  0.000000e+000
      vertex  4.912309e+000  3.356068e+001  0.000000e+000
      vertex  5.806374e+000  3.428086e+001  0.000000e+000
    endloop
  endfacet
  facet normal  0.000000e+000  0.000000e+000 -1.000000e+000
    outer loop
      vertex  7.500000e+000  3.250000e+001  0.000000e+000
      vertex  5.806374e+000  3.428086e+001  0.000000e+000
      vertex  5.929325e+000  3.542231e+001  0.000000e+000
    endloop
  endfacet
  facet normal  0.000000e+000  0.000000e+000 -1.000000e+000
    outer loop
      vertex -7.500000e+000  3.250000e+001  0.000000e+000
      vertex -7.500000e+000  3.850000e+001  0.000000e+000
      vertex -5.806374e+000  3.571914e+001  0.000000e+000
    endloop
  endfacet
  facet normal  0.000000e+000  0.000000e+000 -1.000000e+000
    outer loop
      vertex -7.500000e+000  3.250000e+001  0.000000e+000
      vertex -5.806374e+000  3.571914e+001  0.000000e+000
      vertex -5.929325e+000  3.457769e+001  0.000000e+000
    endloop
  endfacet
  facet normal  0.000000e+000  -0.000000e+000 -1.000000e+000
    outer loop
      vertex -7.500000e+000  3.250000e+001  0.000000e+000
      vertex -5.929325e+000  3.457769e+001  0.000000e+000
      vertex -5.209138e+000  3.368362e+001  0.000000e+000
    endloop
  endfacet
  facet normal  0.000000e+000  -0.000000e+000 -1.000000e+000
    outer loop
      vertex -7.500000e+000  3.250000e+001  0.000000e+000
      vertex -5.209138e+000  3.368362e+001  0.000000e+000
      vertex -4.067691e+000  3.356068e+001  0.000000e+000
    endloop
  endfacet
  facet normal  0.000000e+000  -0.000000e+000 -1.000000e+000
    outer loop
      vertex -7.500000e+000  3.250000e+001  0.000000e+000
      vertex -4.067691e+000  3.356068e+001  0.000000e+000
      vertex  3.770862e+000  3.368362e+001  0.000000e+000
    endloop
  endfacet
  facet normal  0.000000e+000  -0.000000e+000 -1.000000e+000
    outer loop
      vertex -7.500000e+000  3.250000e+001  0.000000e+000
      vertex  3.770862e+000  3.368362e+001  0.000000e+000
      vertex  4.912309e+000  3.356068e+001  0.000000e+000
    endloop
  endfacet
  facet normal  -0.000000e+000  0.000000e+000 -9.999999e-001
    outer loop
      vertex -9.500000e+000  5.000000e+001  0.000000e+000
      vertex  9.500000e+000  5.000000e+001  0.000000e+000
      vertex  7.500000e+000  3.850000e+001  0.000000e+000
    endloop
  endfacet
  facet normal  -0.000000e+000  0.000000e+000 -1.000000e+000
    outer loop
      vertex -9.500000e+000  5.000000e+001  0.000000e+000
      vertex  7.500000e+000  3.850000e+001  0.000000e+000
      vertex  5.209138e+000  3.631638e+001  0.000000e+000
    endloop
  endfacet
  facet normal  0.000000e+000  0.000000e+000 -1.000000e+000
    outer loop
      vertex -9.500000e+000  5.000000e+001  0.000000e+000
      vertex  5.209138e+000  3.631638e+001  0.000000e+000
      vertex  4.067691e+000  3.643932e+001  0.000000e+000
    endloop
  endfacet
  facet normal  -0.000000e+000  0.000000e+000 -1.000000e+000
    outer loop
      vertex -9.500000e+000  5.000000e+001  0.000000e+000
      vertex  4.067691e+000  3.643932e+001  0.000000e+000
      vertex  3.173626e+000  3.571914e+001  0.000000e+000
    endloop
  endfacet
  facet normal  0.000000e+000  0.000000e+000 -1.000000e+000
    outer loop
      vertex -9.500000e+000  5.000000e+001  0.000000e+000
      vertex  3.173626e+000  3.571914e+001  0.000000e+000
      vertex -3.770862e+000  3.631638e+001  0.000000e+000
    endloop
  endfacet
  facet normal  0.000000e+000  0.000000e+000 -1.000000e+000
    outer loop
      vertex -9.500000e+000  5.000000e+001  0.000000e+000
      vertex -3.770862e+000  3.631638e+001  0.000000e+000
      vertex -4.912309e+000  3.643932e+001  0.000000e+000
    endloop
  endfacet
  facet normal  0.000000e+000  0.000000e+000 -1.000000e+000
    outer loop
      vertex -9.500000e+000  5.000000e+001  0.000000e+000
      vertex -4.912309e+000  3.643932e+001  0.000000e+000
      vertex -7.500000e+000  3.850000e+001  0.000000e+000
    endloop
  endfacet
  facet normal  0.000000e+000  0.000000e+000 -1.000000e+000
    outer loop
      vertex -9.500000e+000  5.000000e+001  0.000000e+000
      vertex -7.500000e+000  3.850000e+001  0.000000e+000
      vertex -9.500000e+000  3.850000e+001  0.000000e+000
    endloop
  endfacet
  facet normal  -0.000000e+000  0.000000e+000 -1.000000e+000
    outer loop
      vertex -3.770862e+000  3.631638e+001  0.000000e+000
      vertex  3.173626e+000  3.571914e+001  0.000000e+000
      vertex -3.050676e+000  3.542231e+001  0.000000e+000
    endloop
  endfacet
  facet normal  0.000000e+000  0.000000e+000 -1.000000e+000
    outer loop
      vertex -3.050676e+000  3.542231e+001  0.000000e+000
      vertex  3.173626e+000  3.571914e+001  0.000000e+000
      vertex  3.050676e+000  3.457769e+001  0.000000e+000
    endloop
  endfacet
  facet normal  -0.000000e+000  0.000000e+000 -1.000000e+000
    outer loop
      vertex -3.050676e+000  3.542231e+001  0.000000e+000
      vertex  3.050676e+000  3.457769e+001  0.000000e+000
      vertex -3.173626e+000  3.428086e+001  0.000000e+000
    endloop
  endfacet
  facet normal  0.000000e+000  0.000000e+000 -1.000000e+000
    outer loop
      vertex -3.173626e+000  3.428086e+001  0.000000e+000
      vertex  3.050676e+000  3.457769e+001  0.000000e+000
      vertex  3.770862e+000  3.368362e+001  0.000000e+000
    endloop
  endfacet
  facet normal  -0.000000e+000  0.000000e+000 -1.000000e+000
    outer loop
      vertex -3.173626e+000  3.428086e+001  0.000000e+000
      vertex  3.770862e+000  3.368362e+001  0.000000e+000
      vertex -4.067691e+000  3.356068e+001  0.000000e+000
    endloop
  endfacet
  facet normal -1.000000e+000  0.000000e+000  0.000000e+000
    outer loop
      vertex  7.500000e+000  3.850000e+001  0.000000e+000
      vertex  7.500000e+000  3.850000e+001 -1.600000e+001
      vertex  7.500000e+000  3.250000e+001  0.000000e+000
    endloop
  endfacet
  facet normal -1.000000e+000  0.000000e+000  0.000000e+000
    outer loop
      vertex  7.500000e+000  3.250000e+001  0.000000e+000
      vertex  7.500000e+000  3.850000e+001 -1.600000e+001
      vertex  7.500000e+000  3.250000e+001 -1.600000e+001
    endloop
  endfacet
  facet normal  0.000000e+000  1.000000e+000  0.000000e+000
    outer loop
      vertex  7.500000e+000  3.250000e+001 -1.600000e+001
      vertex  5.300000e+000  3.250000e+001 -1.600000e+001
      vertex  7.500000e+000  3.250000e+001  0.000000e+000
    endloop
  endfacet
  facet normal  0.000000e+000  1.000000e+000  0.000000e+000
    outer loop
      vertex  7.500000e+000  3.250000e+001  0.000000e+000
      vertex  5.300000e+000  3.250000e+001 -1.600000e+001
      vertex  5.300000e+000  3.250000e+001 -1.400000e+001
    endloop
  endfacet
  facet normal  0.000000e+000  1.000000e+000  -0.000000e+000
    outer loop
      vertex  7.500000e+000  3.250000e+001  0.000000e+000
      vertex  5.300000e+000  3.250000e+001 -1.400000e+001
      vertex -7.500000e+000  3.250000e+001  0.000000e+000
    endloop
  endfacet
  facet normal  0.000000e+000  1.000000e+000  0.000000e+000
    outer loop
      vertex -7.500000e+000  3.250000e+001  0.000000e+000
      vertex  5.300000e+000  3.250000e+001 -1.400000e+001
      vertex -5.300000e+000  3.250000e+001 -1.400000e+001
    endloop
  endfacet
  facet normal  0.000000e+000  1.000000e+000  0.000000e+000
    outer loop
      vertex -7.500000e+000  3.250000e+001  0.000000e+000
      vertex -5.300000e+000  3.250000e+001 -1.400000e+001
      vertex -7.500000e+000  3.250000e+001 -1.600000e+001
    endloop
  endfacet
  facet normal  0.000000e+000  1.000000e+000  0.000000e+000
    outer loop
      vertex -7.500000e+000  3.250000e+001 -1.600000e+001
      vertex -5.300000e+000  3.250000e+001 -1.400000e+001
      vertex -5.300000e+000  3.250000e+001 -1.600000e+001
    endloop
  endfacet
  facet normal  1.000000e+000  -0.000000e+000  0.000000e+000
    outer loop
      vertex  5.300000e+000  3.850000e+001 -1.400000e+001
      vertex  5.300000e+000  3.250000e+001 -1.400000e+001
      vertex  5.300000e+000  3.850000e+001 -1.600000e+001
    endloop
  endfacet
  facet normal  1.000000e+000  0.000000e+000  0.000000e+000
    outer loop
      vertex  5.300000e+000  3.850000e+001 -1.600000e+001
      vertex  5.300000e+000  3.250000e+001 -1.400000e+001
      vertex  5.300000e+000  3.250000e+001 -1.600000e+001
    endloop
  endfacet
  facet normal  0.000000e+000  1.000000e+000  0.000000e+000
    outer loop
      vertex  5.300000e+000  3.850000e+001 -1.600000e+001
      vertex -5.300000e+000  3.850000e+001 -1.600000e+001
      vertex  5.300000e+000  3.850000e+001 -1.400000e+001
    endloop
  endfacet
  facet normal  0.000000e+000  1.000000e+000  0.000000e+000
    outer loop
      vertex  5.300000e+000  3.850000e+001 -1.400000e+001
      vertex -5.300000e+000  3.850000e+001 -1.600000e+001
      vertex -5.300000e+000  3.850000e+001 -1.400000e+001
    endloop
  endfacet
  facet normal  1.000000e+000  0.000000e+000  0.000000e+000
    outer loop
      vertex -7.500000e+000  3.850000e+001 -1.600000e+001
      vertex -7.500000e+000  3.850000e+001  0.000000e+000
      vertex -7.500000e+000  3.250000e+001 -1.600000e+001
    endloop
  endfacet
  facet normal  1.000000e+000  0.000000e+000  0.000000e+000
    outer loop
      vertex -7.500000e+000  3.250000e+001 -1.600000e+001
      vertex -7.500000e+000  3.850000e+001  0.000000e+000
      vertex -7.500000e+000  3.250000e+001  0.000000e+000
    endloop
  endfacet
  facet normal -1.000000e+000  0.000000e+000  0.000000e+000
    outer loop
      vertex -5.300000e+000  3.850000e+001 -1.400000e+001
      vertex -5.300000e+000  3.850000e+001 -1.600000e+001
      vertex -5.300000e+000  3.250000e+001 -1.400000e+001
    endloop
  endfacet
  facet normal -1.000000e+000  0.000000e+000  0.000000e+000
    outer loop
      vertex -5.300000e+000  3.250000e+001 -1.400000e+001
      vertex -5.300000e+000  3.850000e+001 -1.600000e+001
      vertex -5.300000e+000  3.250000e+001 -1.600000e+001
    endloop
  endfacet
  facet normal -7.787682e-001 -6.273117e-001  0.000000e+000
    outer loop
      vertex -3.770862e+000  3.631638e+001  2.500000e+000
      vertex -3.050676e+000  3.542231e+001  0.000000e+000
      vertex -3.050676e+000  3.542231e+001  2.500000e+000
    endloop
  endfacet
  facet normal -9.942488e-001  1.070950e-001  0.000000e+000
    outer loop
      vertex -3.050676e+000  3.542231e+001  2.500000e+000
      vertex -3.050676e+000  3.542231e+001  0.000000e+000
      vertex -3.173626e+000  3.428086e+001  0.000000e+000
    endloop
  endfacet
  facet normal -9.942488e-001  1.070950e-001  0.000000e+000
    outer loop
      vertex -3.050676e+000  3.542231e+001  2.500000e+000
      vertex -3.173626e+000  3.428086e+001  0.000000e+000
      vertex -3.173626e+000  3.428086e+001  2.500000e+000
    endloop
  endfacet
  facet normal -7.787682e-001 -6.273117e-001  -0.000000e+000
    outer loop
      vertex -3.050676e+000  3.542231e+001  0.000000e+000
      vertex -3.770862e+000  3.631638e+001  2.500000e+000
      vertex -3.770862e+000  3.631638e+001  0.000000e+000
    endloop
  endfacet
  facet normal -1.070926e-001 -9.942490e-001  0.000000e+000
    outer loop
      vertex -3.770862e+000  3.631638e+001  0.000000e+000
      vertex -3.770862e+000  3.631638e+001  2.500000e+000
      vertex -4.912309e+000  3.643932e+001  2.500000e+000
    endloop
  endfacet
  facet normal -1.070926e-001 -9.942490e-001  -0.000000e+000
    outer loop
      vertex -3.770862e+000  3.631638e+001  0.000000e+000
      vertex -4.912309e+000  3.643932e+001  2.500000e+000
      vertex -4.912309e+000  3.643932e+001  0.000000e+000
    endloop
  endfacet
  facet normal  6.273112e-001 -7.787686e-001  0.000000e+000
    outer loop
      vertex -4.912309e+000  3.643932e+001  0.000000e+000
      vertex -4.912309e+000  3.643932e+001  2.500000e+000
      vertex -5.806374e+000  3.571914e+001  2.500000e+000
    endloop
  endfacet
  facet normal  6.273112e-001 -7.787686e-001  0.000000e+000
    outer loop
      vertex -4.912309e+000  3.643932e+001  0.000000e+000
      vertex -5.806374e+000  3.571914e+001  2.500000e+000
      vertex -5.806374e+000  3.571914e+001  0.000000e+000
    endloop
  endfacet
  facet normal  7.787682e-001  6.273119e-001  -0.000000e+000
    outer loop
      vertex -5.209138e+000  3.368362e+001  2.500000e+000
      vertex -5.929325e+000  3.457769e+001  0.000000e+000
      vertex -5.929325e+000  3.457769e+001  2.500000e+000
    endloop
  endfacet
  facet normal  9.942488e-001 -1.070950e-001  0.000000e+000
    outer loop
      vertex -5.929325e+000  3.457769e+001  2.500000e+000
      vertex -5.929325e+000  3.457769e+001  0.000000e+000
      vertex -5.806374e+000  3.571914e+001  0.000000e+000
    endloop
  endfacet
  facet normal  9.942488e-001 -1.070950e-001  0.000000e+000
    outer loop
      vertex -5.929325e+000  3.457769e+001  2.500000e+000
      vertex -5.806374e+000  3.571914e+001  0.000000e+000
      vertex -5.806374e+000  3.571914e+001  2.500000e+000
    endloop
  endfacet
  facet normal  7.787682e-001  6.273119e-001  0.000000e+000
    outer loop
      vertex -5.929325e+000  3.457769e+001  0.000000e+000
      vertex -5.209138e+000  3.368362e+001  2.500000e+000
      vertex -5.209138e+000  3.368362e+001  0.000000e+000
    endloop
  endfacet
  facet normal  1.070926e-001  9.942490e-001  -0.000000e+000
    outer loop
      vertex -5.209138e+000  3.368362e+001  0.000000e+000
      vertex -5.209138e+000  3.368362e+001  2.500000e+000
      vertex -4.067691e+000  3.356068e+001  2.500000e+000
    endloop
  endfacet
  facet normal  1.070926e-001  9.942490e-001  0.000000e+000
    outer loop
      vertex -5.209138e+000  3.368362e+001  0.000000e+000
      vertex -4.067691e+000  3.356068e+001  2.500000e+000
      vertex -4.067691e+000  3.356068e+001  0.000000e+000
    endloop
  endfacet
  facet normal -6.273113e-001  7.787686e-001  0.000000e+000
    outer loop
      vertex -4.067691e+000  3.356068e+001  0.000000e+000
      vertex -4.067691e+000  3.356068e+001  2.500000e+000
      vertex -3.173626e+000  3.428086e+001  2.500000e+000
    endloop
  endfacet
  facet normal -6.273113e-001  7.787686e-001  0.000000e+000
    outer loop
      vertex -4.067691e+000  3.356068e+001  0.000000e+000
      vertex -3.173626e+000  3.428086e+001  2.500000e+000
      vertex -3.173626e+000  3.428086e+001  0.000000e+000
    endloop
  endfacet
  facet normal  7.787682e-001  6.273117e-001  -0.000000e+000
    outer loop
      vertex  3.770862e+000  3.368362e+001  2.500000e+000
      vertex  3.050676e+000  3.457769e+001  0.000000e+000
      vertex  3.050676e+000  3.457769e+001  2.500000e+000
    endloop
  endfacet
  facet normal  9.942488e-001 -1.070950e-001  0.000000e+000
    outer loop
      vertex  3.050676e+000  3.457769e+001  2.500000e+000
      vertex  3.050676e+000  3.457769e+001  0.000000e+000
      vertex  3.173626e+000  3.571914e+001  0.000000e+000
    endloop
  endfacet
  facet normal  9.942488e-001 -1.070950e-001  0.000000e+000
    outer loop
      vertex  3.050676e+000  3.457769e+001  2.500000e+000
      vertex  3.173626e+000  3.571914e+001  0.000000e+000
      vertex  3.173626e+000  3.571914e+001  2.500000e+000
    endloop
  endfacet
  facet normal  7.787682e-001  6.273117e-001  0.000000e+000
    outer loop
      vertex  3.050676e+000  3.457769e+001  0.000000e+000
      vertex  3.770862e+000  3.368362e+001  2.500000e+000
      vertex  3.770862e+000  3.368362e+001  0.000000e+000
    endloop
  endfacet
  facet normal  1.070926e-001  9.942490e-001  -0.000000e+000
    outer loop
      vertex  3.770862e+000  3.368362e+001  0.000000e+000
      vertex  3.770862e+000  3.368362e+001  2.500000e+000
      vertex  4.912309e+000  3.356068e+001  2.500000e+000
    endloop
  endfacet
  facet normal  1.070926e-001  9.942490e-001  0.000000e+000
    outer loop
      vertex  3.770862e+000  3.368362e+001  0.000000e+000
      vertex  4.912309e+000  3.356068e+001  2.500000e+000
      vertex  4.912309e+000  3.356068e+001  0.000000e+000
    endloop
  endfacet
  facet normal -6.273112e-001  7.787686e-001  0.000000e+000
    outer loop
      vertex  4.912309e+000  3.356068e+001  0.000000e+000
      vertex  4.912309e+000  3.356068e+001  2.500000e+000
      vertex  5.806374e+000  3.428086e+001  2.500000e+000
    endloop
  endfacet
  facet normal -6.273112e-001  7.787686e-001  0.000000e+000
    outer loop
      vertex  4.912309e+000  3.356068e+001  0.000000e+000
      vertex  5.806374e+000  3.428086e+001  2.500000e+000
      vertex  5.806374e+000  3.428086e+001  0.000000e+000
    endloop
  endfacet
  facet normal -7.787682e-001 -6.273119e-001  0.000000e+000
    outer loop
      vertex  5.209138e+000  3.631638e+001  2.500000e+000
      vertex  5.929325e+000  3.542231e+001  0.000000e+000
      vertex  5.929325e+000  3.542231e+001  2.500000e+000
    endloop
  endfacet
  facet normal -9.942488e-001  1.070950e-001  0.000000e+000
    outer loop
      vertex  5.929325e+000  3.542231e+001  2.500000e+000
      vertex  5.929325e+000  3.542231e+001  0.000000e+000
      vertex  5.806374e+000  3.428086e+001  0.000000e+000
    endloop
  endfacet
  facet normal -9.942488e-001  1.070950e-001  0.000000e+000
    outer loop
      vertex  5.929325e+000  3.542231e+001  2.500000e+000
      vertex  5.806374e+000  3.428086e+001  0.000000e+000
      vertex  5.806374e+000  3.428086e+001  2.500000e+000
    endloop
  endfacet
  facet normal -7.787682e-001 -6.273119e-001  -0.000000e+000
    outer loop
      vertex  5.929325e+000  3.542231e+001  0.000000e+000
      vertex  5.209138e+000  3.631638e+001  2.500000e+000
      vertex  5.209138e+000  3.631638e+001  0.000000e+000
    endloop
  endfacet
  facet normal -1.070926e-001 -9.942490e-001  0.000000e+000
    outer loop
      vertex  5.209138e+000  3.631638e+001  0.000000e+000
      vertex  5.209138e+000  3.631638e+001  2.500000e+000
      vertex  4.067691e+000  3.643932e+001  2.500000e+000
    endloop
  endfacet
  facet normal -1.070926e-001 -9.942490e-001  -0.000000e+000
    outer loop
      vertex  5.209138e+000  3.631638e+001  0.000000e+000
      vertex  4.067691e+000  3.643932e+001  2.500000e+000
      vertex  4.067691e+000  3.643932e+001  0.000000e+000
    endloop
  endfacet
  facet normal  6.273113e-001 -7.787686e-001  0.000000e+000
    outer loop
      vertex  4.067691e+000  3.643932e+001  0.000000e+000
      vertex  4.067691e+000  3.643932e+001  2.500000e+000
      vertex  3.173626e+000  3.571914e+001  2.500000e+000
    endloop
  endfacet
  facet normal  6.273113e-001 -7.787686e-001  0.000000e+000
    outer loop
      vertex  4.067691e+000  3.643932e+001  0.000000e+000
      vertex  3.173626e+000  3.571914e+001  2.500000e+000
      vertex  3.173626e+000  3.571914e+001  0.000000e+000
    endloop
  endfacet
  facet normal -1.000000e+000  0.000000e+000  0.000000e+000
    outer loop
      vertex -9.500000e+000 -4.719396e+001  6.198564e+000
      vertex -9.500000e+000 -4.739887e+001  4.296151e+000
      vertex -9.500000e+000 -5.000000e+001  5.000000e+000
    endloop
  endfacet
  facet normal -1.000000e+000  0.000000e+000  0.000000e+000
    outer loop
      vertex -9.500000e+000  5.000000e+001  1.000000e+001
      vertex -9.500000e+000  5.000000e+001  0.000000e+000
      vertex -9.500000e+000 -4.260113e+001  5.703849e+000
    endloop
  endfacet
  facet normal -1.000000e+000  0.000000e+000  0.000000e+000
    outer loop
      vertex -9.500000e+000  5.000000e+001  1.000000e+001
      vertex -9.500000e+000 -4.260113e+001  5.703849e+000
      vertex -9.500000e+000 -4.380144e+001  7.193956e+000
    endloop
  endfacet
  facet normal -1.000000e+000  0.000000e+000  0.000000e+000
    outer loop
      vertex -9.500000e+000  5.000000e+001  1.000000e+001
      vertex -9.500000e+000 -4.380144e+001  7.193956e+000
      vertex -9.500000e+000 -4.570385e+001  7.398874e+000
    endloop
  endfacet
  facet normal -1.000000e+000  0.000000e+000  0.000000e+000
    outer loop
      vertex -9.500000e+000  5.000000e+001  1.000000e+001
      vertex -9.500000e+000 -4.570385e+001  7.398874e+000
      vertex -9.500000e+000 -4.500000e+001  1.000000e+001
    endloop
  endfacet
  facet normal -1.000000e+000  0.000000e+000  0.000000e+000
    outer loop
      vertex -9.500000e+000 -4.500000e+001  1.000000e+001
      vertex -9.500000e+000 -4.570385e+001  7.398874e+000
      vertex -9.500000e+000 -4.750000e+001  9.330127e+000
    endloop
  endfacet
  facet normal -1.000000e+000  0.000000e+000  0.000000e+000
    outer loop
      vertex -9.500000e+000 -4.750000e+001  9.330127e+000
      vertex -9.500000e+000 -4.570385e+001  7.398874e+000
      vertex -9.500000e+000 -4.719396e+001  6.198564e+000
    endloop
  endfacet
  facet normal -9.999999e-001  0.000000e+000  0.000000e+000
    outer loop
      vertex -9.500000e+000 -4.750000e+001  9.330127e+000
      vertex -9.500000e+000 -4.719396e+001  6.198564e+000
      vertex -9.500000e+000 -4.933013e+001  7.500000e+000
    endloop
  endfacet
  facet normal -1.000000e+000  0.000000e+000  -0.000000e+000
    outer loop
      vertex -9.500000e+000 -4.933013e+001  7.500000e+000
      vertex -9.500000e+000 -4.719396e+001  6.198564e+000
      vertex -9.500000e+000 -5.000000e+001  5.000000e+000
    endloop
  endfacet
  facet normal -1.000000e+000  0.000000e+000  0.000000e+000
    outer loop
      vertex -9.500000e+000 -4.260113e+001  5.703849e+000
      vertex -9.500000e+000  5.000000e+001  0.000000e+000
      vertex -9.500000e+000 -4.280604e+001  3.801436e+000
    endloop
  endfacet
  facet normal -1.000000e+000  0.000000e+000  0.000000e+000
    outer loop
      vertex -9.500000e+000 -4.280604e+001  3.801436e+000
      vertex -9.500000e+000  5.000000e+001  0.000000e+000
      vertex -9.500000e+000  3.850000e+001  0.000000e+000
    endloop
  endfacet
  facet normal -1.000000e+000  0.000000e+000  0.000000e+000
    outer loop
      vertex -9.500000e+000 -4.280604e+001  3.801436e+000
      vertex -9.500000e+000  3.850000e+001  0.000000e+000
      vertex -9.500000e+000  3.150000e+001  0.000000e+000
    endloop
  endfacet
  facet normal -1.000000e+000  0.000000e+000  0.000000e+000
    outer loop
      vertex -9.500000e+000 -4.933013e+001  2.500000e+000
      vertex -9.500000e+000 -5.000000e+001  5.000000e+000
      vertex -9.500000e+000 -4.750000e+001  6.698730e-001
    endloop
  endfacet
  facet normal -1.000000e+000  0.000000e+000  0.000000e+000
    outer loop
      vertex -9.500000e+000 -4.750000e+001  6.698730e-001
      vertex -9.500000e+000 -5.000000e+001  5.000000e+000
      vertex -9.500000e+000 -4.739887e+001  4.296151e+000
    endloop
  endfacet
  facet normal -1.000000e+000  0.000000e+000  -0.000000e+000
    outer loop
      vertex -9.500000e+000 -4.750000e+001  6.698730e-001
      vertex -9.500000e+000 -4.739887e+001  4.296151e+000
      vertex -9.500000e+000 -4.500000e+001  0.000000e+000
    endloop
  endfacet
  facet normal -9.999999e-001  0.000000e+000  0.000000e+000
    outer loop
      vertex -9.500000e+000 -4.500000e+001  0.000000e+000
      vertex -9.500000e+000 -4.739887e+001  4.296151e+000
      vertex -9.500000e+000 -4.619856e+001  2.806044e+000
    endloop
  endfacet
  facet normal -1.000000e+000  0.000000e+000  0.000000e+000
    outer loop
      vertex -9.500000e+000 -4.500000e+001  0.000000e+000
      vertex -9.500000e+000 -4.619856e+001  2.806044e+000
      vertex -9.500000e+000 -4.429615e+001  2.601126e+000
    endloop
  endfacet
  facet normal -1.000000e+000  0.000000e+000  0.000000e+000
    outer loop
      vertex -9.500000e+000  3.850000e+001 -1.600000e+001
      vertex -9.500000e+000  3.150000e+001 -1.600000e+001
      vertex -9.500000e+000  3.850000e+001  0.000000e+000
    endloop
  endfacet
  facet normal -1.000000e+000  -0.000000e+000  0.000000e+000
    outer loop
      vertex -9.500000e+000  3.850000e+001  0.000000e+000
      vertex -9.500000e+000  3.150000e+001 -1.600000e+001
      vertex -9.500000e+000  3.150000e+001  0.000000e+000
    endloop
  endfacet
  facet normal -1.000000e+000  0.000000e+000  0.000000e+000
    outer loop
      vertex -9.500000e+000 -4.429615e+001  2.601126e+000
      vertex -9.500000e+000 -4.280604e+001  3.801436e+000
      vertex -9.500000e+000 -4.500000e+001  0.000000e+000
    endloop
  endfacet
  facet normal -1.000000e+000  0.000000e+000  0.000000e+000
    outer loop
      vertex -9.500000e+000 -4.500000e+001  0.000000e+000
      vertex -9.500000e+000 -4.280604e+001  3.801436e+000
      vertex -9.500000e+000  3.150000e+001  0.000000e+000
    endloop
  endfacet
  facet normal  1.000000e+000  0.000000e+000  0.000000e+000
    outer loop
      vertex  9.500000e+000 -4.280604e+001  3.801436e+000
      vertex  9.500000e+000  5.000000e+001  0.000000e+000
      vertex  9.500000e+000 -4.260113e+001  5.703849e+000
    endloop
  endfacet
  facet normal  1.000000e+000  -0.000000e+000  0.000000e+000
    outer loop
      vertex  9.500000e+000 -4.500000e+001  1.000000e+001
      vertex  9.500000e+000 -4.570385e+001  7.398874e+000
      vertex  9.500000e+000 -4.380144e+001  7.193956e+000
    endloop
  endfacet
  facet normal  9.999999e-001  -0.000000e+000  -0.000000e+000
    outer loop
      vertex  9.500000e+000 -4.500000e+001  1.000000e+001
      vertex  9.500000e+000 -4.380144e+001  7.193956e+000
      vertex  9.500000e+000 -4.260113e+001  5.703849e+000
    endloop
  endfacet
  facet normal  9.999999e-001  -0.000000e+000  -0.000000e+000
    outer loop
      vertex  9.500000e+000 -4.500000e+001  1.000000e+001
      vertex  9.500000e+000 -4.260113e+001  5.703849e+000
      vertex  9.500000e+000  5.000000e+001  0.000000e+000
    endloop
  endfacet
  facet normal  9.999999e-001  0.000000e+000  -0.000000e+000
    outer loop
      vertex  9.500000e+000 -4.500000e+001  1.000000e+001
      vertex  9.500000e+000  5.000000e+001  0.000000e+000
      vertex  9.500000e+000  5.000000e+001  1.000000e+001
    endloop
  endfacet
  facet normal  1.000000e+000  0.000000e+000  0.000000e+000
    outer loop
      vertex  9.500000e+000  3.850000e+001  0.000000e+000
      vertex  9.500000e+000  5.000000e+001  0.000000e+000
      vertex  9.500000e+000 -4.280604e+001  3.801436e+000
    endloop
  endfacet
  facet normal  1.000000e+000  0.000000e+000  0.000000e+000
    outer loop
      vertex  9.500000e+000  3.850000e+001  0.000000e+000
      vertex  9.500000e+000 -4.280604e+001  3.801436e+000
      vertex  9.500000e+000  3.150000e+001  0.000000e+000
    endloop
  endfacet
  facet normal  1.000000e+000  -0.000000e+000  0.000000e+000
    outer loop
      vertex  9.500000e+000  3.850000e+001  0.000000e+000
      vertex  9.500000e+000  3.150000e+001  0.000000e+000
      vertex  9.500000e+000  3.150000e+001 -1.600000e+001
    endloop
  endfacet
  facet normal  1.000000e+000  0.000000e+000  0.000000e+000
    outer loop
      vertex  9.500000e+000  3.850000e+001  0.000000e+000
      vertex  9.500000e+000  3.150000e+001 -1.600000e+001
      vertex  9.500000e+000  3.850000e+001 -1.600000e+001
    endloop
  endfacet
  facet normal  1.000000e+000  -0.000000e+000  0.000000e+000
    outer loop
      vertex  9.500000e+000 -4.750000e+001  9.330127e+000
      vertex  9.500000e+000 -4.933013e+001  7.500000e+000
      vertex  9.500000e+000 -5.000000e+001  5.000000e+000
    endloop
  endfacet
  facet normal  9.999999e-001  0.000000e+000  0.000000e+000
    outer loop
      vertex  9.500000e+000 -4.750000e+001  9.330127e+000
      vertex  9.500000e+000 -5.000000e+001  5.000000e+000
      vertex  9.500000e+000 -4.719396e+001  6.198564e+000
    endloop
  endfacet
  facet normal  1.000000e+000  0.000000e+000  -0.000000e+000
    outer loop
      vertex  9.500000e+000 -4.750000e+001  9.330127e+000
      vertex  9.500000e+000 -4.719396e+001  6.198564e+000
      vertex  9.500000e+000 -4.570385e+001  7.398874e+000
    endloop
  endfacet
  facet normal  1.000000e+000  0.000000e+000  -0.000000e+000
    outer loop
      vertex  9.500000e+000 -4.750000e+001  9.330127e+000
      vertex  9.500000e+000 -4.570385e+001  7.398874e+000
      vertex  9.500000e+000 -4.500000e+001  1.000000e+001
    endloop
  endfacet
  facet normal  1.000000e+000  0.000000e+000  0.000000e+000
    outer loop
      vertex  9.500000e+000  3.150000e+001  0.000000e+000
      vertex  9.500000e+000 -4.280604e+001  3.801436e+000
      vertex  9.500000e+000 -4.500000e+001  0.000000e+000
    endloop
  endfacet
  facet normal  1.000000e+000  0.000000e+000  0.000000e+000
    outer loop
      vertex  9.500000e+000 -4.500000e+001  0.000000e+000
      vertex  9.500000e+000 -4.280604e+001  3.801436e+000
      vertex  9.500000e+000 -4.429615e+001  2.601126e+000
    endloop
  endfacet
  facet normal  1.000000e+000  0.000000e+000  0.000000e+000
    outer loop
      vertex  9.500000e+000 -4.500000e+001  0.000000e+000
      vertex  9.500000e+000 -4.429615e+001  2.601126e+000
      vertex  9.500000e+000 -4.750000e+001  6.698730e-001
    endloop
  endfacet
  facet normal  1.000000e+000  0.000000e+000  0.000000e+000
    outer loop
      vertex  9.500000e+000 -4.750000e+001  6.698730e-001
      vertex  9.500000e+000 -4.429615e+001  2.601126e+000
      vertex  9.500000e+000 -4.619856e+001  2.806044e+000
    endloop
  endfacet
  facet normal  1.000000e+000  0.000000e+000  0.000000e+000
    outer loop
      vertex  9.500000e+000 -4.750000e+001  6.698730e-001
      vertex  9.500000e+000 -4.619856e+001  2.806044e+000
      vertex  9.500000e+000 -4.739887e+001  4.296151e+000
    endloop
  endfacet
  facet normal  9.999999e-001  0.000000e+000  0.000000e+000
    outer loop
      vertex  9.500000e+000 -4.933013e+001  2.500000e+000
      vertex  9.500000e+000 -4.750000e+001  6.698730e-001
      vertex  9.500000e+000 -5.000000e+001  5.000000e+000
    endloop
  endfacet
  facet normal  1.000000e+000  0.000000e+000  0.000000e+000
    outer loop
      vertex  9.500000e+000 -5.000000e+001  5.000000e+000
      vertex  9.500000e+000 -4.750000e+001  6.698730e-001
      vertex  9.500000e+000 -4.739887e+001  4.296151e+000
    endloop
  endfacet
  facet normal  1.000000e+000  0.000000e+000  -0.000000e+000
    outer loop
      vertex  9.500000e+000 -5.000000e+001  5.000000e+000
      vertex  9.500000e+000 -4.739887e+001  4.296151e+000
      vertex  9.500000e+000 -4.719396e+001  6.198564e+000
    endloop
  endfacet
  facet normal  0.000000e+000 -1.000000e+000  0.000000e+000
    outer loop
      vertex -9.500000e+000  3.150000e+001 -1.600000e+001
      vertex  9.500000e+000  3.150000e+001 -1.600000e+001
      vertex -9.500000e+000  3.150000e+001  0.000000e+000
    endloop
  endfacet
  facet normal  0.000000e+000 -1.000000e+000  0.000000e+000
    outer loop
      vertex -9.500000e+000  3.150000e+001  0.000000e+000
      vertex  9.500000e+000  3.150000e+001 -1.600000e+001
      vertex  9.500000e+000  3.150000e+001  0.000000e+000
    endloop
  endfacet
  facet normal  0.000000e+000  0.000000e+000 -9.999999e-001
    outer loop
      vertex -9.500000e+000 -4.500000e+001  0.000000e+000
      vertex -9.500000e+000  3.150000e+001  0.000000e+000
      vertex  9.500000e+000 -4.500000e+001  0.000000e+000
    endloop
  endfacet
  facet normal  0.000000e+000  0.000000e+000 -9.999999e-001
    outer loop
      vertex  9.500000e+000 -4.500000e+001  0.000000e+000
      vertex -9.500000e+000  3.150000e+001  0.000000e+000
      vertex  9.500000e+000  3.150000e+001  0.000000e+000
    endloop
  endfacet
  facet normal  -0.000000e+000  0.000000e+000  1.000000e+000
    outer loop
      vertex  5.806374e+000  3.428086e+001  1.000000e+001
      vertex  4.912309e+000  3.356068e+001  1.000000e+001
      vertex  9.500000e+000 -4.500000e+001  1.000000e+001
    endloop
  endfacet
  facet normal  0.000000e+000  0.000000e+000  1.000000e+000
    outer loop
      vertex -9.500000e+000 -4.500000e+001  1.000000e+001
      vertex  9.500000e+000 -4.500000e+001  1.000000e+001
      vertex  4.912309e+000  3.356068e+001  1.000000e+001
    endloop
  endfacet
  facet normal  0.000000e+000  0.000000e+000  1.000000e+000
    outer loop
      vertex -9.500000e+000 -4.500000e+001  1.000000e+001
      vertex  4.912309e+000  3.356068e+001  1.000000e+001
      vertex  3.770862e+000  3.368362e+001  1.000000e+001
    endloop
  endfacet
  facet normal  0.000000e+000  0.000000e+000  1.000000e+000
    outer loop
      vertex -9.500000e+000 -4.500000e+001  1.000000e+001
      vertex  3.770862e+000  3.368362e+001  1.000000e+001
      vertex -4.067691e+000  3.356068e+001  1.000000e+001
    endloop
  endfacet
  facet normal  0.000000e+000  0.000000e+000  1.000000e+000
    outer loop
      vertex -9.500000e+000 -4.500000e+001  1.000000e+001
      vertex -4.067691e+000  3.356068e+001  1.000000e+001
      vertex -5.209138e+000  3.368362e+001  1.000000e+001
    endloop
  endfacet
  facet normal  0.000000e+000  0.000000e+000  9.999999e-001
    outer loop
      vertex -9.500000e+000 -4.500000e+001  1.000000e+001
      vertex -5.209138e+000  3.368362e+001  1.000000e+001
      vertex -5.929325e+000  3.457769e+001  1.000000e+001
    endloop
  endfacet
  facet normal  0.000000e+000  0.000000e+000  1.000000e+000
    outer loop
      vertex -9.500000e+000  5.000000e+001  1.000000e+001
      vertex -9.500000e+000 -4.500000e+001  1.000000e+001
      vertex -5.929325e+000  3.457769e+001  1.000000e+001
    endloop
  endfacet
  facet normal  0.000000e+000  -0.000000e+000  1.000000e+000
    outer loop
      vertex -9.500000e+000  5.000000e+001  1.000000e+001
      vertex -5.929325e+000  3.457769e+001  1.000000e+001
      vertex -5.806374e+000  3.571914e+001  1.000000e+001
    endloop
  endfacet
  facet normal  0.000000e+000  -0.000000e+000  9.999999e-001
    outer loop
      vertex -9.500000e+000  5.000000e+001  1.000000e+001
      vertex -5.806374e+000  3.571914e+001  1.000000e+001
      vertex -4.912309e+000  3.643932e+001  1.000000e+001
    endloop
  endfacet
  facet normal  -0.000000e+000  -0.000000e+000  1.000000e+000
    outer loop
      vertex -9.500000e+000  5.000000e+001  1.000000e+001
      vertex -4.912309e+000  3.643932e+001  1.000000e+001
      vertex -3.770862e+000  3.631638e+001  1.000000e+001
    endloop
  endfacet
  facet normal  -0.000000e+000  -0.000000e+000  1.000000e+000
    outer loop
      vertex -9.500000e+000  5.000000e+001  1.000000e+001
      vertex -3.770862e+000  3.631638e+001  1.000000e+001
      vertex  3.173626e+000  3.571914e+001  1.000000e+001
    endloop
  endfacet
  facet normal  0.000000e+000  -0.000000e+000  1.000000e+000
    outer loop
      vertex -9.500000e+000  5.000000e+001  1.000000e+001
      vertex  3.173626e+000  3.571914e+001  1.000000e+001
      vertex  4.067691e+000  3.643932e+001  1.000000e+001
    endloop
  endfacet
  facet normal  -0.000000e+000  -0.000000e+000  9.999999e-001
    outer loop
      vertex -9.500000e+000  5.000000e+001  1.000000e+001
      vertex  4.067691e+000  3.643932e+001  1.000000e+001
      vertex  5.209138e+000  3.631638e+001  1.000000e+001
    endloop
  endfacet
  facet normal  0.000000e+000  -0.000000e+000  1.000000e+000
    outer loop
      vertex -9.500000e+000  5.000000e+001  1.000000e+001
      vertex  5.209138e+000  3.631638e+001  1.000000e+001
      vertex  9.500000e+000  5.000000e+001  1.000000e+001
    endloop
  endfacet
  facet normal  0.000000e+000  0.000000e+000  1.000000e+000
    outer loop
      vertex -4.067691e+000  3.356068e+001  1.000000e+001
      vertex  3.770862e+000  3.368362e+001  1.000000e+001
      vertex -3.173626e+000  3.428086e+001  1.000000e+001
    endloop
  endfacet
  facet normal  -0.000000e+000  0.000000e+000  1.000000e+000
    outer loop
      vertex -3.173626e+000  3.428086e+001  1.000000e+001
      vertex  3.770862e+000  3.368362e+001  1.000000e+001
      vertex  3.050676e+000  3.457769e+001  1.000000e+001
    endloop
  endfacet
  facet normal  0.000000e+000  0.000000e+000  1.000000e+000
    outer loop
      vertex -3.173626e+000  3.428086e+001  1.000000e+001
      vertex  3.050676e+000  3.457769e+001  1.000000e+001
      vertex -3.050676e+000  3.542231e+001  1.000000e+001
    endloop
  endfacet
  facet normal  -0.000000e+000  0.000000e+000  1.000000e+000
    outer loop
      vertex -3.050676e+000  3.542231e+001  1.000000e+001
      vertex  3.050676e+000  3.457769e+001  1.000000e+001
      vertex  3.173626e+000  3.571914e+001  1.000000e+001
    endloop
  endfacet
  facet normal  0.000000e+000  0.000000e+000  1.000000e+000
    outer loop
      vertex -3.050676e+000  3.542231e+001  1.000000e+001
      vertex  3.173626e+000  3.571914e+001  1.000000e+001
      vertex -3.770862e+000  3.631638e+001  1.000000e+001
    endloop
  endfacet
  facet normal  0.000000e+000  0.000000e+000  1.000000e+000
    outer loop
      vertex  5.806374e+000  3.428086e+001  1.000000e+001
      vertex  9.500000e+000 -4.500000e+001  1.000000e+001
      vertex  5.929325e+000  3.542231e+001  1.000000e+001
    endloop
  endfacet
  facet normal  -0.000000e+000  0.000000e+000  1.000000e+000
    outer loop
      vertex  5.929325e+000  3.542231e+001  1.000000e+001
      vertex  9.500000e+000 -4.500000e+001  1.000000e+001
      vertex  9.500000e+000  5.000000e+001  1.000000e+001
    endloop
  endfacet
  facet normal  0.000000e+000  0.000000e+000  1.000000e+000
    outer loop
      vertex  5.929325e+000  3.542231e+001  1.000000e+001
      vertex  9.500000e+000  5.000000e+001  1.000000e+001
      vertex  5.209138e+000  3.631638e+001  1.000000e+001
    endloop
  endfacet
  facet normal  0.000000e+000  -0.000000e+000  1.000000e+000
    outer loop
      vertex  5.209138e+000  3.631638e+001  2.500000e+000
      vertex  5.929325e+000  3.542231e+001  2.500000e+000
      vertex  7.500000e+000  5.000000e+001  2.500000e+000
    endloop
  endfacet
  facet normal  0.000000e+000  0.000000e+000  9.999999e-001
    outer loop
      vertex -7.500000e+000  5.000000e+001  2.500000e+000
      vertex -7.500000e+000 -4.500000e+001  2.500000e+000
      vertex -5.929325e+000  3.457769e+001  2.500000e+000
    endloop
  endfacet
  facet normal  0.000000e+000  -0.000000e+000  1.000000e+000
    outer loop
      vertex -7.500000e+000  5.000000e+001  2.500000e+000
      vertex -5.929325e+000  3.457769e+001  2.500000e+000
      vertex -5.806374e+000  3.571914e+001  2.500000e+000
    endloop
  endfacet
  facet normal  0.000000e+000  -0.000000e+000  1.000000e+000
    outer loop
      vertex -7.500000e+000  5.000000e+001  2.500000e+000
      vertex -5.806374e+000  3.571914e+001  2.500000e+000
      vertex -4.912309e+000  3.643932e+001  2.500000e+000
    endloop
  endfacet
  facet normal  -0.000000e+000  -0.000000e+000  9.999999e-001
    outer loop
      vertex -7.500000e+000  5.000000e+001  2.500000e+000
      vertex -4.912309e+000  3.643932e+001  2.500000e+000
      vertex -3.770862e+000  3.631638e+001  2.500000e+000
    endloop
  endfacet
  facet normal  0.000000e+000  -0.000000e+000  1.000000e+000
    outer loop
      vertex -7.500000e+000  5.000000e+001  2.500000e+000
      vertex -3.770862e+000  3.631638e+001  2.500000e+000
      vertex  4.067691e+000  3.643932e+001  2.500000e+000
    endloop
  endfacet
  facet normal  -0.000000e+000  -0.000000e+000  1.000000e+000
    outer loop
      vertex -7.500000e+000  5.000000e+001  2.500000e+000
      vertex  4.067691e+000  3.643932e+001  2.500000e+000
      vertex  5.209138e+000  3.631638e+001  2.500000e+000
    endloop
  endfacet
  facet normal  0.000000e+000  -0.000000e+000  1.000000e+000
    outer loop
      vertex -7.500000e+000  5.000000e+001  2.500000e+000
      vertex  5.209138e+000  3.631638e+001  2.500000e+000
      vertex  7.500000e+000  5.000000e+001  2.500000e+000
    endloop
  endfacet
  facet normal  0.000000e+000  0.000000e+000  1.000000e+000
    outer loop
      vertex -7.500000e+000 -4.500000e+001  2.500000e+000
      vertex  7.500000e+000 -4.500000e+001  2.500000e+000
      vertex  4.912309e+000  3.356068e+001  2.500000e+000
    endloop
  endfacet
  facet normal  0.000000e+000  0.000000e+000  1.000000e+000
    outer loop
      vertex -7.500000e+000 -4.500000e+001  2.500000e+000
      vertex  4.912309e+000  3.356068e+001  2.500000e+000
      vertex  3.770862e+000  3.368362e+001  2.500000e+000
    endloop
  endfacet
  facet normal  0.000000e+000  0.000000e+000  1.000000e+000
    outer loop
      vertex -7.500000e+000 -4.500000e+001  2.500000e+000
      vertex  3.770862e+000  3.368362e+001  2.500000e+000
      vertex -3.173626e+000  3.428086e+001  2.500000e+000
    endloop
  endfacet
  facet normal  0.000000e+000  0.000000e+000  1.000000e+000
    outer loop
      vertex -7.500000e+000 -4.500000e+001  2.500000e+000
      vertex -3.173626e+000  3.428086e+001  2.500000e+000
      vertex -4.067691e+000  3.356068e+001  2.500000e+000
    endloop
  endfacet
  facet normal  0.000000e+000  0.000000e+000  1.000000e+000
    outer loop
      vertex -7.500000e+000 -4.500000e+001  2.500000e+000
      vertex -4.067691e+000  3.356068e+001  2.500000e+000
      vertex -5.209138e+000  3.368362e+001  2.500000e+000
    endloop
  endfacet
  facet normal  0.000000e+000  0.000000e+000  9.999999e-001
    outer loop
      vertex -7.500000e+000 -4.500000e+001  2.500000e+000
      vertex -5.209138e+000  3.368362e+001  2.500000e+000
      vertex -5.929325e+000  3.457769e+001  2.500000e+000
    endloop
  endfacet
  facet normal  0.000000e+000  0.000000e+000  9.999999e-001
    outer loop
      vertex  7.500000e+000 -4.500000e+001  2.500000e+000
      vertex  7.500000e+000  5.000000e+001  2.500000e+000
      vertex  5.929325e+000  3.542231e+001  2.500000e+000
    endloop
  endfacet
  facet normal  0.000000e+000  0.000000e+000  1.000000e+000
    outer loop
      vertex  7.500000e+000 -4.500000e+001  2.500000e+000
      vertex  5.929325e+000  3.542231e+001  2.500000e+000
      vertex  5.806374e+000  3.428086e+001  2.500000e+000
    endloop
  endfacet
  facet normal  0.000000e+000  0.000000e+000  1.000000e+000
    outer loop
      vertex  7.500000e+000 -4.500000e+001  2.500000e+000
      vertex  5.806374e+000  3.428086e+001  2.500000e+000
      vertex  4.912309e+000  3.356068e+001  2.500000e+000
    endloop
  endfacet
  facet normal  0.000000e+000  0.000000e+000  1.000000e+000
    outer loop
      vertex  3.770862e+000  3.368362e+001  2.500000e+000
      vertex  3.050676e+000  3.457769e+001  2.500000e+000
      vertex -3.173626e+000  3.428086e+001  2.500000e+000
    endloop
  endfacet
  facet normal  0.000000e+000  0.000000e+000  1.000000e+000
    outer loop
      vertex -3.173626e+000  3.428086e+001  2.500000e+000
      vertex  3.050676e+000  3.457769e+001  2.500000e+000
      vertex  3.173626e+000  3.571914e+001  2.500000e+000
    endloop
  endfacet
  facet normal  0.000000e+000  0.000000e+000  1.000000e+000
    outer loop
      vertex -3.173626e+000  3.428086e+001  2.500000e+000
      vertex  3.173626e+000  3.571914e+001  2.500000e+000
      vertex -3.050676e+000  3.542231e+001  2.500000e+000
    endloop
  endfacet
  facet normal  0.000000e+000  0.000000e+000  1.000000e+000
    outer loop
      vertex -3.050676e+000  3.542231e+001  2.500000e+000
      vertex  3.173626e+000  3.571914e+001  2.500000e+000
      vertex  4.067691e+000  3.643932e+001  2.500000e+000
    endloop
  endfacet
  facet normal  0.000000e+000  0.000000e+000  9.999999e-001
    outer loop
      vertex -3.050676e+000  3.542231e+001  2.500000e+000
      vertex  4.067691e+000  3.643932e+001  2.500000e+000
      vertex -3.770862e+000  3.631638e+001  2.500000e+000
    endloop
  endfacet
  facet normal  -0.000000e+000  0.000000e+000 -9.999999e-001
    outer loop
      vertex -5.929325e+000  3.457769e+001  7.500000e+000
      vertex -5.209138e+000  3.368362e+001  7.500000e+000
      vertex -7.500000e+000 -4.500000e+001  7.500000e+000
    endloop
  endfacet
  facet normal  0.000000e+000  0.000000e+000 -1.000000e+000
    outer loop
      vertex  7.500000e+000 -4.500000e+001  7.500000e+000
      vertex -7.500000e+000 -4.500000e+001  7.500000e+000
      vertex -5.209138e+000  3.368362e+001  7.500000e+000
    endloop
  endfacet
  facet normal  0.000000e+000  0.000000e+000 -1.000000e+000
    outer loop
      vertex  7.500000e+000 -4.500000e+001  7.500000e+000
      vertex -5.209138e+000  3.368362e+001  7.500000e+000
      vertex -4.067691e+000  3.356068e+001  7.500000e+000
    endloop
  endfacet
  facet normal  0.000000e+000  0.000000e+000 -1.000000e+000
    outer loop
      vertex  7.500000e+000 -4.500000e+001  7.500000e+000
      vertex -4.067691e+000  3.356068e+001  7.500000e+000
      vertex -3.173626e+000  3.428086e+001  7.500000e+000
    endloop
  endfacet
  facet normal  0.000000e+000  0.000000e+000 -1.000000e+000
    outer loop
      vertex  7.500000e+000 -4.500000e+001  7.500000e+000
      vertex -3.173626e+000  3.428086e+001  7.500000e+000
      vertex  3.770862e+000  3.368362e+001  7.500000e+000
    endloop
  endfacet
  facet normal  0.000000e+000  0.000000e+000 -1.000000e+000
    outer loop
      vertex  7.500000e+000 -4.500000e+001  7.500000e+000
      vertex  3.770862e+000  3.368362e+001  7.500000e+000
      vertex  4.912309e+000  3.356068e+001  7.500000e+000
    endloop
  endfacet
  facet normal  0.000000e+000  0.000000e+000 -1.000000e+000
    outer loop
      vertex  7.500000e+000 -4.500000e+001  7.500000e+000
      vertex  4.912309e+000  3.356068e+001  7.500000e+000
      vertex  5.806374e+000  3.428086e+001  7.500000e+000
    endloop
  endfacet
  facet normal  0.000000e+000  0.000000e+000 -1.000000e+000
    outer loop
      vertex  7.500000e+000 -4.500000e+001  7.500000e+000
      vertex  5.806374e+000  3.428086e+001  7.500000e+000
      vertex  5.929325e+000  3.542231e+001  7.500000e+000
    endloop
  endfacet
  facet normal  -0.000000e+000  0.000000e+000 -1.000000e+000
    outer loop
      vertex -7.500000e+000  5.000000e+001  7.500000e+000
      vertex  7.500000e+000  5.000000e+001  7.500000e+000
      vertex -4.912309e+000  3.643932e+001  7.500000e+000
    endloop
  endfacet
  facet normal  -0.000000e+000  0.000000e+000 -1.000000e+000
    outer loop
      vertex -7.500000e+000  5.000000e+001  7.500000e+000
      vertex -4.912309e+000  3.643932e+001  7.500000e+000
      vertex -5.806374e+000  3.571914e+001  7.500000e+000
    endloop
  endfacet
  facet normal  -0.000000e+000  0.000000e+000 -1.000000e+000
    outer loop
      vertex -7.500000e+000  5.000000e+001  7.500000e+000
      vertex -5.806374e+000  3.571914e+001  7.500000e+000
      vertex -5.929325e+000  3.457769e+001  7.500000e+000
    endloop
  endfacet
  facet normal  -0.000000e+000  0.000000e+000 -9.999999e-001
    outer loop
      vertex -7.500000e+000  5.000000e+001  7.500000e+000
      vertex -5.929325e+000  3.457769e+001  7.500000e+000
      vertex -7.500000e+000 -4.500000e+001  7.500000e+000
    endloop
  endfacet
  facet normal  0.000000e+000  0.000000e+000 -9.999999e-001
    outer loop
      vertex  7.500000e+000  5.000000e+001  7.500000e+000
      vertex  7.500000e+000 -4.500000e+001  7.500000e+000
      vertex  5.929325e+000  3.542231e+001  7.500000e+000
    endloop
  endfacet
  facet normal  0.000000e+000  0.000000e+000 -1.000000e+000
    outer loop
      vertex  7.500000e+000  5.000000e+001  7.500000e+000
      vertex  5.929325e+000  3.542231e+001  7.500000e+000
      vertex  5.209138e+000  3.631638e+001  7.500000e+000
    endloop
  endfacet
  facet normal  0.000000e+000  0.000000e+000 -1.000000e+000
    outer loop
      vertex  7.500000e+000  5.000000e+001  7.500000e+000
      vertex  5.209138e+000  3.631638e+001  7.500000e+000
      vertex  4.067691e+000  3.643932e+001  7.500000e+000
    endloop
  endfacet
  facet normal  -0.000000e+000  0.000000e+000 -1.000000e+000
    outer loop
      vertex  7.500000e+000  5.000000e+001  7.500000e+000
      vertex  4.067691e+000  3.643932e+001  7.500000e+000
      vertex -3.770862e+000  3.631638e+001  7.500000e+000
    endloop
  endfacet
  facet normal  0.000000e+000  0.000000e+000 -1.000000e+000
    outer loop
      vertex  7.500000e+000  5.000000e+001  7.500000e+000
      vertex -3.770862e+000  3.631638e+001  7.500000e+000
      vertex -4.912309e+000  3.643932e+001  7.500000e+000
    endloop
  endfacet
  facet normal  0.000000e+000  0.000000e+000 -1.000000e+000
    outer loop
      vertex  3.770862e+000  3.368362e+001  7.500000e+000
      vertex -3.173626e+000  3.428086e+001  7.500000e+000
      vertex  3.050676e+000  3.457769e+001  7.500000e+000
    endloop
  endfacet
  facet normal  -0.000000e+000  0.000000e+000 -1.000000e+000
    outer loop
      vertex  3.050676e+000  3.457769e+001  7.500000e+000
      vertex -3.173626e+000  3.428086e+001  7.500000e+000
      vertex -3.050676e+000  3.542231e+001  7.500000e+000
    endloop
  endfacet
  facet normal  0.000000e+000  0.000000e+000 -1.000000e+000
    outer loop
      vertex  3.050676e+000  3.457769e+001  7.500000e+000
      vertex -3.050676e+000  3.542231e+001  7.500000e+000
      vertex  3.173626e+000  3.571914e+001  7.500000e+000
    endloop
  endfacet
  facet normal  -0.000000e+000  0.000000e+000 -1.000000e+000
    outer loop
      vertex  3.173626e+000  3.571914e+001  7.500000e+000
      vertex -3.050676e+000  3.542231e+001  7.500000e+000
      vertex -3.770862e+000  3.631638e+001  7.500000e+000
    endloop
  endfacet
  facet normal  0.000000e+000  0.000000e+000 -1.000000e+000
    outer loop
      vertex  3.173626e+000  3.571914e+001  7.500000e+000
      vertex -3.770862e+000  3.631638e+001  7.500000e+000
      vertex  4.067691e+000  3.643932e+001  7.500000e+000
    endloop
  endfacet
  facet normal -7.787682e-001 -6.273119e-001  0.000000e+000
    outer loop
      vertex  5.209138e+000  3.631638e+001  1.000000e+001
      vertex  5.929325e+000  3.542231e+001  7.500000e+000
      vertex  5.929325e+000  3.542231e+001  1.000000e+001
    endloop
  endfacet
  facet normal -9.942488e-001  1.070950e-001  0.000000e+000
    outer loop
      vertex  5.929325e+000  3.542231e+001  1.000000e+001
      vertex  5.929325e+000  3.542231e+001  7.500000e+000
      vertex  5.806374e+000  3.428086e+001  7.500000e+000
    endloop
  endfacet
  facet normal -9.942488e-001  1.070950e-001  0.000000e+000
    outer loop
      vertex  5.929325e+000  3.542231e+001  1.000000e+001
      vertex  5.806374e+000  3.428086e+001  7.500000e+000
      vertex  5.806374e+000  3.428086e+001  1.000000e+001
    endloop
  endfacet
  facet normal -7.787682e-001 -6.273119e-001  -0.000000e+000
    outer loop
      vertex  5.929325e+000  3.542231e+001  7.500000e+000
      vertex  5.209138e+000  3.631638e+001  1.000000e+001
      vertex  5.209138e+000  3.631638e+001  7.500000e+000
    endloop
  endfacet
  facet normal -1.070926e-001 -9.942490e-001  0.000000e+000
    outer loop
      vertex  5.209138e+000  3.631638e+001  7.500000e+000
      vertex  5.209138e+000  3.631638e+001  1.000000e+001
      vertex  4.067691e+000  3.643932e+001  1.000000e+001
    endloop
  endfacet
  facet normal -1.070926e-001 -9.942490e-001  -0.000000e+000
    outer loop
      vertex  5.209138e+000  3.631638e+001  7.500000e+000
      vertex  4.067691e+000  3.643932e+001  1.000000e+001
      vertex  4.067691e+000  3.643932e+001  7.500000e+000
    endloop
  endfacet
  facet normal  6.273113e-001 -7.787686e-001  0.000000e+000
    outer loop
      vertex  4.067691e+000  3.643932e+001  7.500000e+000
      vertex  4.067691e+000  3.643932e+001  1.000000e+001
      vertex  3.173626e+000  3.571914e+001  1.000000e+001
    endloop
  endfacet
  facet normal  6.273113e-001 -7.787686e-001  0.000000e+000
    outer loop
      vertex  4.067691e+000  3.643932e+001  7.500000e+000
      vertex  3.173626e+000  3.571914e+001  1.000000e+001
      vertex  3.173626e+000  3.571914e+001  7.500000e+000
    endloop
  endfacet
  facet normal  7.787682e-001  6.273117e-001  -0.000000e+000
    outer loop
      vertex  3.770862e+000  3.368362e+001  1.000000e+001
      vertex  3.050676e+000  3.457769e+001  7.500000e+000
      vertex  3.050676e+000  3.457769e+001  1.000000e+001
    endloop
  endfacet
  facet normal  9.942488e-001 -1.070950e-001  0.000000e+000
    outer loop
      vertex  3.050676e+000  3.457769e+001  1.000000e+001
      vertex  3.050676e+000  3.457769e+001  7.500000e+000
      vertex  3.173626e+000  3.571914e+001  7.500000e+000
    endloop
  endfacet
  facet normal  9.942488e-001 -1.070950e-001  0.000000e+000
    outer loop
      vertex  3.050676e+000  3.457769e+001  1.000000e+001
      vertex  3.173626e+000  3.571914e+001  7.500000e+000
      vertex  3.173626e+000  3.571914e+001  1.000000e+001
    endloop
  endfacet
  facet normal  7.787682e-001  6.273117e-001  0.000000e+000
    outer loop
      vertex  3.050676e+000  3.457769e+001  7.500000e+000
      vertex  3.770862e+000  3.368362e+001  1.000000e+001
      vertex  3.770862e+000  3.368362e+001  7.500000e+000
    endloop
  endfacet
  facet normal  1.070926e-001  9.942490e-001  -0.000000e+000
    outer loop
      vertex  3.770862e+000  3.368362e+001  7.500000e+000
      vertex  3.770862e+000  3.368362e+001  1.000000e+001
      vertex  4.912309e+000  3.356068e+001  1.000000e+001
    endloop
  endfacet
  facet normal  1.070926e-001  9.942490e-001  0.000000e+000
    outer loop
      vertex  3.770862e+000  3.368362e+001  7.500000e+000
      vertex  4.912309e+000  3.356068e+001  1.000000e+001
      vertex  4.912309e+000  3.356068e+001  7.500000e+000
    endloop
  endfacet
  facet normal -6.273112e-001  7.787686e-001  0.000000e+000
    outer loop
      vertex  4.912309e+000  3.356068e+001  7.500000e+000
      vertex  4.912309e+000  3.356068e+001  1.000000e+001
      vertex  5.806374e+000  3.428086e+001  1.000000e+001
    endloop
  endfacet
  facet normal -6.273112e-001  7.787686e-001  0.000000e+000
    outer loop
      vertex  4.912309e+000  3.356068e+001  7.500000e+000
      vertex  5.806374e+000  3.428086e+001  1.000000e+001
      vertex  5.806374e+000  3.428086e+001  7.500000e+000
    endloop
  endfacet
  facet normal  7.787682e-001  6.273119e-001  -0.000000e+000
    outer loop
      vertex -5.209138e+000  3.368362e+001  1.000000e+001
      vertex -5.929325e+000  3.457769e+001  7.500000e+000
      vertex -5.929325e+000  3.457769e+001  1.000000e+001
    endloop
  endfacet
  facet normal  9.942488e-001 -1.070950e-001  0.000000e+000
    outer loop
      vertex -5.929325e+000  3.457769e+001  1.000000e+001
      vertex -5.929325e+000  3.457769e+001  7.500000e+000
      vertex -5.806374e+000  3.571914e+001  7.500000e+000
    endloop
  endfacet
  facet normal  9.942488e-001 -1.070950e-001  0.000000e+000
    outer loop
      vertex -5.929325e+000  3.457769e+001  1.000000e+001
      vertex -5.806374e+000  3.571914e+001  7.500000e+000
      vertex -5.806374e+000  3.571914e+001  1.000000e+001
    endloop
  endfacet
  facet normal  7.787682e-001  6.273119e-001  0.000000e+000
    outer loop
      vertex -5.929325e+000  3.457769e+001  7.500000e+000
      vertex -5.209138e+000  3.368362e+001  1.000000e+001
      vertex -5.209138e+000  3.368362e+001  7.500000e+000
    endloop
  endfacet
  facet normal  1.070926e-001  9.942490e-001  -0.000000e+000
    outer loop
      vertex -5.209138e+000  3.368362e+001  7.500000e+000
      vertex -5.209138e+000  3.368362e+001  1.000000e+001
      vertex -4.067691e+000  3.356068e+001  1.000000e+001
    endloop
  endfacet
  facet normal  1.070926e-001  9.942490e-001  0.000000e+000
    outer loop
      vertex -5.209138e+000  3.368362e+001  7.500000e+000
      vertex -4.067691e+000  3.356068e+001  1.000000e+001
      vertex -4.067691e+000  3.356068e+001  7.500000e+000
    endloop
  endfacet
  facet normal -6.273113e-001  7.787686e-001  0.000000e+000
    outer loop
      vertex -4.067691e+000  3.356068e+001  7.500000e+000
      vertex -4.067691e+000  3.356068e+001  1.000000e+001
      vertex -3.173626e+000  3.428086e+001  1.000000e+001
    endloop
  endfacet
  facet normal -6.273113e-001  7.787686e-001  0.000000e+000
    outer loop
      vertex -4.067691e+000  3.356068e+001  7.500000e+000
      vertex -3.173626e+000  3.428086e+001  1.000000e+001
      vertex -3.173626e+000  3.428086e+001  7.500000e+000
    endloop
  endfacet
  facet normal -7.787682e-001 -6.273117e-001  0.000000e+000
    outer loop
      vertex -3.770862e+000  3.631638e+001  1.000000e+001
      vertex -3.050676e+000  3.542231e+001  7.500000e+000
      vertex -3.050676e+000  3.542231e+001  1.000000e+001
    endloop
  endfacet
  facet normal -9.942488e-001  1.070950e-001  0.000000e+000
    outer loop
      vertex -3.050676e+000  3.542231e+001  1.000000e+001
      vertex -3.050676e+000  3.542231e+001  7.500000e+000
      vertex -3.173626e+000  3.428086e+001  7.500000e+000
    endloop
  endfacet
  facet normal -9.942488e-001  1.070950e-001  0.000000e+000
    outer loop
      vertex -3.050676e+000  3.542231e+001  1.000000e+001
      vertex -3.173626e+000  3.428086e+001  7.500000e+000
      vertex -3.173626e+000  3.428086e+001  1.000000e+001
    endloop
  endfacet
  facet normal -7.787682e-001 -6.273117e-001  -0.000000e+000
    outer loop
      vertex -3.050676e+000  3.542231e+001  7.500000e+000
      vertex -3.770862e+000  3.631638e+001  1.000000e+001
      vertex -3.770862e+000  3.631638e+001  7.500000e+000
    endloop
  endfacet
  facet normal -1.070926e-001 -9.942490e-001  0.000000e+000
    outer loop
      vertex -3.770862e+000  3.631638e+001  7.500000e+000
      vertex -3.770862e+000  3.631638e+001  1.000000e+001
      vertex -4.912309e+000  3.643932e+001  1.000000e+001
    endloop
  endfacet
  facet normal -1.070926e-001 -9.942490e-001  -0.000000e+000
    outer loop
      vertex -3.770862e+000  3.631638e+001  7.500000e+000
      vertex -4.912309e+000  3.643932e+001  1.000000e+001
      vertex -4.912309e+000  3.643932e+001  7.500000e+000
    endloop
  endfacet
  facet normal  6.273112e-001 -7.787686e-001  0.000000e+000
    outer loop
      vertex -4.912309e+000  3.643932e+001  7.500000e+000
      vertex -4.912309e+000  3.643932e+001  1.000000e+001
      vertex -5.806374e+000  3.571914e+001  1.000000e+001
    endloop
  endfacet
  facet normal  6.273112e-001 -7.787686e-001  0.000000e+000
    outer loop
      vertex -4.912309e+000  3.643932e+001  7.500000e+000
      vertex -5.806374e+000  3.571914e+001  1.000000e+001
      vertex -5.806374e+000  3.571914e+001  7.500000e+000
    endloop
  endfacet
  facet normal  5.865059e-002 -3.377394e-001 -9.394106e-001
    outer loop
      vertex  7.500000e+000 -4.340815e+001  6.927692e+000
      vertex  9.500000e+000 -4.380144e+001  7.193956e+000
      vertex  7.500000e+000 -4.500000e+001  7.500000e+000
    endloop
  endfacet
  facet normal -8.762322e-002 -1.066833e-001 -9.904245e-001
    outer loop
      vertex  9.500000e+000 -4.380144e+001  7.193956e+000
      vertex  9.500000e+000 -4.570385e+001  7.398874e+000
      vertex  7.500000e+000 -4.500000e+001  7.500000e+000
    endloop
  endfacet
  facet normal -6.945791e-002 -7.768871e-001 -6.257972e-001
    outer loop
      vertex  9.500000e+000 -4.380144e+001  7.193956e+000
      vertex  7.500000e+000 -4.340815e+001  6.927692e+000
      vertex  9.500000e+000 -4.260113e+001  5.703849e+000
    endloop
  endfacet
  facet normal  6.945791e-002 -7.768871e-001 -6.257972e-001
    outer loop
      vertex -7.500000e+000 -4.340815e+001  6.927692e+000
      vertex -9.500000e+000 -4.380144e+001  7.193956e+000
      vertex -9.500000e+000 -4.260113e+001  5.703849e+000
    endloop
  endfacet
  facet normal  0.000000e+000  1.422148e-001 -9.898358e-001
    outer loop
      vertex -7.500000e+000 -4.500000e+001  7.500000e+000
      vertex  7.500000e+000 -4.500000e+001  7.500000e+000
      vertex  9.500000e+000 -4.570385e+001  7.398874e+000
    endloop
  endfacet
  facet normal  0.000000e+000  1.422148e-001 -9.898358e-001
    outer loop
      vertex -7.500000e+000 -4.500000e+001  7.500000e+000
      vertex  9.500000e+000 -4.570385e+001  7.398874e+000
      vertex -9.500000e+000 -4.570385e+001  7.398874e+000
    endloop
  endfacet
  facet normal  8.762322e-002 -1.066833e-001 -9.904245e-001
    outer loop
      vertex -7.500000e+000 -4.500000e+001  7.500000e+000
      vertex -9.500000e+000 -4.570385e+001  7.398874e+000
      vertex -9.500000e+000 -4.380144e+001  7.193956e+000
    endloop
  endfacet
  facet normal -5.865059e-002 -3.377394e-001 -9.394106e-001
    outer loop
      vertex -7.500000e+000 -4.500000e+001  7.500000e+000
      vertex -9.500000e+000 -4.380144e+001  7.193956e+000
      vertex -7.500000e+000 -4.340815e+001  6.927692e+000
    endloop
  endfacet
  facet normal  3.483110e-002 -8.595439e-001 -5.098735e-001
    outer loop
      vertex  7.500000e+000 -4.340815e+001  6.927692e+000
      vertex  7.500000e+000 -4.254512e+001  5.472799e+000
      vertex  9.500000e+000 -4.260113e+001  5.703849e+000
    endloop
  endfacet
  facet normal -4.544283e-002 -9.870117e-001  1.540876e-001
    outer loop
      vertex  9.500000e+000 -4.260113e+001  5.703849e+000
      vertex  7.500000e+000 -4.254512e+001  5.472799e+000
      vertex  7.500000e+000 -4.280604e+001  3.801436e+000
    endloop
  endfacet
  facet normal  0.000000e+000 -9.942490e-001  1.070933e-001
    outer loop
      vertex  9.500000e+000 -4.260113e+001  5.703849e+000
      vertex  7.500000e+000 -4.280604e+001  3.801436e+000
      vertex  9.500000e+000 -4.280604e+001  3.801436e+000
    endloop
  endfacet
  facet normal  0.000000e+000  6.273121e-001 -7.787679e-001
    outer loop
      vertex -9.500000e+000 -4.719396e+001  6.198564e+000
      vertex -9.500000e+000 -4.570385e+001  7.398874e+000
      vertex  9.500000e+000 -4.719396e+001  6.198564e+000
    endloop
  endfacet
  facet normal  0.000000e+000  6.273121e-001 -7.787679e-001
    outer loop
      vertex  9.500000e+000 -4.719396e+001  6.198564e+000
      vertex -9.500000e+000 -4.570385e+001  7.398874e+000
      vertex  9.500000e+000 -4.570385e+001  7.398874e+000
    endloop
  endfacet
  facet normal -3.483110e-002 -8.595439e-001 -5.098735e-001
    outer loop
      vertex -7.500000e+000 -4.340815e+001  6.927692e+000
      vertex -9.500000e+000 -4.260113e+001  5.703849e+000
      vertex -7.500000e+000 -4.254512e+001  5.472799e+000
    endloop
  endfacet
  facet normal  4.018401e-002 -9.934459e-001  1.070068e-001
    outer loop
      vertex -7.500000e+000 -4.254512e+001  5.472799e+000
      vertex -9.500000e+000 -4.260113e+001  5.703849e+000
      vertex -9.500000e+000 -4.280604e+001  3.801436e+000
    endloop
  endfacet
  facet normal  0.000000e+000 -9.880324e-001  1.542470e-001
    outer loop
      vertex -7.500000e+000 -4.254512e+001  5.472799e+000
      vertex -9.500000e+000 -4.280604e+001  3.801436e+000
      vertex -7.500000e+000 -4.280604e+001  3.801436e+000
    endloop
  endfacet
  facet normal  8.762330e-002  1.066832e-001  9.904246e-001
    outer loop
      vertex -9.500000e+000 -4.429615e+001  2.601126e+000
      vertex -9.500000e+000 -4.619856e+001  2.806044e+000
      vertex -7.500000e+000 -4.500000e+001  2.500000e+000
    endloop
  endfacet
  facet normal  -0.000000e+000  2.474042e-001  9.689124e-001
    outer loop
      vertex  7.500000e+000 -4.500000e+001  2.500000e+000
      vertex -7.500000e+000 -4.500000e+001  2.500000e+000
      vertex -9.500000e+000 -4.619856e+001  2.806044e+000
    endloop
  endfacet
  facet normal  -0.000000e+000  2.474042e-001  9.689123e-001
    outer loop
      vertex  7.500000e+000 -4.500000e+001  2.500000e+000
      vertex -9.500000e+000 -4.619856e+001  2.806044e+000
      vertex  9.500000e+000 -4.619856e+001  2.806044e+000
    endloop
  endfacet
  facet normal -8.762330e-002  1.066832e-001  9.904246e-001
    outer loop
      vertex  7.500000e+000 -4.500000e+001  2.500000e+000
      vertex  9.500000e+000 -4.619856e+001  2.806044e+000
      vertex  9.500000e+000 -4.429615e+001  2.601126e+000
    endloop
  endfacet
  facet normal  4.428323e-002 -2.642536e-001  9.634360e-001
    outer loop
      vertex  7.500000e+000 -4.500000e+001  2.500000e+000
      vertex  9.500000e+000 -4.429615e+001  2.601126e+000
      vertex  7.500000e+000 -4.372454e+001  2.849836e+000
    endloop
  endfacet
  facet normal -4.428323e-002 -2.642536e-001  9.634360e-001
    outer loop
      vertex -7.500000e+000 -4.500000e+001  2.500000e+000
      vertex -7.500000e+000 -4.372454e+001  2.849836e+000
      vertex -9.500000e+000 -4.429615e+001  2.601126e+000
    endloop
  endfacet
  facet normal  1.184375e-001 -7.144458e-001  6.895940e-001
    outer loop
      vertex -9.500000e+000 -4.429615e+001  2.601126e+000
      vertex -7.500000e+000 -4.372454e+001  2.849836e+000
      vertex -7.500000e+000 -4.280604e+001  3.801436e+000
    endloop
  endfacet
  facet normal  0.000000e+000 -6.273122e-001  7.787680e-001
    outer loop
      vertex -9.500000e+000 -4.429615e+001  2.601126e+000
      vertex -7.500000e+000 -4.280604e+001  3.801436e+000
      vertex -9.500000e+000 -4.280604e+001  3.801436e+000
    endloop
  endfacet
  facet normal  0.000000e+000  9.942490e-001 -1.070933e-001
    outer loop
      vertex  9.500000e+000 -4.719396e+001  6.198564e+000
      vertex  9.500000e+000 -4.739887e+001  4.296151e+000
      vertex -9.500000e+000 -4.719396e+001  6.198564e+000
    endloop
  endfacet
  facet normal  0.000000e+000  9.942490e-001 -1.070933e-001
    outer loop
      vertex -9.500000e+000 -4.719396e+001  6.198564e+000
      vertex  9.500000e+000 -4.739887e+001  4.296151e+000
      vertex -9.500000e+000 -4.739887e+001  4.296151e+000
    endloop
  endfacet
  facet normal  0.000000e+000  7.787678e-001  6.273122e-001
    outer loop
      vertex  9.500000e+000 -4.739887e+001  4.296151e+000
      vertex  9.500000e+000 -4.619856e+001  2.806044e+000
      vertex -9.500000e+000 -4.739887e+001  4.296151e+000
    endloop
  endfacet
  facet normal  0.000000e+000  7.787678e-001  6.273122e-001
    outer loop
      vertex -9.500000e+000 -4.739887e+001  4.296151e+000
      vertex  9.500000e+000 -4.619856e+001  2.806044e+000
      vertex -9.500000e+000 -4.619856e+001  2.806044e+000
    endloop
  endfacet
  facet normal -1.184375e-001 -7.144458e-001  6.895940e-001
    outer loop
      vertex  7.500000e+000 -4.372454e+001  2.849836e+000
      vertex  9.500000e+000 -4.429615e+001  2.601126e+000
      vertex  7.500000e+000 -4.280604e+001  3.801436e+000
    endloop
  endfacet
  facet normal  0.000000e+000 -6.273122e-001  7.787680e-001
    outer loop
      vertex  7.500000e+000 -4.280604e+001  3.801436e+000
      vertex  9.500000e+000 -4.429615e+001  2.601126e+000
      vertex  9.500000e+000 -4.280604e+001  3.801436e+000
    endloop
  endfacet
  facet normal  0.000000e+000  1.000000e+000  0.000000e+000
    outer loop
      vertex -9.500000e+000  5.000000e+001  0.000000e+000
      vertex  7.500000e+000  5.000000e+001  2.500000e+000
      vertex  9.500000e+000  5.000000e+001  0.000000e+000
    endloop
  endfacet
  facet normal  0.000000e+000  1.000000e+000  0.000000e+000
    outer loop
      vertex  9.500000e+000  5.000000e+001  0.000000e+000
      vertex  7.500000e+000  5.000000e+001  2.500000e+000
      vertex  7.500000e+000  5.000000e+001  7.500000e+000
    endloop
  endfacet
  facet normal  -0.000000e+000  1.000000e+000  0.000000e+000
    outer loop
      vertex  9.500000e+000  5.000000e+001  0.000000e+000
      vertex  7.500000e+000  5.000000e+001  7.500000e+000
      vertex  9.500000e+000  5.000000e+001  1.000000e+001
    endloop
  endfacet
  facet normal  0.000000e+000  1.000000e+000  0.000000e+000
    outer loop
      vertex  7.500000e+000  5.000000e+001  2.500000e+000
      vertex -9.500000e+000  5.000000e+001  0.000000e+000
      vertex -7.500000e+000  5.000000e+001  2.500000e+000
    endloop
  endfacet
  facet normal  0.000000e+000  1.000000e+000  0.000000e+000
    outer loop
      vertex -7.500000e+000  5.000000e+001  2.500000e+000
      vertex -9.500000e+000  5.000000e+001  0.000000e+000
      vertex -9.500000e+000  5.000000e+001  1.000000e+001
    endloop
  endfacet
  facet normal  0.000000e+000  1.000000e+000  0.000000e+000
    outer loop
      vertex -7.500000e+000  5.000000e+001  2.500000e+000
      vertex -9.500000e+000  5.000000e+001  1.000000e+001
      vertex -7.500000e+000  5.000000e+001  7.500000e+000
    endloop
  endfacet
  facet normal  0.000000e+000  1.000000e+000  -0.000000e+000
    outer loop
      vertex -7.500000e+000  5.000000e+001  7.500000e+000
      vertex -9.500000e+000  5.000000e+001  1.000000e+001
      vertex  9.500000e+000  5.000000e+001  1.000000e+001
    endloop
  endfacet
  facet normal  0.000000e+000  1.000000e+000  0.000000e+000
    outer loop
      vertex -7.500000e+000  5.000000e+001  7.500000e+000
      vertex  9.500000e+000  5.000000e+001  1.000000e+001
      vertex  7.500000e+000  5.000000e+001  7.500000e+000
    endloop
  endfacet
  facet normal -1.000000e+000  0.000000e+000  0.000000e+000
    outer loop
      vertex  7.500000e+000  5.000000e+001  7.500000e+000
      vertex  7.500000e+000 -4.340815e+001  6.927692e+000
      vertex  7.500000e+000 -4.500000e+001  7.500000e+000
    endloop
  endfacet
  facet normal -1.000000e+000  0.000000e+000  0.000000e+000
    outer loop
      vertex  7.500000e+000  5.000000e+001  7.500000e+000
      vertex  7.500000e+000 -4.254512e+001  5.472799e+000
      vertex  7.500000e+000 -4.340815e+001  6.927692e+000
    endloop
  endfacet
  facet normal -1.000000e+000  0.000000e+000  0.000000e+000
    outer loop
      vertex  7.500000e+000  5.000000e+001  2.500000e+000
      vertex  7.500000e+000 -4.500000e+001  2.500000e+000
      vertex  7.500000e+000 -4.372454e+001  2.849836e+000
    endloop
  endfacet
  facet normal -1.000000e+000  0.000000e+000  0.000000e+000
    outer loop
      vertex  7.500000e+000  5.000000e+001  2.500000e+000
      vertex  7.500000e+000 -4.372454e+001  2.849836e+000
      vertex  7.500000e+000 -4.280604e+001  3.801436e+000
    endloop
  endfacet
  facet normal -1.000000e+000  0.000000e+000  0.000000e+000
    outer loop
      vertex  7.500000e+000  5.000000e+001  2.500000e+000
      vertex  7.500000e+000 -4.280604e+001  3.801436e+000
      vertex  7.500000e+000 -4.254512e+001  5.472799e+000
    endloop
  endfacet
  facet normal -1.000000e+000  0.000000e+000  0.000000e+000
    outer loop
      vertex  7.500000e+000  5.000000e+001  2.500000e+000
      vertex  7.500000e+000 -4.254512e+001  5.472799e+000
      vertex  7.500000e+000  5.000000e+001  7.500000e+000
    endloop
  endfacet
  facet normal  1.000000e+000  -0.000000e+000  0.000000e+000
    outer loop
      vertex -7.500000e+000  5.000000e+001  7.500000e+000
      vertex -7.500000e+000 -4.500000e+001  7.500000e+000
      vertex -7.500000e+000 -4.340815e+001  6.927692e+000
    endloop
  endfacet
  facet normal  1.000000e+000  -0.000000e+000  0.000000e+000
    outer loop
      vertex -7.500000e+000  5.000000e+001  7.500000e+000
      vertex -7.500000e+000 -4.340815e+001  6.927692e+000
      vertex -7.500000e+000 -4.254512e+001  5.472799e+000
    endloop
  endfacet
  facet normal  1.000000e+000  -0.000000e+000  0.000000e+000
    outer loop
      vertex -7.500000e+000  5.000000e+001  7.500000e+000
      vertex -7.500000e+000 -4.254512e+001  5.472799e+000
      vertex -7.500000e+000  5.000000e+001  2.500000e+000
    endloop
  endfacet
  facet normal  1.000000e+000  0.000000e+000  0.000000e+000
    outer loop
      vertex -7.500000e+000  5.000000e+001  2.500000e+000
      vertex -7.500000e+000 -4.254512e+001  5.472799e+000
      vertex -7.500000e+000 -4.280604e+001  3.801436e+000
    endloop
  endfacet
  facet normal  1.000000e+000  0.000000e+000  0.000000e+000
    outer loop
      vertex -7.500000e+000  5.000000e+001  2.500000e+000
      vertex -7.500000e+000 -4.280604e+001  3.801436e+000
      vertex -7.500000e+000 -4.372454e+001  2.849836e+000
    endloop
  endfacet
  facet normal  1.000000e+000  0.000000e+000  0.000000e+000
    outer loop
      vertex -7.500000e+000  5.000000e+001  2.500000e+000
      vertex -7.500000e+000 -4.372454e+001  2.849836e+000
      vertex -7.500000e+000 -4.500000e+001  2.500000e+000
    endloop
  endfacet
  facet normal  0.000000e+000 -2.588191e-001  9.659258e-001
    outer loop
      vertex  9.500000e+000 -4.500000e+001  1.000000e+001
      vertex -9.500000e+000 -4.500000e+001  1.000000e+001
      vertex  9.500000e+000 -4.750000e+001  9.330127e+000
    endloop
  endfacet
  facet normal  0.000000e+000 -2.588191e-001  9.659258e-001
    outer loop
      vertex  9.500000e+000 -4.750000e+001  9.330127e+000
      vertex -9.500000e+000 -4.500000e+001  1.000000e+001
      vertex -9.500000e+000 -4.750000e+001  9.330127e+000
    endloop
  endfacet
  facet normal  0.000000e+000 -7.071065e-001  7.071069e-001
    outer loop
      vertex  9.500000e+000 -4.750000e+001  9.330127e+000
      vertex -9.500000e+000 -4.750000e+001  9.330127e+000
      vertex  9.500000e+000 -4.933013e+001  7.500000e+000
    endloop
  endfacet
  facet normal  0.000000e+000 -7.071065e-001  7.071069e-001
    outer loop
      vertex  9.500000e+000 -4.933013e+001  7.500000e+000
      vertex -9.500000e+000 -4.750000e+001  9.330127e+000
      vertex -9.500000e+000 -4.933013e+001  7.500000e+000
    endloop
  endfacet
  facet normal  0.000000e+000 -9.659259e-001  2.588188e-001
    outer loop
      vertex  9.500000e+000 -4.933013e+001  7.500000e+000
      vertex -9.500000e+000 -4.933013e+001  7.500000e+000
      vertex  9.500000e+000 -5.000000e+001  5.000000e+000
    endloop
  endfacet
  facet normal  0.000000e+000 -9.659259e-001  2.588188e-001
    outer loop
      vertex  9.500000e+000 -5.000000e+001  5.000000e+000
      vertex -9.500000e+000 -4.933013e+001  7.500000e+000
      vertex -9.500000e+000 -5.000000e+001  5.000000e+000
    endloop
  endfacet
  facet normal  0.000000e+000 -9.659259e-001 -2.588188e-001
    outer loop
      vertex  9.500000e+000 -5.000000e+001  5.000000e+000
      vertex -9.500000e+000 -5.000000e+001  5.000000e+000
      vertex  9.500000e+000 -4.933013e+001  2.500000e+000
    endloop
  endfacet
  facet normal  -0.000000e+000 -9.659259e-001 -2.588188e-001
    outer loop
      vertex  9.500000e+000 -4.933013e+001  2.500000e+000
      vertex -9.500000e+000 -5.000000e+001  5.000000e+000
      vertex -9.500000e+000 -4.933013e+001  2.500000e+000
    endloop
  endfacet
  facet normal  0.000000e+000 -7.071066e-001 -7.071069e-001
    outer loop
      vertex  9.500000e+000 -4.933013e+001  2.500000e+000
      vertex -9.500000e+000 -4.933013e+001  2.500000e+000
      vertex  9.500000e+000 -4.750000e+001  6.698730e-001
    endloop
  endfacet
  facet normal  -0.000000e+000 -7.071066e-001 -7.071069e-001
    outer loop
      vertex  9.500000e+000 -4.750000e+001  6.698730e-001
      vertex -9.500000e+000 -4.933013e+001  2.500000e+000
      vertex -9.500000e+000 -4.750000e+001  6.698730e-001
    endloop
  endfacet
  facet normal  0.000000e+000 -2.588190e-001 -9.659259e-001
    outer loop
      vertex  9.500000e+000 -4.750000e+001  6.698730e-001
      vertex -9.500000e+000 -4.750000e+001  6.698730e-001
      vertex  9.500000e+000 -4.500000e+001  0.000000e+000
    endloop
  endfacet
  facet normal  -0.000000e+000 -2.588190e-001 -9.659259e-001
    outer loop
      vertex  9.500000e+000 -4.500000e+001  0.000000e+000
      vertex -9.500000e+000 -4.750000e+001  6.698730e-001
      vertex -9.500000e+000 -4.500000e+001  0.000000e+000
    endloop
  endfacet
endsolid CATIA STL
