solid CATIA STL
  facet normal  0.000000e+000  -0.000000e+000  9.999999e-001
    outer loop
      vertex  2.500000e+000  2.500000e+000  2.000000e+000
      vertex  4.526429e+000  7.035713e-001  2.000000e+000
      vertex  5.230000e+000  9.950000e-001  2.000000e+000
    endloop
  endfacet
  facet normal  -0.000000e+000  0.000000e+000  1.000000e+000
    outer loop
      vertex  7.450000e+000  2.500000e+000  2.000000e+000
      vertex  2.500000e+000  2.500000e+000  2.000000e+000
      vertex  5.230000e+000  9.950000e-001  2.000000e+000
    endloop
  endfacet
  facet normal  -0.000000e+000  0.000000e+000  1.000000e+000
    outer loop
      vertex  7.450000e+000  2.500000e+000  2.000000e+000
      vertex  5.230000e+000  9.950000e-001  2.000000e+000
      vertex  5.933571e+000  7.035713e-001  2.000000e+000
    endloop
  endfacet
  facet normal  -0.000000e+000  0.000000e+000  1.000000e+000
    outer loop
      vertex  7.450000e+000  2.500000e+000  2.000000e+000
      vertex  5.933571e+000  7.035713e-001  2.000000e+000
      vertex  7.450000e+000 -2.500000e+000  2.000000e+000
    endloop
  endfacet
  facet normal  0.000000e+000  0.000000e+000  1.000000e+000
    outer loop
      vertex  2.500000e+000 -2.500000e+000  2.000000e+000
      vertex  7.450000e+000 -2.500000e+000  2.000000e+000
      vertex  5.230000e+000 -9.950000e-001  2.000000e+000
    endloop
  endfacet
  facet normal  0.000000e+000  0.000000e+000  9.999999e-001
    outer loop
      vertex  2.500000e+000 -2.500000e+000  2.000000e+000
      vertex  5.230000e+000 -9.950000e-001  2.000000e+000
      vertex  4.526429e+000 -7.035713e-001  2.000000e+000
    endloop
  endfacet
  facet normal  0.000000e+000  0.000000e+000  1.000000e+000
    outer loop
      vertex  2.500000e+000 -2.500000e+000  2.000000e+000
      vertex  4.526429e+000 -7.035713e-001  2.000000e+000
      vertex  4.235000e+000 -1.776357e-015  2.000000e+000
    endloop
  endfacet
  facet normal  0.000000e+000  -0.000000e+000  1.000000e+000
    outer loop
      vertex  2.500000e+000 -2.500000e+000  2.000000e+000
      vertex  4.235000e+000 -1.776357e-015  2.000000e+000
      vertex  4.526429e+000  7.035713e-001  2.000000e+000
    endloop
  endfacet
  facet normal  0.000000e+000  0.000000e+000  1.000000e+000
    outer loop
      vertex  2.500000e+000 -2.500000e+000  2.000000e+000
      vertex  4.526429e+000  7.035713e-001  2.000000e+000
      vertex  2.500000e+000  2.500000e+000  2.000000e+000
    endloop
  endfacet
  facet normal  0.000000e+000  0.000000e+000  1.000000e+000
    outer loop
      vertex  7.450000e+000 -2.500000e+000  2.000000e+000
      vertex  5.933571e+000  7.035713e-001  2.000000e+000
      vertex  6.225000e+000 -1.654509e-015  2.000000e+000
    endloop
  endfacet
  facet normal  0.000000e+000  0.000000e+000  9.999999e-001
    outer loop
      vertex  7.450000e+000 -2.500000e+000  2.000000e+000
      vertex  6.225000e+000 -1.654509e-015  2.000000e+000
      vertex  5.933571e+000 -7.035713e-001  2.000000e+000
    endloop
  endfacet
  facet normal  0.000000e+000  0.000000e+000  1.000000e+000
    outer loop
      vertex  7.450000e+000 -2.500000e+000  2.000000e+000
      vertex  5.933571e+000 -7.035713e-001  2.000000e+000
      vertex  5.230000e+000 -9.950000e-001  2.000000e+000
    endloop
  endfacet
  facet normal -9.238797e-001 -3.826832e-001  0.000000e+000
    outer loop
      vertex  4.235000e+000 -1.776357e-015  5.000000e+000
      vertex  4.235000e+000 -1.776357e-015  2.000000e+000
      vertex  4.526429e+000 -7.035713e-001  5.000000e+000
    endloop
  endfacet
  facet normal -9.238797e-001 -3.826832e-001  -0.000000e+000
    outer loop
      vertex  4.526429e+000 -7.035713e-001  5.000000e+000
      vertex  4.235000e+000 -1.776357e-015  2.000000e+000
      vertex  4.526429e+000 -7.035713e-001  2.000000e+000
    endloop
  endfacet
  facet normal -3.826834e-001 -9.238796e-001  0.000000e+000
    outer loop
      vertex  4.526429e+000 -7.035713e-001  5.000000e+000
      vertex  4.526429e+000 -7.035713e-001  2.000000e+000
      vertex  5.230000e+000 -9.950000e-001  5.000000e+000
    endloop
  endfacet
  facet normal -3.826834e-001 -9.238796e-001  -0.000000e+000
    outer loop
      vertex  5.230000e+000 -9.950000e-001  5.000000e+000
      vertex  4.526429e+000 -7.035713e-001  2.000000e+000
      vertex  5.230000e+000 -9.950000e-001  2.000000e+000
    endloop
  endfacet
  facet normal  3.826834e-001 -9.238796e-001  0.000000e+000
    outer loop
      vertex  5.230000e+000 -9.950000e-001  5.000000e+000
      vertex  5.230000e+000 -9.950000e-001  2.000000e+000
      vertex  5.933571e+000 -7.035713e-001  5.000000e+000
    endloop
  endfacet
  facet normal  3.826834e-001 -9.238796e-001  0.000000e+000
    outer loop
      vertex  5.933571e+000 -7.035713e-001  5.000000e+000
      vertex  5.230000e+000 -9.950000e-001  2.000000e+000
      vertex  5.933571e+000 -7.035713e-001  2.000000e+000
    endloop
  endfacet
  facet normal  9.238797e-001 -3.826832e-001  0.000000e+000
    outer loop
      vertex  5.933571e+000 -7.035713e-001  5.000000e+000
      vertex  5.933571e+000 -7.035713e-001  2.000000e+000
      vertex  6.225000e+000 -1.654509e-015  5.000000e+000
    endloop
  endfacet
  facet normal  9.238797e-001 -3.826832e-001  0.000000e+000
    outer loop
      vertex  6.225000e+000 -1.654509e-015  5.000000e+000
      vertex  5.933571e+000 -7.035713e-001  2.000000e+000
      vertex  6.225000e+000 -1.654509e-015  2.000000e+000
    endloop
  endfacet
  facet normal  9.238797e-001  3.826832e-001  -0.000000e+000
    outer loop
      vertex  6.225000e+000 -1.654509e-015  5.000000e+000
      vertex  6.225000e+000 -1.654509e-015  2.000000e+000
      vertex  5.933571e+000  7.035713e-001  5.000000e+000
    endloop
  endfacet
  facet normal  9.238797e-001  3.826832e-001  0.000000e+000
    outer loop
      vertex  5.933571e+000  7.035713e-001  5.000000e+000
      vertex  6.225000e+000 -1.654509e-015  2.000000e+000
      vertex  5.933571e+000  7.035713e-001  2.000000e+000
    endloop
  endfacet
  facet normal  3.826834e-001  9.238796e-001  -0.000000e+000
    outer loop
      vertex  5.933571e+000  7.035713e-001  5.000000e+000
      vertex  5.933571e+000  7.035713e-001  2.000000e+000
      vertex  5.230000e+000  9.950000e-001  5.000000e+000
    endloop
  endfacet
  facet normal  3.826834e-001  9.238796e-001  0.000000e+000
    outer loop
      vertex  5.230000e+000  9.950000e-001  5.000000e+000
      vertex  5.933571e+000  7.035713e-001  2.000000e+000
      vertex  5.230000e+000  9.950000e-001  2.000000e+000
    endloop
  endfacet
  facet normal -3.826834e-001  9.238796e-001  0.000000e+000
    outer loop
      vertex  5.230000e+000  9.950000e-001  5.000000e+000
      vertex  5.230000e+000  9.950000e-001  2.000000e+000
      vertex  4.526429e+000  7.035713e-001  5.000000e+000
    endloop
  endfacet
  facet normal -3.826834e-001  9.238796e-001  0.000000e+000
    outer loop
      vertex  4.526429e+000  7.035713e-001  5.000000e+000
      vertex  5.230000e+000  9.950000e-001  2.000000e+000
      vertex  4.526429e+000  7.035713e-001  2.000000e+000
    endloop
  endfacet
  facet normal -9.238797e-001  3.826832e-001  0.000000e+000
    outer loop
      vertex  4.526429e+000  7.035713e-001  5.000000e+000
      vertex  4.526429e+000  7.035713e-001  2.000000e+000
      vertex  4.235000e+000 -1.776357e-015  5.000000e+000
    endloop
  endfacet
  facet normal -9.238797e-001  3.826832e-001  0.000000e+000
    outer loop
      vertex  4.235000e+000 -1.776357e-015  5.000000e+000
      vertex  4.526429e+000  7.035713e-001  2.000000e+000
      vertex  4.235000e+000 -1.776357e-015  2.000000e+000
    endloop
  endfacet
  facet normal  0.000000e+000  0.000000e+000  1.000000e+000
    outer loop
      vertex  4.526429e+000  7.035713e-001  5.000000e+000
      vertex  5.933571e+000  7.035713e-001  5.000000e+000
      vertex  5.230000e+000  9.950000e-001  5.000000e+000
    endloop
  endfacet
  facet normal  -0.000000e+000  0.000000e+000  1.000000e+000
    outer loop
      vertex  5.933571e+000  7.035713e-001  5.000000e+000
      vertex  4.526429e+000  7.035713e-001  5.000000e+000
      vertex  6.225000e+000 -1.654509e-015  5.000000e+000
    endloop
  endfacet
  facet normal  0.000000e+000  0.000000e+000  1.000000e+000
    outer loop
      vertex  6.225000e+000 -1.654509e-015  5.000000e+000
      vertex  4.526429e+000  7.035713e-001  5.000000e+000
      vertex  4.235000e+000 -1.776357e-015  5.000000e+000
    endloop
  endfacet
  facet normal  -0.000000e+000  0.000000e+000  1.000000e+000
    outer loop
      vertex  6.225000e+000 -1.654509e-015  5.000000e+000
      vertex  4.235000e+000 -1.776357e-015  5.000000e+000
      vertex  5.933571e+000 -7.035713e-001  5.000000e+000
    endloop
  endfacet
  facet normal  0.000000e+000  0.000000e+000  1.000000e+000
    outer loop
      vertex  5.933571e+000 -7.035713e-001  5.000000e+000
      vertex  4.235000e+000 -1.776357e-015  5.000000e+000
      vertex  4.526429e+000 -7.035713e-001  5.000000e+000
    endloop
  endfacet
  facet normal  -0.000000e+000  0.000000e+000  1.000000e+000
    outer loop
      vertex  5.933571e+000 -7.035713e-001  5.000000e+000
      vertex  4.526429e+000 -7.035713e-001  5.000000e+000
      vertex  5.230000e+000 -9.950000e-001  5.000000e+000
    endloop
  endfacet
  facet normal  -0.000000e+000  0.000000e+000  1.000000e+000
    outer loop
      vertex -2.500000e+000  2.500000e+000  2.000000e+000
      vertex -7.450000e+000  2.500000e+000  2.000000e+000
      vertex -5.933571e+000  7.035713e-001  2.000000e+000
    endloop
  endfacet
  facet normal  0.000000e+000  0.000000e+000  1.000000e+000
    outer loop
      vertex -2.500000e+000  2.500000e+000  2.000000e+000
      vertex -5.933571e+000  7.035713e-001  2.000000e+000
      vertex -5.230000e+000  9.950000e-001  2.000000e+000
    endloop
  endfacet
  facet normal  -0.000000e+000  0.000000e+000  9.999999e-001
    outer loop
      vertex -2.500000e+000  2.500000e+000  2.000000e+000
      vertex -5.230000e+000  9.950000e-001  2.000000e+000
      vertex -4.526429e+000  7.035713e-001  2.000000e+000
    endloop
  endfacet
  facet normal  -0.000000e+000  0.000000e+000  1.000000e+000
    outer loop
      vertex -2.500000e+000  2.500000e+000  2.000000e+000
      vertex -4.526429e+000  7.035713e-001  2.000000e+000
      vertex -2.500000e+000 -2.500000e+000  2.000000e+000
    endloop
  endfacet
  facet normal  0.000000e+000  0.000000e+000  1.000000e+000
    outer loop
      vertex -7.450000e+000 -2.500000e+000  2.000000e+000
      vertex -2.500000e+000 -2.500000e+000  2.000000e+000
      vertex -5.230000e+000 -9.950000e-001  2.000000e+000
    endloop
  endfacet
  facet normal  0.000000e+000  0.000000e+000  1.000000e+000
    outer loop
      vertex -7.450000e+000 -2.500000e+000  2.000000e+000
      vertex -5.230000e+000 -9.950000e-001  2.000000e+000
      vertex -5.933571e+000 -7.035713e-001  2.000000e+000
    endloop
  endfacet
  facet normal  0.000000e+000  0.000000e+000  9.999999e-001
    outer loop
      vertex -7.450000e+000 -2.500000e+000  2.000000e+000
      vertex -5.933571e+000 -7.035713e-001  2.000000e+000
      vertex -6.225000e+000 -1.654509e-015  2.000000e+000
    endloop
  endfacet
  facet normal  0.000000e+000  -0.000000e+000  1.000000e+000
    outer loop
      vertex -7.450000e+000 -2.500000e+000  2.000000e+000
      vertex -6.225000e+000 -1.654509e-015  2.000000e+000
      vertex -5.933571e+000  7.035713e-001  2.000000e+000
    endloop
  endfacet
  facet normal  0.000000e+000  0.000000e+000  1.000000e+000
    outer loop
      vertex -7.450000e+000 -2.500000e+000  2.000000e+000
      vertex -5.933571e+000  7.035713e-001  2.000000e+000
      vertex -7.450000e+000  2.500000e+000  2.000000e+000
    endloop
  endfacet
  facet normal  0.000000e+000  0.000000e+000  9.999999e-001
    outer loop
      vertex -2.500000e+000 -2.500000e+000  2.000000e+000
      vertex -4.526429e+000  7.035713e-001  2.000000e+000
      vertex -4.235000e+000 -1.776357e-015  2.000000e+000
    endloop
  endfacet
  facet normal  0.000000e+000  0.000000e+000  1.000000e+000
    outer loop
      vertex -2.500000e+000 -2.500000e+000  2.000000e+000
      vertex -4.235000e+000 -1.776357e-015  2.000000e+000
      vertex -4.526429e+000 -7.035713e-001  2.000000e+000
    endloop
  endfacet
  facet normal  0.000000e+000  0.000000e+000  9.999999e-001
    outer loop
      vertex -2.500000e+000 -2.500000e+000  2.000000e+000
      vertex -4.526429e+000 -7.035713e-001  2.000000e+000
      vertex -5.230000e+000 -9.950000e-001  2.000000e+000
    endloop
  endfacet
  facet normal  9.238797e-001 -3.826832e-001  0.000000e+000
    outer loop
      vertex -4.235000e+000 -1.776357e-015  2.000000e+000
      vertex -4.235000e+000 -1.776357e-015  5.000000e+000
      vertex -4.526429e+000 -7.035713e-001  2.000000e+000
    endloop
  endfacet
  facet normal  9.238797e-001 -3.826832e-001  0.000000e+000
    outer loop
      vertex -4.526429e+000 -7.035713e-001  2.000000e+000
      vertex -4.235000e+000 -1.776357e-015  5.000000e+000
      vertex -4.526429e+000 -7.035713e-001  5.000000e+000
    endloop
  endfacet
  facet normal  3.826834e-001 -9.238796e-001  0.000000e+000
    outer loop
      vertex -4.526429e+000 -7.035713e-001  2.000000e+000
      vertex -4.526429e+000 -7.035713e-001  5.000000e+000
      vertex -5.230000e+000 -9.950000e-001  2.000000e+000
    endloop
  endfacet
  facet normal  3.826834e-001 -9.238796e-001  0.000000e+000
    outer loop
      vertex -5.230000e+000 -9.950000e-001  2.000000e+000
      vertex -4.526429e+000 -7.035713e-001  5.000000e+000
      vertex -5.230000e+000 -9.950000e-001  5.000000e+000
    endloop
  endfacet
  facet normal -3.826834e-001 -9.238796e-001  -0.000000e+000
    outer loop
      vertex -5.230000e+000 -9.950000e-001  2.000000e+000
      vertex -5.230000e+000 -9.950000e-001  5.000000e+000
      vertex -5.933571e+000 -7.035713e-001  2.000000e+000
    endloop
  endfacet
  facet normal -3.826834e-001 -9.238796e-001  0.000000e+000
    outer loop
      vertex -5.933571e+000 -7.035713e-001  2.000000e+000
      vertex -5.230000e+000 -9.950000e-001  5.000000e+000
      vertex -5.933571e+000 -7.035713e-001  5.000000e+000
    endloop
  endfacet
  facet normal -9.238797e-001 -3.826832e-001  -0.000000e+000
    outer loop
      vertex -5.933571e+000 -7.035713e-001  2.000000e+000
      vertex -5.933571e+000 -7.035713e-001  5.000000e+000
      vertex -6.225000e+000 -1.654509e-015  2.000000e+000
    endloop
  endfacet
  facet normal -9.238797e-001 -3.826832e-001  0.000000e+000
    outer loop
      vertex -6.225000e+000 -1.654509e-015  2.000000e+000
      vertex -5.933571e+000 -7.035713e-001  5.000000e+000
      vertex -6.225000e+000 -1.654509e-015  5.000000e+000
    endloop
  endfacet
  facet normal -9.238797e-001  3.826832e-001  0.000000e+000
    outer loop
      vertex -6.225000e+000 -1.654509e-015  2.000000e+000
      vertex -6.225000e+000 -1.654509e-015  5.000000e+000
      vertex -5.933571e+000  7.035713e-001  2.000000e+000
    endloop
  endfacet
  facet normal -9.238797e-001  3.826832e-001  0.000000e+000
    outer loop
      vertex -5.933571e+000  7.035713e-001  2.000000e+000
      vertex -6.225000e+000 -1.654509e-015  5.000000e+000
      vertex -5.933571e+000  7.035713e-001  5.000000e+000
    endloop
  endfacet
  facet normal -3.826834e-001  9.238796e-001  0.000000e+000
    outer loop
      vertex -5.933571e+000  7.035713e-001  2.000000e+000
      vertex -5.933571e+000  7.035713e-001  5.000000e+000
      vertex -5.230000e+000  9.950000e-001  2.000000e+000
    endloop
  endfacet
  facet normal -3.826834e-001  9.238796e-001  0.000000e+000
    outer loop
      vertex -5.230000e+000  9.950000e-001  2.000000e+000
      vertex -5.933571e+000  7.035713e-001  5.000000e+000
      vertex -5.230000e+000  9.950000e-001  5.000000e+000
    endloop
  endfacet
  facet normal  3.826834e-001  9.238796e-001  0.000000e+000
    outer loop
      vertex -5.230000e+000  9.950000e-001  2.000000e+000
      vertex -5.230000e+000  9.950000e-001  5.000000e+000
      vertex -4.526429e+000  7.035713e-001  2.000000e+000
    endloop
  endfacet
  facet normal  3.826834e-001  9.238796e-001  -0.000000e+000
    outer loop
      vertex -4.526429e+000  7.035713e-001  2.000000e+000
      vertex -5.230000e+000  9.950000e-001  5.000000e+000
      vertex -4.526429e+000  7.035713e-001  5.000000e+000
    endloop
  endfacet
  facet normal  9.238797e-001  3.826832e-001  0.000000e+000
    outer loop
      vertex -4.526429e+000  7.035713e-001  2.000000e+000
      vertex -4.526429e+000  7.035713e-001  5.000000e+000
      vertex -4.235000e+000 -1.776357e-015  2.000000e+000
    endloop
  endfacet
  facet normal  9.238797e-001  3.826832e-001  -0.000000e+000
    outer loop
      vertex -4.235000e+000 -1.776357e-015  2.000000e+000
      vertex -4.526429e+000  7.035713e-001  5.000000e+000
      vertex -4.235000e+000 -1.776357e-015  5.000000e+000
    endloop
  endfacet
  facet normal  0.000000e+000  0.000000e+000  1.000000e+000
    outer loop
      vertex -5.933571e+000  7.035713e-001  5.000000e+000
      vertex -4.526429e+000  7.035713e-001  5.000000e+000
      vertex -5.230000e+000  9.950000e-001  5.000000e+000
    endloop
  endfacet
  facet normal  -0.000000e+000  0.000000e+000  1.000000e+000
    outer loop
      vertex -4.526429e+000  7.035713e-001  5.000000e+000
      vertex -5.933571e+000  7.035713e-001  5.000000e+000
      vertex -4.235000e+000 -1.776357e-015  5.000000e+000
    endloop
  endfacet
  facet normal  0.000000e+000  0.000000e+000  1.000000e+000
    outer loop
      vertex -4.235000e+000 -1.776357e-015  5.000000e+000
      vertex -5.933571e+000  7.035713e-001  5.000000e+000
      vertex -6.225000e+000 -1.654509e-015  5.000000e+000
    endloop
  endfacet
  facet normal  0.000000e+000  0.000000e+000  1.000000e+000
    outer loop
      vertex -4.235000e+000 -1.776357e-015  5.000000e+000
      vertex -6.225000e+000 -1.654509e-015  5.000000e+000
      vertex -4.526429e+000 -7.035713e-001  5.000000e+000
    endloop
  endfacet
  facet normal  0.000000e+000  0.000000e+000  1.000000e+000
    outer loop
      vertex -4.526429e+000 -7.035713e-001  5.000000e+000
      vertex -6.225000e+000 -1.654509e-015  5.000000e+000
      vertex -5.933571e+000 -7.035713e-001  5.000000e+000
    endloop
  endfacet
  facet normal  -0.000000e+000  0.000000e+000  1.000000e+000
    outer loop
      vertex -4.526429e+000 -7.035713e-001  5.000000e+000
      vertex -5.933571e+000 -7.035713e-001  5.000000e+000
      vertex -5.230000e+000 -9.950000e-001  5.000000e+000
    endloop
  endfacet
  facet normal  0.000000e+000  9.999999e-001  0.000000e+000
    outer loop
      vertex  7.450000e+000  2.500000e+000  0.000000e+000
      vertex -7.450000e+000  2.500000e+000  0.000000e+000
      vertex -7.450000e+000  2.500000e+000  2.000000e+000
    endloop
  endfacet
  facet normal  -0.000000e+000  1.000000e+000  0.000000e+000
    outer loop
      vertex  7.450000e+000  2.500000e+000  0.000000e+000
      vertex -7.450000e+000  2.500000e+000  2.000000e+000
      vertex -2.500000e+000  2.500000e+000  2.000000e+000
    endloop
  endfacet
  facet normal  -0.000000e+000  1.000000e+000  0.000000e+000
    outer loop
      vertex  7.450000e+000  2.500000e+000  0.000000e+000
      vertex -2.500000e+000  2.500000e+000  2.000000e+000
      vertex  2.500000e+000  2.500000e+000  2.000000e+000
    endloop
  endfacet
  facet normal  -0.000000e+000  1.000000e+000  0.000000e+000
    outer loop
      vertex  7.450000e+000  2.500000e+000  0.000000e+000
      vertex  2.500000e+000  2.500000e+000  2.000000e+000
      vertex  7.450000e+000  2.500000e+000  2.000000e+000
    endloop
  endfacet
  facet normal  0.000000e+000  1.000000e+000  -0.000000e+000
    outer loop
      vertex  2.500000e+000  2.500000e+000  7.000000e+000
      vertex  2.500000e+000  2.500000e+000  2.000000e+000
      vertex -2.500000e+000  2.500000e+000  7.000000e+000
    endloop
  endfacet
  facet normal  0.000000e+000  1.000000e+000  0.000000e+000
    outer loop
      vertex -2.500000e+000  2.500000e+000  7.000000e+000
      vertex  2.500000e+000  2.500000e+000  2.000000e+000
      vertex -2.500000e+000  2.500000e+000  2.000000e+000
    endloop
  endfacet
  facet normal  0.000000e+000 -9.999999e-001  0.000000e+000
    outer loop
      vertex -7.450000e+000 -2.500000e+000  0.000000e+000
      vertex  7.450000e+000 -2.500000e+000  0.000000e+000
      vertex  7.450000e+000 -2.500000e+000  2.000000e+000
    endloop
  endfacet
  facet normal  -0.000000e+000 -1.000000e+000  0.000000e+000
    outer loop
      vertex -7.450000e+000 -2.500000e+000  0.000000e+000
      vertex  7.450000e+000 -2.500000e+000  2.000000e+000
      vertex  2.500000e+000 -2.500000e+000  2.000000e+000
    endloop
  endfacet
  facet normal  -0.000000e+000 -1.000000e+000  0.000000e+000
    outer loop
      vertex -7.450000e+000 -2.500000e+000  0.000000e+000
      vertex  2.500000e+000 -2.500000e+000  2.000000e+000
      vertex -2.500000e+000 -2.500000e+000  2.000000e+000
    endloop
  endfacet
  facet normal  -0.000000e+000 -1.000000e+000  0.000000e+000
    outer loop
      vertex -7.450000e+000 -2.500000e+000  0.000000e+000
      vertex -2.500000e+000 -2.500000e+000  2.000000e+000
      vertex -7.450000e+000 -2.500000e+000  2.000000e+000
    endloop
  endfacet
  facet normal  0.000000e+000 -1.000000e+000  0.000000e+000
    outer loop
      vertex -2.500000e+000 -2.500000e+000  7.000000e+000
      vertex -2.500000e+000 -2.500000e+000  2.000000e+000
      vertex  2.500000e+000 -2.500000e+000  7.000000e+000
    endloop
  endfacet
  facet normal  0.000000e+000 -1.000000e+000  -0.000000e+000
    outer loop
      vertex  2.500000e+000 -2.500000e+000  7.000000e+000
      vertex -2.500000e+000 -2.500000e+000  2.000000e+000
      vertex  2.500000e+000 -2.500000e+000  2.000000e+000
    endloop
  endfacet
  facet normal  1.000000e+000  0.000000e+000  0.000000e+000
    outer loop
      vertex  2.500000e+000 -2.500000e+000  2.000000e+000
      vertex  2.500000e+000  2.500000e+000  2.000000e+000
      vertex  2.500000e+000 -2.500000e+000  7.000000e+000
    endloop
  endfacet
  facet normal  1.000000e+000  -0.000000e+000  0.000000e+000
    outer loop
      vertex  2.500000e+000 -2.500000e+000  7.000000e+000
      vertex  2.500000e+000  2.500000e+000  2.000000e+000
      vertex  2.500000e+000  2.500000e+000  7.000000e+000
    endloop
  endfacet
  facet normal -1.000000e+000  0.000000e+000  0.000000e+000
    outer loop
      vertex -2.500000e+000  2.500000e+000  2.000000e+000
      vertex -2.500000e+000 -2.500000e+000  2.000000e+000
      vertex -2.500000e+000  2.500000e+000  7.000000e+000
    endloop
  endfacet
  facet normal -1.000000e+000  -0.000000e+000  0.000000e+000
    outer loop
      vertex -2.500000e+000  2.500000e+000  7.000000e+000
      vertex -2.500000e+000 -2.500000e+000  2.000000e+000
      vertex -2.500000e+000 -2.500000e+000  7.000000e+000
    endloop
  endfacet
  facet normal  0.000000e+000  0.000000e+000  1.000000e+000
    outer loop
      vertex -2.500000e+000 -2.500000e+000  7.000000e+000
      vertex  2.500000e+000 -2.500000e+000  7.000000e+000
      vertex -2.500000e+000  2.500000e+000  7.000000e+000
    endloop
  endfacet
  facet normal  -0.000000e+000  0.000000e+000  1.000000e+000
    outer loop
      vertex -2.500000e+000  2.500000e+000  7.000000e+000
      vertex  2.500000e+000 -2.500000e+000  7.000000e+000
      vertex  2.500000e+000  2.500000e+000  7.000000e+000
    endloop
  endfacet
  facet normal  0.000000e+000  0.000000e+000 -1.000000e+000
    outer loop
      vertex -7.450000e+000 -2.500000e+000  0.000000e+000
      vertex -7.450000e+000  2.500000e+000  0.000000e+000
      vertex  7.450000e+000 -2.500000e+000  0.000000e+000
    endloop
  endfacet
  facet normal  0.000000e+000  0.000000e+000 -1.000000e+000
    outer loop
      vertex  7.450000e+000 -2.500000e+000  0.000000e+000
      vertex -7.450000e+000  2.500000e+000  0.000000e+000
      vertex  7.450000e+000  2.500000e+000  0.000000e+000
    endloop
  endfacet
  facet normal  1.000000e+000  0.000000e+000  0.000000e+000
    outer loop
      vertex  7.450000e+000 -2.500000e+000  2.000000e+000
      vertex  7.450000e+000 -2.500000e+000  0.000000e+000
      vertex  7.450000e+000  2.500000e+000  2.000000e+000
    endloop
  endfacet
  facet normal  1.000000e+000  0.000000e+000  0.000000e+000
    outer loop
      vertex  7.450000e+000  2.500000e+000  2.000000e+000
      vertex  7.450000e+000 -2.500000e+000  0.000000e+000
      vertex  7.450000e+000  2.500000e+000  0.000000e+000
    endloop
  endfacet
  facet normal -1.000000e+000  0.000000e+000  0.000000e+000
    outer loop
      vertex -7.450000e+000  2.500000e+000  2.000000e+000
      vertex -7.450000e+000  2.500000e+000  0.000000e+000
      vertex -7.450000e+000 -2.500000e+000  2.000000e+000
    endloop
  endfacet
  facet normal -1.000000e+000  0.000000e+000  0.000000e+000
    outer loop
      vertex -7.450000e+000 -2.500000e+000  2.000000e+000
      vertex -7.450000e+000  2.500000e+000  0.000000e+000
      vertex -7.450000e+000 -2.500000e+000  0.000000e+000
    endloop
  endfacet
endsolid CATIA STL
