solid CATIA STL
  facet normal  0.000000e+000  1.000000e+000  0.000000e+000
    outer loop
      vertex  9.500000e+000  7.750000e+000  0.000000e+000
      vertex -9.500000e+000  7.750000e+000  0.000000e+000
      vertex -9.500000e+000  7.750000e+000  1.000000e+000
    endloop
  endfacet
  facet normal  -0.000000e+000  1.000000e+000  0.000000e+000
    outer loop
      vertex  9.500000e+000  7.750000e+000  0.000000e+000
      vertex -9.500000e+000  7.750000e+000  1.000000e+000
      vertex -8.750000e+000  7.750000e+000  1.000000e+000
    endloop
  endfacet
  facet normal  -0.000000e+000  1.000000e+000  0.000000e+000
    outer loop
      vertex  9.500000e+000  7.750000e+000  0.000000e+000
      vertex -8.750000e+000  7.750000e+000  1.000000e+000
      vertex -8.260000e+000  7.750000e+000  1.000000e+000
    endloop
  endfacet
  facet normal  -0.000000e+000  1.000000e+000  0.000000e+000
    outer loop
      vertex  9.500000e+000  7.750000e+000  0.000000e+000
      vertex -8.260000e+000  7.750000e+000  1.000000e+000
      vertex  8.260000e+000  7.750000e+000  1.000000e+000
    endloop
  endfacet
  facet normal  -0.000000e+000  1.000000e+000  0.000000e+000
    outer loop
      vertex  9.500000e+000  7.750000e+000  0.000000e+000
      vertex  8.260000e+000  7.750000e+000  1.000000e+000
      vertex  8.750000e+000  7.750000e+000  1.000000e+000
    endloop
  endfacet
  facet normal  -0.000000e+000  1.000000e+000  0.000000e+000
    outer loop
      vertex  9.500000e+000  7.750000e+000  0.000000e+000
      vertex  8.750000e+000  7.750000e+000  1.000000e+000
      vertex  9.500000e+000  7.750000e+000  1.000000e+000
    endloop
  endfacet
  facet normal  0.000000e+000  1.000000e+000  -0.000000e+000
    outer loop
      vertex -8.260000e+000  7.750000e+000  3.900000e+000
      vertex -8.260000e+000  7.750000e+000  1.000000e+000
      vertex -8.750000e+000  7.750000e+000  3.900000e+000
    endloop
  endfacet
  facet normal  0.000000e+000  1.000000e+000  0.000000e+000
    outer loop
      vertex -8.750000e+000  7.750000e+000  3.900000e+000
      vertex -8.260000e+000  7.750000e+000  1.000000e+000
      vertex -8.750000e+000  7.750000e+000  1.000000e+000
    endloop
  endfacet
  facet normal  0.000000e+000  1.000000e+000  -0.000000e+000
    outer loop
      vertex  8.750000e+000  7.750000e+000  3.900000e+000
      vertex  8.750000e+000  7.750000e+000  1.000000e+000
      vertex  8.260000e+000  7.750000e+000  3.900000e+000
    endloop
  endfacet
  facet normal  0.000000e+000  1.000000e+000  0.000000e+000
    outer loop
      vertex  8.260000e+000  7.750000e+000  3.900000e+000
      vertex  8.750000e+000  7.750000e+000  1.000000e+000
      vertex  8.260000e+000  7.750000e+000  1.000000e+000
    endloop
  endfacet
  facet normal  0.000000e+000 -1.000000e+000  0.000000e+000
    outer loop
      vertex -9.500000e+000 -7.750000e+000  0.000000e+000
      vertex  9.500000e+000 -7.750000e+000  0.000000e+000
      vertex  9.500000e+000 -7.750000e+000  1.000000e+000
    endloop
  endfacet
  facet normal  -0.000000e+000 -1.000000e+000  0.000000e+000
    outer loop
      vertex -9.500000e+000 -7.750000e+000  0.000000e+000
      vertex  9.500000e+000 -7.750000e+000  1.000000e+000
      vertex  8.750000e+000 -7.750000e+000  1.000000e+000
    endloop
  endfacet
  facet normal  -0.000000e+000 -1.000000e+000  0.000000e+000
    outer loop
      vertex -9.500000e+000 -7.750000e+000  0.000000e+000
      vertex  8.750000e+000 -7.750000e+000  1.000000e+000
      vertex  8.260000e+000 -7.750000e+000  1.000000e+000
    endloop
  endfacet
  facet normal  -0.000000e+000 -1.000000e+000  0.000000e+000
    outer loop
      vertex -9.500000e+000 -7.750000e+000  0.000000e+000
      vertex  8.260000e+000 -7.750000e+000  1.000000e+000
      vertex -8.260000e+000 -7.750000e+000  1.000000e+000
    endloop
  endfacet
  facet normal  -0.000000e+000 -1.000000e+000  0.000000e+000
    outer loop
      vertex -9.500000e+000 -7.750000e+000  0.000000e+000
      vertex -8.260000e+000 -7.750000e+000  1.000000e+000
      vertex -8.750000e+000 -7.750000e+000  1.000000e+000
    endloop
  endfacet
  facet normal  -0.000000e+000 -1.000000e+000  0.000000e+000
    outer loop
      vertex -9.500000e+000 -7.750000e+000  0.000000e+000
      vertex -8.750000e+000 -7.750000e+000  1.000000e+000
      vertex -9.500000e+000 -7.750000e+000  1.000000e+000
    endloop
  endfacet
  facet normal  0.000000e+000 -1.000000e+000  0.000000e+000
    outer loop
      vertex  8.260000e+000 -7.750000e+000  3.900000e+000
      vertex  8.260000e+000 -7.750000e+000  1.000000e+000
      vertex  8.750000e+000 -7.750000e+000  3.900000e+000
    endloop
  endfacet
  facet normal  0.000000e+000 -1.000000e+000  -0.000000e+000
    outer loop
      vertex  8.750000e+000 -7.750000e+000  3.900000e+000
      vertex  8.260000e+000 -7.750000e+000  1.000000e+000
      vertex  8.750000e+000 -7.750000e+000  1.000000e+000
    endloop
  endfacet
  facet normal  0.000000e+000 -1.000000e+000  0.000000e+000
    outer loop
      vertex -8.750000e+000 -7.750000e+000  3.900000e+000
      vertex -8.750000e+000 -7.750000e+000  1.000000e+000
      vertex -8.260000e+000 -7.750000e+000  3.900000e+000
    endloop
  endfacet
  facet normal  0.000000e+000 -1.000000e+000  -0.000000e+000
    outer loop
      vertex -8.260000e+000 -7.750000e+000  3.900000e+000
      vertex -8.750000e+000 -7.750000e+000  1.000000e+000
      vertex -8.260000e+000 -7.750000e+000  1.000000e+000
    endloop
  endfacet
  facet normal  1.000000e+000  0.000000e+000  0.000000e+000
    outer loop
      vertex -8.260000e+000  7.750000e+000  1.000000e+000
      vertex -8.260000e+000  7.750000e+000  3.900000e+000
      vertex -8.260000e+000 -7.750000e+000  1.000000e+000
    endloop
  endfacet
  facet normal  1.000000e+000  0.000000e+000  0.000000e+000
    outer loop
      vertex -8.260000e+000 -7.750000e+000  1.000000e+000
      vertex -8.260000e+000  7.750000e+000  3.900000e+000
      vertex -8.260000e+000 -7.750000e+000  3.900000e+000
    endloop
  endfacet
  facet normal -1.000000e+000  0.000000e+000  0.000000e+000
    outer loop
      vertex -8.750000e+000  7.750000e+000  3.900000e+000
      vertex -8.750000e+000  7.750000e+000  1.000000e+000
      vertex -8.750000e+000 -7.750000e+000  3.900000e+000
    endloop
  endfacet
  facet normal -1.000000e+000  0.000000e+000  0.000000e+000
    outer loop
      vertex -8.750000e+000 -7.750000e+000  3.900000e+000
      vertex -8.750000e+000  7.750000e+000  1.000000e+000
      vertex -8.750000e+000 -7.750000e+000  1.000000e+000
    endloop
  endfacet
  facet normal  0.000000e+000  0.000000e+000  1.000000e+000
    outer loop
      vertex -8.260000e+000 -7.750000e+000  1.000000e+000
      vertex  8.260000e+000 -7.750000e+000  1.000000e+000
      vertex -8.260000e+000  7.750000e+000  1.000000e+000
    endloop
  endfacet
  facet normal  -0.000000e+000  0.000000e+000  1.000000e+000
    outer loop
      vertex -8.260000e+000  7.750000e+000  1.000000e+000
      vertex  8.260000e+000 -7.750000e+000  1.000000e+000
      vertex  8.260000e+000  7.750000e+000  1.000000e+000
    endloop
  endfacet
  facet normal  0.000000e+000  0.000000e+000  1.000000e+000
    outer loop
      vertex -9.500000e+000 -7.750000e+000  1.000000e+000
      vertex -8.750000e+000 -7.750000e+000  1.000000e+000
      vertex -9.500000e+000  7.750000e+000  1.000000e+000
    endloop
  endfacet
  facet normal  -0.000000e+000  0.000000e+000  1.000000e+000
    outer loop
      vertex -9.500000e+000  7.750000e+000  1.000000e+000
      vertex -8.750000e+000 -7.750000e+000  1.000000e+000
      vertex -8.750000e+000  7.750000e+000  1.000000e+000
    endloop
  endfacet
  facet normal  0.000000e+000  0.000000e+000  1.000000e+000
    outer loop
      vertex -8.260000e+000 -7.750000e+000  3.900000e+000
      vertex -8.260000e+000  7.750000e+000  3.900000e+000
      vertex -8.750000e+000 -7.750000e+000  3.900000e+000
    endloop
  endfacet
  facet normal  0.000000e+000  0.000000e+000  1.000000e+000
    outer loop
      vertex -8.750000e+000 -7.750000e+000  3.900000e+000
      vertex -8.260000e+000  7.750000e+000  3.900000e+000
      vertex -8.750000e+000  7.750000e+000  3.900000e+000
    endloop
  endfacet
  facet normal -1.000000e+000  0.000000e+000  0.000000e+000
    outer loop
      vertex  8.260000e+000  7.750000e+000  1.000000e+000
      vertex  8.260000e+000 -7.750000e+000  1.000000e+000
      vertex  8.260000e+000  7.750000e+000  3.900000e+000
    endloop
  endfacet
  facet normal -1.000000e+000  -0.000000e+000  0.000000e+000
    outer loop
      vertex  8.260000e+000  7.750000e+000  3.900000e+000
      vertex  8.260000e+000 -7.750000e+000  1.000000e+000
      vertex  8.260000e+000 -7.750000e+000  3.900000e+000
    endloop
  endfacet
  facet normal  1.000000e+000  -0.000000e+000  0.000000e+000
    outer loop
      vertex  8.750000e+000  7.750000e+000  3.900000e+000
      vertex  8.750000e+000 -7.750000e+000  3.900000e+000
      vertex  8.750000e+000  7.750000e+000  1.000000e+000
    endloop
  endfacet
  facet normal  1.000000e+000  0.000000e+000  0.000000e+000
    outer loop
      vertex  8.750000e+000  7.750000e+000  1.000000e+000
      vertex  8.750000e+000 -7.750000e+000  3.900000e+000
      vertex  8.750000e+000 -7.750000e+000  1.000000e+000
    endloop
  endfacet
  facet normal  0.000000e+000  0.000000e+000  1.000000e+000
    outer loop
      vertex  8.750000e+000 -7.750000e+000  1.000000e+000
      vertex  9.500000e+000 -7.750000e+000  1.000000e+000
      vertex  8.750000e+000  7.750000e+000  1.000000e+000
    endloop
  endfacet
  facet normal  -0.000000e+000  0.000000e+000  1.000000e+000
    outer loop
      vertex  8.750000e+000  7.750000e+000  1.000000e+000
      vertex  9.500000e+000 -7.750000e+000  1.000000e+000
      vertex  9.500000e+000  7.750000e+000  1.000000e+000
    endloop
  endfacet
  facet normal  -0.000000e+000  0.000000e+000  1.000000e+000
    outer loop
      vertex  8.750000e+000  7.750000e+000  3.900000e+000
      vertex  8.260000e+000  7.750000e+000  3.900000e+000
      vertex  8.750000e+000 -7.750000e+000  3.900000e+000
    endloop
  endfacet
  facet normal  0.000000e+000  0.000000e+000  1.000000e+000
    outer loop
      vertex  8.750000e+000 -7.750000e+000  3.900000e+000
      vertex  8.260000e+000  7.750000e+000  3.900000e+000
      vertex  8.260000e+000 -7.750000e+000  3.900000e+000
    endloop
  endfacet
  facet normal  0.000000e+000  0.000000e+000 -1.000000e+000
    outer loop
      vertex -9.500000e+000 -7.750000e+000  0.000000e+000
      vertex -9.500000e+000  7.750000e+000  0.000000e+000
      vertex  9.500000e+000 -7.750000e+000  0.000000e+000
    endloop
  endfacet
  facet normal  0.000000e+000  0.000000e+000 -1.000000e+000
    outer loop
      vertex  9.500000e+000 -7.750000e+000  0.000000e+000
      vertex -9.500000e+000  7.750000e+000  0.000000e+000
      vertex  9.500000e+000  7.750000e+000  0.000000e+000
    endloop
  endfacet
  facet normal  1.000000e+000  -0.000000e+000  0.000000e+000
    outer loop
      vertex  9.500000e+000  7.750000e+000  1.000000e+000
      vertex  9.500000e+000 -7.750000e+000  1.000000e+000
      vertex  9.500000e+000  7.750000e+000  0.000000e+000
    endloop
  endfacet
  facet normal  1.000000e+000  0.000000e+000  0.000000e+000
    outer loop
      vertex  9.500000e+000  7.750000e+000  0.000000e+000
      vertex  9.500000e+000 -7.750000e+000  1.000000e+000
      vertex  9.500000e+000 -7.750000e+000  0.000000e+000
    endloop
  endfacet
  facet normal -1.000000e+000  -0.000000e+000  0.000000e+000
    outer loop
      vertex -9.500000e+000 -7.750000e+000  1.000000e+000
      vertex -9.500000e+000  7.750000e+000  1.000000e+000
      vertex -9.500000e+000 -7.750000e+000  0.000000e+000
    endloop
  endfacet
  facet normal -1.000000e+000  0.000000e+000  0.000000e+000
    outer loop
      vertex -9.500000e+000 -7.750000e+000  0.000000e+000
      vertex -9.500000e+000  7.750000e+000  1.000000e+000
      vertex -9.500000e+000  7.750000e+000  0.000000e+000
    endloop
  endfacet
endsolid CATIA STL
