solid CATIA STL
  facet normal  0.000000e+000  0.000000e+000 -1.000000e+000
    outer loop
      vertex  2.475000e+000 -4.286826e+000  1.500000e+001
      vertex  4.676174e+000 -5.863736e+000  1.500000e+001
      vertex -9.092702e-016 -4.950000e+000  1.500000e+001
    endloop
  endfacet
  facet normal  0.000000e+000  0.000000e+000 -1.000000e+000
    outer loop
      vertex -9.092702e-016 -4.950000e+000  1.500000e+001
      vertex  4.676174e+000 -5.863736e+000  1.500000e+001
      vertex  1.668907e+000 -7.311959e+000  1.500000e+001
    endloop
  endfacet
  facet normal  0.000000e+000  0.000000e+000 -9.999999e-001
    outer loop
      vertex -9.092702e-016 -4.950000e+000  1.500000e+001
      vertex  1.668907e+000 -7.311959e+000  1.500000e+001
      vertex -1.668907e+000 -7.311959e+000  1.500000e+001
    endloop
  endfacet
  facet normal  0.000000e+000  0.000000e+000 -1.000000e+000
    outer loop
      vertex -4.286826e+000  2.475000e+000  1.500000e+001
      vertex -6.757267e+000  3.254128e+000  1.500000e+001
      vertex -2.475000e+000  4.286826e+000  1.500000e+001
    endloop
  endfacet
  facet normal  -0.000000e+000  0.000000e+000 -1.000000e+000
    outer loop
      vertex -2.475000e+000  4.286826e+000  1.500000e+001
      vertex -6.757267e+000  3.254128e+000  1.500000e+001
      vertex -4.676174e+000  5.863736e+000  1.500000e+001
    endloop
  endfacet
  facet normal  0.000000e+000  0.000000e+000 -1.000000e+000
    outer loop
      vertex -2.475000e+000  4.286826e+000  1.500000e+001
      vertex -4.676174e+000  5.863736e+000  1.500000e+001
      vertex  3.030901e-016  4.950000e+000  1.500000e+001
    endloop
  endfacet
  facet normal  0.000000e+000  0.000000e+000 -1.000000e+000
    outer loop
      vertex  3.030901e-016  4.950000e+000  1.500000e+001
      vertex -4.676174e+000  5.863736e+000  1.500000e+001
      vertex -1.668907e+000  7.311959e+000  1.500000e+001
    endloop
  endfacet
  facet normal  0.000000e+000  0.000000e+000 -9.999999e-001
    outer loop
      vertex  3.030901e-016  4.950000e+000  1.500000e+001
      vertex -1.668907e+000  7.311959e+000  1.500000e+001
      vertex  1.668907e+000  7.311959e+000  1.500000e+001
    endloop
  endfacet
  facet normal  0.000000e+000  0.000000e+000 -9.999999e-001
    outer loop
      vertex -4.286826e+000 -2.475000e+000  1.500000e+001
      vertex -7.500000e+000  4.249124e-015  1.500000e+001
      vertex -4.950000e+000  6.061801e-016  1.500000e+001
    endloop
  endfacet
  facet normal  0.000000e+000  0.000000e+000 -1.000000e+000
    outer loop
      vertex -4.950000e+000  6.061801e-016  1.500000e+001
      vertex -7.500000e+000  4.249124e-015  1.500000e+001
      vertex -6.757267e+000  3.254128e+000  1.500000e+001
    endloop
  endfacet
  facet normal  0.000000e+000  0.000000e+000 -1.000000e+000
    outer loop
      vertex -4.950000e+000  6.061801e-016  1.500000e+001
      vertex -6.757267e+000  3.254128e+000  1.500000e+001
      vertex -4.286826e+000  2.475000e+000  1.500000e+001
    endloop
  endfacet
  facet normal  -0.000000e+000  0.000000e+000 -1.000000e+000
    outer loop
      vertex -7.500000e+000  4.249124e-015  1.500000e+001
      vertex -4.286826e+000 -2.475000e+000  1.500000e+001
      vertex -6.757267e+000 -3.254128e+000  1.500000e+001
    endloop
  endfacet
  facet normal  0.000000e+000  0.000000e+000 -1.000000e+000
    outer loop
      vertex -6.757267e+000 -3.254128e+000  1.500000e+001
      vertex -4.286826e+000 -2.475000e+000  1.500000e+001
      vertex -2.475000e+000 -4.286826e+000  1.500000e+001
    endloop
  endfacet
  facet normal  -0.000000e+000  0.000000e+000 -1.000000e+000
    outer loop
      vertex -6.757267e+000 -3.254128e+000  1.500000e+001
      vertex -2.475000e+000 -4.286826e+000  1.500000e+001
      vertex -4.676174e+000 -5.863736e+000  1.500000e+001
    endloop
  endfacet
  facet normal  0.000000e+000  0.000000e+000 -1.000000e+000
    outer loop
      vertex -4.676174e+000 -5.863736e+000  1.500000e+001
      vertex -2.475000e+000 -4.286826e+000  1.500000e+001
      vertex -9.092702e-016 -4.950000e+000  1.500000e+001
    endloop
  endfacet
  facet normal  0.000000e+000  0.000000e+000 -1.000000e+000
    outer loop
      vertex -4.676174e+000 -5.863736e+000  1.500000e+001
      vertex -9.092702e-016 -4.950000e+000  1.500000e+001
      vertex -1.668907e+000 -7.311959e+000  1.500000e+001
    endloop
  endfacet
  facet normal  -0.000000e+000  0.000000e+000 -1.000000e+000
    outer loop
      vertex  1.668907e+000  7.311959e+000  1.500000e+001
      vertex  4.676174e+000  5.863736e+000  1.500000e+001
      vertex  3.030901e-016  4.950000e+000  1.500000e+001
    endloop
  endfacet
  facet normal  0.000000e+000  0.000000e+000 -1.000000e+000
    outer loop
      vertex  3.030901e-016  4.950000e+000  1.500000e+001
      vertex  4.676174e+000  5.863736e+000  1.500000e+001
      vertex  6.757267e+000  3.254128e+000  1.500000e+001
    endloop
  endfacet
  facet normal  0.000000e+000  0.000000e+000 -1.000000e+000
    outer loop
      vertex  3.030901e-016  4.950000e+000  1.500000e+001
      vertex  6.757267e+000  3.254128e+000  1.500000e+001
      vertex  2.475000e+000  4.286826e+000  1.500000e+001
    endloop
  endfacet
  facet normal  -0.000000e+000  0.000000e+000 -1.000000e+000
    outer loop
      vertex  2.475000e+000  4.286826e+000  1.500000e+001
      vertex  6.757267e+000  3.254128e+000  1.500000e+001
      vertex  4.286826e+000  2.475000e+000  1.500000e+001
    endloop
  endfacet
  facet normal  0.000000e+000  0.000000e+000 -1.000000e+000
    outer loop
      vertex  4.286826e+000  2.475000e+000  1.500000e+001
      vertex  6.757267e+000  3.254128e+000  1.500000e+001
      vertex  7.500000e+000  0.000000e+000  1.500000e+001
    endloop
  endfacet
  facet normal  0.000000e+000  0.000000e+000 -9.999999e-001
    outer loop
      vertex  4.286826e+000  2.475000e+000  1.500000e+001
      vertex  7.500000e+000  0.000000e+000  1.500000e+001
      vertex  4.950000e+000  0.000000e+000  1.500000e+001
    endloop
  endfacet
  facet normal  0.000000e+000  0.000000e+000 -1.000000e+000
    outer loop
      vertex  4.950000e+000  0.000000e+000  1.500000e+001
      vertex  7.500000e+000  0.000000e+000  1.500000e+001
      vertex  6.757267e+000 -3.254128e+000  1.500000e+001
    endloop
  endfacet
  facet normal  0.000000e+000  0.000000e+000 -1.000000e+000
    outer loop
      vertex  4.950000e+000  0.000000e+000  1.500000e+001
      vertex  6.757267e+000 -3.254128e+000  1.500000e+001
      vertex  4.286826e+000 -2.475000e+000  1.500000e+001
    endloop
  endfacet
  facet normal  0.000000e+000  0.000000e+000 -1.000000e+000
    outer loop
      vertex  4.286826e+000 -2.475000e+000  1.500000e+001
      vertex  6.757267e+000 -3.254128e+000  1.500000e+001
      vertex  4.676174e+000 -5.863736e+000  1.500000e+001
    endloop
  endfacet
  facet normal  0.000000e+000  0.000000e+000 -9.999999e-001
    outer loop
      vertex  4.286826e+000 -2.475000e+000  1.500000e+001
      vertex  4.676174e+000 -5.863736e+000  1.500000e+001
      vertex  2.475000e+000 -4.286826e+000  1.500000e+001
    endloop
  endfacet
  facet normal  9.659258e-001 -2.588190e-001  0.000000e+000
    outer loop
      vertex  4.950000e+000  0.000000e+000  0.000000e+000
      vertex  4.950000e+000  0.000000e+000  1.500000e+001
      vertex  4.286826e+000 -2.475000e+000  0.000000e+000
    endloop
  endfacet
  facet normal  9.659258e-001 -2.588190e-001  0.000000e+000
    outer loop
      vertex  4.286826e+000 -2.475000e+000  0.000000e+000
      vertex  4.950000e+000  0.000000e+000  1.500000e+001
      vertex  4.286826e+000 -2.475000e+000  1.500000e+001
    endloop
  endfacet
  facet normal  7.071068e-001 -7.071068e-001  0.000000e+000
    outer loop
      vertex  4.286826e+000 -2.475000e+000  0.000000e+000
      vertex  4.286826e+000 -2.475000e+000  1.500000e+001
      vertex  2.475000e+000 -4.286826e+000  0.000000e+000
    endloop
  endfacet
  facet normal  7.071068e-001 -7.071068e-001  0.000000e+000
    outer loop
      vertex  2.475000e+000 -4.286826e+000  0.000000e+000
      vertex  4.286826e+000 -2.475000e+000  1.500000e+001
      vertex  2.475000e+000 -4.286826e+000  1.500000e+001
    endloop
  endfacet
  facet normal  2.588190e-001 -9.659258e-001  0.000000e+000
    outer loop
      vertex  2.475000e+000 -4.286826e+000  0.000000e+000
      vertex  2.475000e+000 -4.286826e+000  1.500000e+001
      vertex -9.092702e-016 -4.950000e+000  0.000000e+000
    endloop
  endfacet
  facet normal  2.588190e-001 -9.659258e-001  0.000000e+000
    outer loop
      vertex -9.092702e-016 -4.950000e+000  0.000000e+000
      vertex  2.475000e+000 -4.286826e+000  1.500000e+001
      vertex -9.092702e-016 -4.950000e+000  1.500000e+001
    endloop
  endfacet
  facet normal -2.588190e-001 -9.659258e-001  -0.000000e+000
    outer loop
      vertex -9.092702e-016 -4.950000e+000  0.000000e+000
      vertex -9.092702e-016 -4.950000e+000  1.500000e+001
      vertex -2.475000e+000 -4.286826e+000  0.000000e+000
    endloop
  endfacet
  facet normal -2.588190e-001 -9.659258e-001  0.000000e+000
    outer loop
      vertex -2.475000e+000 -4.286826e+000  0.000000e+000
      vertex -9.092702e-016 -4.950000e+000  1.500000e+001
      vertex -2.475000e+000 -4.286826e+000  1.500000e+001
    endloop
  endfacet
  facet normal -7.071068e-001 -7.071068e-001  -0.000000e+000
    outer loop
      vertex -2.475000e+000 -4.286826e+000  0.000000e+000
      vertex -2.475000e+000 -4.286826e+000  1.500000e+001
      vertex -4.286826e+000 -2.475000e+000  0.000000e+000
    endloop
  endfacet
  facet normal -7.071068e-001 -7.071068e-001  0.000000e+000
    outer loop
      vertex -4.286826e+000 -2.475000e+000  0.000000e+000
      vertex -2.475000e+000 -4.286826e+000  1.500000e+001
      vertex -4.286826e+000 -2.475000e+000  1.500000e+001
    endloop
  endfacet
  facet normal -9.659258e-001 -2.588190e-001  -0.000000e+000
    outer loop
      vertex -4.286826e+000 -2.475000e+000  0.000000e+000
      vertex -4.286826e+000 -2.475000e+000  1.500000e+001
      vertex -4.950000e+000  6.061801e-016  0.000000e+000
    endloop
  endfacet
  facet normal -9.659258e-001 -2.588190e-001  0.000000e+000
    outer loop
      vertex -4.950000e+000  6.061801e-016  0.000000e+000
      vertex -4.286826e+000 -2.475000e+000  1.500000e+001
      vertex -4.950000e+000  6.061801e-016  1.500000e+001
    endloop
  endfacet
  facet normal -9.659258e-001  2.588190e-001  0.000000e+000
    outer loop
      vertex -4.950000e+000  6.061801e-016  0.000000e+000
      vertex -4.950000e+000  6.061801e-016  1.500000e+001
      vertex -4.286826e+000  2.475000e+000  0.000000e+000
    endloop
  endfacet
  facet normal -9.659258e-001  2.588190e-001  0.000000e+000
    outer loop
      vertex -4.286826e+000  2.475000e+000  0.000000e+000
      vertex -4.950000e+000  6.061801e-016  1.500000e+001
      vertex -4.286826e+000  2.475000e+000  1.500000e+001
    endloop
  endfacet
  facet normal -7.071068e-001  7.071068e-001  0.000000e+000
    outer loop
      vertex -4.286826e+000  2.475000e+000  0.000000e+000
      vertex -4.286826e+000  2.475000e+000  1.500000e+001
      vertex -2.475000e+000  4.286826e+000  0.000000e+000
    endloop
  endfacet
  facet normal -7.071068e-001  7.071068e-001  0.000000e+000
    outer loop
      vertex -2.475000e+000  4.286826e+000  0.000000e+000
      vertex -4.286826e+000  2.475000e+000  1.500000e+001
      vertex -2.475000e+000  4.286826e+000  1.500000e+001
    endloop
  endfacet
  facet normal -2.588190e-001  9.659258e-001  0.000000e+000
    outer loop
      vertex -2.475000e+000  4.286826e+000  0.000000e+000
      vertex -2.475000e+000  4.286826e+000  1.500000e+001
      vertex  3.030901e-016  4.950000e+000  0.000000e+000
    endloop
  endfacet
  facet normal -2.588190e-001  9.659258e-001  0.000000e+000
    outer loop
      vertex  3.030901e-016  4.950000e+000  0.000000e+000
      vertex -2.475000e+000  4.286826e+000  1.500000e+001
      vertex  3.030901e-016  4.950000e+000  1.500000e+001
    endloop
  endfacet
  facet normal  2.588190e-001  9.659258e-001  0.000000e+000
    outer loop
      vertex  3.030901e-016  4.950000e+000  0.000000e+000
      vertex  3.030901e-016  4.950000e+000  1.500000e+001
      vertex  2.475000e+000  4.286826e+000  0.000000e+000
    endloop
  endfacet
  facet normal  2.588190e-001  9.659258e-001  -0.000000e+000
    outer loop
      vertex  2.475000e+000  4.286826e+000  0.000000e+000
      vertex  3.030901e-016  4.950000e+000  1.500000e+001
      vertex  2.475000e+000  4.286826e+000  1.500000e+001
    endloop
  endfacet
  facet normal  7.071068e-001  7.071068e-001  0.000000e+000
    outer loop
      vertex  2.475000e+000  4.286826e+000  0.000000e+000
      vertex  2.475000e+000  4.286826e+000  1.500000e+001
      vertex  4.286826e+000  2.475000e+000  0.000000e+000
    endloop
  endfacet
  facet normal  7.071068e-001  7.071068e-001  -0.000000e+000
    outer loop
      vertex  4.286826e+000  2.475000e+000  0.000000e+000
      vertex  2.475000e+000  4.286826e+000  1.500000e+001
      vertex  4.286826e+000  2.475000e+000  1.500000e+001
    endloop
  endfacet
  facet normal  9.659258e-001  2.588190e-001  0.000000e+000
    outer loop
      vertex  4.286826e+000  2.475000e+000  0.000000e+000
      vertex  4.286826e+000  2.475000e+000  1.500000e+001
      vertex  4.950000e+000  0.000000e+000  0.000000e+000
    endloop
  endfacet
  facet normal  9.659258e-001  2.588190e-001  -0.000000e+000
    outer loop
      vertex  4.950000e+000  0.000000e+000  0.000000e+000
      vertex  4.286826e+000  2.475000e+000  1.500000e+001
      vertex  4.950000e+000  0.000000e+000  1.500000e+001
    endloop
  endfacet
  facet normal  -0.000000e+000  0.000000e+000  1.000000e+000
    outer loop
      vertex  1.668907e+000  7.311959e+000  1.900000e+001
      vertex -1.668907e+000  7.311959e+000  1.900000e+001
      vertex  4.676174e+000  5.863736e+000  1.900000e+001
    endloop
  endfacet
  facet normal  0.000000e+000  0.000000e+000  9.999999e-001
    outer loop
      vertex  4.676174e+000  5.863736e+000  1.900000e+001
      vertex -1.668907e+000  7.311959e+000  1.900000e+001
      vertex -4.676174e+000  5.863736e+000  1.900000e+001
    endloop
  endfacet
  facet normal  -0.000000e+000  0.000000e+000  1.000000e+000
    outer loop
      vertex  4.676174e+000  5.863736e+000  1.900000e+001
      vertex -4.676174e+000  5.863736e+000  1.900000e+001
      vertex  6.757267e+000  3.254128e+000  1.900000e+001
    endloop
  endfacet
  facet normal  0.000000e+000  0.000000e+000  1.000000e+000
    outer loop
      vertex  6.757267e+000  3.254128e+000  1.900000e+001
      vertex -4.676174e+000  5.863736e+000  1.900000e+001
      vertex -6.757267e+000  3.254128e+000  1.900000e+001
    endloop
  endfacet
  facet normal  -0.000000e+000  0.000000e+000  1.000000e+000
    outer loop
      vertex  6.757267e+000  3.254128e+000  1.900000e+001
      vertex -6.757267e+000  3.254128e+000  1.900000e+001
      vertex  7.500000e+000  0.000000e+000  1.900000e+001
    endloop
  endfacet
  facet normal  0.000000e+000  0.000000e+000  9.999999e-001
    outer loop
      vertex  7.500000e+000  0.000000e+000  1.900000e+001
      vertex -6.757267e+000  3.254128e+000  1.900000e+001
      vertex -7.500000e+000  4.249124e-015  1.900000e+001
    endloop
  endfacet
  facet normal  0.000000e+000  0.000000e+000  9.999999e-001
    outer loop
      vertex  7.500000e+000  0.000000e+000  1.900000e+001
      vertex -7.500000e+000  4.249124e-015  1.900000e+001
      vertex  6.757267e+000 -3.254128e+000  1.900000e+001
    endloop
  endfacet
  facet normal  0.000000e+000  0.000000e+000  1.000000e+000
    outer loop
      vertex  6.757267e+000 -3.254128e+000  1.900000e+001
      vertex -7.500000e+000  4.249124e-015  1.900000e+001
      vertex -6.757267e+000 -3.254128e+000  1.900000e+001
    endloop
  endfacet
  facet normal  -0.000000e+000  0.000000e+000  1.000000e+000
    outer loop
      vertex  6.757267e+000 -3.254128e+000  1.900000e+001
      vertex -6.757267e+000 -3.254128e+000  1.900000e+001
      vertex  4.676174e+000 -5.863736e+000  1.900000e+001
    endloop
  endfacet
  facet normal  0.000000e+000  0.000000e+000  1.000000e+000
    outer loop
      vertex  4.676174e+000 -5.863736e+000  1.900000e+001
      vertex -6.757267e+000 -3.254128e+000  1.900000e+001
      vertex -4.676174e+000 -5.863736e+000  1.900000e+001
    endloop
  endfacet
  facet normal  -0.000000e+000  0.000000e+000  9.999999e-001
    outer loop
      vertex  4.676174e+000 -5.863736e+000  1.900000e+001
      vertex -4.676174e+000 -5.863736e+000  1.900000e+001
      vertex  1.668907e+000 -7.311959e+000  1.900000e+001
    endloop
  endfacet
  facet normal  0.000000e+000  0.000000e+000  1.000000e+000
    outer loop
      vertex  1.668907e+000 -7.311959e+000  1.900000e+001
      vertex -4.676174e+000 -5.863736e+000  1.900000e+001
      vertex -1.668907e+000 -7.311959e+000  1.900000e+001
    endloop
  endfacet
  facet normal  9.749280e-001 -2.225209e-001  0.000000e+000
    outer loop
      vertex  7.500000e+000  0.000000e+000  1.500000e+001
      vertex  7.500000e+000  0.000000e+000  1.900000e+001
      vertex  6.757267e+000 -3.254128e+000  1.500000e+001
    endloop
  endfacet
  facet normal  9.749280e-001 -2.225209e-001  0.000000e+000
    outer loop
      vertex  6.757267e+000 -3.254128e+000  1.500000e+001
      vertex  7.500000e+000  0.000000e+000  1.900000e+001
      vertex  6.757267e+000 -3.254128e+000  1.900000e+001
    endloop
  endfacet
  facet normal  7.818314e-001 -6.234897e-001  0.000000e+000
    outer loop
      vertex  6.757267e+000 -3.254128e+000  1.500000e+001
      vertex  6.757267e+000 -3.254128e+000  1.900000e+001
      vertex  4.676174e+000 -5.863736e+000  1.500000e+001
    endloop
  endfacet
  facet normal  7.818314e-001 -6.234897e-001  0.000000e+000
    outer loop
      vertex  4.676174e+000 -5.863736e+000  1.500000e+001
      vertex  6.757267e+000 -3.254128e+000  1.900000e+001
      vertex  4.676174e+000 -5.863736e+000  1.900000e+001
    endloop
  endfacet
  facet normal  4.338837e-001 -9.009689e-001  0.000000e+000
    outer loop
      vertex  4.676174e+000 -5.863736e+000  1.500000e+001
      vertex  4.676174e+000 -5.863736e+000  1.900000e+001
      vertex  1.668907e+000 -7.311959e+000  1.500000e+001
    endloop
  endfacet
  facet normal  4.338837e-001 -9.009689e-001  0.000000e+000
    outer loop
      vertex  1.668907e+000 -7.311959e+000  1.500000e+001
      vertex  4.676174e+000 -5.863736e+000  1.900000e+001
      vertex  1.668907e+000 -7.311959e+000  1.900000e+001
    endloop
  endfacet
  facet normal  0.000000e+000 -9.999999e-001  -0.000000e+000
    outer loop
      vertex  1.668907e+000 -7.311959e+000  1.500000e+001
      vertex  1.668907e+000 -7.311959e+000  1.900000e+001
      vertex -1.668907e+000 -7.311959e+000  1.500000e+001
    endloop
  endfacet
  facet normal  0.000000e+000 -9.999999e-001  0.000000e+000
    outer loop
      vertex -1.668907e+000 -7.311959e+000  1.500000e+001
      vertex  1.668907e+000 -7.311959e+000  1.900000e+001
      vertex -1.668907e+000 -7.311959e+000  1.900000e+001
    endloop
  endfacet
  facet normal -4.338837e-001 -9.009689e-001  -0.000000e+000
    outer loop
      vertex -1.668907e+000 -7.311959e+000  1.500000e+001
      vertex -1.668907e+000 -7.311959e+000  1.900000e+001
      vertex -4.676174e+000 -5.863736e+000  1.500000e+001
    endloop
  endfacet
  facet normal -4.338837e-001 -9.009689e-001  0.000000e+000
    outer loop
      vertex -4.676174e+000 -5.863736e+000  1.500000e+001
      vertex -1.668907e+000 -7.311959e+000  1.900000e+001
      vertex -4.676174e+000 -5.863736e+000  1.900000e+001
    endloop
  endfacet
  facet normal -7.818314e-001 -6.234897e-001  -0.000000e+000
    outer loop
      vertex -4.676174e+000 -5.863736e+000  1.500000e+001
      vertex -4.676174e+000 -5.863736e+000  1.900000e+001
      vertex -6.757267e+000 -3.254128e+000  1.500000e+001
    endloop
  endfacet
  facet normal -7.818314e-001 -6.234897e-001  0.000000e+000
    outer loop
      vertex -6.757267e+000 -3.254128e+000  1.500000e+001
      vertex -4.676174e+000 -5.863736e+000  1.900000e+001
      vertex -6.757267e+000 -3.254128e+000  1.900000e+001
    endloop
  endfacet
  facet normal -9.749280e-001 -2.225209e-001  -0.000000e+000
    outer loop
      vertex -6.757267e+000 -3.254128e+000  1.500000e+001
      vertex -6.757267e+000 -3.254128e+000  1.900000e+001
      vertex -7.500000e+000  4.249124e-015  1.500000e+001
    endloop
  endfacet
  facet normal -9.749280e-001 -2.225209e-001  0.000000e+000
    outer loop
      vertex -7.500000e+000  4.249124e-015  1.500000e+001
      vertex -6.757267e+000 -3.254128e+000  1.900000e+001
      vertex -7.500000e+000  4.249124e-015  1.900000e+001
    endloop
  endfacet
  facet normal -9.749280e-001  2.225209e-001  0.000000e+000
    outer loop
      vertex -7.500000e+000  4.249124e-015  1.500000e+001
      vertex -7.500000e+000  4.249124e-015  1.900000e+001
      vertex -6.757267e+000  3.254128e+000  1.500000e+001
    endloop
  endfacet
  facet normal -9.749280e-001  2.225209e-001  0.000000e+000
    outer loop
      vertex -6.757267e+000  3.254128e+000  1.500000e+001
      vertex -7.500000e+000  4.249124e-015  1.900000e+001
      vertex -6.757267e+000  3.254128e+000  1.900000e+001
    endloop
  endfacet
  facet normal -7.818314e-001  6.234897e-001  0.000000e+000
    outer loop
      vertex -6.757267e+000  3.254128e+000  1.500000e+001
      vertex -6.757267e+000  3.254128e+000  1.900000e+001
      vertex -4.676174e+000  5.863736e+000  1.500000e+001
    endloop
  endfacet
  facet normal -7.818314e-001  6.234897e-001  0.000000e+000
    outer loop
      vertex -4.676174e+000  5.863736e+000  1.500000e+001
      vertex -6.757267e+000  3.254128e+000  1.900000e+001
      vertex -4.676174e+000  5.863736e+000  1.900000e+001
    endloop
  endfacet
  facet normal -4.338837e-001  9.009689e-001  0.000000e+000
    outer loop
      vertex -4.676174e+000  5.863736e+000  1.500000e+001
      vertex -4.676174e+000  5.863736e+000  1.900000e+001
      vertex -1.668907e+000  7.311959e+000  1.500000e+001
    endloop
  endfacet
  facet normal -4.338837e-001  9.009689e-001  0.000000e+000
    outer loop
      vertex -1.668907e+000  7.311959e+000  1.500000e+001
      vertex -4.676174e+000  5.863736e+000  1.900000e+001
      vertex -1.668907e+000  7.311959e+000  1.900000e+001
    endloop
  endfacet
  facet normal  0.000000e+000  9.999999e-001  0.000000e+000
    outer loop
      vertex -1.668907e+000  7.311959e+000  1.500000e+001
      vertex -1.668907e+000  7.311959e+000  1.900000e+001
      vertex  1.668907e+000  7.311959e+000  1.500000e+001
    endloop
  endfacet
  facet normal  0.000000e+000  9.999999e-001  -0.000000e+000
    outer loop
      vertex  1.668907e+000  7.311959e+000  1.500000e+001
      vertex -1.668907e+000  7.311959e+000  1.900000e+001
      vertex  1.668907e+000  7.311959e+000  1.900000e+001
    endloop
  endfacet
  facet normal  4.338837e-001  9.009689e-001  0.000000e+000
    outer loop
      vertex  1.668907e+000  7.311959e+000  1.500000e+001
      vertex  1.668907e+000  7.311959e+000  1.900000e+001
      vertex  4.676174e+000  5.863736e+000  1.500000e+001
    endloop
  endfacet
  facet normal  4.338837e-001  9.009689e-001  -0.000000e+000
    outer loop
      vertex  4.676174e+000  5.863736e+000  1.500000e+001
      vertex  1.668907e+000  7.311959e+000  1.900000e+001
      vertex  4.676174e+000  5.863736e+000  1.900000e+001
    endloop
  endfacet
  facet normal  7.818314e-001  6.234897e-001  0.000000e+000
    outer loop
      vertex  4.676174e+000  5.863736e+000  1.500000e+001
      vertex  4.676174e+000  5.863736e+000  1.900000e+001
      vertex  6.757267e+000  3.254128e+000  1.500000e+001
    endloop
  endfacet
  facet normal  7.818314e-001  6.234897e-001  -0.000000e+000
    outer loop
      vertex  6.757267e+000  3.254128e+000  1.500000e+001
      vertex  4.676174e+000  5.863736e+000  1.900000e+001
      vertex  6.757267e+000  3.254128e+000  1.900000e+001
    endloop
  endfacet
  facet normal  9.749280e-001  2.225209e-001  0.000000e+000
    outer loop
      vertex  6.757267e+000  3.254128e+000  1.500000e+001
      vertex  6.757267e+000  3.254128e+000  1.900000e+001
      vertex  7.500000e+000  0.000000e+000  1.500000e+001
    endloop
  endfacet
  facet normal  9.749280e-001  2.225209e-001  -0.000000e+000
    outer loop
      vertex  7.500000e+000  0.000000e+000  1.500000e+001
      vertex  6.757267e+000  3.254128e+000  1.900000e+001
      vertex  7.500000e+000  0.000000e+000  1.900000e+001
    endloop
  endfacet
  facet normal  0.000000e+000  0.000000e+000 -9.999999e-001
    outer loop
      vertex  3.030901e-016  4.950000e+000  0.000000e+000
      vertex  2.475000e+000  4.286826e+000  0.000000e+000
      vertex -2.475000e+000  4.286826e+000  0.000000e+000
    endloop
  endfacet
  facet normal  0.000000e+000  0.000000e+000 -9.999999e-001
    outer loop
      vertex -9.092702e-016 -4.950000e+000  0.000000e+000
      vertex -2.475000e+000 -4.286826e+000  0.000000e+000
      vertex  2.475000e+000 -4.286826e+000  0.000000e+000
    endloop
  endfacet
  facet normal  0.000000e+000  0.000000e+000 -1.000000e+000
    outer loop
      vertex  2.475000e+000 -4.286826e+000  0.000000e+000
      vertex -2.475000e+000 -4.286826e+000  0.000000e+000
      vertex -4.286826e+000 -2.475000e+000  0.000000e+000
    endloop
  endfacet
  facet normal  0.000000e+000  0.000000e+000 -9.999999e-001
    outer loop
      vertex  2.475000e+000 -4.286826e+000  0.000000e+000
      vertex -4.286826e+000 -2.475000e+000  0.000000e+000
      vertex  4.286826e+000 -2.475000e+000  0.000000e+000
    endloop
  endfacet
  facet normal  0.000000e+000  0.000000e+000 -9.999999e-001
    outer loop
      vertex  4.286826e+000 -2.475000e+000  0.000000e+000
      vertex -4.286826e+000 -2.475000e+000  0.000000e+000
      vertex -4.950000e+000  6.061801e-016  0.000000e+000
    endloop
  endfacet
  facet normal  0.000000e+000  0.000000e+000 -1.000000e+000
    outer loop
      vertex  4.286826e+000 -2.475000e+000  0.000000e+000
      vertex -4.950000e+000  6.061801e-016  0.000000e+000
      vertex  4.950000e+000  0.000000e+000  0.000000e+000
    endloop
  endfacet
  facet normal  0.000000e+000  0.000000e+000 -1.000000e+000
    outer loop
      vertex  4.950000e+000  0.000000e+000  0.000000e+000
      vertex -4.950000e+000  6.061801e-016  0.000000e+000
      vertex -4.286826e+000  2.475000e+000  0.000000e+000
    endloop
  endfacet
  facet normal  0.000000e+000  0.000000e+000 -9.999999e-001
    outer loop
      vertex  4.950000e+000  0.000000e+000  0.000000e+000
      vertex -4.286826e+000  2.475000e+000  0.000000e+000
      vertex  4.286826e+000  2.475000e+000  0.000000e+000
    endloop
  endfacet
  facet normal  0.000000e+000  0.000000e+000 -9.999999e-001
    outer loop
      vertex  4.286826e+000  2.475000e+000  0.000000e+000
      vertex -4.286826e+000  2.475000e+000  0.000000e+000
      vertex -2.475000e+000  4.286826e+000  0.000000e+000
    endloop
  endfacet
  facet normal  0.000000e+000  0.000000e+000 -1.000000e+000
    outer loop
      vertex  4.286826e+000  2.475000e+000  0.000000e+000
      vertex -2.475000e+000  4.286826e+000  0.000000e+000
      vertex  2.475000e+000  4.286826e+000  0.000000e+000
    endloop
  endfacet
endsolid CATIA STL
