solid CATIA STL
  facet normal  -0.000000e+000  0.000000e+000  1.000000e+000
    outer loop
      vertex  7.450000e+000  2.500000e+000  2.200000e+001
      vertex  5.709425e+000  8.775826e-001  2.200000e+001
      vertex  6.189549e+000  2.815395e-001  2.200000e+001
    endloop
  endfacet
  facet normal  0.000000e+000  0.000000e+000  1.000000e+000
    outer loop
      vertex  7.450000e+000 -2.500000e+000  2.200000e+001
      vertex  7.450000e+000  2.500000e+000  2.200000e+001
      vertex  6.189549e+000  2.815395e-001  2.200000e+001
    endloop
  endfacet
  facet normal  0.000000e+000  0.000000e+000  1.000000e+000
    outer loop
      vertex  7.450000e+000 -2.500000e+000  2.200000e+001
      vertex  6.189549e+000  2.815395e-001  2.200000e+001
      vertex  6.107583e+000 -4.794255e-001  2.200000e+001
    endloop
  endfacet
  facet normal  0.000000e+000  0.000000e+000  1.000000e+000
    outer loop
      vertex  7.450000e+000 -2.500000e+000  2.200000e+001
      vertex  6.107583e+000 -4.794255e-001  2.200000e+001
      vertex  5.511539e+000 -9.595496e-001  2.200000e+001
    endloop
  endfacet
  facet normal  0.000000e+000  0.000000e+000  1.000000e+000
    outer loop
      vertex  7.450000e+000 -2.500000e+000  2.200000e+001
      vertex  5.511539e+000 -9.595496e-001  2.200000e+001
      vertex  4.750575e+000 -8.775826e-001  2.200000e+001
    endloop
  endfacet
  facet normal  0.000000e+000  0.000000e+000  1.000000e+000
    outer loop
      vertex  7.450000e+000 -2.500000e+000  2.200000e+001
      vertex  4.750575e+000 -8.775826e-001  2.200000e+001
      vertex  3.000000e+000 -2.500000e+000  2.200000e+001
    endloop
  endfacet
  facet normal  0.000000e+000  0.000000e+000  1.000000e+000
    outer loop
      vertex  4.352417e+000  4.794255e-001  2.200000e+001
      vertex  3.000000e+000  2.500000e+000  2.200000e+001
      vertex  4.270451e+000 -2.815395e-001  2.200000e+001
    endloop
  endfacet
  facet normal  0.000000e+000  0.000000e+000  1.000000e+000
    outer loop
      vertex  4.270451e+000 -2.815395e-001  2.200000e+001
      vertex  3.000000e+000  2.500000e+000  2.200000e+001
      vertex  3.000000e+000 -2.500000e+000  2.200000e+001
    endloop
  endfacet
  facet normal  0.000000e+000  0.000000e+000  9.999999e-001
    outer loop
      vertex  4.270451e+000 -2.815395e-001  2.200000e+001
      vertex  3.000000e+000 -2.500000e+000  2.200000e+001
      vertex  4.750575e+000 -8.775826e-001  2.200000e+001
    endloop
  endfacet
  facet normal  0.000000e+000  0.000000e+000  1.000000e+000
    outer loop
      vertex  5.709425e+000  8.775826e-001  2.200000e+001
      vertex  7.450000e+000  2.500000e+000  2.200000e+001
      vertex  4.948461e+000  9.595496e-001  2.200000e+001
    endloop
  endfacet
  facet normal  0.000000e+000  -0.000000e+000  1.000000e+000
    outer loop
      vertex  4.948461e+000  9.595496e-001  2.200000e+001
      vertex  7.450000e+000  2.500000e+000  2.200000e+001
      vertex  3.000000e+000  2.500000e+000  2.200000e+001
    endloop
  endfacet
  facet normal  0.000000e+000  0.000000e+000  1.000000e+000
    outer loop
      vertex  4.948461e+000  9.595496e-001  2.200000e+001
      vertex  3.000000e+000  2.500000e+000  2.200000e+001
      vertex  4.352417e+000  4.794255e-001  2.200000e+001
    endloop
  endfacet
  facet normal -7.787678e-001 -6.273123e-001  0.000000e+000
    outer loop
      vertex  5.709425e+000  8.775826e-001  2.200000e+001
      vertex  6.189549e+000  2.815395e-001  1.850000e+001
      vertex  6.189549e+000  2.815395e-001  2.200000e+001
    endloop
  endfacet
  facet normal -9.942488e-001  1.070949e-001  0.000000e+000
    outer loop
      vertex  6.189549e+000  2.815395e-001  2.200000e+001
      vertex  6.189549e+000  2.815395e-001  1.850000e+001
      vertex  6.107583e+000 -4.794255e-001  1.850000e+001
    endloop
  endfacet
  facet normal -9.942488e-001  1.070949e-001  0.000000e+000
    outer loop
      vertex  6.189549e+000  2.815395e-001  2.200000e+001
      vertex  6.107583e+000 -4.794255e-001  1.850000e+001
      vertex  6.107583e+000 -4.794255e-001  2.200000e+001
    endloop
  endfacet
  facet normal -7.787678e-001 -6.273123e-001  -0.000000e+000
    outer loop
      vertex  6.189549e+000  2.815395e-001  1.850000e+001
      vertex  5.709425e+000  8.775826e-001  2.200000e+001
      vertex  5.709425e+000  8.775826e-001  1.850000e+001
    endloop
  endfacet
  facet normal -1.070951e-001 -9.942487e-001  0.000000e+000
    outer loop
      vertex  5.709425e+000  8.775826e-001  1.850000e+001
      vertex  5.709425e+000  8.775826e-001  2.200000e+001
      vertex  4.948461e+000  9.595496e-001  2.200000e+001
    endloop
  endfacet
  facet normal -1.070951e-001 -9.942487e-001  -0.000000e+000
    outer loop
      vertex  5.709425e+000  8.775826e-001  1.850000e+001
      vertex  4.948461e+000  9.595496e-001  2.200000e+001
      vertex  4.948461e+000  9.595496e-001  1.850000e+001
    endloop
  endfacet
  facet normal  6.273123e-001 -7.787678e-001  0.000000e+000
    outer loop
      vertex  4.948461e+000  9.595496e-001  1.850000e+001
      vertex  4.948461e+000  9.595496e-001  2.200000e+001
      vertex  4.352417e+000  4.794255e-001  2.200000e+001
    endloop
  endfacet
  facet normal  6.273123e-001 -7.787678e-001  0.000000e+000
    outer loop
      vertex  4.948461e+000  9.595496e-001  1.850000e+001
      vertex  4.352417e+000  4.794255e-001  2.200000e+001
      vertex  4.352417e+000  4.794255e-001  1.850000e+001
    endloop
  endfacet
  facet normal  7.787678e-001  6.273123e-001  -0.000000e+000
    outer loop
      vertex  4.750575e+000 -8.775826e-001  2.200000e+001
      vertex  4.270451e+000 -2.815395e-001  1.850000e+001
      vertex  4.270451e+000 -2.815395e-001  2.200000e+001
    endloop
  endfacet
  facet normal  9.942488e-001 -1.070949e-001  0.000000e+000
    outer loop
      vertex  4.270451e+000 -2.815395e-001  2.200000e+001
      vertex  4.270451e+000 -2.815395e-001  1.850000e+001
      vertex  4.352417e+000  4.794255e-001  1.850000e+001
    endloop
  endfacet
  facet normal  9.942488e-001 -1.070949e-001  0.000000e+000
    outer loop
      vertex  4.270451e+000 -2.815395e-001  2.200000e+001
      vertex  4.352417e+000  4.794255e-001  1.850000e+001
      vertex  4.352417e+000  4.794255e-001  2.200000e+001
    endloop
  endfacet
  facet normal  7.787678e-001  6.273123e-001  0.000000e+000
    outer loop
      vertex  4.270451e+000 -2.815395e-001  1.850000e+001
      vertex  4.750575e+000 -8.775826e-001  2.200000e+001
      vertex  4.750575e+000 -8.775826e-001  1.850000e+001
    endloop
  endfacet
  facet normal  1.070951e-001  9.942487e-001  -0.000000e+000
    outer loop
      vertex  4.750575e+000 -8.775826e-001  1.850000e+001
      vertex  4.750575e+000 -8.775826e-001  2.200000e+001
      vertex  5.511539e+000 -9.595496e-001  2.200000e+001
    endloop
  endfacet
  facet normal  1.070951e-001  9.942487e-001  0.000000e+000
    outer loop
      vertex  4.750575e+000 -8.775826e-001  1.850000e+001
      vertex  5.511539e+000 -9.595496e-001  2.200000e+001
      vertex  5.511539e+000 -9.595496e-001  1.850000e+001
    endloop
  endfacet
  facet normal -6.273123e-001  7.787678e-001  0.000000e+000
    outer loop
      vertex  5.511539e+000 -9.595496e-001  1.850000e+001
      vertex  5.511539e+000 -9.595496e-001  2.200000e+001
      vertex  6.107583e+000 -4.794255e-001  2.200000e+001
    endloop
  endfacet
  facet normal -6.273123e-001  7.787678e-001  0.000000e+000
    outer loop
      vertex  5.511539e+000 -9.595496e-001  1.850000e+001
      vertex  6.107583e+000 -4.794255e-001  2.200000e+001
      vertex  6.107583e+000 -4.794255e-001  1.850000e+001
    endloop
  endfacet
  facet normal  0.000000e+000  -0.000000e+000  1.000000e+000
    outer loop
      vertex  5.709425e+000  8.775826e-001  1.850000e+001
      vertex  6.107583e+000 -4.794255e-001  1.850000e+001
      vertex  6.189549e+000  2.815395e-001  1.850000e+001
    endloop
  endfacet
  facet normal  0.000000e+000  0.000000e+000  1.000000e+000
    outer loop
      vertex  6.107583e+000 -4.794255e-001  1.850000e+001
      vertex  5.709425e+000  8.775826e-001  1.850000e+001
      vertex  5.511539e+000 -9.595496e-001  1.850000e+001
    endloop
  endfacet
  facet normal  0.000000e+000  -0.000000e+000  9.999999e-001
    outer loop
      vertex  5.511539e+000 -9.595496e-001  1.850000e+001
      vertex  5.709425e+000  8.775826e-001  1.850000e+001
      vertex  4.948461e+000  9.595496e-001  1.850000e+001
    endloop
  endfacet
  facet normal  0.000000e+000  0.000000e+000  9.999999e-001
    outer loop
      vertex  5.511539e+000 -9.595496e-001  1.850000e+001
      vertex  4.948461e+000  9.595496e-001  1.850000e+001
      vertex  4.750575e+000 -8.775826e-001  1.850000e+001
    endloop
  endfacet
  facet normal  0.000000e+000  -0.000000e+000  1.000000e+000
    outer loop
      vertex  4.750575e+000 -8.775826e-001  1.850000e+001
      vertex  4.948461e+000  9.595496e-001  1.850000e+001
      vertex  4.352417e+000  4.794255e-001  1.850000e+001
    endloop
  endfacet
  facet normal  0.000000e+000  0.000000e+000  1.000000e+000
    outer loop
      vertex  4.750575e+000 -8.775826e-001  1.850000e+001
      vertex  4.352417e+000  4.794255e-001  1.850000e+001
      vertex  4.270451e+000 -2.815395e-001  1.850000e+001
    endloop
  endfacet
  facet normal  -0.000000e+000  0.000000e+000  1.000000e+000
    outer loop
      vertex -3.000000e+000  2.500000e+000  2.200000e+001
      vertex -4.750575e+000  8.775826e-001  2.200000e+001
      vertex -4.270451e+000  2.815395e-001  2.200000e+001
    endloop
  endfacet
  facet normal  0.000000e+000  0.000000e+000  1.000000e+000
    outer loop
      vertex -3.000000e+000 -2.500000e+000  2.200000e+001
      vertex -3.000000e+000  2.500000e+000  2.200000e+001
      vertex -4.270451e+000  2.815395e-001  2.200000e+001
    endloop
  endfacet
  facet normal  0.000000e+000  0.000000e+000  1.000000e+000
    outer loop
      vertex -3.000000e+000 -2.500000e+000  2.200000e+001
      vertex -4.270451e+000  2.815395e-001  2.200000e+001
      vertex -4.352417e+000 -4.794255e-001  2.200000e+001
    endloop
  endfacet
  facet normal  0.000000e+000  0.000000e+000  1.000000e+000
    outer loop
      vertex -3.000000e+000 -2.500000e+000  2.200000e+001
      vertex -4.352417e+000 -4.794255e-001  2.200000e+001
      vertex -4.948461e+000 -9.595496e-001  2.200000e+001
    endloop
  endfacet
  facet normal  0.000000e+000  0.000000e+000  1.000000e+000
    outer loop
      vertex -3.000000e+000 -2.500000e+000  2.200000e+001
      vertex -4.948461e+000 -9.595496e-001  2.200000e+001
      vertex -5.709425e+000 -8.775826e-001  2.200000e+001
    endloop
  endfacet
  facet normal  0.000000e+000  0.000000e+000  1.000000e+000
    outer loop
      vertex -7.450000e+000 -2.500000e+000  2.200000e+001
      vertex -3.000000e+000 -2.500000e+000  2.200000e+001
      vertex -5.709425e+000 -8.775826e-001  2.200000e+001
    endloop
  endfacet
  facet normal  0.000000e+000  0.000000e+000  1.000000e+000
    outer loop
      vertex -7.450000e+000 -2.500000e+000  2.200000e+001
      vertex -5.709425e+000 -8.775826e-001  2.200000e+001
      vertex -6.189549e+000 -2.815395e-001  2.200000e+001
    endloop
  endfacet
  facet normal  0.000000e+000  -0.000000e+000  1.000000e+000
    outer loop
      vertex -7.450000e+000 -2.500000e+000  2.200000e+001
      vertex -6.189549e+000 -2.815395e-001  2.200000e+001
      vertex -6.107583e+000  4.794255e-001  2.200000e+001
    endloop
  endfacet
  facet normal  0.000000e+000  0.000000e+000  9.999999e-001
    outer loop
      vertex -7.450000e+000 -2.500000e+000  2.200000e+001
      vertex -6.107583e+000  4.794255e-001  2.200000e+001
      vertex -7.450000e+000  2.500000e+000  2.200000e+001
    endloop
  endfacet
  facet normal  0.000000e+000  0.000000e+000  1.000000e+000
    outer loop
      vertex -4.750575e+000  8.775826e-001  2.200000e+001
      vertex -3.000000e+000  2.500000e+000  2.200000e+001
      vertex -5.511539e+000  9.595496e-001  2.200000e+001
    endloop
  endfacet
  facet normal  0.000000e+000  -0.000000e+000  1.000000e+000
    outer loop
      vertex -5.511539e+000  9.595496e-001  2.200000e+001
      vertex -3.000000e+000  2.500000e+000  2.200000e+001
      vertex -7.450000e+000  2.500000e+000  2.200000e+001
    endloop
  endfacet
  facet normal  0.000000e+000  0.000000e+000  1.000000e+000
    outer loop
      vertex -5.511539e+000  9.595496e-001  2.200000e+001
      vertex -7.450000e+000  2.500000e+000  2.200000e+001
      vertex -6.107583e+000  4.794255e-001  2.200000e+001
    endloop
  endfacet
  facet normal  7.787678e-001  6.273123e-001  -0.000000e+000
    outer loop
      vertex -5.709425e+000 -8.775826e-001  2.200000e+001
      vertex -6.189549e+000 -2.815395e-001  1.850000e+001
      vertex -6.189549e+000 -2.815395e-001  2.200000e+001
    endloop
  endfacet
  facet normal  9.942488e-001 -1.070949e-001  0.000000e+000
    outer loop
      vertex -6.189549e+000 -2.815395e-001  2.200000e+001
      vertex -6.189549e+000 -2.815395e-001  1.850000e+001
      vertex -6.107583e+000  4.794255e-001  1.850000e+001
    endloop
  endfacet
  facet normal  9.942488e-001 -1.070949e-001  0.000000e+000
    outer loop
      vertex -6.189549e+000 -2.815395e-001  2.200000e+001
      vertex -6.107583e+000  4.794255e-001  1.850000e+001
      vertex -6.107583e+000  4.794255e-001  2.200000e+001
    endloop
  endfacet
  facet normal  7.787678e-001  6.273123e-001  0.000000e+000
    outer loop
      vertex -6.189549e+000 -2.815395e-001  1.850000e+001
      vertex -5.709425e+000 -8.775826e-001  2.200000e+001
      vertex -5.709425e+000 -8.775826e-001  1.850000e+001
    endloop
  endfacet
  facet normal  1.070951e-001  9.942487e-001  -0.000000e+000
    outer loop
      vertex -5.709425e+000 -8.775826e-001  1.850000e+001
      vertex -5.709425e+000 -8.775826e-001  2.200000e+001
      vertex -4.948461e+000 -9.595496e-001  2.200000e+001
    endloop
  endfacet
  facet normal  1.070951e-001  9.942487e-001  0.000000e+000
    outer loop
      vertex -5.709425e+000 -8.775826e-001  1.850000e+001
      vertex -4.948461e+000 -9.595496e-001  2.200000e+001
      vertex -4.948461e+000 -9.595496e-001  1.850000e+001
    endloop
  endfacet
  facet normal -6.273123e-001  7.787678e-001  0.000000e+000
    outer loop
      vertex -4.948461e+000 -9.595496e-001  1.850000e+001
      vertex -4.948461e+000 -9.595496e-001  2.200000e+001
      vertex -4.352417e+000 -4.794255e-001  2.200000e+001
    endloop
  endfacet
  facet normal -6.273123e-001  7.787678e-001  0.000000e+000
    outer loop
      vertex -4.948461e+000 -9.595496e-001  1.850000e+001
      vertex -4.352417e+000 -4.794255e-001  2.200000e+001
      vertex -4.352417e+000 -4.794255e-001  1.850000e+001
    endloop
  endfacet
  facet normal -7.787678e-001 -6.273123e-001  0.000000e+000
    outer loop
      vertex -4.750575e+000  8.775826e-001  2.200000e+001
      vertex -4.270451e+000  2.815395e-001  1.850000e+001
      vertex -4.270451e+000  2.815395e-001  2.200000e+001
    endloop
  endfacet
  facet normal -9.942488e-001  1.070949e-001  0.000000e+000
    outer loop
      vertex -4.270451e+000  2.815395e-001  2.200000e+001
      vertex -4.270451e+000  2.815395e-001  1.850000e+001
      vertex -4.352417e+000 -4.794255e-001  1.850000e+001
    endloop
  endfacet
  facet normal -9.942488e-001  1.070949e-001  0.000000e+000
    outer loop
      vertex -4.270451e+000  2.815395e-001  2.200000e+001
      vertex -4.352417e+000 -4.794255e-001  1.850000e+001
      vertex -4.352417e+000 -4.794255e-001  2.200000e+001
    endloop
  endfacet
  facet normal -7.787678e-001 -6.273123e-001  -0.000000e+000
    outer loop
      vertex -4.270451e+000  2.815395e-001  1.850000e+001
      vertex -4.750575e+000  8.775826e-001  2.200000e+001
      vertex -4.750575e+000  8.775826e-001  1.850000e+001
    endloop
  endfacet
  facet normal -1.070951e-001 -9.942487e-001  0.000000e+000
    outer loop
      vertex -4.750575e+000  8.775826e-001  1.850000e+001
      vertex -4.750575e+000  8.775826e-001  2.200000e+001
      vertex -5.511539e+000  9.595496e-001  2.200000e+001
    endloop
  endfacet
  facet normal -1.070951e-001 -9.942487e-001  -0.000000e+000
    outer loop
      vertex -4.750575e+000  8.775826e-001  1.850000e+001
      vertex -5.511539e+000  9.595496e-001  2.200000e+001
      vertex -5.511539e+000  9.595496e-001  1.850000e+001
    endloop
  endfacet
  facet normal  6.273123e-001 -7.787678e-001  0.000000e+000
    outer loop
      vertex -5.511539e+000  9.595496e-001  1.850000e+001
      vertex -5.511539e+000  9.595496e-001  2.200000e+001
      vertex -6.107583e+000  4.794255e-001  2.200000e+001
    endloop
  endfacet
  facet normal  6.273123e-001 -7.787678e-001  0.000000e+000
    outer loop
      vertex -5.511539e+000  9.595496e-001  1.850000e+001
      vertex -6.107583e+000  4.794255e-001  2.200000e+001
      vertex -6.107583e+000  4.794255e-001  1.850000e+001
    endloop
  endfacet
  facet normal  -0.000000e+000  0.000000e+000  9.999999e-001
    outer loop
      vertex -4.352417e+000 -4.794255e-001  1.850000e+001
      vertex -5.709425e+000 -8.775826e-001  1.850000e+001
      vertex -4.948461e+000 -9.595496e-001  1.850000e+001
    endloop
  endfacet
  facet normal  0.000000e+000  0.000000e+000  1.000000e+000
    outer loop
      vertex -5.709425e+000 -8.775826e-001  1.850000e+001
      vertex -4.352417e+000 -4.794255e-001  1.850000e+001
      vertex -6.189549e+000 -2.815395e-001  1.850000e+001
    endloop
  endfacet
  facet normal  -0.000000e+000  0.000000e+000  9.999999e-001
    outer loop
      vertex -6.189549e+000 -2.815395e-001  1.850000e+001
      vertex -4.352417e+000 -4.794255e-001  1.850000e+001
      vertex -4.270451e+000  2.815395e-001  1.850000e+001
    endloop
  endfacet
  facet normal  0.000000e+000  0.000000e+000  9.999999e-001
    outer loop
      vertex -6.189549e+000 -2.815395e-001  1.850000e+001
      vertex -4.270451e+000  2.815395e-001  1.850000e+001
      vertex -6.107583e+000  4.794255e-001  1.850000e+001
    endloop
  endfacet
  facet normal  -0.000000e+000  0.000000e+000  1.000000e+000
    outer loop
      vertex -6.107583e+000  4.794255e-001  1.850000e+001
      vertex -4.270451e+000  2.815395e-001  1.850000e+001
      vertex -4.750575e+000  8.775826e-001  1.850000e+001
    endloop
  endfacet
  facet normal  0.000000e+000  0.000000e+000  9.999999e-001
    outer loop
      vertex -6.107583e+000  4.794255e-001  1.850000e+001
      vertex -4.750575e+000  8.775826e-001  1.850000e+001
      vertex -5.511539e+000  9.595496e-001  1.850000e+001
    endloop
  endfacet
  facet normal  0.000000e+000  0.000000e+000 -1.000000e+000
    outer loop
      vertex  5.450000e+000 -2.500000e+000  1.700000e+001
      vertex  3.000000e+000 -2.500000e+000  1.700000e+001
      vertex  5.450000e+000  2.500000e+000  1.700000e+001
    endloop
  endfacet
  facet normal  -0.000000e+000  0.000000e+000 -1.000000e+000
    outer loop
      vertex  5.450000e+000  2.500000e+000  1.700000e+001
      vertex  3.000000e+000 -2.500000e+000  1.700000e+001
      vertex  3.000000e+000  2.500000e+000  1.700000e+001
    endloop
  endfacet
  facet normal  0.000000e+000  0.000000e+000 -1.000000e+000
    outer loop
      vertex -3.000000e+000 -2.500000e+000  1.700000e+001
      vertex -5.450000e+000 -2.500000e+000  1.700000e+001
      vertex -3.000000e+000  2.500000e+000  1.700000e+001
    endloop
  endfacet
  facet normal  -0.000000e+000  0.000000e+000 -1.000000e+000
    outer loop
      vertex -3.000000e+000  2.500000e+000  1.700000e+001
      vertex -5.450000e+000 -2.500000e+000  1.700000e+001
      vertex -5.450000e+000  2.500000e+000  1.700000e+001
    endloop
  endfacet
  facet normal  -0.000000e+000  1.000000e+000  0.000000e+000
    outer loop
      vertex  7.450000e+000  2.500000e+000  0.000000e+000
      vertex  5.450000e+000  2.500000e+000  1.700000e+001
      vertex  7.450000e+000  2.500000e+000  2.200000e+001
    endloop
  endfacet
  facet normal  0.000000e+000  1.000000e+000  0.000000e+000
    outer loop
      vertex  7.450000e+000  2.500000e+000  2.200000e+001
      vertex  5.450000e+000  2.500000e+000  1.700000e+001
      vertex  3.000000e+000  2.500000e+000  1.700000e+001
    endloop
  endfacet
  facet normal  0.000000e+000  1.000000e+000  0.000000e+000
    outer loop
      vertex  7.450000e+000  2.500000e+000  2.200000e+001
      vertex  3.000000e+000  2.500000e+000  1.700000e+001
      vertex  3.000000e+000  2.500000e+000  2.200000e+001
    endloop
  endfacet
  facet normal  0.000000e+000  1.000000e+000  0.000000e+000
    outer loop
      vertex  5.450000e+000  2.500000e+000  1.700000e+001
      vertex  7.450000e+000  2.500000e+000  0.000000e+000
      vertex  5.450000e+000  2.500000e+000  2.000000e+000
    endloop
  endfacet
  facet normal  0.000000e+000  9.999999e-001  0.000000e+000
    outer loop
      vertex  5.450000e+000  2.500000e+000  2.000000e+000
      vertex  7.450000e+000  2.500000e+000  0.000000e+000
      vertex -7.450000e+000  2.500000e+000  0.000000e+000
    endloop
  endfacet
  facet normal  0.000000e+000  9.999999e-001  0.000000e+000
    outer loop
      vertex  5.450000e+000  2.500000e+000  2.000000e+000
      vertex -7.450000e+000  2.500000e+000  0.000000e+000
      vertex -5.450000e+000  2.500000e+000  2.000000e+000
    endloop
  endfacet
  facet normal  0.000000e+000  1.000000e+000  0.000000e+000
    outer loop
      vertex -5.450000e+000  2.500000e+000  2.000000e+000
      vertex -7.450000e+000  2.500000e+000  0.000000e+000
      vertex -7.450000e+000  2.500000e+000  2.200000e+001
    endloop
  endfacet
  facet normal  0.000000e+000  1.000000e+000  0.000000e+000
    outer loop
      vertex -5.450000e+000  2.500000e+000  2.000000e+000
      vertex -7.450000e+000  2.500000e+000  2.200000e+001
      vertex -5.450000e+000  2.500000e+000  1.700000e+001
    endloop
  endfacet
  facet normal  0.000000e+000  1.000000e+000  -0.000000e+000
    outer loop
      vertex -5.450000e+000  2.500000e+000  1.700000e+001
      vertex -7.450000e+000  2.500000e+000  2.200000e+001
      vertex -3.000000e+000  2.500000e+000  2.200000e+001
    endloop
  endfacet
  facet normal  0.000000e+000  1.000000e+000  0.000000e+000
    outer loop
      vertex -5.450000e+000  2.500000e+000  1.700000e+001
      vertex -3.000000e+000  2.500000e+000  2.200000e+001
      vertex -3.000000e+000  2.500000e+000  1.700000e+001
    endloop
  endfacet
  facet normal  -0.000000e+000 -1.000000e+000  0.000000e+000
    outer loop
      vertex -7.450000e+000 -2.500000e+000  0.000000e+000
      vertex -5.450000e+000 -2.500000e+000  1.700000e+001
      vertex -7.450000e+000 -2.500000e+000  2.200000e+001
    endloop
  endfacet
  facet normal  0.000000e+000 -1.000000e+000  0.000000e+000
    outer loop
      vertex -7.450000e+000 -2.500000e+000  2.200000e+001
      vertex -5.450000e+000 -2.500000e+000  1.700000e+001
      vertex -3.000000e+000 -2.500000e+000  1.700000e+001
    endloop
  endfacet
  facet normal  0.000000e+000 -1.000000e+000  0.000000e+000
    outer loop
      vertex -7.450000e+000 -2.500000e+000  2.200000e+001
      vertex -3.000000e+000 -2.500000e+000  1.700000e+001
      vertex -3.000000e+000 -2.500000e+000  2.200000e+001
    endloop
  endfacet
  facet normal  0.000000e+000 -1.000000e+000  0.000000e+000
    outer loop
      vertex -5.450000e+000 -2.500000e+000  1.700000e+001
      vertex -7.450000e+000 -2.500000e+000  0.000000e+000
      vertex -5.450000e+000 -2.500000e+000  2.000000e+000
    endloop
  endfacet
  facet normal  0.000000e+000 -9.999999e-001  -0.000000e+000
    outer loop
      vertex -5.450000e+000 -2.500000e+000  2.000000e+000
      vertex -7.450000e+000 -2.500000e+000  0.000000e+000
      vertex  7.450000e+000 -2.500000e+000  0.000000e+000
    endloop
  endfacet
  facet normal  0.000000e+000 -9.999999e-001  0.000000e+000
    outer loop
      vertex -5.450000e+000 -2.500000e+000  2.000000e+000
      vertex  7.450000e+000 -2.500000e+000  0.000000e+000
      vertex  5.450000e+000 -2.500000e+000  2.000000e+000
    endloop
  endfacet
  facet normal  0.000000e+000 -1.000000e+000  0.000000e+000
    outer loop
      vertex  5.450000e+000 -2.500000e+000  2.000000e+000
      vertex  7.450000e+000 -2.500000e+000  0.000000e+000
      vertex  7.450000e+000 -2.500000e+000  2.200000e+001
    endloop
  endfacet
  facet normal  0.000000e+000 -1.000000e+000  0.000000e+000
    outer loop
      vertex  5.450000e+000 -2.500000e+000  2.000000e+000
      vertex  7.450000e+000 -2.500000e+000  2.200000e+001
      vertex  5.450000e+000 -2.500000e+000  1.700000e+001
    endloop
  endfacet
  facet normal  0.000000e+000 -1.000000e+000  0.000000e+000
    outer loop
      vertex  5.450000e+000 -2.500000e+000  1.700000e+001
      vertex  7.450000e+000 -2.500000e+000  2.200000e+001
      vertex  3.000000e+000 -2.500000e+000  2.200000e+001
    endloop
  endfacet
  facet normal  0.000000e+000 -1.000000e+000  0.000000e+000
    outer loop
      vertex  5.450000e+000 -2.500000e+000  1.700000e+001
      vertex  3.000000e+000 -2.500000e+000  2.200000e+001
      vertex  3.000000e+000 -2.500000e+000  1.700000e+001
    endloop
  endfacet
  facet normal -1.000000e+000  -0.000000e+000  0.000000e+000
    outer loop
      vertex  3.000000e+000 -2.500000e+000  2.200000e+001
      vertex  3.000000e+000  2.500000e+000  2.200000e+001
      vertex  3.000000e+000 -2.500000e+000  1.700000e+001
    endloop
  endfacet
  facet normal -1.000000e+000  0.000000e+000  0.000000e+000
    outer loop
      vertex  3.000000e+000 -2.500000e+000  1.700000e+001
      vertex  3.000000e+000  2.500000e+000  2.200000e+001
      vertex  3.000000e+000  2.500000e+000  1.700000e+001
    endloop
  endfacet
  facet normal  1.000000e+000  -0.000000e+000  0.000000e+000
    outer loop
      vertex -3.000000e+000  2.500000e+000  2.200000e+001
      vertex -3.000000e+000 -2.500000e+000  2.200000e+001
      vertex -3.000000e+000  2.500000e+000  1.700000e+001
    endloop
  endfacet
  facet normal  1.000000e+000  0.000000e+000  0.000000e+000
    outer loop
      vertex -3.000000e+000  2.500000e+000  1.700000e+001
      vertex -3.000000e+000 -2.500000e+000  2.200000e+001
      vertex -3.000000e+000 -2.500000e+000  1.700000e+001
    endloop
  endfacet
  facet normal -1.273981e-017  2.405274e-017 -1.000000e+000
    outer loop
      vertex  4.848232e+000  1.121943e+000  0.000000e+000
      vertex  7.450000e+000  2.500000e+000  0.000000e+000
      vertex  5.712495e+000  4.257634e-001 -2.775558e-017
    endloop
  endfacet
  facet normal  6.211057e-019  4.063946e-017 -1.000000e+000
    outer loop
      vertex -3.167505e+000  4.257634e-001 -2.775558e-017
      vertex -4.031768e+000  1.121943e+000  0.000000e+000
      vertex  3.744833e+000  1.003091e+000  0.000000e+000
    endloop
  endfacet
  facet normal  4.304999e-018 -3.467759e-018 -1.000000e+000
    outer loop
      vertex -3.167505e+000  4.257634e-001 -2.775558e-017
      vertex  3.744833e+000  1.003091e+000  0.000000e+000
      vertex  3.048653e+000  1.388287e-001  0.000000e+000
    endloop
  endfacet
  facet normal  5.654306e-018  2.576366e-017 -1.000000e+000
    outer loop
      vertex -3.167505e+000  4.257634e-001 -2.775558e-017
      vertex  3.048653e+000  1.388287e-001  0.000000e+000
      vertex  3.167505e+000 -9.645706e-001 -2.775558e-017
    endloop
  endfacet
  facet normal -5.654306e-018 -2.576366e-017 -1.000000e+000
    outer loop
      vertex -3.167505e+000  4.257634e-001 -2.775558e-017
      vertex  3.167505e+000 -9.645706e-001 -2.775558e-017
      vertex -3.048653e+000 -6.776359e-001  0.000000e+000
    endloop
  endfacet
  facet normal  0.000000e+000  0.000000e+000 -9.999999e-001
    outer loop
      vertex  7.450000e+000 -2.500000e+000  0.000000e+000
      vertex -7.450000e+000 -2.500000e+000  0.000000e+000
      vertex -3.744833e+000 -1.541898e+000  0.000000e+000
    endloop
  endfacet
  facet normal  0.000000e+000  0.000000e+000 -1.000000e+000
    outer loop
      vertex  7.450000e+000 -2.500000e+000  0.000000e+000
      vertex -3.744833e+000 -1.541898e+000  0.000000e+000
      vertex  4.031768e+000 -1.660751e+000  0.000000e+000
    endloop
  endfacet
  facet normal  0.000000e+000  0.000000e+000 -1.000000e+000
    outer loop
      vertex  7.450000e+000 -2.500000e+000  0.000000e+000
      vertex  4.031768e+000 -1.660751e+000  0.000000e+000
      vertex  5.135167e+000 -1.541898e+000  0.000000e+000
    endloop
  endfacet
  facet normal  0.000000e+000  0.000000e+000 -1.000000e+000
    outer loop
      vertex  7.450000e+000 -2.500000e+000  0.000000e+000
      vertex  5.135167e+000 -1.541898e+000  0.000000e+000
      vertex  5.831347e+000 -6.776359e-001  0.000000e+000
    endloop
  endfacet
  facet normal -3.222878e-017 -2.862612e-017 -1.000000e+000
    outer loop
      vertex  7.450000e+000 -2.500000e+000  0.000000e+000
      vertex  5.831347e+000 -6.776359e-001  0.000000e+000
      vertex  5.712495e+000  4.257634e-001 -2.775558e-017
    endloop
  endfacet
  facet normal  1.597439e-017  0.000000e+000 -1.000000e+000
    outer loop
      vertex  7.450000e+000 -2.500000e+000  0.000000e+000
      vertex  5.712495e+000  4.257634e-001 -2.775558e-017
      vertex  7.450000e+000  2.500000e+000  0.000000e+000
    endloop
  endfacet
  facet normal  0.000000e+000  0.000000e+000 -1.000000e+000
    outer loop
      vertex -7.450000e+000 -2.500000e+000  0.000000e+000
      vertex -7.450000e+000  2.500000e+000  0.000000e+000
      vertex -5.831347e+000  1.388287e-001  0.000000e+000
    endloop
  endfacet
  facet normal -3.488304e-017  2.139719e-017 -1.000000e+000
    outer loop
      vertex -7.450000e+000 -2.500000e+000  0.000000e+000
      vertex -5.831347e+000  1.388287e-001  0.000000e+000
      vertex -5.712495e+000 -9.645706e-001 -2.775558e-017
    endloop
  endfacet
  facet normal  9.182989e-018 -2.846830e-017 -1.000000e+000
    outer loop
      vertex -7.450000e+000 -2.500000e+000  0.000000e+000
      vertex -5.712495e+000 -9.645706e-001 -2.775558e-017
      vertex -4.848232e+000 -1.660751e+000  0.000000e+000
    endloop
  endfacet
  facet normal  0.000000e+000  -0.000000e+000 -1.000000e+000
    outer loop
      vertex -7.450000e+000 -2.500000e+000  0.000000e+000
      vertex -4.848232e+000 -1.660751e+000  0.000000e+000
      vertex -3.744833e+000 -1.541898e+000  0.000000e+000
    endloop
  endfacet
  facet normal  -0.000000e+000  0.000000e+000 -1.000000e+000
    outer loop
      vertex -7.450000e+000  2.500000e+000  0.000000e+000
      vertex  7.450000e+000  2.500000e+000  0.000000e+000
      vertex  4.848232e+000  1.121943e+000  0.000000e+000
    endloop
  endfacet
  facet normal  -0.000000e+000  0.000000e+000 -1.000000e+000
    outer loop
      vertex -7.450000e+000  2.500000e+000  0.000000e+000
      vertex  4.848232e+000  1.121943e+000  0.000000e+000
      vertex  3.744833e+000  1.003091e+000  0.000000e+000
    endloop
  endfacet
  facet normal  0.000000e+000  0.000000e+000 -1.000000e+000
    outer loop
      vertex -7.450000e+000  2.500000e+000  0.000000e+000
      vertex  3.744833e+000  1.003091e+000  0.000000e+000
      vertex -4.031768e+000  1.121943e+000  0.000000e+000
    endloop
  endfacet
  facet normal  -0.000000e+000  0.000000e+000 -1.000000e+000
    outer loop
      vertex -7.450000e+000  2.500000e+000  0.000000e+000
      vertex -4.031768e+000  1.121943e+000  0.000000e+000
      vertex -5.135167e+000  1.003091e+000  0.000000e+000
    endloop
  endfacet
  facet normal  -0.000000e+000  0.000000e+000 -1.000000e+000
    outer loop
      vertex -7.450000e+000  2.500000e+000  0.000000e+000
      vertex -5.135167e+000  1.003091e+000  0.000000e+000
      vertex -5.831347e+000  1.388287e-001  0.000000e+000
    endloop
  endfacet
  facet normal  0.000000e+000  -0.000000e+000 -1.000000e+000
    outer loop
      vertex -3.744833e+000 -1.541898e+000  0.000000e+000
      vertex -3.048653e+000 -6.776359e-001  0.000000e+000
      vertex  4.031768e+000 -1.660751e+000  0.000000e+000
    endloop
  endfacet
  facet normal -6.688661e-018 -4.817193e-017 -1.000000e+000
    outer loop
      vertex  4.031768e+000 -1.660751e+000  0.000000e+000
      vertex -3.048653e+000 -6.776359e-001  0.000000e+000
      vertex  3.167505e+000 -9.645706e-001 -2.775558e-017
    endloop
  endfacet
  facet normal -7.787678e-001  6.273123e-001  0.000000e+000
    outer loop
      vertex -3.744833e+000 -1.541898e+000  0.000000e+000
      vertex -3.048653e+000 -6.776359e-001  1.500000e+000
      vertex -3.048653e+000 -6.776359e-001  0.000000e+000
    endloop
  endfacet
  facet normal -9.942487e-001 -1.070950e-001  0.000000e+000
    outer loop
      vertex -3.048653e+000 -6.776359e-001  0.000000e+000
      vertex -3.048653e+000 -6.776359e-001  1.500000e+000
      vertex -3.167505e+000  4.257634e-001  1.500000e+000
    endloop
  endfacet
  facet normal -9.942487e-001 -1.070950e-001  -0.000000e+000
    outer loop
      vertex -3.048653e+000 -6.776359e-001  0.000000e+000
      vertex -3.167505e+000  4.257634e-001  1.500000e+000
      vertex -3.167505e+000  4.257634e-001 -2.775558e-017
    endloop
  endfacet
  facet normal -7.787678e-001  6.273123e-001  0.000000e+000
    outer loop
      vertex -3.048653e+000 -6.776359e-001  1.500000e+000
      vertex -3.744833e+000 -1.541898e+000  0.000000e+000
      vertex -3.744833e+000 -1.541898e+000  1.500000e+000
    endloop
  endfacet
  facet normal -1.070951e-001  9.942487e-001  0.000000e+000
    outer loop
      vertex -3.744833e+000 -1.541898e+000  1.500000e+000
      vertex -3.744833e+000 -1.541898e+000  0.000000e+000
      vertex -4.848232e+000 -1.660751e+000  0.000000e+000
    endloop
  endfacet
  facet normal -1.070951e-001  9.942487e-001  0.000000e+000
    outer loop
      vertex -3.744833e+000 -1.541898e+000  1.500000e+000
      vertex -4.848232e+000 -1.660751e+000  0.000000e+000
      vertex -4.848232e+000 -1.660751e+000  1.500000e+000
    endloop
  endfacet
  facet normal  6.273123e-001  7.787678e-001  0.000000e+000
    outer loop
      vertex -4.848232e+000 -1.660751e+000  1.500000e+000
      vertex -4.848232e+000 -1.660751e+000  0.000000e+000
      vertex -5.712495e+000 -9.645706e-001 -2.775558e-017
    endloop
  endfacet
  facet normal  6.273123e-001  7.787678e-001  -0.000000e+000
    outer loop
      vertex -4.848232e+000 -1.660751e+000  1.500000e+000
      vertex -5.712495e+000 -9.645706e-001 -2.775558e-017
      vertex -5.712495e+000 -9.645706e-001  1.500000e+000
    endloop
  endfacet
  facet normal  7.787678e-001 -6.273123e-001  0.000000e+000
    outer loop
      vertex -5.135167e+000  1.003091e+000  0.000000e+000
      vertex -5.831347e+000  1.388287e-001  1.500000e+000
      vertex -5.831347e+000  1.388287e-001  0.000000e+000
    endloop
  endfacet
  facet normal  9.942489e-001  1.070950e-001  -0.000000e+000
    outer loop
      vertex -5.831347e+000  1.388287e-001  0.000000e+000
      vertex -5.831347e+000  1.388287e-001  1.500000e+000
      vertex -5.712495e+000 -9.645706e-001  1.500000e+000
    endloop
  endfacet
  facet normal  9.942489e-001  1.070950e-001  0.000000e+000
    outer loop
      vertex -5.831347e+000  1.388287e-001  0.000000e+000
      vertex -5.712495e+000 -9.645706e-001  1.500000e+000
      vertex -5.712495e+000 -9.645706e-001 -2.775558e-017
    endloop
  endfacet
  facet normal  7.787678e-001 -6.273123e-001  0.000000e+000
    outer loop
      vertex -5.831347e+000  1.388287e-001  1.500000e+000
      vertex -5.135167e+000  1.003091e+000  0.000000e+000
      vertex -5.135167e+000  1.003091e+000  1.500000e+000
    endloop
  endfacet
  facet normal  1.070951e-001 -9.942487e-001  0.000000e+000
    outer loop
      vertex -5.135167e+000  1.003091e+000  1.500000e+000
      vertex -5.135167e+000  1.003091e+000  0.000000e+000
      vertex -4.031768e+000  1.121943e+000  0.000000e+000
    endloop
  endfacet
  facet normal  1.070951e-001 -9.942487e-001  0.000000e+000
    outer loop
      vertex -5.135167e+000  1.003091e+000  1.500000e+000
      vertex -4.031768e+000  1.121943e+000  0.000000e+000
      vertex -4.031768e+000  1.121943e+000  1.500000e+000
    endloop
  endfacet
  facet normal -6.273122e-001 -7.787678e-001  -0.000000e+000
    outer loop
      vertex -4.031768e+000  1.121943e+000  1.500000e+000
      vertex -4.031768e+000  1.121943e+000  0.000000e+000
      vertex -3.167505e+000  4.257634e-001 -2.775558e-017
    endloop
  endfacet
  facet normal -6.273122e-001 -7.787678e-001  0.000000e+000
    outer loop
      vertex -4.031768e+000  1.121943e+000  1.500000e+000
      vertex -3.167505e+000  4.257634e-001 -2.775558e-017
      vertex -3.167505e+000  4.257634e-001  1.500000e+000
    endloop
  endfacet
  facet normal  0.000000e+000  -0.000000e+000 -1.000000e+000
    outer loop
      vertex -3.744833e+000 -1.541898e+000  1.500000e+000
      vertex -3.167505e+000  4.257634e-001  1.500000e+000
      vertex -3.048653e+000 -6.776359e-001  1.500000e+000
    endloop
  endfacet
  facet normal  0.000000e+000  0.000000e+000 -1.000000e+000
    outer loop
      vertex -3.167505e+000  4.257634e-001  1.500000e+000
      vertex -3.744833e+000 -1.541898e+000  1.500000e+000
      vertex -4.031768e+000  1.121943e+000  1.500000e+000
    endloop
  endfacet
  facet normal  0.000000e+000  -0.000000e+000 -1.000000e+000
    outer loop
      vertex -4.031768e+000  1.121943e+000  1.500000e+000
      vertex -3.744833e+000 -1.541898e+000  1.500000e+000
      vertex -4.848232e+000 -1.660751e+000  1.500000e+000
    endloop
  endfacet
  facet normal  0.000000e+000  0.000000e+000 -1.000000e+000
    outer loop
      vertex -4.031768e+000  1.121943e+000  1.500000e+000
      vertex -4.848232e+000 -1.660751e+000  1.500000e+000
      vertex -5.135167e+000  1.003091e+000  1.500000e+000
    endloop
  endfacet
  facet normal  0.000000e+000  -0.000000e+000 -1.000000e+000
    outer loop
      vertex -5.135167e+000  1.003091e+000  1.500000e+000
      vertex -4.848232e+000 -1.660751e+000  1.500000e+000
      vertex -5.712495e+000 -9.645706e-001  1.500000e+000
    endloop
  endfacet
  facet normal  0.000000e+000  0.000000e+000 -1.000000e+000
    outer loop
      vertex -5.135167e+000  1.003091e+000  1.500000e+000
      vertex -5.712495e+000 -9.645706e-001  1.500000e+000
      vertex -5.831347e+000  1.388287e-001  1.500000e+000
    endloop
  endfacet
  facet normal  7.787678e-001 -6.273123e-001  0.000000e+000
    outer loop
      vertex  3.744833e+000  1.003091e+000  0.000000e+000
      vertex  3.048653e+000  1.388287e-001  1.500000e+000
      vertex  3.048653e+000  1.388287e-001  0.000000e+000
    endloop
  endfacet
  facet normal  9.942489e-001  1.070950e-001  -0.000000e+000
    outer loop
      vertex  3.048653e+000  1.388287e-001  0.000000e+000
      vertex  3.048653e+000  1.388287e-001  1.500000e+000
      vertex  3.167505e+000 -9.645706e-001  1.500000e+000
    endloop
  endfacet
  facet normal  9.942489e-001  1.070950e-001  0.000000e+000
    outer loop
      vertex  3.048653e+000  1.388287e-001  0.000000e+000
      vertex  3.167505e+000 -9.645706e-001  1.500000e+000
      vertex  3.167505e+000 -9.645706e-001 -2.775558e-017
    endloop
  endfacet
  facet normal  7.787678e-001 -6.273123e-001  0.000000e+000
    outer loop
      vertex  3.048653e+000  1.388287e-001  1.500000e+000
      vertex  3.744833e+000  1.003091e+000  0.000000e+000
      vertex  3.744833e+000  1.003091e+000  1.500000e+000
    endloop
  endfacet
  facet normal  1.070951e-001 -9.942487e-001  0.000000e+000
    outer loop
      vertex  3.744833e+000  1.003091e+000  1.500000e+000
      vertex  3.744833e+000  1.003091e+000  0.000000e+000
      vertex  4.848232e+000  1.121943e+000  0.000000e+000
    endloop
  endfacet
  facet normal  1.070951e-001 -9.942487e-001  0.000000e+000
    outer loop
      vertex  3.744833e+000  1.003091e+000  1.500000e+000
      vertex  4.848232e+000  1.121943e+000  0.000000e+000
      vertex  4.848232e+000  1.121943e+000  1.500000e+000
    endloop
  endfacet
  facet normal -6.273122e-001 -7.787678e-001  -0.000000e+000
    outer loop
      vertex  4.848232e+000  1.121943e+000  1.500000e+000
      vertex  4.848232e+000  1.121943e+000  0.000000e+000
      vertex  5.712495e+000  4.257634e-001 -2.775558e-017
    endloop
  endfacet
  facet normal -6.273122e-001 -7.787678e-001  0.000000e+000
    outer loop
      vertex  4.848232e+000  1.121943e+000  1.500000e+000
      vertex  5.712495e+000  4.257634e-001 -2.775558e-017
      vertex  5.712495e+000  4.257634e-001  1.500000e+000
    endloop
  endfacet
  facet normal -7.787678e-001  6.273123e-001  0.000000e+000
    outer loop
      vertex  5.135167e+000 -1.541898e+000  0.000000e+000
      vertex  5.831347e+000 -6.776359e-001  1.500000e+000
      vertex  5.831347e+000 -6.776359e-001  0.000000e+000
    endloop
  endfacet
  facet normal -9.942487e-001 -1.070950e-001  0.000000e+000
    outer loop
      vertex  5.831347e+000 -6.776359e-001  0.000000e+000
      vertex  5.831347e+000 -6.776359e-001  1.500000e+000
      vertex  5.712495e+000  4.257634e-001  1.500000e+000
    endloop
  endfacet
  facet normal -9.942487e-001 -1.070950e-001  -0.000000e+000
    outer loop
      vertex  5.831347e+000 -6.776359e-001  0.000000e+000
      vertex  5.712495e+000  4.257634e-001  1.500000e+000
      vertex  5.712495e+000  4.257634e-001 -2.775558e-017
    endloop
  endfacet
  facet normal -7.787678e-001  6.273123e-001  0.000000e+000
    outer loop
      vertex  5.831347e+000 -6.776359e-001  1.500000e+000
      vertex  5.135167e+000 -1.541898e+000  0.000000e+000
      vertex  5.135167e+000 -1.541898e+000  1.500000e+000
    endloop
  endfacet
  facet normal -1.070951e-001  9.942487e-001  0.000000e+000
    outer loop
      vertex  5.135167e+000 -1.541898e+000  1.500000e+000
      vertex  5.135167e+000 -1.541898e+000  0.000000e+000
      vertex  4.031768e+000 -1.660751e+000  0.000000e+000
    endloop
  endfacet
  facet normal -1.070951e-001  9.942487e-001  0.000000e+000
    outer loop
      vertex  5.135167e+000 -1.541898e+000  1.500000e+000
      vertex  4.031768e+000 -1.660751e+000  0.000000e+000
      vertex  4.031768e+000 -1.660751e+000  1.500000e+000
    endloop
  endfacet
  facet normal  6.273123e-001  7.787678e-001  0.000000e+000
    outer loop
      vertex  4.031768e+000 -1.660751e+000  1.500000e+000
      vertex  4.031768e+000 -1.660751e+000  0.000000e+000
      vertex  3.167505e+000 -9.645706e-001 -2.775558e-017
    endloop
  endfacet
  facet normal  6.273123e-001  7.787678e-001  -0.000000e+000
    outer loop
      vertex  4.031768e+000 -1.660751e+000  1.500000e+000
      vertex  3.167505e+000 -9.645706e-001 -2.775558e-017
      vertex  3.167505e+000 -9.645706e-001  1.500000e+000
    endloop
  endfacet
  facet normal  0.000000e+000  -0.000000e+000 -1.000000e+000
    outer loop
      vertex  5.135167e+000 -1.541898e+000  1.500000e+000
      vertex  5.712495e+000  4.257634e-001  1.500000e+000
      vertex  5.831347e+000 -6.776359e-001  1.500000e+000
    endloop
  endfacet
  facet normal  0.000000e+000  0.000000e+000 -1.000000e+000
    outer loop
      vertex  5.712495e+000  4.257634e-001  1.500000e+000
      vertex  5.135167e+000 -1.541898e+000  1.500000e+000
      vertex  4.848232e+000  1.121943e+000  1.500000e+000
    endloop
  endfacet
  facet normal  0.000000e+000  -0.000000e+000 -1.000000e+000
    outer loop
      vertex  4.848232e+000  1.121943e+000  1.500000e+000
      vertex  5.135167e+000 -1.541898e+000  1.500000e+000
      vertex  4.031768e+000 -1.660751e+000  1.500000e+000
    endloop
  endfacet
  facet normal  0.000000e+000  0.000000e+000 -1.000000e+000
    outer loop
      vertex  4.848232e+000  1.121943e+000  1.500000e+000
      vertex  4.031768e+000 -1.660751e+000  1.500000e+000
      vertex  3.744833e+000  1.003091e+000  1.500000e+000
    endloop
  endfacet
  facet normal  0.000000e+000  -0.000000e+000 -1.000000e+000
    outer loop
      vertex  3.744833e+000  1.003091e+000  1.500000e+000
      vertex  4.031768e+000 -1.660751e+000  1.500000e+000
      vertex  3.167505e+000 -9.645706e-001  1.500000e+000
    endloop
  endfacet
  facet normal  0.000000e+000  0.000000e+000 -1.000000e+000
    outer loop
      vertex  3.744833e+000  1.003091e+000  1.500000e+000
      vertex  3.167505e+000 -9.645706e-001  1.500000e+000
      vertex  3.048653e+000  1.388287e-001  1.500000e+000
    endloop
  endfacet
  facet normal  0.000000e+000  -0.000000e+000  1.000000e+000
    outer loop
      vertex -5.450000e+000  2.500000e+000  2.000000e+000
      vertex -1.414214e+000  1.414214e+000  2.000000e+000
      vertex  1.224606e-016  2.000000e+000  2.000000e+000
    endloop
  endfacet
  facet normal  -0.000000e+000  0.000000e+000  9.999999e-001
    outer loop
      vertex  5.450000e+000  2.500000e+000  2.000000e+000
      vertex -5.450000e+000  2.500000e+000  2.000000e+000
      vertex  1.224606e-016  2.000000e+000  2.000000e+000
    endloop
  endfacet
  facet normal  -0.000000e+000  0.000000e+000  9.999999e-001
    outer loop
      vertex  5.450000e+000  2.500000e+000  2.000000e+000
      vertex  1.224606e-016  2.000000e+000  2.000000e+000
      vertex  1.414214e+000  1.414214e+000  2.000000e+000
    endloop
  endfacet
  facet normal  -0.000000e+000  0.000000e+000  1.000000e+000
    outer loop
      vertex  5.450000e+000  2.500000e+000  2.000000e+000
      vertex  1.414214e+000  1.414214e+000  2.000000e+000
      vertex  5.450000e+000 -2.500000e+000  2.000000e+000
    endloop
  endfacet
  facet normal  0.000000e+000  0.000000e+000  9.999999e-001
    outer loop
      vertex -5.450000e+000 -2.500000e+000  2.000000e+000
      vertex  5.450000e+000 -2.500000e+000  2.000000e+000
      vertex -3.673819e-016 -2.000000e+000  2.000000e+000
    endloop
  endfacet
  facet normal  0.000000e+000  0.000000e+000  9.999999e-001
    outer loop
      vertex -5.450000e+000 -2.500000e+000  2.000000e+000
      vertex -3.673819e-016 -2.000000e+000  2.000000e+000
      vertex -1.414214e+000 -1.414214e+000  2.000000e+000
    endloop
  endfacet
  facet normal  0.000000e+000  0.000000e+000  1.000000e+000
    outer loop
      vertex -5.450000e+000 -2.500000e+000  2.000000e+000
      vertex -1.414214e+000 -1.414214e+000  2.000000e+000
      vertex -2.000000e+000  2.449213e-016  2.000000e+000
    endloop
  endfacet
  facet normal  0.000000e+000  -0.000000e+000  1.000000e+000
    outer loop
      vertex -5.450000e+000 -2.500000e+000  2.000000e+000
      vertex -2.000000e+000  2.449213e-016  2.000000e+000
      vertex -1.414214e+000  1.414214e+000  2.000000e+000
    endloop
  endfacet
  facet normal  0.000000e+000  0.000000e+000  1.000000e+000
    outer loop
      vertex -5.450000e+000 -2.500000e+000  2.000000e+000
      vertex -1.414214e+000  1.414214e+000  2.000000e+000
      vertex -5.450000e+000  2.500000e+000  2.000000e+000
    endloop
  endfacet
  facet normal  0.000000e+000  0.000000e+000  9.999999e-001
    outer loop
      vertex  5.450000e+000 -2.500000e+000  2.000000e+000
      vertex  1.414214e+000  1.414214e+000  2.000000e+000
      vertex  2.000000e+000  0.000000e+000  2.000000e+000
    endloop
  endfacet
  facet normal  0.000000e+000  0.000000e+000  1.000000e+000
    outer loop
      vertex  5.450000e+000 -2.500000e+000  2.000000e+000
      vertex  2.000000e+000  0.000000e+000  2.000000e+000
      vertex  1.414214e+000 -1.414214e+000  2.000000e+000
    endloop
  endfacet
  facet normal  0.000000e+000  0.000000e+000  1.000000e+000
    outer loop
      vertex  5.450000e+000 -2.500000e+000  2.000000e+000
      vertex  1.414214e+000 -1.414214e+000  2.000000e+000
      vertex -3.673819e-016 -2.000000e+000  2.000000e+000
    endloop
  endfacet
  facet normal  9.238796e-001 -3.826835e-001  0.000000e+000
    outer loop
      vertex  2.000000e+000  0.000000e+000  2.000000e+000
      vertex  2.000000e+000  0.000000e+000  1.300000e+001
      vertex  1.414214e+000 -1.414214e+000  2.000000e+000
    endloop
  endfacet
  facet normal  9.238796e-001 -3.826835e-001  0.000000e+000
    outer loop
      vertex  1.414214e+000 -1.414214e+000  2.000000e+000
      vertex  2.000000e+000  0.000000e+000  1.300000e+001
      vertex  1.414214e+000 -1.414214e+000  1.300000e+001
    endloop
  endfacet
  facet normal  3.826835e-001 -9.238796e-001  0.000000e+000
    outer loop
      vertex  1.414214e+000 -1.414214e+000  2.000000e+000
      vertex  1.414214e+000 -1.414214e+000  1.300000e+001
      vertex -3.673819e-016 -2.000000e+000  2.000000e+000
    endloop
  endfacet
  facet normal  3.826835e-001 -9.238796e-001  0.000000e+000
    outer loop
      vertex -3.673819e-016 -2.000000e+000  2.000000e+000
      vertex  1.414214e+000 -1.414214e+000  1.300000e+001
      vertex -3.673819e-016 -2.000000e+000  1.300000e+001
    endloop
  endfacet
  facet normal -3.826835e-001 -9.238796e-001  -0.000000e+000
    outer loop
      vertex -3.673819e-016 -2.000000e+000  2.000000e+000
      vertex -3.673819e-016 -2.000000e+000  1.300000e+001
      vertex -1.414214e+000 -1.414214e+000  2.000000e+000
    endloop
  endfacet
  facet normal -3.826835e-001 -9.238796e-001  0.000000e+000
    outer loop
      vertex -1.414214e+000 -1.414214e+000  2.000000e+000
      vertex -3.673819e-016 -2.000000e+000  1.300000e+001
      vertex -1.414214e+000 -1.414214e+000  1.300000e+001
    endloop
  endfacet
  facet normal -9.238796e-001 -3.826835e-001  -0.000000e+000
    outer loop
      vertex -1.414214e+000 -1.414214e+000  2.000000e+000
      vertex -1.414214e+000 -1.414214e+000  1.300000e+001
      vertex -2.000000e+000  2.449213e-016  2.000000e+000
    endloop
  endfacet
  facet normal -9.238796e-001 -3.826835e-001  0.000000e+000
    outer loop
      vertex -2.000000e+000  2.449213e-016  2.000000e+000
      vertex -1.414214e+000 -1.414214e+000  1.300000e+001
      vertex -2.000000e+000  2.449213e-016  1.300000e+001
    endloop
  endfacet
  facet normal -9.238796e-001  3.826835e-001  0.000000e+000
    outer loop
      vertex -2.000000e+000  2.449213e-016  2.000000e+000
      vertex -2.000000e+000  2.449213e-016  1.300000e+001
      vertex -1.414214e+000  1.414214e+000  2.000000e+000
    endloop
  endfacet
  facet normal -9.238796e-001  3.826835e-001  0.000000e+000
    outer loop
      vertex -1.414214e+000  1.414214e+000  2.000000e+000
      vertex -2.000000e+000  2.449213e-016  1.300000e+001
      vertex -1.414214e+000  1.414214e+000  1.300000e+001
    endloop
  endfacet
  facet normal -3.826835e-001  9.238796e-001  0.000000e+000
    outer loop
      vertex -1.414214e+000  1.414214e+000  2.000000e+000
      vertex -1.414214e+000  1.414214e+000  1.300000e+001
      vertex  1.224606e-016  2.000000e+000  2.000000e+000
    endloop
  endfacet
  facet normal -3.826835e-001  9.238796e-001  0.000000e+000
    outer loop
      vertex  1.224606e-016  2.000000e+000  2.000000e+000
      vertex -1.414214e+000  1.414214e+000  1.300000e+001
      vertex  1.224606e-016  2.000000e+000  1.300000e+001
    endloop
  endfacet
  facet normal  3.826835e-001  9.238796e-001  0.000000e+000
    outer loop
      vertex  1.224606e-016  2.000000e+000  2.000000e+000
      vertex  1.224606e-016  2.000000e+000  1.300000e+001
      vertex  1.414214e+000  1.414214e+000  2.000000e+000
    endloop
  endfacet
  facet normal  3.826835e-001  9.238796e-001  -0.000000e+000
    outer loop
      vertex  1.414214e+000  1.414214e+000  2.000000e+000
      vertex  1.224606e-016  2.000000e+000  1.300000e+001
      vertex  1.414214e+000  1.414214e+000  1.300000e+001
    endloop
  endfacet
  facet normal  9.238796e-001  3.826835e-001  0.000000e+000
    outer loop
      vertex  1.414214e+000  1.414214e+000  2.000000e+000
      vertex  1.414214e+000  1.414214e+000  1.300000e+001
      vertex  2.000000e+000  0.000000e+000  2.000000e+000
    endloop
  endfacet
  facet normal  9.238796e-001  3.826835e-001  -0.000000e+000
    outer loop
      vertex  2.000000e+000  0.000000e+000  2.000000e+000
      vertex  1.414214e+000  1.414214e+000  1.300000e+001
      vertex  2.000000e+000  0.000000e+000  1.300000e+001
    endloop
  endfacet
  facet normal  0.000000e+000  0.000000e+000  9.999999e-001
    outer loop
      vertex -1.414214e+000  1.414214e+000  1.300000e+001
      vertex  1.414214e+000  1.414214e+000  1.300000e+001
      vertex  1.224606e-016  2.000000e+000  1.300000e+001
    endloop
  endfacet
  facet normal  -0.000000e+000  0.000000e+000  1.000000e+000
    outer loop
      vertex  1.414214e+000  1.414214e+000  1.300000e+001
      vertex -1.414214e+000  1.414214e+000  1.300000e+001
      vertex  2.000000e+000  0.000000e+000  1.300000e+001
    endloop
  endfacet
  facet normal  0.000000e+000  0.000000e+000  9.999999e-001
    outer loop
      vertex  2.000000e+000  0.000000e+000  1.300000e+001
      vertex -1.414214e+000  1.414214e+000  1.300000e+001
      vertex -2.000000e+000  2.449213e-016  1.300000e+001
    endloop
  endfacet
  facet normal  0.000000e+000  0.000000e+000  9.999999e-001
    outer loop
      vertex  2.000000e+000  0.000000e+000  1.300000e+001
      vertex -2.000000e+000  2.449213e-016  1.300000e+001
      vertex  1.414214e+000 -1.414214e+000  1.300000e+001
    endloop
  endfacet
  facet normal  0.000000e+000  0.000000e+000  1.000000e+000
    outer loop
      vertex  1.414214e+000 -1.414214e+000  1.300000e+001
      vertex -2.000000e+000  2.449213e-016  1.300000e+001
      vertex -1.414214e+000 -1.414214e+000  1.300000e+001
    endloop
  endfacet
  facet normal  -0.000000e+000  0.000000e+000  9.999999e-001
    outer loop
      vertex  1.414214e+000 -1.414214e+000  1.300000e+001
      vertex -1.414214e+000 -1.414214e+000  1.300000e+001
      vertex -3.673819e-016 -2.000000e+000  1.300000e+001
    endloop
  endfacet
  facet normal  9.999999e-001  0.000000e+000  0.000000e+000
    outer loop
      vertex  7.450000e+000 -2.500000e+000  0.000000e+000
      vertex  7.450000e+000  2.500000e+000  0.000000e+000
      vertex  7.450000e+000 -2.500000e+000  2.200000e+001
    endloop
  endfacet
  facet normal  9.999999e-001  -0.000000e+000  0.000000e+000
    outer loop
      vertex  7.450000e+000 -2.500000e+000  2.200000e+001
      vertex  7.450000e+000  2.500000e+000  0.000000e+000
      vertex  7.450000e+000  2.500000e+000  2.200000e+001
    endloop
  endfacet
  facet normal -9.999999e-001  0.000000e+000  0.000000e+000
    outer loop
      vertex -7.450000e+000  2.500000e+000  0.000000e+000
      vertex -7.450000e+000 -2.500000e+000  0.000000e+000
      vertex -7.450000e+000  2.500000e+000  2.200000e+001
    endloop
  endfacet
  facet normal -9.999999e-001  -0.000000e+000  0.000000e+000
    outer loop
      vertex -7.450000e+000  2.500000e+000  2.200000e+001
      vertex -7.450000e+000 -2.500000e+000  0.000000e+000
      vertex -7.450000e+000 -2.500000e+000  2.200000e+001
    endloop
  endfacet
  facet normal  1.000000e+000  0.000000e+000  0.000000e+000
    outer loop
      vertex -5.450000e+000 -2.500000e+000  2.000000e+000
      vertex -5.450000e+000  2.500000e+000  2.000000e+000
      vertex -5.450000e+000 -2.500000e+000  1.700000e+001
    endloop
  endfacet
  facet normal  1.000000e+000  -0.000000e+000  0.000000e+000
    outer loop
      vertex -5.450000e+000 -2.500000e+000  1.700000e+001
      vertex -5.450000e+000  2.500000e+000  2.000000e+000
      vertex -5.450000e+000  2.500000e+000  1.700000e+001
    endloop
  endfacet
  facet normal -1.000000e+000  -0.000000e+000  0.000000e+000
    outer loop
      vertex  5.450000e+000 -2.500000e+000  1.700000e+001
      vertex  5.450000e+000  2.500000e+000  1.700000e+001
      vertex  5.450000e+000 -2.500000e+000  2.000000e+000
    endloop
  endfacet
  facet normal -1.000000e+000  0.000000e+000  0.000000e+000
    outer loop
      vertex  5.450000e+000 -2.500000e+000  2.000000e+000
      vertex  5.450000e+000  2.500000e+000  1.700000e+001
      vertex  5.450000e+000  2.500000e+000  2.000000e+000
    endloop
  endfacet
endsolid CATIA STL
