solid CATIA STL
  facet normal  -0.000000e+000  0.000000e+000 -1.000000e+000
    outer loop
      vertex -1.000000e+001 -5.000000e+000 -4.000000e+000
      vertex  1.000000e+001 -5.000000e+000 -4.000000e+000
      vertex  4.082323e-001 -8.608653e+000 -4.000000e+000
    endloop
  endfacet
  facet normal  -0.000000e+000  0.000000e+000 -1.000000e+000
    outer loop
      vertex -1.000000e+001 -5.000000e+000 -4.000000e+000
      vertex  4.082323e-001 -8.608653e+000 -4.000000e+000
      vertex -6.951670e-001 -8.727506e+000 -4.000000e+000
    endloop
  endfacet
  facet normal  -0.000000e+000  0.000000e+000 -1.000000e+000
    outer loop
      vertex -1.000000e+001 -5.000000e+000 -4.000000e+000
      vertex -6.951670e-001 -8.727506e+000 -4.000000e+000
      vertex -1.000000e+001 -1.500000e+001 -4.000000e+000
    endloop
  endfacet
  facet normal  0.000000e+000  0.000000e+000 -1.000000e+000
    outer loop
      vertex -1.000000e+001 -1.500000e+001 -4.000000e+000
      vertex -6.951670e-001 -8.727506e+000 -4.000000e+000
      vertex -1.391347e+000 -9.591767e+000 -4.000000e+000
    endloop
  endfacet
  facet normal  0.000000e+000  -0.000000e+000 -1.000000e+000
    outer loop
      vertex -1.000000e+001 -1.500000e+001 -4.000000e+000
      vertex -1.391347e+000 -9.591767e+000 -4.000000e+000
      vertex -1.272495e+000 -1.069517e+001 -4.000000e+000
    endloop
  endfacet
  facet normal  0.000000e+000  -0.000000e+000 -1.000000e+000
    outer loop
      vertex -1.000000e+001 -1.500000e+001 -4.000000e+000
      vertex -1.272495e+000 -1.069517e+001 -4.000000e+000
      vertex -4.082323e-001 -1.139135e+001 -4.000000e+000
    endloop
  endfacet
  facet normal  0.000000e+000  -0.000000e+000 -1.000000e+000
    outer loop
      vertex -1.000000e+001 -1.500000e+001 -4.000000e+000
      vertex -4.082323e-001 -1.139135e+001 -4.000000e+000
      vertex  6.951670e-001 -1.127249e+001 -4.000000e+000
    endloop
  endfacet
  facet normal  0.000000e+000  -0.000000e+000 -1.000000e+000
    outer loop
      vertex -1.000000e+001 -1.500000e+001 -4.000000e+000
      vertex  6.951670e-001 -1.127249e+001 -4.000000e+000
      vertex  1.000000e+001 -1.500000e+001 -4.000000e+000
    endloop
  endfacet
  facet normal  0.000000e+000  0.000000e+000 -1.000000e+000
    outer loop
      vertex  1.000000e+001 -1.500000e+001 -4.000000e+000
      vertex  6.951670e-001 -1.127249e+001 -4.000000e+000
      vertex  1.391347e+000 -1.040823e+001 -4.000000e+000
    endloop
  endfacet
  facet normal  0.000000e+000  0.000000e+000 -1.000000e+000
    outer loop
      vertex  1.000000e+001 -1.500000e+001 -4.000000e+000
      vertex  1.391347e+000 -1.040823e+001 -4.000000e+000
      vertex  1.272495e+000 -9.304833e+000 -4.000000e+000
    endloop
  endfacet
  facet normal  0.000000e+000  0.000000e+000 -1.000000e+000
    outer loop
      vertex  1.000000e+001 -1.500000e+001 -4.000000e+000
      vertex  1.272495e+000 -9.304833e+000 -4.000000e+000
      vertex  4.082323e-001 -8.608653e+000 -4.000000e+000
    endloop
  endfacet
  facet normal  0.000000e+000  0.000000e+000 -1.000000e+000
    outer loop
      vertex  1.000000e+001 -1.500000e+001 -4.000000e+000
      vertex  4.082323e-001 -8.608653e+000 -4.000000e+000
      vertex  1.000000e+001 -5.000000e+000 -4.000000e+000
    endloop
  endfacet
  facet normal  7.787675e-001 -6.273127e-001  0.000000e+000
    outer loop
      vertex -6.951670e-001 -8.727506e+000 -4.000000e+000
      vertex -1.391347e+000 -9.591767e+000  6.000000e+000
      vertex -1.391347e+000 -9.591767e+000 -4.000000e+000
    endloop
  endfacet
  facet normal  9.942488e-001  1.070952e-001  -0.000000e+000
    outer loop
      vertex -1.391347e+000 -9.591767e+000 -4.000000e+000
      vertex -1.391347e+000 -9.591767e+000  6.000000e+000
      vertex -1.272495e+000 -1.069517e+001  6.000000e+000
    endloop
  endfacet
  facet normal  9.942488e-001  1.070952e-001  0.000000e+000
    outer loop
      vertex -1.391347e+000 -9.591767e+000 -4.000000e+000
      vertex -1.272495e+000 -1.069517e+001  6.000000e+000
      vertex -1.272495e+000 -1.069517e+001 -4.000000e+000
    endloop
  endfacet
  facet normal  7.787675e-001 -6.273127e-001  0.000000e+000
    outer loop
      vertex -1.391347e+000 -9.591767e+000  6.000000e+000
      vertex -6.951670e-001 -8.727506e+000 -4.000000e+000
      vertex -6.951670e-001 -8.727506e+000  6.000000e+000
    endloop
  endfacet
  facet normal  1.070955e-001 -9.942487e-001  0.000000e+000
    outer loop
      vertex -6.951670e-001 -8.727506e+000  6.000000e+000
      vertex -6.951670e-001 -8.727506e+000 -4.000000e+000
      vertex  4.082323e-001 -8.608653e+000 -4.000000e+000
    endloop
  endfacet
  facet normal  1.070955e-001 -9.942487e-001  0.000000e+000
    outer loop
      vertex -6.951670e-001 -8.727506e+000  6.000000e+000
      vertex  4.082323e-001 -8.608653e+000 -4.000000e+000
      vertex  4.082323e-001 -8.608653e+000  6.000000e+000
    endloop
  endfacet
  facet normal -6.273126e-001 -7.787676e-001  -0.000000e+000
    outer loop
      vertex  4.082323e-001 -8.608653e+000  6.000000e+000
      vertex  4.082323e-001 -8.608653e+000 -4.000000e+000
      vertex  1.272495e+000 -9.304833e+000 -4.000000e+000
    endloop
  endfacet
  facet normal -6.273126e-001 -7.787676e-001  0.000000e+000
    outer loop
      vertex  4.082323e-001 -8.608653e+000  6.000000e+000
      vertex  1.272495e+000 -9.304833e+000 -4.000000e+000
      vertex  1.272495e+000 -9.304833e+000  6.000000e+000
    endloop
  endfacet
  facet normal -7.787675e-001  6.273127e-001  0.000000e+000
    outer loop
      vertex  6.951670e-001 -1.127249e+001 -4.000000e+000
      vertex  1.391347e+000 -1.040823e+001  6.000000e+000
      vertex  1.391347e+000 -1.040823e+001 -4.000000e+000
    endloop
  endfacet
  facet normal -9.942488e-001 -1.070952e-001  0.000000e+000
    outer loop
      vertex  1.391347e+000 -1.040823e+001 -4.000000e+000
      vertex  1.391347e+000 -1.040823e+001  6.000000e+000
      vertex  1.272495e+000 -9.304833e+000  6.000000e+000
    endloop
  endfacet
  facet normal -9.942488e-001 -1.070952e-001  -0.000000e+000
    outer loop
      vertex  1.391347e+000 -1.040823e+001 -4.000000e+000
      vertex  1.272495e+000 -9.304833e+000  6.000000e+000
      vertex  1.272495e+000 -9.304833e+000 -4.000000e+000
    endloop
  endfacet
  facet normal -7.787675e-001  6.273127e-001  0.000000e+000
    outer loop
      vertex  1.391347e+000 -1.040823e+001  6.000000e+000
      vertex  6.951670e-001 -1.127249e+001 -4.000000e+000
      vertex  6.951670e-001 -1.127249e+001  6.000000e+000
    endloop
  endfacet
  facet normal -1.070955e-001  9.942487e-001  0.000000e+000
    outer loop
      vertex  6.951670e-001 -1.127249e+001  6.000000e+000
      vertex  6.951670e-001 -1.127249e+001 -4.000000e+000
      vertex -4.082323e-001 -1.139135e+001 -4.000000e+000
    endloop
  endfacet
  facet normal -1.070955e-001  9.942487e-001  0.000000e+000
    outer loop
      vertex  6.951670e-001 -1.127249e+001  6.000000e+000
      vertex -4.082323e-001 -1.139135e+001 -4.000000e+000
      vertex -4.082323e-001 -1.139135e+001  6.000000e+000
    endloop
  endfacet
  facet normal  6.273126e-001  7.787676e-001  0.000000e+000
    outer loop
      vertex -4.082323e-001 -1.139135e+001  6.000000e+000
      vertex -4.082323e-001 -1.139135e+001 -4.000000e+000
      vertex -1.272495e+000 -1.069517e+001 -4.000000e+000
    endloop
  endfacet
  facet normal  6.273126e-001  7.787676e-001  -0.000000e+000
    outer loop
      vertex -4.082323e-001 -1.139135e+001  6.000000e+000
      vertex -1.272495e+000 -1.069517e+001 -4.000000e+000
      vertex -1.272495e+000 -1.069517e+001  6.000000e+000
    endloop
  endfacet
  facet normal  0.000000e+000  0.000000e+000 -1.000000e+000
    outer loop
      vertex  1.272495e+000 -9.304833e+000  6.000000e+000
      vertex -6.951670e-001 -8.727506e+000  6.000000e+000
      vertex  4.082323e-001 -8.608653e+000  6.000000e+000
    endloop
  endfacet
  facet normal  -0.000000e+000  0.000000e+000 -1.000000e+000
    outer loop
      vertex -6.951670e-001 -8.727506e+000  6.000000e+000
      vertex  1.272495e+000 -9.304833e+000  6.000000e+000
      vertex -1.391347e+000 -9.591767e+000  6.000000e+000
    endloop
  endfacet
  facet normal  0.000000e+000  0.000000e+000 -1.000000e+000
    outer loop
      vertex -1.391347e+000 -9.591767e+000  6.000000e+000
      vertex  1.272495e+000 -9.304833e+000  6.000000e+000
      vertex  1.391347e+000 -1.040823e+001  6.000000e+000
    endloop
  endfacet
  facet normal  -0.000000e+000  0.000000e+000 -1.000000e+000
    outer loop
      vertex -1.391347e+000 -9.591767e+000  6.000000e+000
      vertex  1.391347e+000 -1.040823e+001  6.000000e+000
      vertex -1.272495e+000 -1.069517e+001  6.000000e+000
    endloop
  endfacet
  facet normal  0.000000e+000  0.000000e+000 -1.000000e+000
    outer loop
      vertex -1.272495e+000 -1.069517e+001  6.000000e+000
      vertex  1.391347e+000 -1.040823e+001  6.000000e+000
      vertex  6.951670e-001 -1.127249e+001  6.000000e+000
    endloop
  endfacet
  facet normal  -0.000000e+000  0.000000e+000 -1.000000e+000
    outer loop
      vertex -1.272495e+000 -1.069517e+001  6.000000e+000
      vertex  6.951670e-001 -1.127249e+001  6.000000e+000
      vertex -4.082323e-001 -1.139135e+001  6.000000e+000
    endloop
  endfacet
  facet normal  0.000000e+000  0.000000e+000  1.000000e+000
    outer loop
      vertex -1.000000e+001 -1.500000e+001  1.700000e+001
      vertex  1.000000e+001 -1.500000e+001  1.700000e+001
      vertex -1.000000e+001  1.500000e+001  1.700000e+001
    endloop
  endfacet
  facet normal  -0.000000e+000  0.000000e+000  1.000000e+000
    outer loop
      vertex -1.000000e+001  1.500000e+001  1.700000e+001
      vertex  1.000000e+001 -1.500000e+001  1.700000e+001
      vertex  1.000000e+001  1.500000e+001  1.700000e+001
    endloop
  endfacet
  facet normal -1.000000e+000  0.000000e+000  0.000000e+000
    outer loop
      vertex -1.000000e+001  1.500000e+001  1.700000e+001
      vertex -1.000000e+001  1.500000e+001  0.000000e+000
      vertex -1.000000e+001 -1.500000e+001  1.700000e+001
    endloop
  endfacet
  facet normal -1.000000e+000  0.000000e+000  0.000000e+000
    outer loop
      vertex -1.000000e+001 -1.500000e+001  1.700000e+001
      vertex -1.000000e+001  1.500000e+001  0.000000e+000
      vertex -1.000000e+001 -5.000000e+000  0.000000e+000
    endloop
  endfacet
  facet normal -1.000000e+000  -0.000000e+000  0.000000e+000
    outer loop
      vertex -1.000000e+001 -1.500000e+001  1.700000e+001
      vertex -1.000000e+001 -5.000000e+000  0.000000e+000
      vertex -1.000000e+001 -1.500000e+001 -4.000000e+000
    endloop
  endfacet
  facet normal -1.000000e+000  0.000000e+000  0.000000e+000
    outer loop
      vertex -1.000000e+001 -1.500000e+001 -4.000000e+000
      vertex -1.000000e+001 -5.000000e+000  0.000000e+000
      vertex -1.000000e+001 -5.000000e+000 -4.000000e+000
    endloop
  endfacet
  facet normal  1.000000e+000  0.000000e+000  0.000000e+000
    outer loop
      vertex  1.000000e+001 -1.500000e+001 -4.000000e+000
      vertex  1.000000e+001 -5.000000e+000 -4.000000e+000
      vertex  1.000000e+001 -1.500000e+001  1.700000e+001
    endloop
  endfacet
  facet normal  1.000000e+000  0.000000e+000  0.000000e+000
    outer loop
      vertex  1.000000e+001 -1.500000e+001  1.700000e+001
      vertex  1.000000e+001 -5.000000e+000 -4.000000e+000
      vertex  1.000000e+001 -5.000000e+000  0.000000e+000
    endloop
  endfacet
  facet normal  1.000000e+000  0.000000e+000  -0.000000e+000
    outer loop
      vertex  1.000000e+001 -1.500000e+001  1.700000e+001
      vertex  1.000000e+001 -5.000000e+000  0.000000e+000
      vertex  1.000000e+001  1.500000e+001  1.700000e+001
    endloop
  endfacet
  facet normal  1.000000e+000  0.000000e+000  0.000000e+000
    outer loop
      vertex  1.000000e+001  1.500000e+001  1.700000e+001
      vertex  1.000000e+001 -5.000000e+000  0.000000e+000
      vertex  1.000000e+001  1.500000e+001  0.000000e+000
    endloop
  endfacet
  facet normal  0.000000e+000 -1.000000e+000  0.000000e+000
    outer loop
      vertex -1.000000e+001 -1.500000e+001 -4.000000e+000
      vertex  1.000000e+001 -1.500000e+001 -4.000000e+000
      vertex -1.000000e+001 -1.500000e+001  1.700000e+001
    endloop
  endfacet
  facet normal  0.000000e+000 -1.000000e+000  0.000000e+000
    outer loop
      vertex -1.000000e+001 -1.500000e+001  1.700000e+001
      vertex  1.000000e+001 -1.500000e+001 -4.000000e+000
      vertex  1.000000e+001 -1.500000e+001  1.700000e+001
    endloop
  endfacet
  facet normal  0.000000e+000  1.000000e+000  0.000000e+000
    outer loop
      vertex -1.000000e+001 -5.000000e+000 -4.000000e+000
      vertex -1.000000e+001 -5.000000e+000  0.000000e+000
      vertex  1.000000e+001 -5.000000e+000 -4.000000e+000
    endloop
  endfacet
  facet normal  0.000000e+000  1.000000e+000  -0.000000e+000
    outer loop
      vertex  1.000000e+001 -5.000000e+000 -4.000000e+000
      vertex -1.000000e+001 -5.000000e+000  0.000000e+000
      vertex  1.000000e+001 -5.000000e+000  0.000000e+000
    endloop
  endfacet
  facet normal  0.000000e+000  0.000000e+000 -1.000000e+000
    outer loop
      vertex -1.000000e+001 -5.000000e+000  0.000000e+000
      vertex -1.000000e+001  1.500000e+001  0.000000e+000
      vertex  1.000000e+001 -5.000000e+000  0.000000e+000
    endloop
  endfacet
  facet normal  0.000000e+000  0.000000e+000 -1.000000e+000
    outer loop
      vertex  1.000000e+001 -5.000000e+000  0.000000e+000
      vertex -1.000000e+001  1.500000e+001  0.000000e+000
      vertex  1.000000e+001  1.500000e+001  0.000000e+000
    endloop
  endfacet
  facet normal  0.000000e+000  1.000000e+000  -0.000000e+000
    outer loop
      vertex  1.000000e+001  1.500000e+001  1.700000e+001
      vertex  1.000000e+001  1.500000e+001  0.000000e+000
      vertex -1.000000e+001  1.500000e+001  1.700000e+001
    endloop
  endfacet
  facet normal  0.000000e+000  1.000000e+000  0.000000e+000
    outer loop
      vertex -1.000000e+001  1.500000e+001  1.700000e+001
      vertex  1.000000e+001  1.500000e+001  0.000000e+000
      vertex -1.000000e+001  1.500000e+001  0.000000e+000
    endloop
  endfacet
endsolid CATIA STL
