solid CATIA STL
  facet normal  0.000000e+000  1.000000e+000  0.000000e+000
    outer loop
      vertex  3.000000e+001  2.500000e+001  3.000000e+000
      vertex -3.000000e+001  2.500000e+001  3.000000e+000
      vertex  3.000000e+001  2.500000e+001  1.000000e+001
    endloop
  endfacet
  facet normal  0.000000e+000  1.000000e+000  0.000000e+000
    outer loop
      vertex  3.000000e+001  2.500000e+001  1.000000e+001
      vertex -3.000000e+001  2.500000e+001  3.000000e+000
      vertex -3.000000e+001  2.500000e+001  1.000000e+001
    endloop
  endfacet
  facet normal  1.000000e+000  0.000000e+000  0.000000e+000
    outer loop
      vertex  3.000000e+001  1.800000e+001 -4.000000e+000
      vertex  3.000000e+001  2.067878e+001 -3.467157e+000
      vertex  3.000000e+001  1.822328e+001  6.084108e+000
    endloop
  endfacet
  facet normal  1.000000e+000  0.000000e+000  0.000000e+000
    outer loop
      vertex  3.000000e+001  1.800000e+001 -4.000000e+000
      vertex  3.000000e+001  1.822328e+001  6.084108e+000
      vertex  3.000000e+001  1.736323e+001  4.268940e+000
    endloop
  endfacet
  facet normal  1.000000e+000  0.000000e+000  0.000000e+000
    outer loop
      vertex  3.000000e+001  1.800000e+001 -4.000000e+000
      vertex  3.000000e+001  1.736323e+001  4.268940e+000
      vertex  3.000000e+001  4.200000e+000 -4.000000e+000
    endloop
  endfacet
  facet normal  1.000000e+000  -0.000000e+000  -0.000000e+000
    outer loop
      vertex  3.000000e+001  1.785214e+001  8.058133e+000
      vertex  3.000000e+001  1.822328e+001  6.084108e+000
      vertex  3.000000e+001  2.500000e+001  3.000000e+000
    endloop
  endfacet
  facet normal  1.000000e+000  0.000000e+000  -0.000000e+000
    outer loop
      vertex  3.000000e+001  1.785214e+001  8.058133e+000
      vertex  3.000000e+001  2.500000e+001  3.000000e+000
      vertex  3.000000e+001  2.500000e+001  1.000000e+001
    endloop
  endfacet
  facet normal  1.000000e+000  0.000000e+000  0.000000e+000
    outer loop
      vertex  3.000000e+001  1.785214e+001  8.058133e+000
      vertex  3.000000e+001  2.500000e+001  1.000000e+001
      vertex  3.000000e+001  2.446716e+001  1.267878e+001
    endloop
  endfacet
  facet normal  1.000000e+000  0.000000e+000  0.000000e+000
    outer loop
      vertex  3.000000e+001  1.785214e+001  8.058133e+000
      vertex  3.000000e+001  2.446716e+001  1.267878e+001
      vertex  3.000000e+001  2.294975e+001  1.494975e+001
    endloop
  endfacet
  facet normal  1.000000e+000  0.000000e+000  0.000000e+000
    outer loop
      vertex  3.000000e+001  1.785214e+001  8.058133e+000
      vertex  3.000000e+001  2.294975e+001  1.494975e+001
      vertex  3.000000e+001  2.067878e+001  1.646716e+001
    endloop
  endfacet
  facet normal  1.000000e+000  0.000000e+000  0.000000e+000
    outer loop
      vertex  3.000000e+001  1.785214e+001  8.058133e+000
      vertex  3.000000e+001  2.067878e+001  1.646716e+001
      vertex  3.000000e+001  1.800000e+001  1.700000e+001
    endloop
  endfacet
  facet normal  1.000000e+000  0.000000e+000  0.000000e+000
    outer loop
      vertex  3.000000e+001  1.785214e+001  8.058133e+000
      vertex  3.000000e+001  1.800000e+001  1.700000e+001
      vertex  3.000000e+001  1.639158e+001  9.437004e+000
    endloop
  endfacet
  facet normal  1.000000e+000  0.000000e+000  -0.000000e+000
    outer loop
      vertex  3.000000e+001  1.822328e+001  6.084108e+000
      vertex  3.000000e+001  2.067878e+001 -3.467157e+000
      vertex  3.000000e+001  2.294975e+001 -1.949747e+000
    endloop
  endfacet
  facet normal  1.000000e+000  0.000000e+000  -0.000000e+000
    outer loop
      vertex  3.000000e+001  1.822328e+001  6.084108e+000
      vertex  3.000000e+001  2.294975e+001 -1.949747e+000
      vertex  3.000000e+001  2.446716e+001  3.212160e-001
    endloop
  endfacet
  facet normal  1.000000e+000  0.000000e+000  -0.000000e+000
    outer loop
      vertex  3.000000e+001  1.822328e+001  6.084108e+000
      vertex  3.000000e+001  2.446716e+001  3.212160e-001
      vertex  3.000000e+001  2.500000e+001  3.000000e+000
    endloop
  endfacet
  facet normal  1.000000e+000  0.000000e+000  0.000000e+000
    outer loop
      vertex  3.000000e+001  4.200000e+000 -4.000000e+000
      vertex  3.000000e+001  1.736323e+001  4.268940e+000
      vertex  3.000000e+001  1.560051e+001  3.305961e+000
    endloop
  endfacet
  facet normal  1.000000e+000  0.000000e+000  0.000000e+000
    outer loop
      vertex  3.000000e+001  4.200000e+000 -4.000000e+000
      vertex  3.000000e+001  1.560051e+001  3.305961e+000
      vertex  3.000000e+001  1.360842e+001  3.562996e+000
    endloop
  endfacet
  facet normal  1.000000e+000  0.000000e+000  0.000000e+000
    outer loop
      vertex  3.000000e+001  4.200000e+000 -4.000000e+000
      vertex  3.000000e+001  1.360842e+001  3.562996e+000
      vertex  3.000000e+001  1.214786e+001  4.941867e+000
    endloop
  endfacet
  facet normal  1.000000e+000  0.000000e+000  0.000000e+000
    outer loop
      vertex  3.000000e+001  4.200000e+000 -4.000000e+000
      vertex  3.000000e+001  1.214786e+001  4.941867e+000
      vertex  3.000000e+001  4.200000e+000  0.000000e+000
    endloop
  endfacet
  facet normal  1.000000e+000  0.000000e+000  0.000000e+000
    outer loop
      vertex  3.000000e+001 -1.500000e+001  1.700000e+001
      vertex  3.000000e+001 -1.500000e+001  0.000000e+000
      vertex  3.000000e+001  1.177672e+001  6.915892e+000
    endloop
  endfacet
  facet normal  1.000000e+000  0.000000e+000  -0.000000e+000
    outer loop
      vertex  3.000000e+001 -1.500000e+001  1.700000e+001
      vertex  3.000000e+001  1.177672e+001  6.915892e+000
      vertex  3.000000e+001  1.263677e+001  8.731060e+000
    endloop
  endfacet
  facet normal  1.000000e+000  0.000000e+000  -0.000000e+000
    outer loop
      vertex  3.000000e+001 -1.500000e+001  1.700000e+001
      vertex  3.000000e+001  1.263677e+001  8.731060e+000
      vertex  3.000000e+001  1.439949e+001  9.694039e+000
    endloop
  endfacet
  facet normal  1.000000e+000  -0.000000e+000  -0.000000e+000
    outer loop
      vertex  3.000000e+001 -1.500000e+001  1.700000e+001
      vertex  3.000000e+001  1.439949e+001  9.694039e+000
      vertex  3.000000e+001  1.639158e+001  9.437004e+000
    endloop
  endfacet
  facet normal  9.999999e-001  0.000000e+000  -0.000000e+000
    outer loop
      vertex  3.000000e+001 -1.500000e+001  1.700000e+001
      vertex  3.000000e+001  1.639158e+001  9.437004e+000
      vertex  3.000000e+001  1.800000e+001  1.700000e+001
    endloop
  endfacet
  facet normal  1.000000e+000  0.000000e+000  -0.000000e+000
    outer loop
      vertex  3.000000e+001 -1.500000e+001  0.000000e+000
      vertex  3.000000e+001  4.200000e+000  0.000000e+000
      vertex  3.000000e+001  1.177672e+001  6.915892e+000
    endloop
  endfacet
  facet normal  1.000000e+000  0.000000e+000  0.000000e+000
    outer loop
      vertex  3.000000e+001  1.177672e+001  6.915892e+000
      vertex  3.000000e+001  4.200000e+000  0.000000e+000
      vertex  3.000000e+001  1.214786e+001  4.941867e+000
    endloop
  endfacet
  facet normal -1.000000e+000  0.000000e+000  0.000000e+000
    outer loop
      vertex -3.000000e+001  1.800000e+001 -4.000000e+000
      vertex -3.000000e+001  1.214786e+001  4.941867e+000
      vertex -3.000000e+001  1.360842e+001  3.562996e+000
    endloop
  endfacet
  facet normal -1.000000e+000  0.000000e+000  0.000000e+000
    outer loop
      vertex -3.000000e+001  1.800000e+001 -4.000000e+000
      vertex -3.000000e+001  1.360842e+001  3.562996e+000
      vertex -3.000000e+001  1.560051e+001  3.305961e+000
    endloop
  endfacet
  facet normal -9.999999e-001  0.000000e+000  0.000000e+000
    outer loop
      vertex -3.000000e+001  1.800000e+001 -4.000000e+000
      vertex -3.000000e+001  1.560051e+001  3.305961e+000
      vertex -3.000000e+001  1.736323e+001  4.268940e+000
    endloop
  endfacet
  facet normal -1.000000e+000  0.000000e+000  0.000000e+000
    outer loop
      vertex -3.000000e+001  1.800000e+001 -4.000000e+000
      vertex -3.000000e+001  1.736323e+001  4.268940e+000
      vertex -3.000000e+001  1.822328e+001  6.084108e+000
    endloop
  endfacet
  facet normal -1.000000e+000  0.000000e+000  -0.000000e+000
    outer loop
      vertex -3.000000e+001  1.800000e+001 -4.000000e+000
      vertex -3.000000e+001  1.822328e+001  6.084108e+000
      vertex -3.000000e+001  2.067878e+001 -3.467157e+000
    endloop
  endfacet
  facet normal -1.000000e+000  0.000000e+000  0.000000e+000
    outer loop
      vertex -3.000000e+001 -1.500000e+001  0.000000e+000
      vertex -3.000000e+001 -1.500000e+001  1.700000e+001
      vertex -3.000000e+001  1.800000e+001  1.700000e+001
    endloop
  endfacet
  facet normal -1.000000e+000  0.000000e+000  0.000000e+000
    outer loop
      vertex -3.000000e+001 -1.500000e+001  0.000000e+000
      vertex -3.000000e+001  1.800000e+001  1.700000e+001
      vertex -3.000000e+001  1.263677e+001  8.731060e+000
    endloop
  endfacet
  facet normal -1.000000e+000  0.000000e+000  0.000000e+000
    outer loop
      vertex -3.000000e+001 -1.500000e+001  0.000000e+000
      vertex -3.000000e+001  1.263677e+001  8.731060e+000
      vertex -3.000000e+001  1.177672e+001  6.915892e+000
    endloop
  endfacet
  facet normal -1.000000e+000  0.000000e+000  -0.000000e+000
    outer loop
      vertex -3.000000e+001 -1.500000e+001  0.000000e+000
      vertex -3.000000e+001  1.177672e+001  6.915892e+000
      vertex -3.000000e+001  1.214786e+001  4.941867e+000
    endloop
  endfacet
  facet normal -1.000000e+000  0.000000e+000  0.000000e+000
    outer loop
      vertex -3.000000e+001 -1.500000e+001  0.000000e+000
      vertex -3.000000e+001  1.214786e+001  4.941867e+000
      vertex -3.000000e+001  4.200000e+000  0.000000e+000
    endloop
  endfacet
  facet normal -1.000000e+000  0.000000e+000  -0.000000e+000
    outer loop
      vertex -3.000000e+001  1.785214e+001  8.058133e+000
      vertex -3.000000e+001  1.800000e+001  1.700000e+001
      vertex -3.000000e+001  2.067878e+001  1.646716e+001
    endloop
  endfacet
  facet normal -1.000000e+000  0.000000e+000  -0.000000e+000
    outer loop
      vertex -3.000000e+001  1.785214e+001  8.058133e+000
      vertex -3.000000e+001  2.067878e+001  1.646716e+001
      vertex -3.000000e+001  2.294975e+001  1.494975e+001
    endloop
  endfacet
  facet normal -1.000000e+000  0.000000e+000  -0.000000e+000
    outer loop
      vertex -3.000000e+001  1.785214e+001  8.058133e+000
      vertex -3.000000e+001  2.294975e+001  1.494975e+001
      vertex -3.000000e+001  2.446716e+001  1.267878e+001
    endloop
  endfacet
  facet normal -1.000000e+000  0.000000e+000  -0.000000e+000
    outer loop
      vertex -3.000000e+001  1.785214e+001  8.058133e+000
      vertex -3.000000e+001  2.446716e+001  1.267878e+001
      vertex -3.000000e+001  2.500000e+001  1.000000e+001
    endloop
  endfacet
  facet normal -1.000000e+000  0.000000e+000  -0.000000e+000
    outer loop
      vertex -3.000000e+001  1.785214e+001  8.058133e+000
      vertex -3.000000e+001  2.500000e+001  1.000000e+001
      vertex -3.000000e+001  2.500000e+001  3.000000e+000
    endloop
  endfacet
  facet normal -1.000000e+000  0.000000e+000  0.000000e+000
    outer loop
      vertex -3.000000e+001  1.785214e+001  8.058133e+000
      vertex -3.000000e+001  2.500000e+001  3.000000e+000
      vertex -3.000000e+001  1.822328e+001  6.084108e+000
    endloop
  endfacet
  facet normal -1.000000e+000  0.000000e+000  0.000000e+000
    outer loop
      vertex -3.000000e+001  1.800000e+001  1.700000e+001
      vertex -3.000000e+001  1.785214e+001  8.058133e+000
      vertex -3.000000e+001  1.639158e+001  9.437004e+000
    endloop
  endfacet
  facet normal -1.000000e+000  0.000000e+000  0.000000e+000
    outer loop
      vertex -3.000000e+001  1.800000e+001  1.700000e+001
      vertex -3.000000e+001  1.639158e+001  9.437004e+000
      vertex -3.000000e+001  1.439949e+001  9.694039e+000
    endloop
  endfacet
  facet normal -1.000000e+000  -0.000000e+000  0.000000e+000
    outer loop
      vertex -3.000000e+001  1.800000e+001  1.700000e+001
      vertex -3.000000e+001  1.439949e+001  9.694039e+000
      vertex -3.000000e+001  1.263677e+001  8.731060e+000
    endloop
  endfacet
  facet normal -1.000000e+000  0.000000e+000  0.000000e+000
    outer loop
      vertex -3.000000e+001  1.800000e+001 -4.000000e+000
      vertex -3.000000e+001  4.200000e+000 -4.000000e+000
      vertex -3.000000e+001  1.214786e+001  4.941867e+000
    endloop
  endfacet
  facet normal -1.000000e+000  0.000000e+000  0.000000e+000
    outer loop
      vertex -3.000000e+001  1.214786e+001  4.941867e+000
      vertex -3.000000e+001  4.200000e+000 -4.000000e+000
      vertex -3.000000e+001  4.200000e+000  0.000000e+000
    endloop
  endfacet
  facet normal -1.000000e+000  -0.000000e+000  0.000000e+000
    outer loop
      vertex -3.000000e+001  1.822328e+001  6.084108e+000
      vertex -3.000000e+001  2.500000e+001  3.000000e+000
      vertex -3.000000e+001  2.067878e+001 -3.467157e+000
    endloop
  endfacet
  facet normal -1.000000e+000  0.000000e+000  0.000000e+000
    outer loop
      vertex -3.000000e+001  2.067878e+001 -3.467157e+000
      vertex -3.000000e+001  2.500000e+001  3.000000e+000
      vertex -3.000000e+001  2.446716e+001  3.212160e-001
    endloop
  endfacet
  facet normal -1.000000e+000  0.000000e+000  0.000000e+000
    outer loop
      vertex -3.000000e+001  2.067878e+001 -3.467157e+000
      vertex -3.000000e+001  2.446716e+001  3.212160e-001
      vertex -3.000000e+001  2.294975e+001 -1.949747e+000
    endloop
  endfacet
  facet normal  -0.000000e+000  0.000000e+000 -1.000000e+000
    outer loop
      vertex -3.000000e+001  1.800000e+001 -4.000000e+000
      vertex  3.000000e+001  1.800000e+001 -4.000000e+000
      vertex -3.000000e+001  4.200000e+000 -4.000000e+000
    endloop
  endfacet
  facet normal  0.000000e+000  0.000000e+000 -1.000000e+000
    outer loop
      vertex -3.000000e+001  4.200000e+000 -4.000000e+000
      vertex  3.000000e+001  1.800000e+001 -4.000000e+000
      vertex  3.000000e+001  4.200000e+000 -4.000000e+000
    endloop
  endfacet
  facet normal  0.000000e+000  9.807853e-001 -1.950901e-001
    outer loop
      vertex -3.000000e+001  2.500000e+001  3.000000e+000
      vertex  3.000000e+001  2.500000e+001  3.000000e+000
      vertex -3.000000e+001  2.446716e+001  3.212160e-001
    endloop
  endfacet
  facet normal  0.000000e+000  9.807853e-001 -1.950901e-001
    outer loop
      vertex -3.000000e+001  2.446716e+001  3.212160e-001
      vertex  3.000000e+001  2.500000e+001  3.000000e+000
      vertex  3.000000e+001  2.446716e+001  3.212160e-001
    endloop
  endfacet
  facet normal  0.000000e+000  8.314694e-001 -5.555704e-001
    outer loop
      vertex -3.000000e+001  2.446716e+001  3.212160e-001
      vertex  3.000000e+001  2.446716e+001  3.212160e-001
      vertex -3.000000e+001  2.294975e+001 -1.949747e+000
    endloop
  endfacet
  facet normal  0.000000e+000  8.314694e-001 -5.555704e-001
    outer loop
      vertex -3.000000e+001  2.294975e+001 -1.949747e+000
      vertex  3.000000e+001  2.446716e+001  3.212160e-001
      vertex  3.000000e+001  2.294975e+001 -1.949747e+000
    endloop
  endfacet
  facet normal  0.000000e+000  5.555702e-001 -8.314697e-001
    outer loop
      vertex -3.000000e+001  2.294975e+001 -1.949747e+000
      vertex  3.000000e+001  2.294975e+001 -1.949747e+000
      vertex -3.000000e+001  2.067878e+001 -3.467157e+000
    endloop
  endfacet
  facet normal  0.000000e+000  5.555702e-001 -8.314697e-001
    outer loop
      vertex -3.000000e+001  2.067878e+001 -3.467157e+000
      vertex  3.000000e+001  2.294975e+001 -1.949747e+000
      vertex  3.000000e+001  2.067878e+001 -3.467157e+000
    endloop
  endfacet
  facet normal  0.000000e+000  1.950904e-001 -9.807852e-001
    outer loop
      vertex -3.000000e+001  2.067878e+001 -3.467157e+000
      vertex  3.000000e+001  2.067878e+001 -3.467157e+000
      vertex -3.000000e+001  1.800000e+001 -4.000000e+000
    endloop
  endfacet
  facet normal  0.000000e+000  1.950904e-001 -9.807852e-001
    outer loop
      vertex -3.000000e+001  1.800000e+001 -4.000000e+000
      vertex  3.000000e+001  2.067878e+001 -3.467157e+000
      vertex  3.000000e+001  1.800000e+001 -4.000000e+000
    endloop
  endfacet
  facet normal  0.000000e+000  0.000000e+000  1.000000e+000
    outer loop
      vertex -3.000000e+001 -1.500000e+001  1.700000e+001
      vertex  3.000000e+001 -1.500000e+001  1.700000e+001
      vertex -3.000000e+001  1.800000e+001  1.700000e+001
    endloop
  endfacet
  facet normal  -0.000000e+000  0.000000e+000  1.000000e+000
    outer loop
      vertex -3.000000e+001  1.800000e+001  1.700000e+001
      vertex  3.000000e+001 -1.500000e+001  1.700000e+001
      vertex  3.000000e+001  1.800000e+001  1.700000e+001
    endloop
  endfacet
  facet normal  -0.000000e+000  9.807854e-001  1.950901e-001
    outer loop
      vertex  3.000000e+001  2.500000e+001  1.000000e+001
      vertex -3.000000e+001  2.500000e+001  1.000000e+001
      vertex  3.000000e+001  2.446716e+001  1.267878e+001
    endloop
  endfacet
  facet normal  0.000000e+000  9.807854e-001  1.950901e-001
    outer loop
      vertex  3.000000e+001  2.446716e+001  1.267878e+001
      vertex -3.000000e+001  2.500000e+001  1.000000e+001
      vertex -3.000000e+001  2.446716e+001  1.267878e+001
    endloop
  endfacet
  facet normal  -0.000000e+000  8.314694e-001  5.555706e-001
    outer loop
      vertex  3.000000e+001  2.446716e+001  1.267878e+001
      vertex -3.000000e+001  2.446716e+001  1.267878e+001
      vertex  3.000000e+001  2.294975e+001  1.494975e+001
    endloop
  endfacet
  facet normal  0.000000e+000  8.314694e-001  5.555706e-001
    outer loop
      vertex  3.000000e+001  2.294975e+001  1.494975e+001
      vertex -3.000000e+001  2.446716e+001  1.267878e+001
      vertex -3.000000e+001  2.294975e+001  1.494975e+001
    endloop
  endfacet
  facet normal  -0.000000e+000  5.555704e-001  8.314694e-001
    outer loop
      vertex  3.000000e+001  2.294975e+001  1.494975e+001
      vertex -3.000000e+001  2.294975e+001  1.494975e+001
      vertex  3.000000e+001  2.067878e+001  1.646716e+001
    endloop
  endfacet
  facet normal  0.000000e+000  5.555704e-001  8.314694e-001
    outer loop
      vertex  3.000000e+001  2.067878e+001  1.646716e+001
      vertex -3.000000e+001  2.294975e+001  1.494975e+001
      vertex -3.000000e+001  2.067878e+001  1.646716e+001
    endloop
  endfacet
  facet normal  -0.000000e+000  1.950901e-001  9.807854e-001
    outer loop
      vertex  3.000000e+001  2.067878e+001  1.646716e+001
      vertex -3.000000e+001  2.067878e+001  1.646716e+001
      vertex  3.000000e+001  1.800000e+001  1.700000e+001
    endloop
  endfacet
  facet normal  0.000000e+000  1.950901e-001  9.807854e-001
    outer loop
      vertex  3.000000e+001  1.800000e+001  1.700000e+001
      vertex -3.000000e+001  2.067878e+001  1.646716e+001
      vertex -3.000000e+001  1.800000e+001  1.700000e+001
    endloop
  endfacet
  facet normal  0.000000e+000  9.036936e-001 -4.281798e-001
    outer loop
      vertex -3.000000e+001  1.263677e+001  8.731060e+000
      vertex  3.000000e+001  1.177672e+001  6.915892e+000
      vertex -3.000000e+001  1.177672e+001  6.915892e+000
    endloop
  endfacet
  facet normal  -0.000000e+000  9.827812e-001  1.847728e-001
    outer loop
      vertex -3.000000e+001  1.177672e+001  6.915892e+000
      vertex  3.000000e+001  1.177672e+001  6.915892e+000
      vertex  3.000000e+001  1.214786e+001  4.941867e+000
    endloop
  endfacet
  facet normal  0.000000e+000  9.827812e-001  1.847728e-001
    outer loop
      vertex -3.000000e+001  1.177672e+001  6.915892e+000
      vertex  3.000000e+001  1.214786e+001  4.941867e+000
      vertex -3.000000e+001  1.214786e+001  4.941867e+000
    endloop
  endfacet
  facet normal  0.000000e+000  9.036936e-001 -4.281798e-001
    outer loop
      vertex  3.000000e+001  1.177672e+001  6.915892e+000
      vertex -3.000000e+001  1.263677e+001  8.731060e+000
      vertex  3.000000e+001  1.263677e+001  8.731060e+000
    endloop
  endfacet
  facet normal  0.000000e+000  4.794255e-001 -8.775826e-001
    outer loop
      vertex  3.000000e+001  1.263677e+001  8.731060e+000
      vertex -3.000000e+001  1.263677e+001  8.731060e+000
      vertex -3.000000e+001  1.439949e+001  9.694039e+000
    endloop
  endfacet
  facet normal  0.000000e+000  4.794255e-001 -8.775826e-001
    outer loop
      vertex  3.000000e+001  1.263677e+001  8.731060e+000
      vertex -3.000000e+001  1.439949e+001  9.694039e+000
      vertex  3.000000e+001  1.439949e+001  9.694039e+000
    endloop
  endfacet
  facet normal  -0.000000e+000 -1.279667e-001 -9.917784e-001
    outer loop
      vertex  3.000000e+001  1.439949e+001  9.694039e+000
      vertex -3.000000e+001  1.439949e+001  9.694039e+000
      vertex -3.000000e+001  1.639158e+001  9.437004e+000
    endloop
  endfacet
  facet normal  0.000000e+000 -1.279667e-001 -9.917784e-001
    outer loop
      vertex  3.000000e+001  1.439949e+001  9.694039e+000
      vertex -3.000000e+001  1.639158e+001  9.437004e+000
      vertex  3.000000e+001  1.639158e+001  9.437004e+000
    endloop
  endfacet
  facet normal  -0.000000e+000 -6.864796e-001 -7.271490e-001
    outer loop
      vertex  3.000000e+001  1.639158e+001  9.437004e+000
      vertex -3.000000e+001  1.639158e+001  9.437004e+000
      vertex -3.000000e+001  1.785214e+001  8.058133e+000
    endloop
  endfacet
  facet normal  0.000000e+000 -6.864796e-001 -7.271490e-001
    outer loop
      vertex  3.000000e+001  1.639158e+001  9.437004e+000
      vertex -3.000000e+001  1.785214e+001  8.058133e+000
      vertex  3.000000e+001  1.785214e+001  8.058133e+000
    endloop
  endfacet
  facet normal  0.000000e+000 -9.036936e-001  4.281798e-001
    outer loop
      vertex -3.000000e+001  1.736323e+001  4.268940e+000
      vertex  3.000000e+001  1.822328e+001  6.084108e+000
      vertex -3.000000e+001  1.822328e+001  6.084108e+000
    endloop
  endfacet
  facet normal  0.000000e+000 -9.827814e-001 -1.847724e-001
    outer loop
      vertex -3.000000e+001  1.822328e+001  6.084108e+000
      vertex  3.000000e+001  1.822328e+001  6.084108e+000
      vertex  3.000000e+001  1.785214e+001  8.058133e+000
    endloop
  endfacet
  facet normal  -0.000000e+000 -9.827814e-001 -1.847724e-001
    outer loop
      vertex -3.000000e+001  1.822328e+001  6.084108e+000
      vertex  3.000000e+001  1.785214e+001  8.058133e+000
      vertex -3.000000e+001  1.785214e+001  8.058133e+000
    endloop
  endfacet
  facet normal  0.000000e+000 -9.036936e-001  4.281798e-001
    outer loop
      vertex  3.000000e+001  1.822328e+001  6.084108e+000
      vertex -3.000000e+001  1.736323e+001  4.268940e+000
      vertex  3.000000e+001  1.736323e+001  4.268940e+000
    endloop
  endfacet
  facet normal  0.000000e+000 -4.794254e-001  8.775826e-001
    outer loop
      vertex  3.000000e+001  1.736323e+001  4.268940e+000
      vertex -3.000000e+001  1.736323e+001  4.268940e+000
      vertex -3.000000e+001  1.560051e+001  3.305961e+000
    endloop
  endfacet
  facet normal  0.000000e+000 -4.794254e-001  8.775826e-001
    outer loop
      vertex  3.000000e+001  1.736323e+001  4.268940e+000
      vertex -3.000000e+001  1.560051e+001  3.305961e+000
      vertex  3.000000e+001  1.560051e+001  3.305961e+000
    endloop
  endfacet
  facet normal  0.000000e+000  1.279667e-001  9.917784e-001
    outer loop
      vertex  3.000000e+001  1.560051e+001  3.305961e+000
      vertex -3.000000e+001  1.560051e+001  3.305961e+000
      vertex -3.000000e+001  1.360842e+001  3.562996e+000
    endloop
  endfacet
  facet normal  -0.000000e+000  1.279667e-001  9.917784e-001
    outer loop
      vertex  3.000000e+001  1.560051e+001  3.305961e+000
      vertex -3.000000e+001  1.360842e+001  3.562996e+000
      vertex  3.000000e+001  1.360842e+001  3.562996e+000
    endloop
  endfacet
  facet normal  0.000000e+000  6.864799e-001  7.271488e-001
    outer loop
      vertex  3.000000e+001  1.360842e+001  3.562996e+000
      vertex -3.000000e+001  1.360842e+001  3.562996e+000
      vertex -3.000000e+001  1.214786e+001  4.941867e+000
    endloop
  endfacet
  facet normal  -0.000000e+000  6.864799e-001  7.271488e-001
    outer loop
      vertex  3.000000e+001  1.360842e+001  3.562996e+000
      vertex -3.000000e+001  1.214786e+001  4.941867e+000
      vertex  3.000000e+001  1.214786e+001  4.941867e+000
    endloop
  endfacet
  facet normal  0.000000e+000 -1.000000e+000  0.000000e+000
    outer loop
      vertex  3.000000e+001 -1.500000e+001  1.700000e+001
      vertex -3.000000e+001 -1.500000e+001  1.700000e+001
      vertex  3.000000e+001 -1.500000e+001  0.000000e+000
    endloop
  endfacet
  facet normal  0.000000e+000 -1.000000e+000  0.000000e+000
    outer loop
      vertex  3.000000e+001 -1.500000e+001  0.000000e+000
      vertex -3.000000e+001 -1.500000e+001  1.700000e+001
      vertex -3.000000e+001 -1.500000e+001  0.000000e+000
    endloop
  endfacet
  facet normal  0.000000e+000 -1.000000e+000  0.000000e+000
    outer loop
      vertex -3.000000e+001  4.200000e+000 -4.000000e+000
      vertex  3.000000e+001  4.200000e+000 -4.000000e+000
      vertex -3.000000e+001  4.200000e+000  0.000000e+000
    endloop
  endfacet
  facet normal  0.000000e+000 -1.000000e+000  0.000000e+000
    outer loop
      vertex -3.000000e+001  4.200000e+000  0.000000e+000
      vertex  3.000000e+001  4.200000e+000 -4.000000e+000
      vertex  3.000000e+001  4.200000e+000  0.000000e+000
    endloop
  endfacet
  facet normal  0.000000e+000  0.000000e+000 -1.000000e+000
    outer loop
      vertex -3.000000e+001 -1.500000e+001  0.000000e+000
      vertex -3.000000e+001  4.200000e+000  0.000000e+000
      vertex  3.000000e+001 -1.500000e+001  0.000000e+000
    endloop
  endfacet
  facet normal  0.000000e+000  0.000000e+000 -1.000000e+000
    outer loop
      vertex  3.000000e+001 -1.500000e+001  0.000000e+000
      vertex -3.000000e+001  4.200000e+000  0.000000e+000
      vertex  3.000000e+001  4.200000e+000  0.000000e+000
    endloop
  endfacet
endsolid CATIA STL
