solid CATIA STL
  facet normal  0.000000e+000  1.000000e+000  0.000000e+000
    outer loop
      vertex  2.571673e-016  7.500000e+000  1.100000e+000
      vertex  9.899495e-001  7.500000e+000  1.510051e+000
      vertex  2.250000e+000  7.500000e+000  0.000000e+000
    endloop
  endfacet
  facet normal  0.000000e+000  9.999999e-001  0.000000e+000
    outer loop
      vertex  9.899495e-001  7.500000e+000  1.510051e+000
      vertex  1.400000e+000  7.500000e+000  2.500000e+000
      vertex  2.250000e+000  7.500000e+000  0.000000e+000
    endloop
  endfacet
  facet normal  0.000000e+000  9.999999e-001  0.000000e+000
    outer loop
      vertex -2.250000e+000  7.500000e+000  0.000000e+000
      vertex -1.400000e+000  7.500000e+000  2.500000e+000
      vertex -9.899495e-001  7.500000e+000  1.510051e+000
    endloop
  endfacet
  facet normal  0.000000e+000  1.000000e+000  0.000000e+000
    outer loop
      vertex -2.250000e+000  7.500000e+000  0.000000e+000
      vertex -9.899495e-001  7.500000e+000  1.510051e+000
      vertex  2.571673e-016  7.500000e+000  1.100000e+000
    endloop
  endfacet
  facet normal  0.000000e+000  9.999999e-001  0.000000e+000
    outer loop
      vertex -2.250000e+000  7.500000e+000  0.000000e+000
      vertex  2.571673e-016  7.500000e+000  1.100000e+000
      vertex  2.250000e+000  7.500000e+000  0.000000e+000
    endloop
  endfacet
  facet normal  0.000000e+000  1.000000e+000  0.000000e+000
    outer loop
      vertex -2.250000e+000  7.500000e+000  5.000000e+000
      vertex  2.250000e+000  7.500000e+000  5.000000e+000
      vertex -8.572245e-017  7.500000e+000  3.900000e+000
    endloop
  endfacet
  facet normal  0.000000e+000  1.000000e+000  0.000000e+000
    outer loop
      vertex -2.250000e+000  7.500000e+000  5.000000e+000
      vertex -8.572245e-017  7.500000e+000  3.900000e+000
      vertex -9.899495e-001  7.500000e+000  3.489949e+000
    endloop
  endfacet
  facet normal  0.000000e+000  9.999999e-001  0.000000e+000
    outer loop
      vertex -2.250000e+000  7.500000e+000  5.000000e+000
      vertex -9.899495e-001  7.500000e+000  3.489949e+000
      vertex -1.400000e+000  7.500000e+000  2.500000e+000
    endloop
  endfacet
  facet normal  0.000000e+000  1.000000e+000  0.000000e+000
    outer loop
      vertex -2.250000e+000  7.500000e+000  5.000000e+000
      vertex -1.400000e+000  7.500000e+000  2.500000e+000
      vertex -2.250000e+000  7.500000e+000  0.000000e+000
    endloop
  endfacet
  facet normal  0.000000e+000  1.000000e+000  -0.000000e+000
    outer loop
      vertex  2.250000e+000  7.500000e+000  5.000000e+000
      vertex  2.250000e+000  7.500000e+000  0.000000e+000
      vertex  1.400000e+000  7.500000e+000  2.500000e+000
    endloop
  endfacet
  facet normal  0.000000e+000  9.999999e-001  -0.000000e+000
    outer loop
      vertex  2.250000e+000  7.500000e+000  5.000000e+000
      vertex  1.400000e+000  7.500000e+000  2.500000e+000
      vertex  9.899495e-001  7.500000e+000  3.489949e+000
    endloop
  endfacet
  facet normal  0.000000e+000  1.000000e+000  -0.000000e+000
    outer loop
      vertex  2.250000e+000  7.500000e+000  5.000000e+000
      vertex  9.899495e-001  7.500000e+000  3.489949e+000
      vertex -8.572245e-017  7.500000e+000  3.900000e+000
    endloop
  endfacet
  facet normal -9.238795e-001  -0.000000e+000 -3.826834e-001
    outer loop
      vertex -1.400000e+000  7.500000e+000  2.500000e+000
      vertex -1.400000e+000  1.250000e+001  2.500000e+000
      vertex -9.899495e-001  7.500000e+000  1.510051e+000
    endloop
  endfacet
  facet normal -9.238795e-001  0.000000e+000 -3.826834e-001
    outer loop
      vertex -9.899495e-001  7.500000e+000  1.510051e+000
      vertex -1.400000e+000  1.250000e+001  2.500000e+000
      vertex -9.899495e-001  1.250000e+001  1.510051e+000
    endloop
  endfacet
  facet normal -3.826834e-001  -0.000000e+000 -9.238795e-001
    outer loop
      vertex -9.899495e-001  7.500000e+000  1.510051e+000
      vertex -9.899495e-001  1.250000e+001  1.510051e+000
      vertex  2.571673e-016  7.500000e+000  1.100000e+000
    endloop
  endfacet
  facet normal -3.826834e-001  0.000000e+000 -9.238795e-001
    outer loop
      vertex  2.571673e-016  7.500000e+000  1.100000e+000
      vertex -9.899495e-001  1.250000e+001  1.510051e+000
      vertex  2.571673e-016  1.250000e+001  1.100000e+000
    endloop
  endfacet
  facet normal  3.826834e-001  0.000000e+000 -9.238795e-001
    outer loop
      vertex  2.571673e-016  7.500000e+000  1.100000e+000
      vertex  2.571673e-016  1.250000e+001  1.100000e+000
      vertex  9.899495e-001  7.500000e+000  1.510051e+000
    endloop
  endfacet
  facet normal  3.826834e-001  0.000000e+000 -9.238795e-001
    outer loop
      vertex  9.899495e-001  7.500000e+000  1.510051e+000
      vertex  2.571673e-016  1.250000e+001  1.100000e+000
      vertex  9.899495e-001  1.250000e+001  1.510051e+000
    endloop
  endfacet
  facet normal  9.238795e-001  0.000000e+000 -3.826834e-001
    outer loop
      vertex  9.899495e-001  7.500000e+000  1.510051e+000
      vertex  9.899495e-001  1.250000e+001  1.510051e+000
      vertex  1.400000e+000  7.500000e+000  2.500000e+000
    endloop
  endfacet
  facet normal  9.238795e-001  0.000000e+000 -3.826834e-001
    outer loop
      vertex  1.400000e+000  7.500000e+000  2.500000e+000
      vertex  9.899495e-001  1.250000e+001  1.510051e+000
      vertex  1.400000e+000  1.250000e+001  2.500000e+000
    endloop
  endfacet
  facet normal  9.238795e-001  0.000000e+000  3.826834e-001
    outer loop
      vertex  1.400000e+000  7.500000e+000  2.500000e+000
      vertex  1.400000e+000  1.250000e+001  2.500000e+000
      vertex  9.899495e-001  7.500000e+000  3.489949e+000
    endloop
  endfacet
  facet normal  9.238795e-001  -0.000000e+000  3.826834e-001
    outer loop
      vertex  9.899495e-001  7.500000e+000  3.489949e+000
      vertex  1.400000e+000  1.250000e+001  2.500000e+000
      vertex  9.899495e-001  1.250000e+001  3.489949e+000
    endloop
  endfacet
  facet normal  3.826835e-001  0.000000e+000  9.238795e-001
    outer loop
      vertex  9.899495e-001  7.500000e+000  3.489949e+000
      vertex  9.899495e-001  1.250000e+001  3.489949e+000
      vertex -8.572245e-017  7.500000e+000  3.900000e+000
    endloop
  endfacet
  facet normal  3.826835e-001  -0.000000e+000  9.238795e-001
    outer loop
      vertex -8.572245e-017  7.500000e+000  3.900000e+000
      vertex  9.899495e-001  1.250000e+001  3.489949e+000
      vertex -8.572245e-017  1.250000e+001  3.900000e+000
    endloop
  endfacet
  facet normal -3.826835e-001  0.000000e+000  9.238795e-001
    outer loop
      vertex -8.572245e-017  7.500000e+000  3.900000e+000
      vertex -8.572245e-017  1.250000e+001  3.900000e+000
      vertex -9.899495e-001  7.500000e+000  3.489949e+000
    endloop
  endfacet
  facet normal -3.826835e-001  0.000000e+000  9.238795e-001
    outer loop
      vertex -9.899495e-001  7.500000e+000  3.489949e+000
      vertex -8.572245e-017  1.250000e+001  3.900000e+000
      vertex -9.899495e-001  1.250000e+001  3.489949e+000
    endloop
  endfacet
  facet normal -9.238795e-001  0.000000e+000  3.826834e-001
    outer loop
      vertex -9.899495e-001  7.500000e+000  3.489949e+000
      vertex -9.899495e-001  1.250000e+001  3.489949e+000
      vertex -1.400000e+000  7.500000e+000  2.500000e+000
    endloop
  endfacet
  facet normal -9.238795e-001  0.000000e+000  3.826834e-001
    outer loop
      vertex -1.400000e+000  7.500000e+000  2.500000e+000
      vertex -9.899495e-001  1.250000e+001  3.489949e+000
      vertex -1.400000e+000  1.250000e+001  2.500000e+000
    endloop
  endfacet
  facet normal  0.000000e+000  9.999999e-001  0.000000e+000
    outer loop
      vertex  9.899495e-001  1.250000e+001  3.489949e+000
      vertex -9.899495e-001  1.250000e+001  3.489949e+000
      vertex -8.572245e-017  1.250000e+001  3.900000e+000
    endloop
  endfacet
  facet normal  0.000000e+000  9.999999e-001  0.000000e+000
    outer loop
      vertex -9.899495e-001  1.250000e+001  3.489949e+000
      vertex  9.899495e-001  1.250000e+001  3.489949e+000
      vertex -1.400000e+000  1.250000e+001  2.500000e+000
    endloop
  endfacet
  facet normal  0.000000e+000  1.000000e+000  0.000000e+000
    outer loop
      vertex -1.400000e+000  1.250000e+001  2.500000e+000
      vertex  9.899495e-001  1.250000e+001  3.489949e+000
      vertex  1.400000e+000  1.250000e+001  2.500000e+000
    endloop
  endfacet
  facet normal  0.000000e+000  1.000000e+000  0.000000e+000
    outer loop
      vertex -1.400000e+000  1.250000e+001  2.500000e+000
      vertex  1.400000e+000  1.250000e+001  2.500000e+000
      vertex -9.899495e-001  1.250000e+001  1.510051e+000
    endloop
  endfacet
  facet normal  0.000000e+000  9.999999e-001  0.000000e+000
    outer loop
      vertex -9.899495e-001  1.250000e+001  1.510051e+000
      vertex  1.400000e+000  1.250000e+001  2.500000e+000
      vertex  9.899495e-001  1.250000e+001  1.510051e+000
    endloop
  endfacet
  facet normal  0.000000e+000  9.999999e-001  0.000000e+000
    outer loop
      vertex -9.899495e-001  1.250000e+001  1.510051e+000
      vertex  9.899495e-001  1.250000e+001  1.510051e+000
      vertex  2.571673e-016  1.250000e+001  1.100000e+000
    endloop
  endfacet
  facet normal  0.000000e+000 -1.000000e+000  -0.000000e+000
    outer loop
      vertex  2.250000e+000 -7.500000e+000  2.000000e+000
      vertex  2.250000e+000 -7.500000e+000  3.000000e+000
      vertex -2.250000e+000 -7.500000e+000  2.000000e+000
    endloop
  endfacet
  facet normal  0.000000e+000 -1.000000e+000  0.000000e+000
    outer loop
      vertex -2.250000e+000 -7.500000e+000  2.000000e+000
      vertex  2.250000e+000 -7.500000e+000  3.000000e+000
      vertex -2.250000e+000 -7.500000e+000  3.000000e+000
    endloop
  endfacet
  facet normal -1.000000e+000  0.000000e+000  0.000000e+000
    outer loop
      vertex -2.250000e+000 -4.816374e+000  3.219138e+000
      vertex -2.250000e+000 -5.500000e+000  5.000000e+000
      vertex -2.250000e+000 -3.922309e+000  3.939324e+000
    endloop
  endfacet
  facet normal -1.000000e+000  0.000000e+000  0.000000e+000
    outer loop
      vertex -2.250000e+000 -5.500000e+000  0.000000e+000
      vertex -2.250000e+000 -6.914214e+000  5.857865e-001
      vertex -2.250000e+000 -4.939324e+000  2.077691e+000
    endloop
  endfacet
  facet normal -1.000000e+000  0.000000e+000  -0.000000e+000
    outer loop
      vertex -2.250000e+000 -5.500000e+000  0.000000e+000
      vertex -2.250000e+000 -4.939324e+000  2.077691e+000
      vertex -2.250000e+000 -4.219138e+000  1.183626e+000
    endloop
  endfacet
  facet normal -1.000000e+000  0.000000e+000  -0.000000e+000
    outer loop
      vertex -2.250000e+000 -5.500000e+000  0.000000e+000
      vertex -2.250000e+000 -4.219138e+000  1.183626e+000
      vertex -2.250000e+000 -3.077691e+000  1.060676e+000
    endloop
  endfacet
  facet normal -1.000000e+000  0.000000e+000  0.000000e+000
    outer loop
      vertex -2.250000e+000  7.500000e+000  0.000000e+000
      vertex -2.250000e+000 -5.500000e+000  0.000000e+000
      vertex -2.250000e+000 -3.077691e+000  1.060676e+000
    endloop
  endfacet
  facet normal -1.000000e+000  0.000000e+000  0.000000e+000
    outer loop
      vertex -2.250000e+000  7.500000e+000  0.000000e+000
      vertex -2.250000e+000 -3.077691e+000  1.060676e+000
      vertex -2.250000e+000 -2.183626e+000  1.780862e+000
    endloop
  endfacet
  facet normal -1.000000e+000  0.000000e+000  0.000000e+000
    outer loop
      vertex -2.250000e+000  7.500000e+000  0.000000e+000
      vertex -2.250000e+000 -2.183626e+000  1.780862e+000
      vertex -2.250000e+000 -2.060676e+000  2.922309e+000
    endloop
  endfacet
  facet normal -1.000000e+000  0.000000e+000  0.000000e+000
    outer loop
      vertex -2.250000e+000  7.500000e+000  5.000000e+000
      vertex -2.250000e+000  7.500000e+000  0.000000e+000
      vertex -2.250000e+000 -2.060676e+000  2.922309e+000
    endloop
  endfacet
  facet normal -1.000000e+000  0.000000e+000  0.000000e+000
    outer loop
      vertex -2.250000e+000  7.500000e+000  5.000000e+000
      vertex -2.250000e+000 -2.060676e+000  2.922309e+000
      vertex -2.250000e+000 -2.780862e+000  3.816374e+000
    endloop
  endfacet
  facet normal -1.000000e+000  0.000000e+000  0.000000e+000
    outer loop
      vertex -2.250000e+000  7.500000e+000  5.000000e+000
      vertex -2.250000e+000 -2.780862e+000  3.816374e+000
      vertex -2.250000e+000 -3.922309e+000  3.939324e+000
    endloop
  endfacet
  facet normal -1.000000e+000  0.000000e+000  0.000000e+000
    outer loop
      vertex -2.250000e+000  7.500000e+000  5.000000e+000
      vertex -2.250000e+000 -3.922309e+000  3.939324e+000
      vertex -2.250000e+000 -5.500000e+000  5.000000e+000
    endloop
  endfacet
  facet normal -1.000000e+000  0.000000e+000  0.000000e+000
    outer loop
      vertex -2.250000e+000 -6.914214e+000  4.414214e+000
      vertex -2.250000e+000 -5.500000e+000  5.000000e+000
      vertex -2.250000e+000 -7.500000e+000  3.000000e+000
    endloop
  endfacet
  facet normal -1.000000e+000  0.000000e+000  0.000000e+000
    outer loop
      vertex -2.250000e+000 -7.500000e+000  3.000000e+000
      vertex -2.250000e+000 -5.500000e+000  5.000000e+000
      vertex -2.250000e+000 -4.816374e+000  3.219138e+000
    endloop
  endfacet
  facet normal -1.000000e+000  0.000000e+000  0.000000e+000
    outer loop
      vertex -2.250000e+000 -7.500000e+000  3.000000e+000
      vertex -2.250000e+000 -4.816374e+000  3.219138e+000
      vertex -2.250000e+000 -7.500000e+000  2.000000e+000
    endloop
  endfacet
  facet normal -1.000000e+000  0.000000e+000  0.000000e+000
    outer loop
      vertex -2.250000e+000 -7.500000e+000  2.000000e+000
      vertex -2.250000e+000 -4.816374e+000  3.219138e+000
      vertex -2.250000e+000 -4.939324e+000  2.077691e+000
    endloop
  endfacet
  facet normal -1.000000e+000  0.000000e+000  0.000000e+000
    outer loop
      vertex -2.250000e+000 -7.500000e+000  2.000000e+000
      vertex -2.250000e+000 -4.939324e+000  2.077691e+000
      vertex -2.250000e+000 -6.914214e+000  5.857865e-001
    endloop
  endfacet
  facet normal  1.000000e+000  0.000000e+000  0.000000e+000
    outer loop
      vertex  2.250000e+000 -7.500000e+000  3.000000e+000
      vertex  2.250000e+000 -7.500000e+000  2.000000e+000
      vertex  2.250000e+000 -4.939324e+000  2.077691e+000
    endloop
  endfacet
  facet normal  1.000000e+000  0.000000e+000  -0.000000e+000
    outer loop
      vertex  2.250000e+000 -7.500000e+000  3.000000e+000
      vertex  2.250000e+000 -4.939324e+000  2.077691e+000
      vertex  2.250000e+000 -4.816374e+000  3.219138e+000
    endloop
  endfacet
  facet normal  1.000000e+000  0.000000e+000  0.000000e+000
    outer loop
      vertex  2.250000e+000 -7.500000e+000  3.000000e+000
      vertex  2.250000e+000 -4.816374e+000  3.219138e+000
      vertex  2.250000e+000 -5.500000e+000  5.000000e+000
    endloop
  endfacet
  facet normal  1.000000e+000  0.000000e+000  0.000000e+000
    outer loop
      vertex  2.250000e+000 -7.500000e+000  3.000000e+000
      vertex  2.250000e+000 -5.500000e+000  5.000000e+000
      vertex  2.250000e+000 -6.914214e+000  4.414214e+000
    endloop
  endfacet
  facet normal  1.000000e+000  0.000000e+000  -0.000000e+000
    outer loop
      vertex  2.250000e+000 -5.500000e+000  5.000000e+000
      vertex  2.250000e+000 -4.816374e+000  3.219138e+000
      vertex  2.250000e+000 -3.922309e+000  3.939324e+000
    endloop
  endfacet
  facet normal  1.000000e+000  -0.000000e+000  -0.000000e+000
    outer loop
      vertex  2.250000e+000 -5.500000e+000  5.000000e+000
      vertex  2.250000e+000 -3.922309e+000  3.939324e+000
      vertex  2.250000e+000 -2.780862e+000  3.816374e+000
    endloop
  endfacet
  facet normal  9.999999e-001  -0.000000e+000  -0.000000e+000
    outer loop
      vertex  2.250000e+000 -5.500000e+000  5.000000e+000
      vertex  2.250000e+000 -2.780862e+000  3.816374e+000
      vertex  2.250000e+000  7.500000e+000  0.000000e+000
    endloop
  endfacet
  facet normal  1.000000e+000  0.000000e+000  -0.000000e+000
    outer loop
      vertex  2.250000e+000 -5.500000e+000  5.000000e+000
      vertex  2.250000e+000  7.500000e+000  0.000000e+000
      vertex  2.250000e+000  7.500000e+000  5.000000e+000
    endloop
  endfacet
  facet normal  9.999999e-001  0.000000e+000  0.000000e+000
    outer loop
      vertex  2.250000e+000  7.500000e+000  0.000000e+000
      vertex  2.250000e+000 -2.780862e+000  3.816374e+000
      vertex  2.250000e+000 -2.060676e+000  2.922309e+000
    endloop
  endfacet
  facet normal  1.000000e+000  0.000000e+000  0.000000e+000
    outer loop
      vertex  2.250000e+000  7.500000e+000  0.000000e+000
      vertex  2.250000e+000 -2.060676e+000  2.922309e+000
      vertex  2.250000e+000 -2.183626e+000  1.780862e+000
    endloop
  endfacet
  facet normal  1.000000e+000  0.000000e+000  0.000000e+000
    outer loop
      vertex  2.250000e+000  7.500000e+000  0.000000e+000
      vertex  2.250000e+000 -2.183626e+000  1.780862e+000
      vertex  2.250000e+000 -3.077691e+000  1.060676e+000
    endloop
  endfacet
  facet normal  1.000000e+000  0.000000e+000  0.000000e+000
    outer loop
      vertex  2.250000e+000 -5.500000e+000  0.000000e+000
      vertex  2.250000e+000  7.500000e+000  0.000000e+000
      vertex  2.250000e+000 -3.077691e+000  1.060676e+000
    endloop
  endfacet
  facet normal  1.000000e+000  0.000000e+000  0.000000e+000
    outer loop
      vertex  2.250000e+000 -5.500000e+000  0.000000e+000
      vertex  2.250000e+000 -3.077691e+000  1.060676e+000
      vertex  2.250000e+000 -4.219138e+000  1.183626e+000
    endloop
  endfacet
  facet normal  1.000000e+000  0.000000e+000  0.000000e+000
    outer loop
      vertex  2.250000e+000 -5.500000e+000  0.000000e+000
      vertex  2.250000e+000 -4.219138e+000  1.183626e+000
      vertex  2.250000e+000 -4.939324e+000  2.077691e+000
    endloop
  endfacet
  facet normal  1.000000e+000  0.000000e+000  0.000000e+000
    outer loop
      vertex  2.250000e+000 -5.500000e+000  0.000000e+000
      vertex  2.250000e+000 -4.939324e+000  2.077691e+000
      vertex  2.250000e+000 -7.500000e+000  2.000000e+000
    endloop
  endfacet
  facet normal  1.000000e+000  0.000000e+000  0.000000e+000
    outer loop
      vertex  2.250000e+000 -5.500000e+000  0.000000e+000
      vertex  2.250000e+000 -7.500000e+000  2.000000e+000
      vertex  2.250000e+000 -6.914214e+000  5.857865e-001
    endloop
  endfacet
  facet normal  0.000000e+000  0.000000e+000  1.000000e+000
    outer loop
      vertex -2.250000e+000 -5.500000e+000  5.000000e+000
      vertex  2.250000e+000 -5.500000e+000  5.000000e+000
      vertex -2.250000e+000  7.500000e+000  5.000000e+000
    endloop
  endfacet
  facet normal  -0.000000e+000  0.000000e+000  1.000000e+000
    outer loop
      vertex -2.250000e+000  7.500000e+000  5.000000e+000
      vertex  2.250000e+000 -5.500000e+000  5.000000e+000
      vertex  2.250000e+000  7.500000e+000  5.000000e+000
    endloop
  endfacet
  facet normal  0.000000e+000 -3.826833e-001  9.238795e-001
    outer loop
      vertex  2.250000e+000 -5.500000e+000  5.000000e+000
      vertex -2.250000e+000 -5.500000e+000  5.000000e+000
      vertex  2.250000e+000 -6.914214e+000  4.414214e+000
    endloop
  endfacet
  facet normal  0.000000e+000 -3.826833e-001  9.238795e-001
    outer loop
      vertex  2.250000e+000 -6.914214e+000  4.414214e+000
      vertex -2.250000e+000 -5.500000e+000  5.000000e+000
      vertex -2.250000e+000 -6.914214e+000  4.414214e+000
    endloop
  endfacet
  facet normal  0.000000e+000 -9.238795e-001  3.826833e-001
    outer loop
      vertex  2.250000e+000 -6.914214e+000  4.414214e+000
      vertex -2.250000e+000 -6.914214e+000  4.414214e+000
      vertex  2.250000e+000 -7.500000e+000  3.000000e+000
    endloop
  endfacet
  facet normal  0.000000e+000 -9.238795e-001  3.826833e-001
    outer loop
      vertex  2.250000e+000 -7.500000e+000  3.000000e+000
      vertex -2.250000e+000 -6.914214e+000  4.414214e+000
      vertex -2.250000e+000 -7.500000e+000  3.000000e+000
    endloop
  endfacet
  facet normal  0.000000e+000  0.000000e+000 -1.000000e+000
    outer loop
      vertex -2.250000e+000 -5.500000e+000  0.000000e+000
      vertex -2.250000e+000  7.500000e+000  0.000000e+000
      vertex  2.250000e+000 -5.500000e+000  0.000000e+000
    endloop
  endfacet
  facet normal  0.000000e+000  0.000000e+000 -1.000000e+000
    outer loop
      vertex  2.250000e+000 -5.500000e+000  0.000000e+000
      vertex -2.250000e+000  7.500000e+000  0.000000e+000
      vertex  2.250000e+000  7.500000e+000  0.000000e+000
    endloop
  endfacet
  facet normal  0.000000e+000 -9.238795e-001 -3.826834e-001
    outer loop
      vertex  2.250000e+000 -7.500000e+000  2.000000e+000
      vertex -2.250000e+000 -7.500000e+000  2.000000e+000
      vertex  2.250000e+000 -6.914214e+000  5.857865e-001
    endloop
  endfacet
  facet normal  -0.000000e+000 -9.238795e-001 -3.826834e-001
    outer loop
      vertex  2.250000e+000 -6.914214e+000  5.857865e-001
      vertex -2.250000e+000 -7.500000e+000  2.000000e+000
      vertex -2.250000e+000 -6.914214e+000  5.857865e-001
    endloop
  endfacet
  facet normal  0.000000e+000 -3.826834e-001 -9.238795e-001
    outer loop
      vertex  2.250000e+000 -6.914214e+000  5.857865e-001
      vertex -2.250000e+000 -6.914214e+000  5.857865e-001
      vertex  2.250000e+000 -5.500000e+000  0.000000e+000
    endloop
  endfacet
  facet normal  -0.000000e+000 -3.826834e-001 -9.238795e-001
    outer loop
      vertex  2.250000e+000 -5.500000e+000  0.000000e+000
      vertex -2.250000e+000 -6.914214e+000  5.857865e-001
      vertex -2.250000e+000 -5.500000e+000  0.000000e+000
    endloop
  endfacet
  facet normal  -0.000000e+000  7.787677e-001  6.273125e-001
    outer loop
      vertex  2.250000e+000 -4.219138e+000  1.183626e+000
      vertex -2.250000e+000 -4.939324e+000  2.077691e+000
      vertex  2.250000e+000 -4.939324e+000  2.077691e+000
    endloop
  endfacet
  facet normal  0.000000e+000  9.942487e-001 -1.070951e-001
    outer loop
      vertex  2.250000e+000 -4.939324e+000  2.077691e+000
      vertex -2.250000e+000 -4.939324e+000  2.077691e+000
      vertex -2.250000e+000 -4.816374e+000  3.219138e+000
    endloop
  endfacet
  facet normal  0.000000e+000  9.942487e-001 -1.070951e-001
    outer loop
      vertex  2.250000e+000 -4.939324e+000  2.077691e+000
      vertex -2.250000e+000 -4.816374e+000  3.219138e+000
      vertex  2.250000e+000 -4.816374e+000  3.219138e+000
    endloop
  endfacet
  facet normal  0.000000e+000  7.787677e-001  6.273125e-001
    outer loop
      vertex -2.250000e+000 -4.939324e+000  2.077691e+000
      vertex  2.250000e+000 -4.219138e+000  1.183626e+000
      vertex -2.250000e+000 -4.219138e+000  1.183626e+000
    endloop
  endfacet
  facet normal  -0.000000e+000  1.070952e-001  9.942488e-001
    outer loop
      vertex -2.250000e+000 -4.219138e+000  1.183626e+000
      vertex  2.250000e+000 -4.219138e+000  1.183626e+000
      vertex  2.250000e+000 -3.077691e+000  1.060676e+000
    endloop
  endfacet
  facet normal  0.000000e+000  1.070952e-001  9.942488e-001
    outer loop
      vertex -2.250000e+000 -4.219138e+000  1.183626e+000
      vertex  2.250000e+000 -3.077691e+000  1.060676e+000
      vertex -2.250000e+000 -3.077691e+000  1.060676e+000
    endloop
  endfacet
  facet normal  0.000000e+000 -6.273125e-001  7.787677e-001
    outer loop
      vertex -2.250000e+000 -3.077691e+000  1.060676e+000
      vertex  2.250000e+000 -3.077691e+000  1.060676e+000
      vertex  2.250000e+000 -2.183626e+000  1.780862e+000
    endloop
  endfacet
  facet normal  0.000000e+000 -6.273125e-001  7.787677e-001
    outer loop
      vertex -2.250000e+000 -3.077691e+000  1.060676e+000
      vertex  2.250000e+000 -2.183626e+000  1.780862e+000
      vertex -2.250000e+000 -2.183626e+000  1.780862e+000
    endloop
  endfacet
  facet normal  0.000000e+000 -7.787678e-001 -6.273124e-001
    outer loop
      vertex  2.250000e+000 -2.780862e+000  3.816374e+000
      vertex -2.250000e+000 -2.060676e+000  2.922309e+000
      vertex  2.250000e+000 -2.060676e+000  2.922309e+000
    endloop
  endfacet
  facet normal  0.000000e+000 -9.942487e-001  1.070951e-001
    outer loop
      vertex  2.250000e+000 -2.060676e+000  2.922309e+000
      vertex -2.250000e+000 -2.060676e+000  2.922309e+000
      vertex -2.250000e+000 -2.183626e+000  1.780862e+000
    endloop
  endfacet
  facet normal  0.000000e+000 -9.942487e-001  1.070951e-001
    outer loop
      vertex  2.250000e+000 -2.060676e+000  2.922309e+000
      vertex -2.250000e+000 -2.183626e+000  1.780862e+000
      vertex  2.250000e+000 -2.183626e+000  1.780862e+000
    endloop
  endfacet
  facet normal  -0.000000e+000 -7.787678e-001 -6.273124e-001
    outer loop
      vertex -2.250000e+000 -2.060676e+000  2.922309e+000
      vertex  2.250000e+000 -2.780862e+000  3.816374e+000
      vertex -2.250000e+000 -2.780862e+000  3.816374e+000
    endloop
  endfacet
  facet normal  0.000000e+000 -1.070951e-001 -9.942487e-001
    outer loop
      vertex -2.250000e+000 -2.780862e+000  3.816374e+000
      vertex  2.250000e+000 -2.780862e+000  3.816374e+000
      vertex  2.250000e+000 -3.922309e+000  3.939324e+000
    endloop
  endfacet
  facet normal  -0.000000e+000 -1.070951e-001 -9.942487e-001
    outer loop
      vertex -2.250000e+000 -2.780862e+000  3.816374e+000
      vertex  2.250000e+000 -3.922309e+000  3.939324e+000
      vertex -2.250000e+000 -3.922309e+000  3.939324e+000
    endloop
  endfacet
  facet normal  0.000000e+000  6.273124e-001 -7.787678e-001
    outer loop
      vertex -2.250000e+000 -3.922309e+000  3.939324e+000
      vertex  2.250000e+000 -3.922309e+000  3.939324e+000
      vertex  2.250000e+000 -4.816374e+000  3.219138e+000
    endloop
  endfacet
  facet normal  0.000000e+000  6.273124e-001 -7.787678e-001
    outer loop
      vertex -2.250000e+000 -3.922309e+000  3.939324e+000
      vertex  2.250000e+000 -4.816374e+000  3.219138e+000
      vertex -2.250000e+000 -4.816374e+000  3.219138e+000
    endloop
  endfacet
endsolid CATIA STL
